<svg width="17" height="16" viewBox="0 0 17 16" fill="none" xmlns="http://www.w3.org/2000/svg"><path d="M4.157 2.213c1.336-.864 2.983-1.204 4.555-1.017 1.715.216 3.359 1.078 4.456 2.431.984 1.183 1.58 2.712 1.554 4.262-.02.485.06.985-.094 1.455-.282.939-1.157 1.671-2.133 1.755a2.587 2.587 0 01-2.306-1.019c-.595.544-1.334 1.014-2.164 1.021-1.062.067-2.16-.443-2.746-1.346-.805-1.14-.685-2.825.256-3.851 1.058-1.213 3.075-1.357 4.308-.335.876.68 1.25 1.852 1.149 2.935-.094.774.629 1.441 1.378 1.364.562-.089 1.103-.554 1.116-1.155.047-.873-.01-1.768-.315-2.594a5.56 5.56 0 00-2.76-3.132c-1.576-.806-3.523-.781-5.107-.007a5.44 5.44 0 00-2.663 2.926 5.715 5.715 0 00-.192 3.612c.528 1.88 2.1 3.426 3.986 3.894 1.642.44 3.469.061 4.821-.968.247-.209.634-.185.868.031.247.236.225.689-.038.905-.837.701-1.873 1.135-2.937 1.343-1.818.374-3.77-.078-5.28-1.151-1.043-.724-1.85-1.767-2.352-2.933-.706-1.717-.693-3.729.062-5.428a6.822 6.822 0 012.578-2.998zm3.31 3.95c-.882.156-1.561 1.037-1.463 1.94-.011 1.072 1.084 1.92 2.114 1.743.942-.083 1.71-.995 1.618-1.946 0-1.132-1.187-2.017-2.268-1.737z" fill="#E01D2F"/></svg>