<svg width="50" height="50" viewBox="0 0 50 50" fill="none" xmlns="http://www.w3.org/2000/svg"><path d="M7.294.458c.396-.262.882-.35 1.35-.304C16.032.161 23.422.153 30.81.158c.13-.01.222.09.303.176 4.19 4.713 8.378 9.427 12.57 14.14.107.13.056.313.069.468-.005 10.905.002 21.811-.003 32.716.005 1.198-1.032 2.273-2.222 2.342H8.382c-.88-.114-1.676-.727-1.986-1.562-.15-.371-.154-.778-.146-1.172V2.391A2.273 2.273 0 017.294.458zm.688 1.37c-.13.156-.174.364-.17.563.002 15.09 0 30.179.002 45.269-.014.478.417.888.876.934h32.667c.212.005.436-.045.594-.196.181-.16.245-.41.237-.643-.002-10.659.002-21.317-.002-31.976-3.368.007-6.737 0-10.105.003-.603.016-1.15-.333-1.541-.766-.518-.579-.86-1.34-.852-2.125V1.562c-7.032.002-14.065 0-21.097.001a.77.77 0 00-.61.265zm23.273.995c-.012 3.356 0 6.713-.005 10.07-.013.313.128.61.317.852.126.157.292.325.51.317 3.052-.001 6.105.005 9.157-.003-.284-.354-.601-.68-.897-1.025-3.028-3.403-6.05-6.812-9.082-10.211z" fill="#E01D2F"/><path d="M14.618 14.09c.17-.04.346-.026.519-.028h8.74c.258.004.539-.032.77.109.462.266.474 1.036.03 1.325a.875.875 0 01-.506.13c-3.11-.002-6.22 0-9.33-.002-.289.007-.59-.147-.704-.42-.2-.416-.004-1.018.481-1.115zm0 6.25c.09-.022.182-.027.274-.028h20.217c.21-.006.431.046.59.192.357.329.315 1.012-.115 1.261-.231.141-.511.106-.77.11H15.187c-.28-.002-.593.034-.83-.148-.484-.35-.352-1.265.262-1.388zm0 6.25c.09-.022.181-.026.274-.027h20.267c.276-.005.564.132.688.386.156.314.117.74-.15.984-.157.147-.378.198-.588.193H14.89c-.22.005-.454-.054-.614-.216-.391-.39-.236-1.204.34-1.32zm0 6.25c.089-.022.182-.026.274-.027h19.971c.253 0 .532-.025.752.128.366.24.418.797.174 1.141-.152.215-.426.302-.68.294H14.89c-.278.012-.579-.101-.719-.354-.251-.417-.066-1.078.447-1.182zm0 6.25c.09-.022.181-.027.273-.028 6.757.002 13.512 0 20.268.002.327-.013.659.195.742.52.094.322.01.724-.286.913-.22.152-.498.128-.751.129H15.185c-.28-.002-.592.033-.83-.149-.484-.35-.351-1.265.263-1.388z" fill="#E01D2F"/></svg>