<svg width="16" height="16" viewBox="0 0 16 16" fill="none" xmlns="http://www.w3.org/2000/svg"><path d="M7.592.939a6.182 6.182 0 014.293 1.201 6.261 6.261 0 011.317 8.658c-.376.542-.864.987-1.33 1.447-.816.782-1.607 1.589-2.423 2.368-.703.652-1.878.621-2.563-.04-.98-.982-1.995-1.927-2.96-2.923a6.205 6.205 0 01-1.89-3.856 6.265 6.265 0 011.489-4.745A6.191 6.191 0 017.592.939zm-.115 1.282a4.882 4.882 0 00-2.306.987c-1.269.966-2.001 2.59-1.91 4.186.041.986.398 1.95.983 2.738.502.659 1.15 1.181 1.723 1.772.573.589 1.171 1.151 1.76 1.724.237.276.694.262.937.002 1.105-1.091 2.236-2.156 3.303-3.283a5.009 5.009 0 001.145-3.652 4.986 4.986 0 00-1.945-3.523 4.928 4.928 0 00-3.69-.951z" fill="#E01D2F"/><path d="M7.489 4.448c1.316-.384 2.824.397 3.285 1.693.583 1.402-.233 3.159-1.665 3.625-1.359.518-3.01-.256-3.5-1.628-.616-1.477.33-3.333 1.88-3.69zm.4 1.199c-.738.138-1.295.891-1.201 1.643.055.85.928 1.52 1.758 1.349.787-.115 1.377-.926 1.245-1.716-.097-.841-.98-1.469-1.803-1.276z" fill="#E01D2F"/></svg>