<svg width="32" height="32" viewBox="0 0 32 32" fill="none" xmlns="http://www.w3.org/2000/svg"><g clip-path="url(#clip0_59_2136)"><path fill-rule="evenodd" clip-rule="evenodd" d="M0 16c0-.295.12-.577.335-.786a1.16 1.16 0 01.808-.325h26.954l-7.193-6.99a1.112 1.112 0 01-.335-.787 1.086 1.086 0 01.335-.786A1.148 1.148 0 0121.713 6a1.173 1.173 0 01.809.326l9.142 8.887A1.11 1.11 0 0132 16a1.085 1.085 0 01-.336.787l-9.142 8.887a1.147 1.147 0 01-.81.326 1.173 1.173 0 01-.808-.326 1.111 1.111 0 01-.335-.786 1.085 1.085 0 01.335-.787l7.192-6.99H1.143a1.16 1.16 0 01-.808-.325A1.096 1.096 0 010 16z" fill="#E01D2F"/></g><defs><clipPath id="clip0_59_2136"><path fill="#fff" d="M0 0h32v32H0z"/></clipPath></defs></svg>