<svg width="17" height="16" viewBox="0 0 17 16" fill="none" xmlns="http://www.w3.org/2000/svg"><path d="M2.71 1.295c.547-.2 1.15-.297 1.731-.192.275.044.53.229.623.489.45 1.152.91 2.301 1.363 3.452.13.284.006.596-.157.839-.272.401-.6.761-.94 1.11a19.03 19.03 0 003.56 3.58c.518-.433.984-1.085 1.713-1.145 1.014.327 1.984.783 2.982 1.157.396.192.955.246 1.122.712.189.587.073 1.224-.1 1.801-.219.745-.894 1.254-1.591 1.559-1.047.433-2.242.319-3.299-.023-1.472-.479-2.778-1.34-3.948-2.317-1.832-1.572-3.418-3.49-4.305-5.725C.999 5.379.776 3.98 1.312 2.753c.28-.614.724-1.223 1.397-1.458zm.226 1.228c-.379.342-.601.833-.68 1.325-.138 1.003.177 2.003.6 2.906 1.007 2.073 2.598 3.849 4.455 5.241 1.1.789 2.321 1.501 3.691 1.704.835.135 1.8-.061 2.342-.738.193-.323.21-.708.25-1.071-1-.415-2.012-.802-3.015-1.209-.37.304-.716.632-1.056.966-.26.251-.666.178-.966.043-.63-.281-1.141-.75-1.654-1.193-.913-.88-1.851-1.762-2.523-2.839-.218-.369-.435-.869-.154-1.261.322-.374.705-.696.998-1.095-.399-1.01-.813-2.015-1.19-3.033-.377.001-.778.046-1.098.254z" fill="#E01D2F"/></svg>