<svg width="32" height="32" viewBox="0 0 32 32" fill="none" xmlns="http://www.w3.org/2000/svg"><g clip-path="url(#clip0_59_2139)"><path fill-rule="evenodd" clip-rule="evenodd" d="M32 16c0 .295-.12.577-.335.786a1.16 1.16 0 01-.808.325H3.904l7.192 6.99a1.111 1.111 0 01.335.787 1.085 1.085 0 01-.335.786 1.147 1.147 0 01-.809.326 1.173 1.173 0 01-.809-.326L.336 16.787A1.11 1.11 0 010 16a1.084 1.084 0 01.336-.787l9.142-8.887a1.147 1.147 0 01.81-.326 1.173 1.173 0 01.808.326 1.111 1.111 0 01.335.786 1.086 1.086 0 01-.335.787l-7.192 6.99h26.953c.303 0 .594.117.808.325.215.209.335.491.335.786z" fill="#E01D2F"/></g><defs><clipPath id="clip0_59_2139"><path fill="#fff" transform="rotate(-180 16 16)" d="M0 0h32v32H0z"/></clipPath></defs></svg>