<svg width="17" height="16" viewBox="0 0 17 16" fill="none" xmlns="http://www.w3.org/2000/svg"><path d="M7.34 1.045a6.913 6.913 0 014.436 1.14c1.369.919 2.41 2.334 2.842 3.936a7.003 7.003 0 01-.495 5.034 6.969 6.969 0 01-3.647 3.343 6.934 6.934 0 01-4.633.157c-1.777-.55-3.292-1.871-4.116-3.544a7.029 7.029 0 01-.587-4.504 6.969 6.969 0 012.127-3.769A6.935 6.935 0 017.34 1.045zm.097 1.296a5.64 5.64 0 00-4.061 2.313 5.674 5.674 0 00-1.039 4.051c.184 1.514 1.002 2.947 2.228 3.85 1.415 1.09 3.363 1.404 5.057.868a5.67 5.67 0 003.4-2.962 5.69 5.69 0 00.452-3.575 5.682 5.682 0 00-2.45-3.64 5.617 5.617 0 00-3.587-.905z" fill="#E01D2F"/><path d="M7.766 3.567c.388-.136.839.216.81.627.004 1.178.002 2.357 0 3.536.77.788 1.553 1.565 2.329 2.348a.63.63 0 01.15.703c-.107.326-.518.497-.827.362-.153-.06-.268-.182-.386-.293-.743-.754-1.491-1.504-2.239-2.255-.184-.18-.344-.412-.317-.684 0-1.205-.002-2.411 0-3.616-.027-.317.157-.654.48-.728z" fill="#E01D2F"/></svg>