<svg width="50" height="50" viewBox="0 0 50 50" fill="none" xmlns="http://www.w3.org/2000/svg"><path d="M26.231 12.21c2.06-2.158 5.258-3.138 8.177-2.535 1.586.28 3.07 1.043 4.276 2.103 2.334 2.032 3.497 5.335 2.91 8.38a9.044 9.044 0 01-2.983 5.246 9.005 9.005 0 01-6.466 2.192c-.975-.028-1.91-.313-2.846-.558-.725.617-1.27 1.504-2.215 1.807-.676-.618-1.228-1.397-2.028-1.862-.782.183-1.224 1.003-1.815 1.506l.008.546c.144.212.294.42.418.648.083.471-.363.75-.63 1.06-.52.495-.986 1.06-1.578 1.472-.585.156-1.103-.809-1.651-.279-.339.317-.885.646-.818 1.178.118.323.355.585.54.873-.388.828-1.165 1.358-1.77 2.016-.646.609-1.214 1.305-1.917 1.851-.588.19-1.163-.808-1.733-.246-.88.526-.548 1.624-.758 2.46-.067.054-.2.161-.268.214-.996.122-2.011.26-3.016.207-.623-.416-1.127-.993-1.608-1.563-.376-.434-.197-1.092.217-1.433 4.742-4.732 9.477-9.475 14.215-14.209.434-.442.938-.832 1.262-1.366-.048-.61-.288-1.181-.393-1.778-.528-2.834.424-5.898 2.47-7.93zm8.204 1.644c-.76.687-1.466 1.428-2.175 2.163-.237.205-.403.6-.105.834.782.826 1.557 1.677 2.442 2.393.784-.085 1.19-.92 1.766-1.376.382-.49 1.151-.847 1.125-1.53-.627-.82-1.425-1.493-2.144-2.23-.225-.21-.627-.576-.91-.254z" stroke="#E01D2F" stroke-width="1.6"/><rect x="1.99" y="1.99" width="46.019" height="46.019" rx="12.2" stroke="#E01D2F" stroke-width="1.6"/></svg>