<svg width="50" height="50" viewBox="0 0 50 50" fill="none" xmlns="http://www.w3.org/2000/svg"><path d="M.394.836A.85.85 0 011.25.001C3.975.003 6.7 0 9.425.003c.47-.012.876.43.837.896a.85.85 0 01-.832.796c-2.447.002-4.894 0-7.34.001v7.321a.848.848 0 01-1.391.656.865.865 0 01-.307-.707c.002-2.71-.001-5.42.002-8.13zM40.22.085c.214-.11.462-.08.695-.084h7.849a.848.848 0 01.816.625c.048.197.025.402.03.604v7.785c.014.457-.394.868-.85.855a.853.853 0 01-.846-.852c-.002-2.44 0-4.881-.001-7.322l-7.334-.001a.848.848 0 01-.36-1.61zM.394 40.183a.849.849 0 011.586-.404c.133.217.109.482.11.727v7.014h7.28a.857.857 0 01.862.619c.164.51-.267 1.086-.801 1.077-2.729.004-5.457.003-8.184 0a.853.853 0 01-.854-.86v-8.173zm47.519.049a.856.856 0 01.638-.858c.505-.15 1.065.276 1.057.802.004 2.726.002 5.452.002 8.177a.853.853 0 01-.497.788c-.196.093-.417.077-.627.078-2.633-.003-5.266.001-7.899-.002a.85.85 0 11.059-1.697h7.268c-.002-2.43 0-4.859 0-7.288z" fill="#E01D2F"/><path d="M40.631 16.523h.577-.577zm0 0h-.13c-.184 0-.36-.002-.53.05h-.002 0c-.375.1-.691.383-.858.74l-.047.1-.044-.102c-.57-1.305-1.204-2.587-2.006-3.76-.383-.55-.803-1.077-1.313-1.505l-.064-.05c-.06-.048-.117-.094-.18-.135a.688.688 0 00-.26-.113 66.676 66.676 0 00-9.275-.698s0 0 0 0l14.71 5.473zm2.707 1.079l-.047.014s0 0 0 0a1.785 1.785 0 00-.225-.514h0a1.316 1.316 0 00-1.047-.576l1.474 20.427c.4-.102.741-.406.9-.793.088-.207.111-.436.106-.66V22.544a2.08 2.08 0 00-.555-1.444m-.606-3.498c.02.067.043.134.066.202.083.25.168.502.147.77a1.403 1.403 0 01-1.008 1.267 6.915 6.915 0 01-.033-.024l-.03.04.01.049.042-.01c.493.373.977.762 1.412 1.204m-.606-3.498a1.833 1.833 0 00-.231-.529l.231.529zm.606 3.498l-.037.034s0 0 0 0l.001.001.036-.035zm-33.429-1.223h0c.121-.02.243-.03.365-.032h28.154c.637-.014 1.241.233 1.788.523h0a9.9 9.9 0 012.142 1.602.754.754 0 01.24.58v2.818c0 2.509 0 5.018-.002 7.527a.734.734 0 01-.596.721h-.001a1.82 1.82 0 01-.26.012h-.072 0H7.771h0-.094a2.37 2.37 0 01-.196-.003.665.665 0 01-.293-.08.74.74 0 01-.392-.694V22.673s0 0 0 0h.05l3.668-2.796zm0 0c-.631.117-1.21.422-1.74.767h0c-.633.414-1.217.903-1.747 1.446l3.487-2.213zm-2.953 15.07h3.269v-.001H7.562zm0 0a2.102 2.102 0 01-.65-.105l.65.104zm14.582-23.858h0l20.715 25.86s0 0 0 0h-1.336l-2.404-.001h-.001c-.644.013-1.24-.535-1.286-1.191a7.258 7.258 0 01-.007-.511v-.35H12.177l-.002.048a5.305 5.305 0 000 .317v.025c.002.097.003.193.001.289-.005.207-.03.406-.114.591v.001a1.3 1.3 0 01-1.18.78h0a846.3 846.3 0 01-2.138.002H7.141h0-.05c-.227.002-.448.004-.654-.072h-.001a1.307 1.307 0 01-.862-1.209h0a748.602 748.602 0 01-.022-8.203c0-1.425.002-2.85 0-4.276v-.26a4.642 4.642 0 01.017-.554 2.01 2.01 0 01.52-1.114c.473-.494.99-.943 1.538-1.35l.096-.07-.118-.02a1.34 1.34 0 01-1.1-1.172h.001v-.002a1.46 1.46 0 01.065-.592c.029-.098.062-.196.096-.294h0c.033-.099.067-.198.096-.298.16-.531.67-.928 1.215-.937.59-.003 1.18-.005 1.77 0 .486.017.928.34 1.147.782l.048.097.042-.1c.614-1.415 1.306-2.804 2.21-4.048.396-.528.828-1.036 1.365-1.408h0l.002-.001c.12-.09.274-.112.434-.128H15a66.601 66.601 0 017.145-.631zm-6.972 1.886l-.013.002-.01.007c-.474.354-.827.845-1.16 1.318l-.002.001c-.877 1.312-1.549 2.75-2.153 4.204l-.029.069h26.39l-.029-.07c-.596-1.436-1.26-2.856-2.12-4.154l-.001-.001c-.342-.492-.705-1-1.193-1.366l-.01-.008-.013-.002a67.015 67.015 0 00-7.473-.629h0c-2.313-.05-4.63-.044-6.94.102-1.754.108-3.504.28-5.244.527zm-7.146 4.817h-.037l-.012.034c-.035.098-.07.198-.107.297l-.124.348-.023.065.07.001 2.15.027h.071l-.022-.066a119.571 119.571 0 01-.209-.634l-.011-.033-.035-.001-1.055-.024-.656-.014zm32.285.003h-.036l-.011.034c-.045.136-.093.27-.14.405-.033.092-.066.183-.097.276l-.023.066h2.242l-.017-.063a56.882 56.882 0 01-.098-.367l-.08-.296-.01-.037h-.037a139 139 0 01-.644-.008c-.35-.005-.7-.01-1.049-.01zM6.877 34.779l-.066-.023v.07c0 .107.002.213.003.32l.003.478v.05h.05l2.675.004 1.338.002h.05v-.784H7.563h0a2.077 2.077 0 01-.685-.117zm35.563.117h0-3.37v.784h4.134v-.05a74.142 74.142 0 010-.81v-.07l-.067.024c-.225.079-.46.124-.697.122zm-2.213.05H39.17h3.27-2.213z" fill="#E01D2F" stroke="#1E1E1E" stroke-width=".1"/><path d="M11.348 20.89h0c-.208-.125-.441-.217-.659-.133-1.307.579-2.268 1.893-2.442 3.333.028.386.282.742.621.915 1.534.738 3.258 1.04 4.949.927a5.523 5.523 0 001.8-.47h.001a.408.408 0 01.178-.043m-4.448-4.53l29.783 4.173M11.347 20.89l.003.001c.907.482 1.8.994 2.648 1.576m-2.65-1.577l2.65 1.577m1.798 2.952s0 0 0 0v.05-.05s0 0 0 0zm0 0h18.407v.05-.05a.41.41 0 01.16.035l.069.03h0l.066.03h0c.728.31 1.52.456 2.309.438h.002c1.478.016 2.96-.3 4.3-.935m0 0s0 0 0 0l.022.045m-.022-.045s0 0 0 0l.022.045m-.022-.045c.35-.17.612-.532.644-.926m-.622.971c.366-.178.64-.558.672-.972m-.05.001v.005l.05-.006m-.05.001c-.174-1.43-1.121-2.735-2.413-3.323m2.413 3.323v-.005l.05.004m0 0l-2.463-3.322m0 0s0 0 0 0l.02-.046-.021.046s0 0 0 0zm0 0a.622.622 0 00-.548.05l-.003.001h0c-1.117.582-2.211 1.215-3.23 1.96m3.78-2.01l-3.81 1.97m.03.04s0 0 0 0l-.03-.04m.03.04s0 0 0 0l-.03-.04m.03.04c-.52.39-1.03.8-1.433 1.308m1.403-1.348c-.52.39-1.034.804-1.442 1.318m.04.03s0 0 0 0l-.04-.03m.04.03c-.046.06-.112.067-.163.067l-.054-.003-.02-.002a.26.26 0 00-.057.001l-.008.002v-.001h-5.188c-4.228-.002-8.456-.002-12.684.002h-.024l-.015-.02c-.532-.665-1.219-1.18-1.916-1.666m20.128 1.62s0 0 0 0l-.04-.03m0 0l-20.088-1.59m-4.479 1.416l-.013.042.04.018a8.906 8.906 0 004.953.606l.108-.017-.085-.07a19.98 19.98 0 00-3.605-2.367l-.026-.014-.024.016a3.334 3.334 0 00-1.348 1.785zm25.959.579l-.085.07.108.018a8.955 8.955 0 004.95-.602l.04-.018-.012-.042a3.32 3.32 0 00-1.342-1.79l-.024-.016-.026.013a19.802 19.802 0 00-3.61 2.367zm6.508 6.388c-.27.514-.694.96-1.233 1.178-.331.139-.69.187-1.046.182H10.292a2.566 2.566 0 01-1.1-.206c-.542-.238-.958-.707-1.22-1.237a4.634 4.634 0 01-.451-1.98.68.68 0 01.554-.671c.358-.016.718-.014 1.077-.011.225.001.45.003.676 0h31.838c.132-.003.266-.005.39.048.265.104.445.39.425.68a4.597 4.597 0 01-.495 2.016zm0 0l-.044-.024s0 0 0 0m.044.023l-.044-.023s0 0 0 0m0 0c-.267.507-.682.944-1.208 1.156h0a2.558 2.558 0 01-1.026.178h0H10.29a2.516 2.516 0 01-1.078-.202h0c-.53-.232-.938-.69-1.196-1.213a4.585 4.585 0 01-.446-1.959h0a.63.63 0 01.509-.62c.357-.016.712-.014 1.07-.011.225.001.451.002.678 0h31.858c.042-.002.083-.002.123 0a.64.64 0 01.228.044h.002a.644.644 0 01.393.63h0v.002a4.547 4.547 0 01-.49 1.995zM8.88 29.424h5.699l-.035.072-.201.41c-.157.32-.313.64-.471.958l-.014.028h-1.583l-2.07-.001s0 0 0 0v-.05a1.066 1.066 0 01-.773-.321l-.552-1.096zm0 0l.013.06c.085.381.219.78.503 1.07l-.516-1.13zm26.542 0h.08a5601.523 5601.523 0 015.557 0h.062l-.014.06c-.092.407-.238.843-.569 1.133m-5.116-1.193l5.083 1.156m-5.083-1.156l.035.072.56 1.14.112.228.014.028h.032a1977.022 1977.022 0 013.575 0m-4.328-1.468l4.328 1.418m.788-.224s0 0 0 0l-.033-.038m.033.038s0 0 0 0l-.033-.038m.033.038a1.13 1.13 0 01-.788.274m.755-.312a1.083 1.083 0 01-.755.262m0 .05s0 0 0 0v-.05m0 .05s0 0 0 0v-.05m1.309-1.369v.05h-.012l.012-.05zm0 0l-.05-.01c0 .003 0 .006-.002.01h.052zm-5.557 0l.045-.021.01.022h-.055zm0 0v.05h.025l-.025-.05zm-19.498-.049h-.031l-.014.028c-.225.455-.45.911-.673 1.367l-.035.072H34.75l-.035-.072a618.22 618.22 0 00-.673-1.368l-.013-.028H25l-8.997.001z" fill="#E01D2F" stroke="#1E1E1E" stroke-width=".1"/></svg>