<svg width="50" height="50" viewBox="0 0 50 50" fill="none" xmlns="http://www.w3.org/2000/svg"><g clip-path="url(#clip0_67_2648)" fill="#E01D2F"><path d="M.394.836a.85.85 0 01.857-.835C3.976.003 6.7 0 9.426.003c.469-.012.876.43.836.896a.85.85 0 01-.831.796c-2.447.002-4.894 0-7.341.001v7.321a.848.848 0 01-1.391.656.865.865 0 01-.306-.707C.394 6.256.39 3.546.394.836zM40.22.085c.214-.11.463-.08.695-.084h7.85a.848.848 0 01.815.625c.049.197.025.402.031.604v7.785c.013.457-.394.868-.85.855a.853.853 0 01-.847-.852c-.002-2.44 0-4.881 0-7.322l-7.334-.001a.848.848 0 01-.36-1.61zM23.4 5.875a10.324 10.324 0 0110.85 5.161c.221.403.032.958-.386 1.147a.853.853 0 01-1.113-.354 8.68 8.68 0 00-4.244-3.768c-2.343-.98-5.118-.844-7.354.362-2.212 1.168-3.865 3.34-4.38 5.79a9.24 9.24 0 00-.197 2.15c.002 1.676-.002 3.352.002 5.03.006.973.264 1.938.717 2.798.44.846.727 1.77.84 2.716.072.49.102.987.207 1.471.23.831.672 1.582 1.13 2.305.54.843 1.199 1.597 1.817 2.382.378.47.754.942 1.133 1.412a2.25 2.25 0 001.697.811c.555.002 1.11.002 1.665 0a2.258 2.258 0 001.66-.74c.657-.724 1.313-1.45 1.971-2.173a12.897 12.897 0 001.604-2.152c.285-.485.548-.986.733-1.519.184-.504.195-1.046.277-1.57a7.793 7.793 0 01.987-2.98c.526-.902.82-1.94.83-2.984.008-1.125-.002-2.25.006-3.374.003-.433.39-.812.822-.815.45-.025.869.368.87.82.005.737 0 1.474.002 2.212-.005.755.029 1.517-.094 2.266a7.72 7.72 0 01-.914 2.626 6.408 6.408 0 00-.645 1.514c-.205.718-.218 1.472-.36 2.202-.173.799-.53 1.544-.929 2.252a15.913 15.913 0 01-1.416 2.058c.16 1.857.32 3.715.478 5.573 1.944 1.074 3.893 2.138 5.838 3.21.238.138.52.24.668.489a.852.852 0 01-.13 1.064.854.854 0 01-1.01.124c-2.102-1.155-4.204-2.312-6.308-3.466-.194-.11-.414-.2-.546-.389a.941.941 0 01-.17-.517c-.123-1.456-.253-2.91-.373-4.367-.316.36-.64.712-.963 1.066a3.96 3.96 0 01-2.84 1.267c-.57.003-1.14.003-1.71 0a3.954 3.954 0 01-2.354-.802c-.566-.42-.954-1.019-1.398-1.554-.123 1.47-.253 2.942-.377 4.413a.916.916 0 01-.163.485c-.13.192-.349.287-.544.396l-6.03 3.312c-.23.125-.463.287-.736.268a.851.851 0 01-.812-.728.849.849 0 01.444-.868c2.06-1.132 4.12-2.266 6.182-3.396.134-1.542.266-3.085.399-4.627.038-.386.053-.773.113-1.157a16.145 16.145 0 01-1.471-2.263c-.32-.614-.605-1.257-.736-1.94-.093-.55-.141-1.107-.225-1.659a6.066 6.066 0 00-.605-1.85 7.932 7.932 0 01-.93-3.899v-5.028a10.376 10.376 0 01.688-3.75 10.358 10.358 0 013.23-4.39 10.274 10.274 0 014.602-2.073z"/><path d="M36.862 10.815a.853.853 0 011.198.011.85.85 0 01-.001 1.189c-4.593 4.596-9.189 9.189-13.782 13.784a.856.856 0 01-.918.223c-.19-.065-.33-.216-.467-.355-.827-.832-1.66-1.657-2.486-2.49a.847.847 0 01.93-1.363c.188.069.325.22.462.359l1.853 1.852c4.404-4.402 8.806-8.807 13.21-13.21zM.394 40.183a.849.849 0 011.586-.404c.134.217.11.482.11.727v7.014h7.28a.857.857 0 01.862.619c.165.51-.267 1.086-.801 1.077-2.728.004-5.456.003-8.184 0a.853.853 0 01-.853-.86c0-2.725-.002-5.449 0-8.173zm47.52.049a.856.856 0 01.637-.858c.506-.15 1.066.276 1.058.802.003 2.726.002 5.452.001 8.177a.853.853 0 01-.497.788c-.195.093-.417.077-.626.078-2.633-.003-5.266.001-7.9-.002a.85.85 0 11.059-1.697h7.268v-7.288z"/></g><defs><clipPath id="clip0_67_2648"><path fill="#fff" d="M0 0h50v50H0z"/></clipPath></defs></svg>