<svg width="201" height="43" viewBox="0 0 201 43" fill="none" xmlns="http://www.w3.org/2000/svg">
<g clip-path="url(#clip0_914_6357)">
<path d="M87.2679 0H116.784C116.766 14.2299 116.817 28.4567 116.757 42.6866H87.3664C87.2948 41.9881 87.2679 41.2866 87.262 40.5851C87.2739 27.0567 87.2649 13.5284 87.2679 0ZM95.4232 10.606C93.8023 17.8239 92.1306 25.0299 90.5187 32.2507C90.2918 32.8388 91.0023 33.3702 91.4679 32.8597C92.1127 30.5552 92.5455 28.191 93.1097 25.8657C95.1157 25.8657 97.1246 25.8657 99.1306 25.8657C99.662 28.1194 100.122 30.394 100.698 32.6358C100.826 33.409 102.053 32.9522 101.725 32.2627C100.095 24.9881 98.4172 17.7224 96.7784 10.4478C96.6679 10.0388 96.5903 9.37911 95.9963 9.57015C95.4739 9.52239 95.5993 10.2836 95.4232 10.606ZM106.543 9.93433C104.602 10.7493 103.859 12.994 103.796 14.9433C103.743 18.8209 103.79 22.6985 103.772 26.5761C103.752 28.2716 103.96 30.0985 105.05 31.4746C106.411 33.206 109.023 33.3702 110.943 32.5791C113.104 31.5134 113.74 28.797 113.543 26.5851C113.59 26.0627 112.835 26.1881 112.56 26.3731C112.378 27.794 112.441 29.3373 111.581 30.5672C110.474 32.1702 107.993 32.3075 106.456 31.2746C105.184 30.3463 104.925 28.6328 104.868 27.1701C104.853 23.4866 104.874 19.803 104.859 16.1224C104.853 14.8866 104.922 13.603 105.471 12.4746C106.578 10.0328 110.728 9.98209 111.844 12.4388C112.48 13.6119 112.357 14.9761 112.593 16.2478C112.841 16.2507 113.337 16.2597 113.584 16.2627C113.632 14.409 113.459 12.3642 112.184 10.9075C110.793 9.37015 108.384 9.24776 106.543 9.93433ZM102.993 31.8179C102.549 32.0925 102.695 32.9343 103.226 32.9881C103.635 33.1075 104.149 32.6985 103.993 32.2627C104.035 31.7761 103.325 31.5194 102.993 31.8179Z" fill="#DEDEDE"/>
<path d="M5.02606 10.7942C5.22606 10.2599 5.238 9.16139 6.07979 9.60019C6.57233 10.6271 6.69472 11.7763 6.96636 12.8688C8.36039 19.0091 9.74248 25.1524 11.1634 31.2838C11.2619 31.7584 11.3664 32.239 11.3574 32.7285C11.1873 33.0599 10.4768 33.1793 10.4052 32.7345C9.7186 30.4808 9.35442 28.1405 8.77531 25.8599C6.76636 25.8599 4.7574 25.8599 2.74845 25.8599C2.14845 28.2748 1.76337 30.7494 0.969343 33.1166C0.757403 33.048 0.333522 32.9106 0.121582 32.842V32.4241C1.74546 25.2121 3.40516 18.0091 5.02606 10.7942ZM5.74546 12.5674C4.82905 16.63 3.90964 20.6927 2.99322 24.7554C4.84099 24.7584 6.68576 24.7584 8.53054 24.7584C7.60516 20.6927 6.67681 16.63 5.74546 12.5674Z" fill="#DEDEDE"/>
<path d="M13.6351 9.65386C14.0321 9.33744 14.6858 9.67177 14.5813 10.1882C14.6351 13.6927 14.5813 17.2001 14.5992 20.7076C16.9127 20.7076 19.2261 20.7076 21.5395 20.7076C21.5664 17.1822 21.4888 13.6509 21.5694 10.1255C21.5336 9.60609 22.0679 9.40609 22.4858 9.60609C22.6679 10.0568 22.6589 10.5524 22.6709 11.033C22.65 17.8927 22.6589 24.7553 22.6649 31.618C22.5336 32.0509 22.9186 32.9464 22.247 32.9971C22.0888 32.9792 21.7754 32.9404 21.6171 32.9195C21.4321 29.2359 21.5933 25.5374 21.5395 21.8479C19.2261 21.8479 16.9127 21.8479 14.5992 21.8479C14.5754 25.4001 14.644 28.9554 14.5724 32.5076C14.6201 33.0598 13.85 32.9106 13.5276 33.0718C13.4112 25.9285 13.5246 18.7852 13.4679 11.6419C13.4828 10.9792 13.4231 10.2927 13.6351 9.65386Z" fill="#DEDEDE"/>
<path d="M25.2798 10.63C24.9574 10.1196 25.1365 9.436 25.8231 9.436C26.1514 9.8569 26.3902 10.3375 26.6141 10.8181C27.8171 13.4748 29.0499 16.1136 30.2678 18.7584C30.3007 15.8778 30.2171 12.9942 30.3007 10.1166C30.2648 9.60316 30.7783 9.44495 31.1902 9.58227C31.3783 10.1464 31.3544 10.7494 31.3634 11.3375C31.3454 13.8062 31.3544 16.2718 31.3544 18.7405C32.8231 15.627 34.2022 12.4748 35.7156 9.38525C36.0051 9.54048 36.2857 9.71361 36.5574 9.90466C36.4499 10.4241 36.229 10.9076 36.0111 11.3882C34.4649 14.6629 32.9663 17.9614 31.438 21.245C32.8231 24.245 34.1962 27.2509 35.5902 30.245C35.9305 31.0002 36.3395 31.7345 36.5484 32.5405C36.4051 33.1972 35.5305 33.0927 35.4051 32.4897C34.0201 29.5942 32.7186 26.6569 31.3544 23.7494C31.3186 26.6927 31.4231 29.636 31.3096 32.5763C31.432 33.1614 30.1723 33.1644 30.3066 32.5494C30.2111 29.6151 30.3037 26.6748 30.2708 23.7375C29.026 26.427 27.7783 29.1166 26.5484 31.8151C26.238 32.3494 25.9843 33.4032 25.1783 32.8599C24.9723 32.4032 25.2917 31.9584 25.432 31.5375C27.032 28.1106 28.6201 24.6778 30.2141 21.2509C28.5783 17.7047 26.9007 14.1793 25.2798 10.63Z" fill="#DEDEDE"/>
<path d="M38.5872 10.7313C38.5992 10.2984 38.5156 9.5044 39.1753 9.56112C41.5783 9.51933 43.9902 9.48052 46.3902 9.585C46.8768 9.42082 47.1186 10.6387 46.5872 10.5522C44.2857 10.7551 41.9663 10.5731 39.6559 10.6357C39.6559 13.994 39.6559 17.3492 39.6559 20.7074C41.8887 20.7432 44.1275 20.6417 46.3604 20.7432C47.029 20.6895 47.0678 21.8238 46.3962 21.7611C44.1544 21.8865 41.9006 21.7701 39.6559 21.8089C39.6559 25.179 39.6559 28.5492 39.6559 31.9223C42.0051 31.9761 44.3633 31.8059 46.7066 32.0059C46.7454 32.2298 46.823 32.6716 46.8618 32.8955C45.3215 33.1611 43.7484 32.9701 42.1932 33.0238C41.0201 32.979 39.8141 33.1641 38.6618 32.8805C38.6111 32.4746 38.5842 32.0656 38.5842 31.6566C38.5962 24.6805 38.5932 17.7074 38.5872 10.7313Z" fill="#DEDEDE"/>
<path d="M54.4321 10.4267C54.5007 9.91331 54.9515 9.02376 55.5067 9.65958C55.8858 10.579 56.038 11.573 56.2858 12.5342C57.8231 18.8178 59.3425 25.1073 60.8977 31.3879C60.9962 31.9521 61.3365 32.6536 60.7246 33.0566C60.1067 32.9641 60.0201 32.3432 59.8828 31.8536C58.2977 25.3551 56.6858 18.8626 55.0858 12.367C53.45 18.9909 51.8589 25.6297 50.2052 32.2476C50.0679 32.5253 49.8947 33.3282 49.444 32.9432C48.8201 32.8656 49.2022 32.0924 49.2052 31.7014C50.9515 24.6118 52.6977 17.5193 54.4321 10.4267Z" fill="#DEDEDE"/>
<path d="M62.9096 10.4299C63.0021 10.1374 62.8439 9.38516 63.3962 9.5583C63.9066 9.3971 64.0141 10.0658 63.9962 10.415C64.0141 16.8031 63.9932 23.1941 64.0051 29.5822C66.426 23.4449 68.8499 17.3046 71.2678 11.1643C71.5126 10.5464 71.7842 9.9374 72.0708 9.3374C72.4857 9.58815 72.9574 9.86278 72.8409 10.4329C72.8648 17.2986 72.826 24.1673 72.8559 31.0329C72.8409 31.6479 72.9036 32.2807 72.7215 32.8777C72.42 32.9583 72.1126 32.9941 71.8051 33.0359C71.6678 26.3553 71.7783 19.6658 71.7484 12.9822C69.435 18.7822 67.1424 24.5911 64.8439 30.4001C64.4887 31.2389 64.2499 32.1374 63.7544 32.9076C63.1514 33.424 62.7663 32.4628 62.8977 31.9553C62.9096 24.7822 62.8827 17.6061 62.9096 10.4299Z" fill="#DEDEDE"/>
<path d="M75.1096 11.0478C75.1335 10.4209 74.9962 9.24482 75.9932 9.55229C76.2469 10.1195 76.2022 10.7493 76.2171 11.3523C76.1932 15.1762 76.2081 19 76.2081 22.8239C78.635 19.1344 81.0648 15.4448 83.4857 11.7523C83.9723 11.0239 84.3992 10.2508 84.9842 9.59706C85.3634 9.47169 85.644 9.809 85.9454 9.9702C83.7305 13.4478 81.4499 16.8836 79.2081 20.3433C81.2589 24.0687 83.2947 27.8 85.3574 31.5165C85.5783 31.9971 86.0499 32.5792 85.5007 33.0239C84.7992 33.1553 84.5992 32.3971 84.2947 31.9403C82.3813 28.412 80.438 24.9015 78.5096 21.3821C77.7842 22.5971 76.829 23.6896 76.2648 24.9911C76.0439 27.5792 76.3932 30.1971 76.1066 32.7762C75.6887 33.3612 74.9872 32.9165 75.1395 32.2598C75.0887 25.1881 75.1454 18.1165 75.1096 11.0478Z" fill="#DEDEDE"/>
<path d="M118.701 10.1552C118.683 9.61195 119.053 9.42091 119.557 9.57016C119.79 10.1314 119.745 10.7523 119.76 11.3463C119.745 13.9314 119.745 16.5164 119.748 19.1015C119.781 20.5075 119.907 22.0448 120.838 23.1761C121.907 24.4269 123.844 24.5254 125.289 23.9433C126.707 23.3403 127.235 21.7134 127.324 20.2896C127.486 16.9224 127.31 13.5433 127.45 10.1731C127.396 9.65972 127.76 9.48061 128.232 9.50748C128.56 10.0657 128.486 10.7343 128.51 11.3552C128.474 16.6239 128.527 21.8926 128.483 27.1612C128.483 29.209 127.835 31.6239 125.829 32.5732C123.984 33.3343 121.524 33.212 120.113 31.6657C118.892 30.2388 118.551 28.2358 118.73 26.4149C119.041 26.3164 119.36 26.2328 119.683 26.1702C119.844 27.5045 119.775 28.9194 120.399 30.1493C121.593 32.6896 125.993 32.4955 126.919 29.8239C127.629 27.8717 127.289 25.7523 127.399 23.7224C125.817 25.5642 122.901 25.8926 120.859 24.6627C119.068 23.4567 118.659 21.1224 118.671 19.1105C118.689 16.1254 118.611 13.1373 118.701 10.1552Z" fill="#DEDEDE"/>
<path d="M130.59 10.1163C130.521 9.48347 131.33 9.55212 131.745 9.53123C133.668 9.58197 135.814 9.23869 137.507 10.376C139.127 11.5223 139.435 13.6894 139.465 15.5312C139.533 17.6476 139.032 20.0267 137.154 21.2775C139.205 22.5999 139.563 25.2417 139.453 27.4835C139.381 29.2775 138.939 31.385 137.253 32.3491C135.399 33.3581 133.193 32.97 131.175 32.9999C130.402 33.0984 130.611 32.1312 130.56 31.6566C130.593 24.4775 130.533 17.2954 130.59 10.1163ZM131.671 10.6357C131.671 13.9939 131.671 17.3491 131.671 20.7044C133.271 20.6357 134.984 20.97 136.489 20.2745C137.88 19.567 138.253 17.8715 138.33 16.4447C138.369 14.785 138.399 12.8566 137.199 11.5581C135.692 10.2208 133.507 10.7372 131.671 10.6357ZM131.671 21.8118C131.671 25.182 131.671 28.5491 131.671 31.9193C133.324 31.8447 135.113 32.2059 136.647 31.4208C138.02 30.6447 138.271 28.8984 138.342 27.4685C138.366 25.7879 138.342 23.779 136.978 22.576C135.459 21.4387 133.432 21.9073 131.671 21.8118Z" fill="#DEDEDE"/>
<path d="M145.292 9.72558C146.96 9.33155 148.963 9.51065 150.205 10.8121C151.539 12.2181 151.73 14.2689 151.73 16.1136C151.71 19.9017 151.76 23.6927 151.704 27.4778C151.656 29.4092 150.981 31.6151 149.136 32.5405C147.169 33.4002 144.435 33.2032 143.092 31.3524C142.008 29.9017 141.886 28.0211 141.907 26.2778C141.939 22.4838 141.871 18.6898 141.936 14.8957C141.972 12.7495 142.984 10.242 145.292 9.72558ZM145.295 10.8778C143.551 11.5047 143.041 13.5644 142.999 15.2211C142.948 19.1047 142.981 22.9912 142.981 26.8748C143.014 28.5107 143.265 30.4927 144.79 31.436C146.304 32.2539 148.492 32.1077 149.635 30.7226C150.471 29.633 150.575 28.1912 150.605 26.8689C150.608 23.1823 150.602 19.4987 150.608 15.8121C150.581 14.4211 150.495 12.8838 149.569 11.7614C148.539 10.5554 146.721 10.4211 145.295 10.8778Z" fill="#DEDEDE"/>
<path d="M153.919 9.64484C155.378 9.4329 156.865 9.53439 158.337 9.55529C159.859 9.57917 161.51 10.1404 162.342 11.4986C163.337 13.1284 163.381 15.1434 163.232 16.9941C163.092 18.5971 162.468 20.3493 160.966 21.1493C159.107 22.1434 156.916 21.7225 154.898 21.809C154.868 25.3822 154.954 28.9583 154.862 32.5314C155.083 33.1822 153.572 33.1971 153.817 32.5493C153.719 25.5851 153.82 18.612 153.766 11.6448C153.772 10.9762 153.736 10.2956 153.919 9.64484ZM154.898 10.6389C154.898 13.9941 154.898 17.3493 154.898 20.7045C156.76 20.6031 158.811 21.0717 160.516 20.1045C162.029 19.1583 162.181 17.1553 162.187 15.5434C162.163 13.9463 161.919 11.9433 160.334 11.1284C158.635 10.3463 156.704 10.7195 154.898 10.6389Z" fill="#DEDEDE"/>
<path d="M169.157 9.63879C170.751 9.37013 172.605 9.60894 173.746 10.8627C175.032 12.2686 175.223 14.2776 175.22 16.1015C175.196 19.8836 175.244 23.6657 175.196 27.4507C175.157 29.4448 174.429 31.7522 172.462 32.6179C170.596 33.3343 168.116 33.188 166.757 31.5672C165.659 30.2686 165.402 28.5015 165.402 26.8537C165.396 23.2776 165.408 19.6985 165.396 16.1194C165.396 14.5671 165.513 12.9313 166.316 11.5612C166.907 10.5283 167.996 9.83879 169.157 9.63879ZM168.614 10.9492C166.999 11.6597 166.543 13.603 166.495 15.206C166.465 19.0985 166.492 22.994 166.483 26.8895C166.501 28.4866 166.746 30.3761 168.163 31.3612C169.704 32.2866 172.026 32.1343 173.178 30.6597C173.963 29.5731 174.074 28.1701 174.098 26.8746C174.098 23.1851 174.092 19.4985 174.098 15.8089C174.083 14.4298 173.981 12.9134 173.089 11.791C172.023 10.5164 170.08 10.391 168.614 10.9492Z" fill="#DEDEDE"/>
<path d="M177.537 9.66281C178.984 9.40908 180.471 9.53147 181.934 9.58221C183.504 9.65386 185.095 10.5225 185.683 12.0359C186.465 13.9792 186.459 16.1792 186.044 18.2091C185.808 19.4688 185.011 20.5165 184.008 21.2748C186.238 22.7434 186.459 25.6837 186.259 28.0986C186.143 29.9374 185.357 32.03 183.453 32.6598C181.516 33.2748 179.426 33.0001 177.429 32.9464C177.393 25.7464 177.438 18.5494 177.405 11.3494C177.408 10.7882 177.405 10.215 177.537 9.66281ZM178.537 10.6359C178.537 13.9942 178.537 17.3494 178.537 20.7046C180.131 20.6389 181.841 20.9703 183.34 20.2748C184.928 19.4389 185.178 17.433 185.202 15.824C185.181 14.2479 185.107 12.3345 183.737 11.2986C182.199 10.3046 180.262 10.7225 178.537 10.6359ZM178.537 21.8121C178.537 25.1822 178.537 28.5494 178.537 31.9195C180.181 31.8419 181.969 32.2061 183.495 31.421C184.957 30.5822 185.152 28.6956 185.199 27.1762C185.199 25.5255 185.11 23.5136 183.65 22.4419C182.131 21.4837 180.232 21.8986 178.537 21.8121Z" fill="#DEDEDE"/>
<path d="M194.19 9.27148C195.28 9.92522 195.295 11.2685 195.578 12.364C197.068 19.0536 198.62 25.7312 200.122 32.4178V33.0566C199.743 32.9043 199.104 33.0028 199.035 32.4745C198.426 30.2954 198.038 28.0566 197.495 25.8595C195.486 25.8595 193.477 25.8595 191.471 25.8595C190.844 28.3043 190.507 30.8297 189.629 33.2028C189.42 33.0834 189.005 32.8416 188.799 32.7192C189.22 30.6207 189.725 28.5431 190.193 26.4566C191.552 20.7342 192.689 14.9551 194.19 9.27148ZM191.713 24.7551C193.558 24.7581 195.405 24.7581 197.25 24.7551C196.322 20.6864 195.387 16.6178 194.465 12.5461C193.558 16.6178 192.626 20.6864 191.713 24.7551Z" fill="#DEDEDE"/>
<path d="M93.3545 24.7554C94.2709 20.6927 95.1933 16.633 96.1008 12.5703C97.0261 16.633 97.9575 20.6957 98.8858 24.7554C97.0411 24.7524 95.1993 24.7554 93.3545 24.7554Z" fill="#DEDEDE"/>
<path d="M58.3574 36.7641C59.3902 36.2537 60.5395 36.6507 61.5514 36.997C61.5813 37.4477 61.6111 37.9015 61.641 38.3552C60.844 37.8686 59.9365 37.1403 58.9485 37.5612C57.2171 38.1283 57.1126 40.8985 58.7902 41.6089C59.8141 42.1671 60.832 41.4149 61.6499 40.8447C61.6201 41.2835 61.5932 41.7223 61.5694 42.1582C61.0589 42.3462 60.5514 42.5343 60.0291 42.6865H59.1037C58.2201 42.4447 57.3544 41.9462 56.9485 41.0895C56.1186 39.585 56.7604 37.4567 58.3574 36.7641Z" fill="#DEDEDE"/>
<path d="M61.9275 42.6835C62.7514 40.4864 63.7394 38.3551 64.6409 36.1909C65.5514 38.3163 66.4588 40.4446 67.3693 42.573C67.1096 42.573 66.5932 42.576 66.3364 42.576C66.0917 41.9969 65.8499 41.4178 65.6081 40.8387C64.9663 40.8387 64.3275 40.8417 63.6857 40.8417C63.3066 41.6566 63.1096 42.8327 61.9275 42.6835ZM64.6409 38.4387C64.42 38.9461 64.2051 39.4536 63.9872 39.9641C64.417 39.9611 64.8469 39.9611 65.2767 39.9611C65.0648 39.4536 64.8529 38.9461 64.6409 38.4387Z" fill="#DEDEDE"/>
<path d="M128.545 42.573C129.45 40.4446 130.354 38.3163 131.265 36.1909C132.175 38.3163 133.083 40.4446 133.99 42.573C133.733 42.573 133.217 42.576 132.96 42.576C132.716 41.9969 132.474 41.4178 132.232 40.8417C131.581 40.8387 130.933 40.8387 130.286 40.8387C130.047 41.4178 129.808 41.9969 129.569 42.576C129.316 42.573 128.802 42.573 128.545 42.573ZM131.265 38.4387C131.044 38.9461 130.826 39.4536 130.608 39.9611C131.038 39.9611 131.468 39.9611 131.898 39.9611C131.686 39.4536 131.474 38.9461 131.265 38.4387Z" fill="#DEDEDE"/>
<path d="M134.907 37.4629C135.946 36.2062 137.734 36.4181 139.068 37.0151C139.101 37.4659 139.137 37.9196 139.172 38.3704C138.384 37.9136 137.528 37.1942 136.554 37.5256C135.537 37.8092 134.951 38.9405 135.098 39.9495C135.205 40.9584 136.128 41.7853 137.137 41.8092C137.931 41.8121 138.537 41.2032 139.169 40.8092C139.14 41.2569 139.11 41.7047 139.086 42.1524C138.572 42.3405 138.056 42.5286 137.534 42.6868H136.641C134.268 42.3524 133.25 39.1465 134.907 37.4629Z" fill="#DEDEDE"/>
<path d="M68.7902 36.6387C69.9424 36.6417 71.0947 36.6417 72.2499 36.6417C72.2499 38.6208 72.2499 40.5969 72.2499 42.576C72.0111 42.576 71.5335 42.576 71.2977 42.573C71.2947 40.8954 71.2947 39.2178 71.2977 37.5402C70.7872 37.5372 70.2797 37.5372 69.7723 37.5342C69.6768 38.9133 69.7454 40.3521 69.2171 41.6536C68.9633 42.3312 68.1663 42.4476 67.5782 42.6835C67.8857 41.776 68.5275 40.982 68.629 40.0088C68.7603 38.8924 68.7603 37.764 68.7902 36.6387Z" fill="#DEDEDE"/>
<path d="M72.9484 40.2808C72.5066 38.5465 73.8439 36.654 75.6439 36.5584C77.4529 36.2958 79.1812 37.8778 79.0559 39.7047C79.0976 41.2152 77.8559 42.3972 76.4469 42.6868H75.5066C74.2917 42.4331 73.1663 41.5555 72.9484 40.2808ZM74.8648 37.7734C73.3842 38.6062 73.629 41.0689 75.2141 41.639C76.7275 42.2868 78.4887 40.6958 78.023 39.1226C77.7932 37.7316 76.029 36.9913 74.8648 37.7734Z" fill="#DEDEDE"/>
<path d="M79.9723 36.6416C80.2051 36.6416 80.6708 36.6416 80.9066 36.6416C80.9036 37.364 80.9066 38.0834 80.9066 38.8058C81.7872 38.8058 82.6708 38.8058 83.5544 38.8058C83.5544 38.0834 83.5544 37.364 83.5544 36.6416C83.7962 36.6416 84.2827 36.6416 84.5245 36.6416C84.5245 38.6177 84.5245 40.5968 84.5245 42.5759C84.2827 42.5759 83.7962 42.5759 83.5544 42.5729C83.5544 41.6297 83.5544 40.6834 83.5544 39.7401C82.6708 39.7371 81.7872 39.7371 80.9066 39.7401C80.9066 40.6834 80.9036 41.6297 80.9066 42.5759C80.6708 42.5759 80.2051 42.5759 79.9723 42.5759C79.9723 40.5968 79.9723 38.6207 79.9723 36.6416Z" fill="#DEDEDE"/>
<path d="M119.841 36.6417C120.08 36.6417 120.554 36.6417 120.793 36.6417C120.793 37.4029 120.793 38.1611 120.793 38.9223C121.495 38.1611 122.193 37.3999 122.892 36.6387C123.19 36.6417 123.784 36.6446 124.083 36.6476C123.253 37.5431 122.423 38.4387 121.593 39.3342C122.498 40.4118 123.399 41.4924 124.301 42.573C123.993 42.573 123.375 42.576 123.068 42.576C122.31 41.6506 121.552 40.7252 120.793 39.8029C120.793 40.7252 120.793 41.6506 120.793 42.573C120.554 42.576 120.08 42.576 119.841 42.576C119.841 40.5969 119.841 38.6178 119.841 36.6417Z" fill="#DEDEDE"/>
<path d="M125.139 36.6211C126.011 36.6659 126.924 36.5435 127.757 36.8539C128.695 37.3853 128.793 38.8868 128.059 39.63C127.486 40.048 126.721 39.9972 126.053 40.1345C126.056 40.9494 126.053 41.7614 126.056 42.5763C125.826 42.5763 125.369 42.5763 125.139 42.5733C125.139 40.5912 125.139 38.6062 125.139 36.6211ZM126.059 37.4509C126.056 38.0509 126.056 38.6539 126.062 39.2569C126.584 39.0689 127.736 39.1017 127.513 38.2569C127.474 37.5196 126.557 37.63 126.059 37.4509Z" fill="#DEDEDE"/>
<path d="M140.214 41.0748C139.319 39.4897 140.154 37.1972 141.948 36.7046C143.674 36.0688 145.796 37.2509 145.996 39.1196C146.357 40.7823 145.095 42.3375 143.504 42.6867H142.438C141.54 42.433 140.632 41.9584 140.214 41.0748ZM141.999 37.6867C140.492 38.3673 140.48 40.7345 141.916 41.5017C143.319 42.4032 145.298 41.03 145.053 39.4061C144.993 37.9554 143.268 36.9733 141.999 37.6867Z" fill="#DEDEDE"/>
<path d="M146.187 36.6416C147.546 36.6416 148.907 36.6416 150.271 36.6416C150.271 36.8744 150.271 37.3431 150.271 37.5759C149.754 37.5759 149.238 37.5759 148.725 37.5759C148.722 39.2416 148.722 40.9073 148.725 42.5759C148.477 42.5759 147.981 42.5729 147.734 42.5729C147.731 40.9073 147.734 39.2416 147.734 37.5759C147.214 37.5759 146.695 37.5729 146.184 37.5759C146.184 37.3431 146.184 36.8744 146.187 36.6416Z" fill="#DEDEDE"/>
<path d="M151.131 36.624C151.372 36.624 151.859 36.624 152.101 36.624C152.098 37.43 152.098 38.236 152.089 39.0449C152.698 39.1285 153.34 39.1195 153.919 39.3554C155.071 39.9375 155.089 41.9673 153.814 42.4151C152.94 42.6539 152.023 42.5613 151.131 42.5882C151.128 40.6001 151.128 38.6121 151.131 36.624ZM152.089 39.836C152.083 40.4897 152.092 41.1494 152.113 41.8061C152.692 41.6061 153.814 41.7225 153.784 40.8539C153.919 39.9136 152.692 40.0061 152.089 39.836Z" fill="#DEDEDE"/>
<path d="M155.196 36.6416C155.438 36.6416 155.925 36.6416 156.166 36.6416C156.166 38.6177 156.166 40.5968 156.166 42.5759C155.925 42.5759 155.438 42.5729 155.196 42.5729C155.193 40.5968 155.196 38.6207 155.196 36.6416Z" fill="#DEDEDE"/>
</g>
<defs>
<clipPath id="clip0_914_6357">
<rect width="200" height="42.6866" fill="white" transform="translate(0.121582)"/>
</clipPath>
</defs>
</svg>
