<svg width="159" height="100" viewBox="0 0 159 100" fill="none" xmlns="http://www.w3.org/2000/svg">
<path d="M20.9759 73.0502C23.0312 72.6091 25.2772 73.0276 26.9851 74.2718C28.3101 75.2478 29.3474 76.66 29.7272 78.2758C30.1408 79.9401 29.9356 81.7547 29.1164 83.2655C28.0063 85.3418 25.8152 86.7896 23.4723 87.0126C21.6319 87.2291 19.7139 86.7508 18.216 85.6569C16.6487 84.5404 15.5515 82.7662 15.3318 80.8482C15.0587 78.9254 15.6759 76.9121 16.946 75.4513C17.9817 74.2411 19.4182 73.3831 20.9759 73.0502ZM21.6173 74.8163C19.5959 75.209 17.846 76.8507 17.4663 78.8979C16.9734 81.0938 18.0965 83.5175 20.0871 84.563C21.7838 85.4792 23.9958 85.3919 25.5793 84.2738C27.3777 83.0619 28.2665 80.6737 27.6573 78.586C26.9835 76.0411 24.222 74.2427 21.6173 74.8163Z" fill="#DEDEDE"/>
<path d="M88.6693 73.0291C90.7974 72.6009 93.1161 73.0921 94.824 74.4527C95.7547 75.2153 96.5513 76.1719 97.0054 77.2949C97.7535 79.0949 97.7179 81.2181 96.8664 82.9745C96.094 84.6113 94.6495 85.8943 92.9739 86.5536C90.9444 87.3356 88.5675 87.2241 86.6528 86.1755C84.7138 85.1575 83.266 83.2088 82.9574 81.0307C82.7085 79.4956 82.9962 77.8798 83.7847 76.5387C84.8043 74.7354 86.6431 73.4379 88.6693 73.0291ZM89.579 74.758C87.4138 75.0182 85.4651 76.7245 85.0709 78.8946C84.6491 80.8125 85.4215 82.9131 86.9824 84.104C88.595 85.374 90.9654 85.5372 92.7557 84.5435C94.6576 83.4997 95.7806 81.2084 95.3653 79.0658C94.9323 76.4223 92.2581 74.3654 89.579 74.758Z" fill="#DEDEDE"/>
<path d="M149.303 74.351C152.027 72.3329 155.852 72.5494 158.783 74.002C158.752 74.7001 158.757 75.3997 158.761 76.0977C157.117 75.2155 155.262 74.5563 153.37 74.7566C151.918 74.8778 150.523 75.5952 149.615 76.7425C148.613 77.9576 148.321 79.6461 148.652 81.1634C148.961 82.7097 150.098 84.0201 151.509 84.6842C153.936 85.762 156.778 84.988 158.882 83.5451V85.7814C156.657 86.9367 153.992 87.4635 151.552 86.717C149.025 85.9704 146.955 83.7729 146.535 81.1472C146.054 78.5942 147.178 75.8441 149.303 74.351Z" fill="#DEDEDE"/>
<path d="M0.143066 73.0907C0.713453 73.089 1.28384 73.0907 1.85423 73.089C3.51368 75.0054 5.14728 76.9444 6.80512 78.8608C8.45165 76.9573 10.0723 75.028 11.735 73.1391C12.2957 73.0228 12.8887 73.1197 13.4623 73.089C13.4736 77.6683 13.4623 82.2475 13.4672 86.8268C12.8289 86.8235 12.1907 86.8268 11.554 86.8187C11.5621 83.2558 11.5621 79.6929 11.554 76.13C9.95597 77.9543 8.38862 79.8028 6.80996 81.6416C5.21514 79.8173 3.67688 77.943 2.05459 76.1446C2.06267 79.7026 2.05459 83.2623 2.05944 86.8219C1.42119 86.8268 0.784554 86.8252 0.147919 86.8219C0.146303 82.2443 0.155993 77.6683 0.143066 73.0907Z" fill="#DEDEDE"/>
<path d="M31.7793 86.8105C31.8165 82.2313 31.7567 77.6504 31.8084 73.0728C32.4596 73.1018 33.1123 73.0728 33.7651 73.1131C33.7361 75.162 33.7732 77.2125 33.7441 79.2614C35.6734 77.2173 37.5736 75.1442 39.4981 73.0954C40.3222 73.0873 41.1478 73.0938 41.9751 73.0889C39.978 75.2153 38.0325 77.3902 36.0014 79.4827C38.3153 81.9776 40.7584 84.3561 43.1095 86.8202C42.1836 86.8234 41.2593 86.8364 40.3367 86.8105C38.1715 84.5193 35.9433 82.2878 33.7474 80.0273C33.7603 82.2927 33.7538 84.558 33.7538 86.8234C33.0946 86.8202 32.4369 86.8347 31.7793 86.8105Z" fill="#DEDEDE"/>
<path d="M52.2988 73.1166C52.7867 73.115 53.3119 73.0051 53.7805 73.1457C55.7986 77.6991 57.7893 82.267 59.801 86.8236C59.1192 86.8253 58.4373 86.8236 57.7586 86.8269C57.1753 85.4728 56.5872 84.1204 55.9893 82.7728C54.039 82.7744 52.0903 82.7792 50.1416 82.7712C49.5438 84.122 48.9863 85.4906 48.3707 86.8333C47.7034 86.8172 47.0376 86.8237 46.3735 86.8285C48.34 82.2541 50.3549 77.7007 52.2988 73.1166ZM52.9919 76.1204C52.302 77.7492 51.5975 79.3715 50.9124 81.0018C52.3392 81.0083 53.7659 81.018 55.1927 81.0002C54.4316 79.386 53.8112 77.7039 52.9919 76.1204Z" fill="#DEDEDE"/>
<path d="M60.4296 73.0874C61.8418 73.0971 63.2541 73.0793 64.6663 73.0955C65.7053 73.1213 66.8057 73.3443 67.6216 74.0294C68.6913 74.9197 68.9547 76.5033 68.5556 77.7862C68.2954 78.6329 67.5409 79.1985 66.7507 79.5152C67.6378 79.7882 68.5362 80.1793 69.1211 80.9338C70.2199 82.3025 70.0599 84.542 68.7156 85.6957C67.7929 86.5133 66.5245 86.8106 65.3191 86.8171C63.6855 86.8316 62.0519 86.8219 60.4199 86.8235C60.4425 82.2443 60.4215 77.6667 60.4296 73.0874ZM62.3734 74.8567C62.3718 76.2318 62.3718 77.6069 62.3751 78.9835C63.4609 78.9593 64.6162 79.0934 65.6326 78.6184C67.0254 77.9963 67.061 75.4627 65.5082 75.0312C64.4902 74.7372 63.4157 74.8939 62.3734 74.8567ZM62.3751 80.7803C62.3735 82.199 62.3654 83.6177 62.3799 85.0364C63.7534 84.9702 65.1737 85.2077 66.5132 84.8167C68.1694 84.3691 68.1726 81.6109 66.5794 81.076C65.2318 80.5929 63.7728 80.845 62.3751 80.7803Z" fill="#DEDEDE"/>
<path d="M70.3425 73.0938C74.3643 73.0938 78.3877 73.0857 82.4095 73.0986C82.403 73.6884 82.403 74.2798 82.4111 74.8712C80.7226 74.8922 79.034 74.8599 77.3455 74.889C77.3584 78.8688 77.3536 82.8485 77.3487 86.8267C76.6943 86.8235 76.0415 86.8267 75.3887 86.817C75.4081 82.8372 75.392 78.8574 75.3968 74.8777C73.7131 74.8761 72.0278 74.8793 70.3441 74.8761C70.3458 74.2814 70.3441 73.6868 70.3425 73.0938Z" fill="#DEDEDE"/>
<path d="M97.9895 73.0925C102.011 73.0957 106.033 73.0844 110.055 73.0989C110.053 73.6903 110.052 74.2833 110.056 74.8747C108.371 74.8812 106.686 74.8764 105.001 74.878C105.005 78.8577 104.992 82.8375 105.007 86.8173C104.351 86.8302 103.695 86.8286 103.039 86.8205C103.053 82.8408 103.042 78.8594 103.045 74.8796C101.362 74.8747 99.6764 74.8812 97.9927 74.8747C97.996 74.2817 97.996 73.6871 97.9895 73.0925Z" fill="#DEDEDE"/>
<path d="M111.262 73.1038C112.646 73.0747 114.031 73.0973 115.416 73.0892C116.492 73.0876 117.625 73.246 118.539 73.8567C120.713 75.235 120.656 78.9935 118.384 80.2506C116.819 81.178 114.934 80.842 113.206 80.9114C113.212 82.8811 113.207 84.8524 113.209 86.8237C112.558 86.827 111.91 86.827 111.262 86.8189C111.262 82.2477 111.26 77.6749 111.262 73.1038ZM113.207 74.8666C113.214 76.2999 113.202 77.7331 113.212 79.1663C114.422 79.1179 115.673 79.3069 116.852 78.9498C117.518 78.7672 117.984 78.1306 118.029 77.452C118.156 76.6004 117.945 75.513 117.058 75.1575C115.833 74.684 114.487 74.899 113.207 74.8666Z" fill="#DEDEDE"/>
<path d="M118.751 86.8315C120.745 82.2442 122.707 77.6423 124.738 73.0728C125.197 73.0938 125.659 73.0954 126.123 73.076C128.165 77.6488 130.154 82.2458 132.182 86.825C131.5 86.8267 130.821 86.8234 130.143 86.8267C129.553 85.4742 128.963 84.1234 128.369 82.7742C126.42 82.7758 124.47 82.7742 122.521 82.7742C121.931 84.125 121.348 85.4791 120.761 86.8299C120.091 86.8186 119.42 86.8234 118.751 86.8315ZM125.376 76.0911C124.693 77.7344 123.985 79.3664 123.288 81.0032C124.714 81.0129 126.14 81.0032 127.569 81.0113C126.821 79.3793 126.168 77.7021 125.376 76.0911Z" fill="#DEDEDE"/>
<path d="M132.806 73.0874C133.455 73.0955 134.106 73.089 134.758 73.0955C134.745 75.0619 134.759 77.0284 134.75 78.9949C137.395 79.0062 140.038 78.9981 142.682 78.9997C142.69 77.03 142.68 75.0603 142.686 73.0906C143.336 73.0923 143.987 73.0858 144.64 73.0987C144.635 77.6747 144.638 82.2507 144.638 86.8268C143.986 86.8251 143.334 86.8251 142.686 86.8268C142.685 84.8361 142.685 82.847 142.686 80.8563C140.043 80.8579 137.399 80.8547 134.756 80.8579C134.753 82.8438 134.746 84.8312 134.759 86.8171C134.106 86.8268 133.455 86.8268 132.806 86.8235C132.809 82.2443 132.807 77.6667 132.806 73.0874Z" fill="#DEDEDE"/>
<path d="M99.4694 93.0542C99.6536 93.1027 99.8281 93.1608 100.02 93.2174C99.9945 95.4311 100.012 97.6448 100.011 99.8584C99.5679 99.8617 99.1268 99.8601 98.6873 99.8487C98.7358 98.2491 98.5968 96.6397 98.8424 95.0497C98.3237 96.2955 97.6192 97.4444 96.9551 98.6159C96.8485 98.6191 96.6368 98.6256 96.5302 98.6304C95.858 97.4476 95.0274 96.344 94.5976 95.04C94.7996 96.6397 94.7576 98.2539 94.7253 99.8633C94.3149 99.8601 93.9077 99.8584 93.5005 99.8584C93.5005 97.6302 93.5037 95.4036 93.5005 93.1754C93.898 93.1705 94.2987 93.1689 94.6994 93.1705C95.3991 94.4487 96.2732 95.6395 96.8081 97.0017C97.3332 95.6605 98.1331 94.4551 98.8133 93.1932C99.0298 93.156 99.2528 93.1269 99.4694 93.0542Z" fill="#DEDEDE"/>
<path d="M0.00411228 93.1689C1.74274 93.1624 3.48137 93.1657 5.22162 93.1673C5.22485 93.5551 5.22484 93.9445 5.22322 94.3323C4.58013 94.3355 3.93865 94.3355 3.29716 94.3275C3.23899 96.1727 3.31655 98.0212 3.25677 99.8681C2.83181 99.86 2.40684 99.8568 1.98188 99.8649C1.93341 98.0196 1.97865 96.1743 1.95765 94.3307C1.30486 94.3371 0.652055 94.3371 0.000877479 94.3323C-0.000738346 93.9445 0.000880635 93.5567 0.00411228 93.1689Z" fill="#DEDEDE"/>
<path d="M6.58043 93.2253C7.71798 93.0977 8.925 92.9151 10.0254 93.3304C11.5556 93.8927 11.6477 96.3083 10.3178 97.1405C9.61011 97.6333 8.70201 97.5994 7.88117 97.5784C7.8844 98.3378 7.87956 99.0972 7.89248 99.8583C7.45136 99.8583 7.01186 99.8567 6.57397 99.8518C6.57721 97.643 6.56912 95.4342 6.58043 93.2253ZM7.88441 94.2271C7.88117 94.9672 7.88279 95.7072 7.88602 96.4473C8.33361 96.4489 8.80058 96.4845 9.22877 96.3229C10.0141 96.0272 10.0868 94.72 9.3241 94.3548C8.87329 94.1431 8.36269 94.2126 7.88441 94.2271Z" fill="#DEDEDE"/>
<path d="M13.8064 93.14C14.128 93.1239 14.4512 93.1126 14.7743 93.1045C15.5822 95.3553 16.4112 97.5997 17.1819 99.8635C16.7262 99.8603 16.2722 99.857 15.8198 99.8554C15.6436 99.3642 15.4611 98.8762 15.2898 98.3834C14.6014 98.3624 13.9131 98.3753 13.2264 98.3721C13.0567 98.8714 12.8838 99.369 12.7045 99.8651C12.2698 99.8603 11.8351 99.8586 11.4021 99.8619C12.2068 97.6223 13.0163 95.3844 13.8064 93.14ZM13.5625 97.3266C14.0359 97.3266 14.5109 97.3283 14.986 97.3347C14.7242 96.522 14.4447 95.7157 14.2977 94.8738C14.0327 95.6817 13.8727 96.5268 13.5625 97.3266Z" fill="#DEDEDE"/>
<path d="M18.4438 93.1688C18.8785 93.1672 19.3148 93.1656 19.751 93.1656C19.7559 94.0737 19.7494 94.9818 19.7543 95.8899C20.5686 95.8899 21.383 95.8931 22.1974 95.8753C22.2022 94.9721 22.1942 94.0672 22.2039 93.164C22.6369 93.1624 23.0716 93.1656 23.5078 93.1721C23.5208 95.3954 23.4998 97.6188 23.5191 99.8422C23.0813 99.86 22.6434 99.8632 22.2071 99.86C22.1829 98.9244 22.2249 97.9856 22.1764 97.05C21.3701 97.0581 20.5638 97.0581 19.7591 97.0565C19.7397 97.9921 19.7656 98.9276 19.7446 99.8632C19.3196 99.8567 18.8946 99.8583 18.4729 99.8729C18.397 97.6398 18.4551 95.4019 18.4438 93.1688Z" fill="#DEDEDE"/>
<path d="M26.1869 93.7266C27.1645 92.8735 28.6074 92.9219 29.7821 93.2807C29.6933 93.6458 29.6109 94.011 29.5317 94.3778C28.8029 94.1823 27.9336 94.0449 27.2776 94.5087C26.6798 94.9191 26.5359 95.7012 26.5117 96.3782C26.4939 97.1473 26.6474 98.0441 27.3277 98.5127C27.9999 98.9781 28.8999 98.8536 29.6141 98.5482C29.7062 98.9053 29.7918 99.2608 29.8775 99.6212C28.803 100.096 27.4667 100.164 26.4406 99.5339C25.5551 98.9603 25.1706 97.8728 25.1383 96.8581C25.0688 95.7383 25.2998 94.4941 26.1869 93.7266Z" fill="#DEDEDE"/>
<path d="M31.3658 93.1655C33.0188 93.172 34.6734 93.1558 36.3264 93.172C36.3231 95.4002 36.3183 97.6284 36.3296 99.8567C35.8901 99.8583 35.4506 99.8567 35.0127 99.8534C35.0159 98.0179 35.0095 96.1839 35.0175 94.3483C34.2403 94.3225 33.4647 94.3419 32.6891 94.3289C32.6407 96.1726 32.6891 98.0179 32.6649 99.8615C32.2367 99.8567 31.8101 99.8583 31.3852 99.868C31.3286 97.6349 31.3642 95.3986 31.3658 93.1655Z" fill="#DEDEDE"/>
<path d="M39.8196 93.1674C40.8343 92.8814 42.0817 93.0285 42.8072 93.859C43.3857 94.494 43.5634 95.3763 43.6071 96.2068C43.6394 97.102 43.5489 98.0488 43.0625 98.8228C42.1011 100.405 39.4124 100.39 38.4671 98.7986C37.8903 97.8291 37.8773 96.6415 38.0066 95.5524C38.1229 94.515 38.7741 93.468 39.8196 93.1674ZM40.1767 94.3357C39.6127 94.6233 39.3994 95.2793 39.3461 95.8691C39.2799 96.6673 39.2815 97.5334 39.7048 98.2427C40.112 98.9747 41.2819 99.0183 41.7828 98.3639C42.177 97.8452 42.2207 97.1634 42.2352 96.5364C42.2287 95.8739 42.1544 95.1484 41.7198 94.6152C41.3562 94.1612 40.6776 94.1014 40.1767 94.3357Z" fill="#DEDEDE"/>
<path d="M45.2213 93.2305C46.3911 93.0899 47.6401 92.9074 48.7648 93.3662C50.2998 94.0223 50.2465 96.5607 48.7744 97.2588C48.0829 97.6256 47.2798 97.5949 46.5236 97.5868C46.543 98.3446 46.5317 99.1008 46.5398 99.8586C46.097 99.8651 45.6575 99.8635 45.218 99.8489C45.2293 97.6433 45.2213 95.4361 45.2213 93.2305ZM46.5349 94.2323C46.5333 94.9691 46.5365 95.706 46.5333 96.4428C47.0164 96.4509 47.5303 96.5009 47.9811 96.278C48.692 95.9079 48.6953 94.6638 47.9407 94.3406C47.4979 94.1451 47.0019 94.2097 46.5349 94.2323Z" fill="#DEDEDE"/>
<path d="M50.8186 93.1658C52.5589 93.1642 54.3007 93.1707 56.0426 93.1626C56.0491 93.5536 56.0491 93.943 56.0475 94.3341C55.393 94.3357 54.7403 94.3308 54.0875 94.3421C54.1052 96.1793 54.0972 98.0165 54.0955 99.8537C53.6576 99.8586 53.2198 99.8602 52.7851 99.857C52.7851 98.0246 52.7738 96.1923 52.7948 94.3599C52.1452 94.3179 51.4957 94.326 50.8477 94.3535C50.8219 93.9592 50.8154 93.5617 50.8186 93.1658Z" fill="#DEDEDE"/>
<path d="M57.4127 93.1658C57.8393 93.1658 58.2674 93.1658 58.6989 93.1658C58.7102 94.0675 58.7118 94.9707 58.7053 95.874C59.5213 95.8917 60.3373 95.8901 61.1549 95.8901C61.1614 94.9804 61.1533 94.0723 61.1598 93.1626C61.5928 93.1658 62.0259 93.1674 62.4621 93.1691C62.4783 95.3973 62.4654 97.6255 62.4702 99.8537C62.0275 99.8634 61.5864 99.8602 61.1485 99.844C61.1646 98.9166 61.1565 97.9891 61.1565 97.0616C60.3373 97.0584 59.5181 97.0503 58.7005 97.06C58.7118 97.9907 58.7069 98.9214 58.7118 99.8537C58.2723 99.857 57.8344 99.8586 57.3981 99.8586C57.3997 97.6271 57.3755 95.3957 57.4127 93.1658Z" fill="#DEDEDE"/>
<path d="M66.1318 93.1172C66.4533 93.1172 66.7765 93.1172 67.1013 93.1204C67.8963 95.3696 68.7171 97.6108 69.5073 99.8616C69.0467 99.8584 68.5862 99.8584 68.129 99.8616C67.9528 99.3591 67.7799 98.8566 67.5764 98.3654C66.8977 98.3767 66.2207 98.3735 65.5436 98.367C65.3707 98.8566 65.2043 99.3494 65.046 99.8439C64.6048 99.8584 64.1637 99.8616 63.7258 99.8633C64.5127 97.6092 65.3352 95.368 66.1318 93.1172ZM66.5551 94.838C66.4388 95.6977 66.1383 96.5104 65.8813 97.3345C66.3564 97.3329 66.8347 97.328 67.313 97.3232C66.9947 96.5137 66.8104 95.6653 66.5551 94.838Z" fill="#DEDEDE"/>
<path d="M71.6289 93.46C72.7115 92.9171 73.9815 93.0593 75.1417 93.2096C75.14 95.4313 75.1611 97.6515 75.1304 99.8733C74.6989 99.8603 74.2707 99.8571 73.8425 99.8539C73.8328 98.9732 73.8377 98.0942 73.8377 97.2136C73.605 97.2734 73.3723 97.3332 73.1429 97.393C72.6808 98.2186 72.217 99.0459 71.7339 99.8603C71.233 99.8619 70.7353 99.8652 70.2393 99.8442C70.871 98.9732 71.2233 97.8486 72.1427 97.2233C70.4865 96.8371 70.1779 94.2777 71.6289 93.46ZM72.2251 94.7075C71.9746 95.1631 72.0425 95.8547 72.5062 96.1552C72.9054 96.396 73.3885 96.3508 73.8393 96.3556C73.8361 95.6608 73.8328 94.966 73.8425 94.2728C73.2867 94.2292 72.5644 94.1581 72.2251 94.7075Z" fill="#DEDEDE"/>
<path d="M80.0681 93.1688C80.5012 93.1688 80.9358 93.1688 81.3737 93.1688C81.3769 94.1416 81.3689 95.1143 81.3769 96.087C81.5434 96.0612 81.6743 95.982 81.7728 95.8463C82.3852 94.9866 82.8958 94.0576 83.5212 93.2092C84.014 93.1188 84.5246 93.1818 85.0271 93.1608C84.4341 94.0155 83.8379 94.8655 83.2465 95.7202C83.0833 95.9707 82.8344 96.142 82.5985 96.3132C82.8942 96.5685 83.1899 96.8319 83.4081 97.1599C84.0366 98.0599 84.6878 98.9454 85.3115 99.8503C84.7766 99.86 84.2434 99.86 83.7118 99.8681C83.0542 98.9212 82.3885 97.9808 81.7518 97.021C81.6565 97.021 81.4674 97.021 81.3721 97.021C81.3786 97.963 81.3673 98.9066 81.3753 99.8503C80.9439 99.8567 80.5141 99.8632 80.0859 99.8745C80.0374 97.6398 80.0762 95.4035 80.0681 93.1688Z" fill="#DEDEDE"/>
<path d="M87.8694 93.2447C88.6256 92.9587 89.4949 92.9603 90.2495 93.256C91.2206 93.6665 91.749 94.7184 91.8378 95.725C91.951 96.7931 91.8993 97.9613 91.2998 98.8872C90.4563 100.178 88.4689 100.329 87.2909 99.4317C86.3101 98.619 86.1631 97.2277 86.2277 96.0385C86.2713 94.9236 86.7739 93.6923 87.8694 93.2447ZM88.485 94.3209C87.8823 94.581 87.6836 95.2855 87.6238 95.8818C87.5559 96.7155 87.5543 97.6446 88.0633 98.354C88.5529 99.0375 89.7227 98.9534 90.1526 98.2441C90.4822 97.6818 90.5113 97.0031 90.5113 96.3681C90.487 95.7654 90.4079 95.1126 90.0136 94.6295C89.6613 94.1771 88.9859 94.1011 88.485 94.3209Z" fill="#DEDEDE"/>
<path d="M101.848 93.1626C103.498 93.1723 105.147 93.1594 106.797 93.1707C106.788 95.4005 106.796 97.632 106.791 99.8634C106.351 99.8618 105.913 99.857 105.477 99.844C105.487 98.0068 105.48 96.1696 105.48 94.3308C104.703 94.3373 103.926 94.3405 103.15 94.3244C103.12 96.1696 103.147 98.0133 103.136 99.8586C102.698 99.8586 102.26 99.8586 101.825 99.8537C101.838 97.6239 101.799 95.3924 101.848 93.1626Z" fill="#DEDEDE"/>
<path d="M110.435 93.1302C110.754 93.1205 111.076 93.1157 111.401 93.1108C112.225 95.3536 113.026 97.6061 113.816 99.8618C113.358 99.8634 112.9 99.8618 112.446 99.8585C112.273 99.3625 112.092 98.8713 111.919 98.3768C111.229 98.3703 110.54 98.3704 109.851 98.3752C109.685 98.8696 109.513 99.3641 109.349 99.8601C108.909 99.8634 108.471 99.8618 108.037 99.8537C108.832 97.6109 109.654 95.3778 110.435 93.1302ZM110.195 97.3233C110.669 97.3233 111.145 97.3249 111.624 97.333C111.362 96.5251 111.061 95.7269 110.94 94.8818C110.649 95.6752 110.51 96.5299 110.195 97.3233Z" fill="#DEDEDE"/>
<path d="M115.078 93.1691C115.511 93.1658 115.946 93.1658 116.384 93.1674C116.389 94.0707 116.366 94.9739 116.397 95.8772C117.205 95.8998 118.014 95.8869 118.824 95.8885C118.83 94.982 118.824 94.0739 118.832 93.1674C119.267 93.1642 119.705 93.1626 120.142 93.1658C120.136 95.3957 120.141 97.6255 120.139 99.8553C119.7 99.8618 119.26 99.8602 118.824 99.8489C118.83 98.9182 118.827 97.9891 118.829 97.06C118.011 97.0551 117.194 97.0503 116.378 97.0664C116.374 97.9988 116.4 98.9295 116.371 99.8618C115.946 99.8553 115.523 99.8602 115.103 99.8731C115.035 97.64 115.083 95.4037 115.078 93.1691Z" fill="#DEDEDE"/>
<path d="M121.973 93.1675C122.408 93.1675 122.846 93.1707 123.284 93.1756C123.272 94.6896 123.314 96.2052 123.224 97.716C124.025 96.0905 125.227 94.7122 126.179 93.1772C126.514 93.1675 126.85 93.1659 127.189 93.1707C127.183 95.3989 127.186 97.6288 127.187 99.8586C126.745 99.8651 126.304 99.8618 125.864 99.8376C125.896 98.3236 125.835 96.8079 125.917 95.2955C125.074 96.9081 123.94 98.3446 122.949 99.8683C122.618 99.8618 122.291 99.857 121.965 99.8489C121.976 97.6207 121.963 95.3941 121.973 93.1675Z" fill="#DEDEDE"/>
<path d="M129.944 93.4322C131.02 92.9313 132.269 93.0363 133.406 93.2334C133.395 95.4422 133.408 97.6511 133.4 99.8599C132.962 99.8583 132.524 99.8583 132.09 99.8567C132.093 98.9777 132.086 98.0987 132.098 97.2197C131.871 97.2714 131.645 97.3231 131.424 97.3732C130.934 98.1875 130.479 99.0213 130.025 99.8567C129.512 99.8599 129.003 99.8615 128.494 99.8615C129.11 98.9728 129.488 97.8628 130.399 97.2213C128.714 96.8432 128.433 94.1997 129.944 93.4322ZM130.584 94.5649C130.191 95.0286 130.26 95.8543 130.807 96.1758C131.194 96.402 131.658 96.3471 132.091 96.3649C132.091 95.662 132.094 94.9591 132.088 94.2562C131.581 94.2546 130.978 94.169 130.584 94.5649Z" fill="#DEDEDE"/>
<path d="M97.4921 0.000488281H99.3083C103.653 0.192771 107.979 1.20913 111.883 3.1465C117.137 5.69627 121.673 9.7326 124.741 14.7093C126.47 17.4773 127.758 20.5182 128.572 23.6788C130.217 30.3295 129.605 37.5232 126.813 43.7845C124.446 49.2088 120.505 53.9513 115.542 57.191C110.828 60.3128 105.259 62.0999 99.6137 62.3713H97.3354C92.517 62.1564 87.7277 60.8799 83.5088 58.5241C85.2845 59.34 87.0797 60.1286 88.967 60.6537C97.9235 63.378 108.071 61.6636 115.665 56.2005C120.581 52.6861 124.426 47.6964 126.546 42.0362C128.925 35.812 129.135 28.7961 127.173 22.4314C125.405 16.5902 121.868 11.2822 117.084 7.48176C111.107 2.6973 103.309 0.226704 95.6662 0.79709C89.2045 1.26245 82.9109 3.81222 77.9535 7.97943C75.5363 9.9879 73.4939 12.4133 71.7488 15.018C73.9867 11.1658 77.1553 7.8841 80.82 5.36826C85.7111 2.02189 91.5798 0.191156 97.4921 0.000488281Z" fill="#DEDEDE"/>
<path d="M48.4938 31.7984C53.7178 30.0437 59.0646 28.6767 64.2821 26.9009C64.1964 27.5601 64.1189 28.221 64.0785 28.8835C60.9955 29.5831 57.9755 30.5236 54.9264 31.3509C48.3629 33.083 41.7962 34.8006 35.215 36.4601C33.6395 36.8269 32.0851 37.2842 30.5 37.609C31.358 37.0935 32.3227 36.7897 33.2792 36.5183C38.3901 35.0753 43.4411 33.4337 48.4938 31.7984Z" fill="#DEDEDE"/>
<path d="M57.3549 37.5443C59.7253 37.0806 62.0893 36.5829 64.4678 36.166C64.5874 36.7606 64.7231 37.3504 64.8475 37.945C63.1574 38.2213 61.4737 38.5316 59.7851 38.8079C58.0724 39.068 56.3483 39.2409 54.6323 39.4623C52.892 39.7418 51.1728 40.1506 49.4228 40.3736C47.6616 40.6144 45.8858 40.7614 44.1359 41.0797C40.6198 41.6679 37.1183 42.3385 33.591 42.8588C32.67 42.9783 31.7473 43.2417 30.8118 43.1044C32.022 42.5695 33.3535 42.374 34.6445 42.1187C42.2163 40.5966 49.788 39.0874 57.3549 37.5443Z" fill="#DEDEDE"/>
<path d="M96.1155 1.37257C96.6148 1.36934 97.1335 1.26592 97.6199 1.42428C98.6265 1.75067 99.6364 2.07061 100.603 2.50203C100.826 2.61675 101.079 2.56666 101.319 2.55374C102.997 2.39377 104.687 2.61675 106.324 2.98516C108.776 3.57171 111.139 4.58321 113.187 6.06169C114.255 6.86153 115.292 7.76477 115.953 8.94109C116.111 9.20447 116.221 9.53248 116.53 9.66013C117.352 10.1077 118.142 10.6102 118.926 11.1225C120.175 11.8302 121.211 12.8417 122.231 13.8419C122.58 14.1941 123.011 14.5173 123.135 15.0263C123.396 15.9166 123.551 16.8538 123.473 17.7829C123.378 18.1771 123.725 18.4518 123.911 18.7556C124.649 19.8334 125.462 20.916 125.748 22.2183L125.713 22.3524C125.509 21.8871 125.315 21.404 124.969 21.0226C124.405 20.226 123.906 19.3842 123.354 18.5779C123.145 19.1143 122.938 19.6621 122.591 20.1274C122.432 20.3585 122.198 20.5702 122.224 20.8756C122.159 20.9063 122.03 20.9661 121.966 20.9951L121.925 20.9305C120.327 18.4454 118.475 16.117 116.321 14.0875C116.008 13.8225 115.749 13.4573 115.378 13.2812C114.856 13.5672 114.332 13.858 113.757 14.0245C115.636 16.3173 117.339 18.7702 118.702 21.4072C118.632 21.4637 118.491 21.5752 118.422 21.6318C116.997 18.9608 115.289 16.4434 113.35 14.1182C112.527 14.2959 111.689 14.3606 110.852 14.3767C112.027 16.8845 113.056 19.4617 113.861 22.1133C113.872 22.1521 113.894 22.2296 113.904 22.2684C113.804 22.2539 113.604 22.2264 113.503 22.2119C113.494 22.1828 113.476 22.123 113.466 22.0939C112.675 19.4472 111.611 16.891 110.456 14.3848C109.423 14.283 108.389 14.1748 107.373 13.9502C107.525 15.8552 107.641 17.7635 107.703 19.6734C107.609 19.6282 107.421 19.5361 107.328 19.4908C107.241 17.6132 107.15 15.7324 106.984 13.8597C106.111 13.6399 105.25 13.3765 104.416 13.0421C104.19 13.6625 104.004 14.2992 103.745 14.9067L103.728 14.9374C103.563 15.099 103.387 15.2477 103.207 15.3931C103.464 14.5561 103.783 13.7401 104.064 12.9112C103.22 12.5719 102.422 12.1372 101.624 11.7058C100.2 13.1794 98.8447 14.7128 97.5019 16.2592C97.4874 16.2753 97.4583 16.3076 97.4438 16.3238C97.3581 16.2947 97.1868 16.2365 97.1012 16.2075C98.4019 14.5658 99.8578 13.0372 101.291 11.5054C100.482 11.0013 99.7108 10.4341 99.0143 9.78455C96.0881 11.1144 93.2539 12.6688 90.6395 14.5415C90.9691 15.0295 91.4733 15.3656 91.8756 15.7922L91.5266 15.8584C91.4911 15.8665 91.4183 15.8811 91.3828 15.8891C91.0273 15.5062 90.6508 15.1426 90.276 14.7775C89.7524 15.1685 89.2305 15.5627 88.6989 15.9441C88.4614 16.117 88.2255 16.2915 87.9912 16.4692C87.8393 16.4983 87.5355 16.5549 87.3836 16.5839C88.1802 15.7938 89.1174 15.1685 90.0174 14.506C89.0431 13.3862 88.1269 12.1937 87.5258 10.8235C85.5868 11.6993 83.7012 12.7011 81.9351 13.8904L81.8753 13.9275C81.7896 13.8742 81.6184 13.7659 81.5311 13.7126C81.9415 13.5123 82.3164 13.2473 82.6735 12.9645C84.1778 12.0095 85.771 11.2016 87.3949 10.4729C87.0621 9.54218 86.894 8.56137 86.9264 7.57249C84.0841 8.40949 81.355 9.62782 78.8391 11.1952C78.7681 11.5199 78.8795 12.0419 78.3883 12.0225C78.3932 11.8835 78.4045 11.6056 78.411 11.4666C77.2459 12.239 76.1213 13.0679 75.0565 13.9728L74.9789 14.0358C74.7236 14.2652 74.4037 14.4123 74.0547 14.4074C75.1389 13.2747 76.4396 12.3666 77.7242 11.4731C78.0102 11.2404 78.5047 11.1144 78.5111 10.6733C78.7325 9.71184 78.8311 8.48705 79.8183 7.98291C79.3998 8.85545 79.0217 9.75708 78.8698 10.7201C81.4099 9.19316 84.1374 7.97968 86.9845 7.15722C87.117 6.32992 87.4822 5.5721 87.9314 4.87245C85.7613 5.26348 83.6462 5.91142 81.6054 6.74357C82.2308 6.34769 82.8512 5.93243 83.5267 5.62219C85.0019 5.11805 86.5224 4.74803 88.0574 4.47011C88.3757 4.4394 88.56 4.14856 88.791 3.96274C89.5278 3.24046 90.4876 2.83327 91.4022 2.39054C91.7787 2.24027 92.1665 2.04314 92.5834 2.0803C94.6241 2.25643 96.6391 2.67492 98.5991 3.26793C99.1081 3.03364 99.6429 2.85751 100.176 2.68623C98.8511 2.16756 97.4971 1.72159 96.1155 1.37257ZM92.1616 2.50688C91.0095 2.90599 89.8542 3.43113 88.9898 4.31499C91.7754 3.91426 94.6128 3.90941 97.405 4.26813C97.636 4.01606 97.8816 3.7753 98.1305 3.53939C96.3692 2.99163 94.5466 2.683 92.7207 2.45356C92.5284 2.41639 92.341 2.43417 92.1616 2.50688ZM101.605 2.95769C103.073 3.74298 104.474 4.664 105.665 5.83709C105.159 4.78681 104.487 3.80762 103.64 3.00617C102.976 2.87205 102.28 2.94477 101.605 2.95769ZM99.2551 3.48284C101.43 4.17926 103.51 5.14875 105.489 6.28306C104.221 4.8579 102.553 3.85932 100.856 3.02394C100.312 3.13705 99.7592 3.24046 99.2551 3.48284ZM104.232 3.03525C105.062 4.00313 105.802 5.06634 106.239 6.27337C106.575 5.41375 106.777 4.50889 107.087 3.64119C106.161 3.33418 105.195 3.17098 104.232 3.03525ZM97.9156 4.33276C99.7964 4.63007 101.647 5.08897 103.463 5.65774C101.978 4.81266 100.346 4.2552 98.7316 3.70259C98.4488 3.89972 98.1773 4.10978 97.9156 4.33276ZM107.449 3.72359C107.166 4.62684 106.883 5.53009 106.622 6.44141C107.892 5.64158 109.377 5.19238 110.868 5.08573C109.75 4.57675 108.627 4.07746 107.449 3.72359ZM88.4905 4.77711C87.9589 5.43637 87.5694 6.20712 87.3949 7.03604C90.4763 6.21358 93.6595 5.78377 96.8491 5.75307C96.9041 5.37174 96.9929 4.99525 97.1464 4.63977C94.2767 4.24066 91.3489 4.32468 88.4905 4.77711ZM97.6183 4.69632C97.4761 5.03564 97.3662 5.38789 97.2967 5.74822C99.617 5.75307 101.939 5.95666 104.222 6.37032C102.104 5.5414 99.874 4.99363 97.6183 4.69632ZM107.41 6.46403C109.488 6.25074 111.584 6.47373 113.613 6.93585C112.917 6.31215 112.111 5.83063 111.311 5.35235C109.981 5.55756 108.569 5.72722 107.41 6.46403ZM87.319 7.47231C87.2608 8.43857 87.4079 9.40807 87.7472 10.3162C90.7946 9.0235 93.9907 8.08471 97.2531 7.52078C97.0657 7.08451 96.9267 6.62723 96.8685 6.15541C93.6482 6.15703 90.4181 6.59007 87.319 7.47231ZM97.2886 6.1441C97.371 6.5836 97.5052 7.00857 97.6635 7.42545C99.1485 7.23478 100.63 7.0021 102.126 6.90839C102.839 6.84375 103.56 6.88253 104.266 6.75811C101.963 6.35577 99.6267 6.10047 97.2886 6.1441ZM108.066 6.85668C110.708 7.11683 113.224 8.07824 115.623 9.17054C115.224 8.55329 114.785 7.93928 114.208 7.47554C113.012 7.12329 111.768 6.94232 110.529 6.82275C109.709 6.77104 108.876 6.68379 108.066 6.85668ZM97.8849 7.79063C98.2371 8.35293 98.6508 8.87969 99.1468 9.32404C100.979 8.47574 102.894 7.83102 104.802 7.17823C102.485 7.2057 100.173 7.4206 97.8849 7.79063ZM107.897 7.16853C108.435 7.40606 109.007 7.54987 109.559 7.75023C111.493 8.4515 113.353 9.35313 115.106 10.4277C115.444 10.6474 115.785 10.8704 116.153 11.0368C116.131 10.6054 116.047 10.1804 115.927 9.76678C113.411 8.4822 110.703 7.5434 107.897 7.16853ZM99.4231 9.59389C100.113 10.161 100.803 10.7977 101.63 11.1386C102.908 9.88797 104.166 8.61146 105.507 7.42545C103.419 7.96029 101.409 8.76335 99.4231 9.59389ZM101.944 11.4004C102.685 11.793 103.437 12.1695 104.212 12.4911C104.788 10.8462 105.371 9.20447 105.948 7.56118C104.545 8.7682 103.217 10.0592 101.944 11.4004ZM108.228 7.75669C110.782 9.13338 113.175 10.8009 115.365 12.7027C115.646 12.3521 116.073 11.9578 116.029 11.486C115.331 10.9706 114.573 10.5375 113.819 10.111C112.04 9.15438 110.196 8.24306 108.228 7.75669ZM87.8797 10.6813C88.4824 12.0063 89.342 13.2004 90.3244 14.2701C92.9712 12.4313 95.7827 10.8332 98.7203 9.50663C98.2307 9.00896 97.8057 8.45473 97.4357 7.86495C94.1604 8.4515 90.9368 9.35959 87.8797 10.6813ZM104.565 12.6268C105.34 12.9354 106.139 13.1842 106.948 13.3862C106.748 11.5571 106.554 9.72638 106.234 7.91343C105.655 9.47593 105.125 11.0578 104.565 12.6268ZM106.639 7.85849C106.901 9.73446 107.156 11.6137 107.339 13.501C108.286 13.6981 109.243 13.8548 110.209 13.913C109.15 11.8205 107.993 9.77324 106.639 7.85849ZM107.253 8.04916C108.502 9.9429 109.629 11.9158 110.65 13.9421C111.45 13.9405 112.253 13.8952 113.041 13.753C111.261 11.7106 109.381 9.73285 107.253 8.04916ZM107.918 8.05401C109.881 9.79748 111.765 11.6379 113.453 13.6512C114.025 13.5026 114.572 13.2667 115.071 12.9483C112.873 11.0675 110.506 9.35636 107.918 8.05401ZM116.483 10.0657C116.57 10.4891 116.607 10.9205 116.583 11.3519C119.049 13.118 121.255 15.2299 123.124 17.6181C123.176 16.6825 123.024 15.734 122.673 14.8663C120.868 12.9661 118.789 11.3212 116.483 10.0657ZM116.485 11.8043C116.313 12.2568 116.034 12.6526 115.699 12.9984C118.115 15.141 120.237 17.6165 121.977 20.3375C122.478 19.7106 122.845 18.9883 123.05 18.2127C121.225 15.7453 119.026 13.5349 116.485 11.8043Z" fill="#DEDEDE"/>
<path d="M84.514 16.2593C85.4188 16.0363 86.4013 16.1688 87.1575 16.736C87.2657 16.8071 87.374 16.8782 87.4855 16.9477C87.9589 17.2482 88.5455 17.1513 89.0771 17.1755C89.0916 17.1965 89.1239 17.2385 89.1401 17.2595C89.5117 17.1609 89.8914 17.2854 90.2421 17.4098C90.8496 17.6651 91.4426 17.9495 92.0405 18.229L92.2893 18.3518C93.0245 18.7315 93.7517 19.1306 94.4933 19.5007L94.7615 19.638C96.3741 20.5138 98.0934 21.2716 99.4345 22.5562C99.7948 22.8842 100.036 23.3124 100.293 23.7196C100.357 23.7939 100.486 23.9409 100.551 24.0153C101.425 24.9363 101.711 26.2548 101.805 27.4845C101.86 28.3408 101.923 29.1988 101.963 30.0568C102.002 30.91 102.348 31.7098 102.438 32.5565C102.443 32.6616 102.453 32.8684 102.458 32.9718C102.437 33.581 102.516 34.2079 102.362 34.8041C102.125 35.4327 101.39 35.4375 100.827 35.4715C101.511 35.6993 102.33 35.9643 102.566 36.7318C102.721 37.8968 102.576 39.0796 102.44 40.2414C102.408 40.6922 102.173 41.0913 101.894 41.4339C101.834 41.4759 101.714 41.5631 101.655 41.6052C102.078 41.9622 102.173 42.5019 102.075 43.0255C102.686 43.0287 103.138 43.4989 103.115 44.1113C103.618 44.1905 104.12 44.2648 104.621 44.3488C104.862 43.5732 104.991 42.7685 105.226 41.9929C105.323 41.9816 105.518 41.959 105.615 41.9477C105.411 42.7605 105.221 43.5765 105.019 44.3908C107.729 44.7221 110.467 44.7641 113.19 44.5815C113.006 44.7124 112.873 44.9693 112.626 44.9758C110.059 45.1987 107.475 45.0485 104.92 44.7544C104.55 46.165 104.104 47.553 103.678 48.9475C103.852 49.4904 103.965 50.1399 103.634 50.6505C103.43 51.0303 103.075 51.2856 102.781 51.5861C102.595 51.8527 102.511 52.1775 102.385 52.4732C105.689 52.8594 109.047 52.8917 112.343 52.415C113.36 50.2708 114.016 47.9812 114.554 45.6786L114.56 45.6625C114.714 45.4476 114.885 45.244 115.06 45.0436C114.554 47.5482 113.857 50.0236 112.789 52.3488C115.241 51.9287 117.697 51.2791 119.889 50.0834C121.263 47.8584 121.798 45.2521 122.198 42.7023C119.994 43.709 117.635 44.3456 115.244 44.7108C115.323 44.5783 115.404 44.4458 115.484 44.3149L115.515 44.2648C116.05 44.2018 116.58 44.1016 117.105 43.9788L117.205 43.9562C118.946 43.5829 120.639 43.0028 122.253 42.2515C122.374 41.5341 122.424 40.8069 122.492 40.083C122.588 40.083 122.778 40.0847 122.874 40.0847C122.817 40.7375 122.751 41.3902 122.667 42.0398C124.002 41.3482 125.231 40.4628 126.325 39.4335C126.212 39.7179 126.212 40.0879 125.942 40.285C124.934 41.1673 123.791 41.8798 122.607 42.5019C122.247 44.9984 121.722 47.5175 120.527 49.7651C120.956 49.5033 121.379 49.2367 121.799 48.9604C121.62 49.206 121.445 49.4581 121.256 49.6956C120.94 50.0979 120.332 50.1383 120.054 50.5794C119.369 51.6427 118.681 52.735 117.711 53.5655C116.853 54.3298 115.987 55.1005 115.021 55.7258C116.738 54.2781 118.309 52.6299 119.522 50.7297C117.38 51.6992 115.108 52.3682 112.784 52.7253C112.557 52.7172 112.51 52.9676 112.416 53.1195C111.558 54.9292 110.477 56.6259 109.302 58.2465C110.317 58.0736 111.3 57.7602 112.306 57.5501C111.802 57.7828 111.329 58.0769 110.813 58.2837C110.204 58.4728 109.566 58.5503 108.944 58.6877C108.677 59.1433 108.281 59.4956 107.758 59.6216C107.973 59.3275 108.199 59.0415 108.43 58.7588C105.484 59.2031 102.485 59.1611 99.5266 58.867C99.092 59.7105 98.6492 60.5507 98.2049 61.3909C98.0966 61.3861 97.8833 61.3796 97.7751 61.3748C98.2404 60.5281 98.6832 59.6701 99.1275 58.8121C95.723 58.3936 92.3685 57.584 89.1385 56.4303C88.7588 57.542 88.3596 58.6489 87.9735 59.7589C87.8862 59.7444 87.7117 59.7153 87.6261 59.7024C87.9508 58.5503 88.3984 57.4386 88.7943 56.3108C87.9557 55.9634 87.0993 55.6596 86.2736 55.2799C85.7808 55.0133 85.2072 55.1151 84.6723 55.1005C82.8368 55.0924 81.0012 55.1215 79.1672 55.0892C78.8279 54.8937 78.5597 54.6012 78.2672 54.3443C83.0436 54.3475 87.82 54.3443 92.598 54.3459C93.3784 54.3589 94.2089 54.1262 94.7341 53.5154C95.3303 52.8707 95.4467 51.9707 95.7698 51.1886C97.6749 51.1644 99.5832 51.1999 101.488 51.1692C102.369 51.1563 103.329 50.3387 103.047 49.395C102.805 49.631 102.652 49.9525 102.385 50.1642C101.905 50.4001 101.344 50.3387 100.827 50.3161C99.1582 50.1432 97.4777 50.1367 95.8054 49.9961C93.8745 49.8491 91.9403 49.7441 90.0094 49.6148C89.7024 49.5695 89.3291 49.6245 89.0948 49.3805C88.9349 49.1721 88.9349 48.8974 88.9187 48.6485C88.8525 46.06 88.7992 43.4698 88.7087 40.8813C88.6941 40.4014 88.6828 39.9182 88.7571 39.4416C88.804 39.0182 89.2451 38.6854 89.6668 38.7516C90.6897 38.8486 91.643 39.259 92.5527 39.7082C92.1051 39.1572 91.5881 38.6272 90.9256 38.3444C90.2631 38.0746 89.5392 38.0326 88.8363 37.9905C88.6667 36.2034 88.5746 34.4083 88.3952 32.6228C88.253 34.4584 88.2385 36.3069 88.0429 38.1408C87.1946 38.2475 86.3415 38.3283 85.5013 38.4979C84.0567 38.7936 82.5766 38.8518 81.1224 39.0958C78.8715 39.524 76.5771 39.6532 74.3246 40.0863L74.3375 40.2204C75.3587 40.1137 76.3718 39.936 77.3995 39.9021C79.2997 39.8568 81.1708 39.4529 83.0694 39.3688C84.695 39.28 86.3076 38.9649 87.9379 38.9697C87.6697 41.3014 87.9492 43.6411 88.0543 45.9727C86.7147 45.9582 85.3752 45.9663 84.0357 45.9646C83.6608 43.9449 82.6526 41.8895 80.8073 40.8441C81.4116 41.6908 82.2712 42.3694 82.659 43.3583C83.0242 44.3811 83.3086 45.4395 83.3748 46.5286C83.4007 46.9648 83.9662 46.7661 84.2118 46.9794C84.7693 47.5078 85.01 48.3351 85.6612 48.7633C86.4804 48.857 87.3061 48.8974 88.127 48.9765C88.1318 49.3094 87.9557 49.6713 87.5663 49.6342C85.9472 49.673 84.3249 49.5389 82.7075 49.6277C82.5201 48.1315 82.6542 46.5011 81.8139 45.1761C81.2613 44.3068 80.859 43.2339 79.8976 42.7281C79.0961 42.2903 78.1799 41.9412 77.2541 42.1206C75.7126 42.3872 74.1776 43.2937 73.5393 44.7754C73.103 45.8483 72.9544 47.0085 72.8009 48.1492C71.143 45.6576 69.9166 42.8994 69.057 40.0378C68.8162 39.8342 68.9003 39.5353 68.931 39.2654C68.8857 39.3268 68.7936 39.4496 68.7468 39.511C68.1651 38.1117 68.0277 36.5767 68.0859 35.0756C68.0439 34.216 67.9356 33.3596 67.9421 32.4984C66.344 32.7957 64.7524 33.1221 63.1512 33.4065C59.4752 34.1223 55.8896 35.263 52.191 35.8722C50.391 36.2067 48.6168 36.6526 46.8329 37.0485C43.2991 37.8694 39.7072 38.401 36.1717 39.2153C34.3184 39.5644 32.4876 40.0637 30.6149 40.2963L30.5923 40.138C31.9318 39.5773 33.3634 39.3188 34.7708 38.9956C37.9588 38.2959 41.0984 37.3959 44.267 36.6139C52.2185 34.8445 60.0213 32.4774 67.9663 30.6838C68.0455 29.3346 68.1101 27.9773 68.3622 26.6491C68.6951 25.2045 68.9972 23.7471 69.5191 22.3574C71.0025 21.8145 72.4373 21.0777 74.0014 20.7982C73.5199 22.1942 73.124 23.6178 72.83 25.0656C72.4648 26.3308 72.363 27.646 72.2644 28.9532C72.5407 28.8999 72.544 28.5913 72.6199 28.3764C73.1774 26.1724 73.4294 23.8553 74.4765 21.8064C74.6946 21.3556 75.0307 20.9387 75.5187 20.7675C77.0182 20.1728 78.5306 19.6025 80.0753 19.1323C81.6087 18.7348 83.1454 18.3486 84.6836 17.9656C85.4011 17.775 86.2251 17.8913 86.7729 18.4213C87.437 18.9513 87.4677 19.8642 87.8701 20.559C87.9832 20.5542 88.211 20.5477 88.3257 20.5445C88.2886 20.2973 88.2562 20.05 88.2271 19.8028C88.35 20.0274 88.4598 20.2569 88.5665 20.4895C89.4665 20.6269 90.4166 20.6366 91.2471 21.0583C91.9096 21.3912 92.6076 21.64 93.2911 21.9276C95.2221 22.805 97.1077 23.7842 98.9449 24.8426C99.3473 25.0785 99.7027 25.4178 100.178 25.4954C100.63 26.5408 100.705 27.6913 100.745 28.8143C100.428 27.9547 100.194 27.0676 99.8837 26.2063C99.7641 25.8379 99.4394 25.6036 99.1097 25.4372C97.5876 24.6471 96.1463 23.6889 94.5434 23.0652C92.648 22.2605 90.8157 21.1391 88.7103 21.0195C88.4259 21.0034 87.9783 21.1181 88.0688 21.4978C88.9058 24.3304 89.4972 27.2308 90.3099 30.073C90.436 30.4527 90.5119 30.8841 90.8222 31.1653C91.2778 31.6048 91.9629 31.5563 92.522 31.7745C95.1849 32.6923 97.8429 33.6197 100.483 34.5989C100.856 34.6894 101.451 34.9156 101.692 34.5068C101.74 33.8799 101.729 33.2449 101.693 32.6179C101.643 31.747 101.239 30.9407 101.22 30.0682C101.092 28.3263 101.23 26.4552 100.343 24.8781C100.27 24.6794 100.05 24.6487 99.8805 24.5808C99.5929 24.1009 99.4264 23.537 99.0015 23.1492C98.1871 22.372 97.2224 21.7677 96.2336 21.2393C94.5289 20.3603 92.85 19.4344 91.1243 18.6006C90.5022 18.3114 89.8672 18.0109 89.1789 17.9236C88.7006 17.8574 88.2126 17.9802 87.7408 17.8687C87.0234 17.7023 86.5483 17.0058 85.797 16.9331C84.5754 16.8006 83.4201 17.3128 82.2728 17.6441C80.308 18.2048 78.3431 18.9545 76.2668 18.8947C74.3068 19.0725 72.3888 19.5572 70.4547 19.9095C70.5791 19.6332 70.7019 19.3552 70.8199 19.0741C70.9911 19.0353 71.164 18.9981 71.3369 18.9642C72.6393 18.7121 73.9513 18.5085 75.2521 18.2484C75.8499 18.1482 76.4559 18.1143 77.0602 18.1046C78.0119 18.124 78.9281 17.8477 79.8313 17.5859C79.9234 17.5601 80.1044 17.5116 80.1965 17.4857C81.6524 17.1383 83.0436 16.5502 84.514 16.2593ZM83.8483 20.168C81.8172 20.887 79.7683 21.5592 77.7679 22.3639C77.574 22.4544 77.2977 22.5352 77.2816 22.7905C77.2444 23.314 77.2379 23.8424 77.2864 24.3659C77.5126 24.6697 77.8907 24.4823 78.1719 24.3853C79.8523 23.7438 81.5506 23.1476 83.2116 22.456C84.0276 22.0989 84.9212 22.0068 85.7889 21.8501C85.9844 21.7887 86.3399 21.7709 86.3593 21.5027C86.4077 20.9371 86.112 20.4136 85.9391 19.8885C85.2314 19.7899 84.514 19.9224 83.8483 20.168ZM84.0826 23.2542C84.0389 24.8167 84.0438 26.3841 84.0745 27.9466C84.0971 28.3554 84.5786 28.3909 84.8905 28.42C84.6368 26.9254 84.5043 25.413 84.3136 23.9086C84.2651 23.684 84.3152 23.39 84.0826 23.2542ZM78.1719 25.3403C77.637 25.5196 77.0424 25.8977 77.0166 26.5214C76.9406 27.7511 76.8744 28.9823 76.7968 30.212C76.8178 30.456 76.7241 30.9068 77.078 30.9391C78.9717 30.6402 80.8154 30.0633 82.7107 29.7741C83.3635 29.9858 83.9743 30.3622 84.6756 30.3978C85.3219 30.4269 85.9634 30.3025 86.6081 30.2669C87.13 30.2879 87.5485 29.7563 87.4677 29.2538C87.3853 27.8916 87.1946 26.5392 87.0557 25.1819C87.0314 24.8959 86.9523 24.618 86.8537 24.3498C86.8408 25.5487 86.8569 26.7476 86.8472 27.9466C86.8602 28.3344 86.6792 28.7674 86.2817 28.8902C85.8842 28.9645 85.4819 28.8547 85.086 28.8175C85.128 28.929 85.2104 29.1536 85.2508 29.2651C84.7644 29.0292 84.2474 28.8272 83.8337 28.4717C83.7125 28.2697 83.7287 28.0241 83.719 27.7995C83.7206 26.3631 83.7723 24.9234 83.6899 23.4901C81.8333 24.0541 80.0268 24.7699 78.1719 25.3403ZM92.3394 33.8524C92.1956 34.2548 92.4881 34.6991 92.9017 34.7718C95.6923 35.7139 98.5119 36.5686 101.325 37.4347C101.104 37.4218 100.881 37.4024 100.666 37.3507C98.7833 36.8724 96.888 36.4523 95.012 35.953C94.2429 35.7656 93.4947 35.4893 92.7094 35.3616C92.8339 35.7429 92.7983 36.3408 93.2895 36.4491C95.9072 37.2085 98.5474 37.8968 101.142 38.7354C98.4796 38.1424 95.8425 37.4379 93.1845 36.8223C93.212 37.1051 93.1748 37.4347 93.3929 37.6561C93.6644 37.9469 94.0861 37.9857 94.4481 38.094C96.4081 38.5609 98.3471 39.1135 100.315 39.5466C98.0417 39.1943 95.8151 38.5771 93.5529 38.1586C93.5561 38.9762 94.1895 39.671 95.0039 39.7469C96.846 40.1137 98.6799 40.5209 100.493 41.0154C100.963 41.1963 101.561 40.9297 101.668 40.4207C101.821 39.5692 101.845 38.6999 101.913 37.8403C101.777 37.7417 101.643 37.6448 101.509 37.5494C102.254 37.6722 101.889 36.5702 101.391 36.4636C100.202 36.0225 98.9885 35.646 97.809 35.179C96.4759 34.6878 95.075 34.4244 93.7339 33.9639C93.2847 33.8492 92.7838 33.5858 92.3394 33.8524ZM93.6644 40.5096C93.5578 41.017 93.6305 41.8281 94.2606 41.9267C96.1899 42.3452 98.1225 42.7524 100.029 43.2598C98.0239 42.9689 96.0461 42.5084 94.0474 42.182C94.036 42.6118 94.1605 43.1515 94.6678 43.2177C96.2303 43.5781 97.8138 43.8463 99.3731 44.2212C97.6943 43.9869 96.0413 43.5425 94.3511 43.4149C94.7001 45.147 95.0782 46.8744 95.3384 48.6227C97.0916 48.8069 98.8641 48.6938 100.614 48.9378C100.961 47.1297 100.976 45.2795 101.223 43.4585C101.262 43.0949 101.378 42.7265 101.322 42.3614C101.018 42.0673 100.553 42.098 100.171 41.9913C97.9916 41.547 95.8328 41.0041 93.6644 40.5096ZM89.5909 41.5017C89.7363 42.1465 89.8914 42.7879 90.0353 43.4326C91.1437 43.6766 92.2538 43.919 93.3639 44.1598C93.5141 44.1921 93.8405 44.2599 93.8034 43.995C93.5432 43.2339 93.3736 42.2418 92.5462 41.8912C91.8321 41.6051 91.0872 41.3838 90.3326 41.2416C90.0563 41.1802 89.83 41.408 89.5909 41.5017ZM101.656 44.9095C101.605 45.2214 101.42 45.593 101.624 45.8839C101.891 45.9146 102.159 45.858 102.427 45.8338C102.417 45.1373 102.358 44.4425 102.278 43.7493C101.87 43.9885 101.79 44.4959 101.656 44.9095ZM103.114 44.4926C103.174 45.0566 103.196 45.6237 103.169 46.1909C103.207 47.0262 103.631 47.9893 102.972 48.6938C103.065 48.6986 103.254 48.7083 103.35 48.7132C103.77 47.3866 104.179 46.0567 104.544 44.714C104.067 44.6397 103.59 44.5653 103.114 44.4926ZM90.2954 44.7932C90.4651 45.5655 90.9433 46.3282 91.7109 46.6174C92.5236 46.9438 93.3929 47.0941 94.2283 47.351C94.1572 46.716 94.0845 46.0826 94.0102 45.4508C93.7064 45.3539 93.4043 45.2601 93.1021 45.1648C93.1021 45.5639 93.1053 45.9614 93.1037 46.3621C92.4283 46.304 91.6786 46.0212 91.3893 45.3555C91.8579 45.4201 92.32 45.5187 92.7822 45.6156C92.7547 45.5025 92.7014 45.2731 92.6739 45.1583C91.9339 44.8481 91.0855 44.8788 90.2954 44.7932ZM101.537 46.7419C101.388 47.288 101.173 47.8358 101.244 48.4142C101.682 48.2785 102.246 48.3254 102.577 47.9634C102.621 47.4641 102.48 46.9713 102.427 46.4785C102.138 46.5884 101.837 46.6708 101.537 46.7419ZM102.248 51.7962C101.194 52.0644 100.097 51.8786 99.0241 51.9303C100.008 52.163 101.013 52.289 102.015 52.4312C102.091 52.2179 102.168 52.0062 102.248 51.7962ZM96.3208 51.9238C96.0833 52.6461 95.8458 53.3974 95.3352 53.9808C94.7809 54.64 93.9423 55.0197 93.0908 55.0795C91.9484 55.1474 90.8012 55.0569 89.6588 55.1231C89.4245 55.3655 89.4099 55.7695 89.271 56.0765C92.5301 57.2189 95.9007 58.0817 99.3392 58.4437C100.212 56.5806 101.094 54.7208 101.853 52.8093C100.43 52.5718 98.9999 52.3682 97.5957 52.0305C97.1788 51.9238 96.7458 51.927 96.3208 51.9238ZM102.267 52.8271C101.466 54.7418 100.645 56.6501 99.706 58.5034C102.715 58.8153 105.767 58.8088 108.759 58.3354C110.065 56.6129 111.201 54.766 112.156 52.8271C108.879 53.2714 105.546 53.2456 102.267 52.8271ZM86.8505 55.1312C87.5243 55.4156 88.2142 55.6644 88.8913 55.9391C89.006 55.6628 89.1126 55.3833 89.2176 55.1021C88.4275 55.107 87.639 55.0811 86.8505 55.1312Z" fill="#DEDEDE"/>
<path d="M58.6447 24.2041C62.2238 22.8565 65.8254 21.5719 69.4223 20.2744C69.1847 20.9337 68.9957 21.6075 68.8034 22.2797C68.7808 22.5139 68.5109 22.543 68.3413 22.6174C63.1109 24.314 57.9047 26.0849 52.6807 27.7993C50.8128 28.3681 48.9336 28.9013 47.0609 29.4523C42.1811 30.9566 37.3611 32.6484 32.4829 34.1576C31.8382 34.3499 31.1951 34.6795 30.5051 34.5147C33.0678 33.4822 35.658 32.5143 38.2772 31.6304C42.522 30.2101 46.6682 28.5103 50.9017 27.056C53.5032 26.1592 56.0723 25.1801 58.6447 24.2041Z" fill="#DEDEDE"/>
<path d="M125.315 27.436C125.63 27.9353 125.708 28.5348 125.926 29.0777C126.328 28.5574 126.703 28.0145 127.031 27.4425C127.047 27.6009 127.083 27.9159 127.101 28.0727C126.77 28.5655 126.441 29.0616 126.033 29.4946C126.492 31.39 126.889 33.3047 127.073 35.2486C127.099 35.8399 126.944 36.4216 126.852 37.0017C126.66 34.5974 126.354 32.1914 125.714 29.8598C125.173 30.3364 124.65 30.8454 124.016 31.2025C123.927 30.839 124.171 30.5917 124.446 30.4205C124.881 30.149 125.243 29.7822 125.606 29.4251C125.511 29.1052 125.407 28.7885 125.327 28.4653C125.304 28.3441 125.283 28.2246 125.262 28.1034C125.275 27.9369 125.301 27.6025 125.315 27.436Z" fill="#DEDEDE"/>
<path d="M30.5665 45.6719C41.8255 44.0222 53.0878 42.3886 64.3469 40.7437C65.1419 43.7814 66.3505 46.7125 67.9567 49.4109C66.8498 49.4416 65.743 49.4174 64.6361 49.4255C64.3938 49.4416 64.048 49.419 63.9446 49.7002C63.699 50.2447 63.4889 50.807 63.2061 51.3354C65.192 51.3225 67.1778 51.3338 69.1621 51.3273C69.726 52.1352 70.3109 52.927 70.9362 53.688C60.2152 53.6622 49.4942 53.6799 38.7732 53.6573C38.0057 53.6363 37.1687 53.7866 36.4755 53.3665C35.6773 52.885 34.9777 52.1433 34.7288 51.2255C34.3071 49.6937 33.769 48.1975 33.2778 46.6867C31.9335 46.5994 30.5907 46.5025 29.2463 46.4136V45.785C29.6842 45.8723 30.1302 45.7172 30.5665 45.6719ZM60.9731 44.8204C60.3687 45.0531 59.9987 45.6638 59.8872 46.2795C59.7418 47.0583 59.6012 47.85 59.6933 48.645C59.745 49.4643 59.9034 50.3546 60.5319 50.9411C60.8082 51.2514 61.314 51.4776 61.6856 51.19C62.3207 50.6277 62.7327 49.8246 62.8232 48.9811C63.0397 47.6901 62.9024 46.2536 62.0864 45.1856C61.8424 44.8382 61.3803 44.6216 60.9731 44.8204ZM44.1491 46.9032C43.771 47.0534 43.5448 47.4412 43.4704 47.8274C43.2798 48.6741 43.2394 49.6048 43.5852 50.4176C43.771 50.7505 44.1345 51.1932 44.5644 51.0348C45.0426 50.6616 45.3254 50.0686 45.3658 49.4675C45.4757 48.6499 45.382 47.745 44.8423 47.089C44.692 46.8806 44.3818 46.7723 44.1491 46.9032ZM40.0966 47.3685C39.6684 47.7127 39.5941 48.3089 39.5101 48.8163C39.4422 49.5434 39.4616 50.4144 40.0449 50.9395C40.305 51.2158 40.8528 51.2481 41.058 50.8959C41.6058 49.8731 41.693 48.5239 41.0047 47.5479C40.8043 47.249 40.4004 47.2538 40.0966 47.3685ZM36.8682 47.6772C35.9892 48.6014 36.0845 50.214 36.9086 51.1528C37.3028 51.5115 37.9476 51.1415 38.038 50.6648C38.2836 49.6937 38.2319 48.5465 37.5711 47.7418C37.3917 47.543 37.0831 47.535 36.8682 47.6772Z" fill="#DEDEDE"/>
<path d="M79.833 44.415C81.444 45.9275 81.6605 48.3754 81.0998 50.4098C81.2032 48.3528 81.0513 46.1569 79.833 44.415Z" fill="#DEDEDE"/>
<path d="M76.3298 45.3231C76.7548 45.1276 77.2734 45.2035 77.6419 45.4879C78.3835 46.0308 78.7422 46.9486 78.8602 47.8341C79.0444 49.0524 78.7826 50.3693 78.0086 51.3469C77.6192 51.843 76.9083 52.0272 76.3249 51.7945C75.9549 51.6571 75.6915 51.3421 75.4976 51.0124C74.7818 49.8119 74.6607 48.3011 75.0791 46.9793C75.3167 46.3265 75.6802 45.6414 76.3298 45.3231Z" fill="#DEDEDE"/>
<path d="M79.5276 45.2178C80.649 46.3989 80.6974 48.1198 80.5536 49.6468C80.321 48.1505 80.3113 46.567 79.5276 45.2178Z" fill="#DEDEDE"/>
<path d="M81.9158 53.1858C82.1759 52.7253 82.365 51.9449 83.0452 52.0321C84.4849 52.1081 85.9262 52.1452 87.3692 52.1242C87.5663 52.4716 87.7634 52.8223 87.9541 53.1745C85.9408 53.1955 83.9275 53.1761 81.9158 53.1858Z" fill="#DEDEDE"/>
<path d="M82.0388 9.9605C82.4233 9.47575 83.0697 9.71651 83.5738 9.81346C83.3993 10.8928 83.2523 12.011 82.6738 12.9643C82.3167 13.2471 81.9418 13.5121 81.5314 13.7124C81.2535 13.7302 80.9772 13.7512 80.7009 13.7755C80.6637 13.2487 80.6783 12.7203 80.7332 12.1968C80.2969 13.0193 79.6619 13.6947 79.001 14.3378C78.8508 13.6074 78.7764 12.8641 78.7393 12.1192C79.6167 11.0544 81.2115 11.0706 82.0388 9.9605Z" fill="#DEDEDE"/>
<path d="M75.7579 13.5688C76.7549 13.6738 77.7082 13.265 78.3772 12.5347C78.4192 13.4185 78.6616 14.2749 78.7537 15.1523C78.7892 15.3171 79.0817 15.5385 78.8716 15.6774C77.9829 16.4579 77.1023 17.2496 76.2556 18.0769C75.9195 18.1254 75.5834 18.1771 75.2522 18.2482C73.9514 18.5084 72.6394 18.712 71.337 18.964L71.3096 18.8332C71.5956 18.6845 72.0593 18.6683 72.1223 18.2822C72.3033 17.4775 73.1306 16.8667 72.9028 15.978C73.5378 15.2719 74.2827 14.6789 74.9791 14.0358L75.0567 13.9728C75.2635 14.0875 75.4445 14.241 75.619 14.4009C75.661 14.123 75.7078 13.8451 75.7579 13.5688Z" fill="#DEDEDE"/>
<path d="M82.0968 14.617C82.8708 14.1921 83.4186 13.4553 84.2249 13.0771C84.2782 13.284 84.3331 13.4924 84.3881 13.7009C84.2443 13.8931 84.0988 14.0854 83.9566 14.2777C83.7773 14.1856 83.5979 14.0951 83.4202 14.003C83.32 14.1808 83.2214 14.3585 83.1229 14.5379C83.1907 14.6186 83.3265 14.7802 83.396 14.861C84.2281 14.7414 85.1265 14.6251 85.9183 14.9854C86.1251 14.9903 86.3319 14.9967 86.5404 15.0032C86.2996 15.2036 86.0314 15.3652 85.7615 15.5235C86.3933 15.719 87.0251 15.9145 87.6779 16.026C87.5276 16.2797 87.3531 16.5172 87.1576 16.7354C86.4014 16.1682 85.419 16.0357 84.5141 16.2587C83.0437 16.5496 81.6525 17.1377 80.1966 17.4851C79.9058 16.9099 79.644 16.3217 79.4275 15.7158C80.2257 15.0969 81.0385 14.4942 81.8755 13.9271L81.9352 13.8899C81.9902 14.1323 82.0419 14.3747 82.0968 14.617Z" fill="#DEDEDE"/>
<path d="M79.3952 14.2827C79.4889 14.2827 79.6731 14.2827 79.7668 14.2827C79.7636 14.7012 79.6828 15.131 79.2901 15.3524C79.2498 15.2264 79.1673 14.9727 79.127 14.8466C79.2158 14.6576 79.3063 14.4702 79.3952 14.2827Z" fill="#DEDEDE"/>
<path d="M104.125 14.5669C104.314 14.617 104.545 14.6283 104.642 14.8367C104.594 14.9547 104.497 15.189 104.449 15.3069C104.591 15.3683 104.733 15.4297 104.877 15.4895C104.859 15.622 104.822 15.887 104.804 16.0195C105.084 15.9937 105.381 15.8757 105.657 15.9904C106.09 16.1666 106.312 16.6061 106.578 16.9615C106.481 17.351 106.352 17.7339 106.153 18.0845C105.339 18.4319 104.536 18.8844 103.964 19.576C104.4 19.4483 104.843 19.3449 105.294 19.2738C105.331 19.1478 105.407 18.8957 105.445 18.7697C105.691 19.025 105.977 19.2415 106.349 19.2399C106.347 19.3497 106.342 19.5695 106.341 19.6794C106.653 19.5598 106.979 19.4935 107.315 19.4903C107.347 20.6456 107.354 21.7993 107.359 22.9546C105.37 22.5571 103.41 22.0175 101.506 21.3146C102.235 19.1833 103.035 17.0779 103.728 14.9369L103.746 14.9062C103.868 14.7899 103.994 14.6768 104.125 14.5669Z" fill="#DEDEDE"/>
<path d="M91.8921 15.7356C92.3316 15.49 92.7856 15.267 93.2542 15.0796C93.5208 15.2428 93.7907 15.4044 94.0654 15.5595C93.9086 16.0749 93.3738 16.3254 93.0539 16.7277C92.6515 16.4159 92.246 16.104 91.8921 15.7356Z" fill="#DEDEDE"/>
<path d="M98.9193 15.8566C99.8177 15.6288 100.763 15.6288 101.644 15.3218C101.808 15.4834 101.973 15.6466 102.143 15.8049C102.371 15.813 102.599 15.8324 102.825 15.8663C102.896 15.813 103.036 15.7063 103.108 15.6514C102.437 17.487 101.815 19.3387 101.151 21.1759C99.4509 20.5183 97.785 19.754 96.2144 18.8265C96.1902 18.7328 96.1433 18.5437 96.1207 18.4484C95.9946 18.4888 95.7426 18.568 95.6182 18.6067C95.7717 18.4032 95.9381 18.2093 96.1142 18.0251C96.1368 18.1705 96.1821 18.4613 96.2047 18.6067C96.4374 18.3353 96.4164 18.0008 96.3307 17.6777C96.7153 17.2365 97.074 16.7744 97.444 16.3236C97.4586 16.3074 97.4877 16.2751 97.5022 16.259C97.7801 16.5046 98.1372 16.6354 98.4216 16.8778C98.9678 16.9004 98.7609 16.2056 98.9193 15.8566Z" fill="#DEDEDE"/>
<path d="M91.383 15.8891C91.4185 15.881 91.4912 15.8665 91.5268 15.8584C91.8499 16.3496 92.3654 16.6566 92.8097 17.025C92.5334 17.4144 92.2749 17.8152 92.0406 18.2288C91.4427 17.9493 90.8497 17.6649 90.2422 17.4096C90.7075 16.9669 90.9919 16.3884 91.383 15.8891Z" fill="#DEDEDE"/>
<path d="M79.1125 15.9873C79.3403 16.5254 79.5795 17.0586 79.8315 17.5854C78.9283 17.8471 78.0121 18.1234 77.0604 18.104L76.8374 18.1073C77.5371 17.3397 78.3288 16.666 79.1125 15.9873Z" fill="#DEDEDE"/>
<path d="M87.9913 16.469C88.2256 16.2913 88.4616 16.1167 88.6991 15.9438C89.2355 16.1184 89.4278 16.6387 89.5425 17.1396C89.4262 17.1493 89.1935 17.1654 89.0772 17.1751C88.5456 17.1509 87.959 17.2478 87.4856 16.9473C87.652 16.7857 87.8185 16.6241 87.9913 16.469Z" fill="#DEDEDE"/>
<path d="M96.5456 16.2219C96.7201 16.2187 96.8946 16.2203 97.0707 16.2251C96.8154 16.5305 96.5472 16.8262 96.2773 17.1187C96.3501 16.8149 96.4438 16.516 96.5456 16.2219Z" fill="#DEDEDE"/>
<path d="M93.2686 16.8487C93.5643 16.7679 93.8664 16.595 94.1815 16.6887C94.1799 16.923 94.0458 17.2543 93.7921 17.2866C93.5998 17.1622 93.4334 17.0054 93.2686 16.8487Z" fill="#DEDEDE"/>
<path d="M94.3288 17.0054C94.744 17.0458 95.1625 17.0474 95.5794 17.0118C95.6586 17.2817 95.9979 17.5951 95.7119 17.8521C95.5956 18.0169 95.4598 18.1671 95.329 18.3207C94.8523 18.0282 94.3029 17.6355 94.3288 17.0054Z" fill="#DEDEDE"/>
<path d="M92.2896 18.3513C92.6176 18.0281 92.9472 17.7033 93.272 17.377C93.8391 17.8035 94.4564 18.159 95.0203 18.5921C94.904 18.9233 94.6422 19.1818 94.4935 19.5001C93.7519 19.1301 93.0248 18.731 92.2896 18.3513Z" fill="#DEDEDE"/>
<path d="M95.3741 18.8345C97.2469 19.749 99.076 20.7702 101.02 21.5345C100.794 22.2681 100.482 22.9742 100.293 23.7191C100.036 23.3119 99.795 22.8837 99.4347 22.5557C98.0936 21.2711 96.3743 20.5133 94.7617 19.6375C94.9831 19.3839 95.1883 19.1156 95.3741 18.8345Z" fill="#DEDEDE"/>
<path d="M109.375 19.7134C109.844 19.9024 110.337 20.0365 110.788 20.2725C110.914 20.6522 110.5 20.9559 110.33 21.263C111.056 21.612 111.196 22.5475 111.935 22.8755C112.011 22.5362 112.087 22.1969 112.158 21.856C112.344 22.0175 112.541 22.171 112.746 22.3116C112.877 22.2066 113.008 22.1016 113.139 21.9982C113.221 22.0224 113.384 22.0693 113.467 22.0935C113.476 22.1226 113.494 22.1824 113.504 22.2114C113.63 22.6138 113.744 23.021 113.864 23.4249C111.81 23.5348 109.74 23.3748 107.721 22.9951C107.751 21.9384 107.7 20.8832 107.716 19.8265C107.863 19.9994 108 20.1787 108.125 20.3694C108.458 20.4502 108.792 20.5229 109.128 20.6005C109.21 20.3048 109.293 20.0091 109.375 19.7134Z" fill="#DEDEDE"/>
<path d="M113.871 21.1163C114.006 20.9708 114.144 20.8238 114.279 20.6768C114.693 20.7252 115.105 20.7769 115.517 20.8432C115.566 21.1179 115.616 21.3926 115.662 21.6689C115.784 21.3877 115.905 21.1082 116.041 20.8335C116.238 20.89 116.436 20.9466 116.635 21.0048C116.645 21.1211 116.663 21.3554 116.672 21.4717C117.041 21.7125 117.419 21.9371 117.808 22.1439C118.009 21.9694 118.212 21.7965 118.422 21.6317C118.492 21.5752 118.632 21.4637 118.702 21.4071L118.71 21.4006C118.978 21.6818 119.368 21.8402 119.553 22.2005C119.453 22.2183 119.254 22.2554 119.156 22.2748C119.065 22.0744 118.977 21.8757 118.888 21.677C118.776 21.6721 118.552 21.6656 118.44 21.6608C118.574 21.9274 118.705 22.1956 118.834 22.4655C117.362 23.01 115.81 23.296 114.247 23.4123C114.127 23.0326 114.013 22.6513 113.904 22.2683C113.895 22.2296 113.872 22.152 113.861 22.1132C114.38 21.9096 113.927 21.4507 113.871 21.1163Z" fill="#DEDEDE"/>
<path d="M122.279 20.8236C123.223 20.2144 124.126 21.1645 124.739 21.8044C124.69 21.5588 124.645 21.3116 124.601 21.066C124.693 21.0547 124.878 21.0337 124.97 21.0223C125.315 21.4037 125.509 21.8868 125.713 22.3522L125.748 22.2181L125.769 22.1453C125.968 22.5396 125.946 22.9726 125.841 23.3895C125.5 23.2344 125.128 23.1649 124.815 23.4138C124.91 23.8904 124.937 24.3784 125.042 24.8519C125.437 25.2461 125.711 25.7309 125.873 26.2625C125.611 26.5307 125.432 26.8619 125.285 27.2045C124.543 24.9666 123.488 22.8434 122.279 20.8236Z" fill="#DEDEDE"/>
<path d="M121.925 20.9302L121.966 20.9948C122.893 22.6074 123.776 24.2523 124.44 25.9926C124.735 26.6874 124.936 27.4193 125.262 28.1028C125.283 28.224 125.304 28.3436 125.327 28.4648C125.244 28.901 125.164 29.3389 125.097 29.7784C124.688 29.2533 124.461 29.9659 124.391 30.3068C123.945 30.6671 123.591 31.1357 123.068 31.3926C123.176 30.895 123.418 30.4199 123.436 29.9045C123.385 29.4488 123.291 28.998 123.213 28.5456C122.769 29.2371 123.334 30.2616 122.699 30.895C122.581 30.5702 122.476 30.2422 122.376 29.9125C122.286 29.9546 122.108 30.037 122.019 30.0774C121.434 27.4969 120.482 25.0117 119.353 22.6219C119.645 22.5363 120.033 22.3957 120.206 22.7609C120.292 22.5428 120.41 22.3424 120.546 22.1517C120.66 22.155 120.89 22.1582 121.004 22.1614C121.05 22.0693 121.139 21.8867 121.182 21.7963C121.423 22.0079 121.688 22.1938 121.98 22.3295C122.09 21.8981 121.775 21.625 121.491 21.3664C121.635 21.221 121.78 21.0756 121.925 20.9302Z" fill="#DEDEDE"/>
<path d="M101.377 21.6753C103.324 22.4056 105.345 22.9146 107.373 23.3654C107.301 26.7247 107.086 30.0808 106.706 33.4207C105.269 33.2042 103.844 32.9231 102.439 32.5563C102.348 31.7096 102.002 30.9097 101.963 30.0566C101.923 29.1986 101.86 28.3406 101.805 27.4842C101.711 26.2545 101.425 24.936 100.551 24.015C100.836 23.2378 101.099 22.4541 101.377 21.6753Z" fill="#DEDEDE"/>
<path d="M114.342 23.7855C115.937 23.6595 117.521 23.3589 119.023 22.8047C120.028 24.9263 120.88 27.1254 121.481 29.3973C121.832 30.3393 121.402 31.3152 121.292 32.2637C119.568 32.9472 117.755 33.3964 115.914 33.6129C115.74 30.294 115.187 26.9994 114.342 23.7855Z" fill="#DEDEDE"/>
<path d="M107.712 23.9036C107.75 23.7566 107.625 23.3203 107.923 23.435C109.921 23.7469 111.948 23.9085 113.972 23.8244C114.793 27.0286 115.389 30.3071 115.518 33.6163C115.478 33.6341 115.399 33.668 115.359 33.6858C112.607 33.9718 109.821 33.8652 107.082 33.4854C107.412 30.3007 107.693 27.1062 107.712 23.9036Z" fill="#DEDEDE"/>
<path d="M122.867 31.9099C123.158 31.7451 123.449 31.5835 123.745 31.4268C123.727 31.8032 123.708 32.1781 123.682 32.5546C123.805 32.6451 123.927 32.7356 124.053 32.8277C124.036 33.6307 124.103 34.4322 124.202 35.2288C124.011 35.4485 123.821 35.6683 123.63 35.8864C123.837 36.8204 123.289 37.6509 123.006 38.5025C122.882 36.7687 122.934 35.0139 122.635 33.293C122.512 32.8131 122.727 32.3559 122.867 31.9099Z" fill="#DEDEDE"/>
<path d="M102.458 32.9717C103.848 33.29 105.242 33.5808 106.653 33.799C106.307 36.5103 105.854 39.2104 105.231 41.8733C104.756 41.597 104.261 41.3578 103.757 41.1413C103.143 41.2786 102.527 41.4531 101.894 41.4338C102.174 41.0912 102.408 40.6921 102.44 40.2413C102.576 39.0795 102.721 37.8967 102.566 36.7317C102.33 35.9642 101.511 35.6992 100.828 35.4714C101.39 35.4374 102.125 35.4326 102.363 34.804C102.516 34.2078 102.437 33.5808 102.458 32.9717Z" fill="#DEDEDE"/>
<path d="M115.95 33.9731C116.44 33.9117 116.929 33.8422 117.414 33.7437C117.01 34.4853 116.556 35.2027 115.994 35.8361C115.963 35.2157 115.944 34.5952 115.95 33.9731Z" fill="#DEDEDE"/>
<path d="M105.612 41.9296C106.237 39.2651 106.659 36.5586 107.045 33.8521C109.863 34.2463 112.728 34.3465 115.561 34.0346C115.599 34.8022 115.606 35.5697 115.596 36.3388C115.163 36.8882 114.695 37.4376 114.499 38.1227C114.666 38.1114 114.997 38.0855 115.163 38.0742C115.145 38.2132 115.113 38.4927 115.095 38.6317C115.242 38.588 115.389 38.5444 115.538 38.5008C115.415 40.4705 115.166 42.4305 114.809 44.3727C114.287 44.4405 113.766 44.502 113.245 44.5747C113.523 44.1206 113.787 43.6423 113.832 43.0994C113.248 43.2772 112.668 43.4646 112.074 43.5906C111.962 43.2594 111.846 42.9298 111.718 42.605C111.251 42.4515 110.598 42.3464 110.456 41.789C110.232 41.0279 110.169 40.2249 109.862 39.488C108.971 39.3782 107.963 38.916 107.173 39.5785C107.267 39.6529 107.451 39.8048 107.543 39.8791C107.212 40.4996 106.661 40.9762 106.409 41.6419C106.144 41.7389 105.877 41.8342 105.612 41.9296Z" fill="#DEDEDE"/>
<path d="M122.271 33.8794C122.565 35.1688 122.531 36.5197 122.555 37.8382C122.076 36.5875 121.769 35.1721 122.271 33.8794Z" fill="#DEDEDE"/>
<path d="M116.023 38.103C116.226 38.1806 116.43 38.2614 116.635 38.3406C116.787 38.709 116.944 39.0741 117.102 39.4409C117.197 39.0935 117.309 38.7477 117.511 38.444C117.799 38.7057 117.839 39.1 117.912 39.4587C118.062 40.3183 118.212 41.1763 118.312 42.044C118.127 41.96 117.942 41.876 117.76 41.792C117.354 42.4092 117.622 43.1169 117.813 43.7536C117.606 43.8069 117.403 43.8748 117.206 43.9555L117.105 43.9782L116.941 43.9119C117.183 42.6047 117.566 41.1957 117.071 39.8998C116.669 41.3928 116.238 42.8891 115.515 44.2642L115.485 44.3143L115.223 44.3643C115.381 43.0862 115.641 41.8227 115.743 40.5381C115.864 39.7285 115.795 38.8932 116.023 38.103Z" fill="#DEDEDE"/>
<path d="M111.92 45.3614C112.757 44.825 113.78 44.9348 114.717 44.77C114.665 45.0673 114.619 45.3663 114.56 45.662L114.554 45.6781C114.173 46.1225 113.727 46.5232 113.213 46.8076C112.736 47.0887 112.148 46.5329 111.712 46.9061C111.524 47.0322 111.342 47.1631 111.157 47.2907C111.03 46.89 111.421 46.7397 111.592 46.4634C111.734 46.1063 111.778 45.7185 111.92 45.3614Z" fill="#DEDEDE"/>
</svg>
