<svg width="200" height="48" viewBox="0 0 200 48" fill="none" xmlns="http://www.w3.org/2000/svg">
<path d="M161.964 0.54193C162.91 -0.250381 164.509 -0.188937 165.274 0.830827C165.651 1.29436 165.764 1.91419 165.76 2.49846C165.761 9.78018 165.76 17.0619 165.761 24.3425C164.188 24.3501 162.617 24.3447 161.046 24.3458C161.042 18.6056 161.047 12.8643 161.043 7.12405C154.264 12.5689 147.501 18.0364 140.727 23.4877C140.166 23.9211 139.645 24.4848 138.912 24.6013C138.063 24.8276 137.112 24.4881 136.589 23.7842C136.251 23.3454 136.147 22.7762 136.144 22.234C136.142 14.9297 136.146 7.62531 136.142 0.320945C137.719 0.324179 139.295 0.318789 140.872 0.324179C140.861 1.26525 140.885 2.20632 140.859 3.1474C140.87 3.36299 140.87 3.57859 140.859 3.79418C140.881 4.54769 140.872 5.30227 140.863 6.05685C140.863 7.27928 140.886 8.5017 140.859 9.72305C140.877 10.6932 140.877 11.6634 140.859 12.6336C140.877 13.0648 140.875 13.496 140.86 13.9271C140.891 15.1312 140.833 16.3343 140.875 17.5373C147.904 11.8704 154.932 6.20453 161.964 0.54193Z" fill="#DEDEDE"/>
<path d="M0.00965463 24.3491C0.0128886 16.3397 0.0053426 8.32928 0.0128884 0.318848C9.87205 0.328549 19.7312 0.319926 29.5904 0.323159C29.5807 8.33144 29.5915 16.3397 29.585 24.348C28.0187 24.3437 26.4535 24.3491 24.8872 24.3458C24.8926 17.9082 24.885 11.4705 24.8904 5.03283C18.1735 5.02205 11.4556 5.03499 4.73765 5.02529C4.73334 11.464 4.73334 17.9028 4.73765 24.3415C3.16165 24.3555 1.58565 24.3394 0.00965463 24.3491Z" fill="#DEDEDE"/>
<path d="M34.3723 0.322997C41.7672 0.325153 49.1621 0.315451 56.5581 0.327309C58.4834 0.384441 60.5574 0.648545 62.1043 1.90223C63.4227 2.97913 63.9121 4.73192 63.9714 6.37152C63.9821 7.70282 63.9767 9.03519 63.9735 10.3676C63.9326 12.0384 63.441 13.8376 62.0946 14.9328C60.5208 16.2037 58.4079 16.4506 56.4546 16.5023C50.6594 16.5066 44.8653 16.5045 39.0712 16.5034C39.0744 19.1164 39.0712 21.7305 39.0723 24.3446C37.506 24.3478 35.9408 24.3468 34.3745 24.3457C34.3723 16.3374 34.3788 8.3302 34.3723 0.322997ZM39.0723 5.03483C39.0712 7.39775 39.0755 9.76067 39.0701 12.1236C44.7899 12.1268 50.5107 12.1236 56.2315 12.1257C56.9139 12.1085 57.6199 12.033 58.2365 11.7194C58.768 11.4445 59.1259 10.8678 59.1215 10.2684C59.1323 9.29606 59.1216 8.32481 59.1269 7.35355C59.1237 6.9741 59.1528 6.57525 58.9782 6.22491C58.7647 5.72365 58.2829 5.38409 57.7687 5.24288C56.8891 4.96691 55.9588 5.04022 55.0522 5.03052C49.7248 5.03375 44.3986 5.0262 39.0723 5.03483Z" fill="#DEDEDE"/>
<path d="M73.4984 0.516233C74.9181 0.280156 76.3605 0.326509 77.7942 0.322197C81.1715 0.322197 84.5499 0.322197 87.9282 0.322197C89.764 0.339445 91.6343 0.223024 93.4313 0.683319C94.7152 0.985152 95.9839 1.619 96.773 2.70991C97.5642 3.79651 97.8424 5.1677 97.8855 6.48822C97.893 9.79437 97.8866 13.1005 97.8887 16.4067C97.879 17.5968 97.9609 18.8073 97.6516 19.9694C97.3961 21.167 96.7191 22.2881 95.7091 22.9963C94.7744 23.6485 93.6544 23.9935 92.5355 24.1519L92.4676 24.1875C90.676 24.4117 88.8682 24.3341 87.0669 24.346C83.4341 24.346 79.8024 24.347 76.1697 24.346C74.3533 24.319 72.4463 24.1713 70.8412 23.241C69.6803 22.5856 68.8535 21.4182 68.5505 20.1268C68.1883 18.845 68.281 17.504 68.2703 16.1889C68.2724 12.9582 68.267 9.72753 68.2735 6.49684C68.3296 5.05774 68.6443 3.5378 69.622 2.42641C70.589 1.28914 72.068 0.765245 73.4984 0.516233ZM75.677 5.04157C75.0184 5.09008 74.3177 5.19465 73.7723 5.59673C73.3271 5.92228 73.1028 6.48606 73.119 7.02828C73.1222 10.5834 73.1168 14.1397 73.1222 17.6948C73.1104 18.2629 73.3874 18.8278 73.8682 19.1372C74.5214 19.5479 75.3181 19.6244 76.0727 19.619C80.7435 19.6212 85.4144 19.6212 90.0853 19.619C90.8582 19.6223 91.685 19.5533 92.3415 19.1027C92.7942 18.7922 93.0508 18.2457 93.0378 17.7002C93.0443 14.1429 93.0411 10.5867 93.04 7.03044C93.0766 6.36856 92.7101 5.69698 92.1054 5.41132C91.4101 5.08361 90.6242 5.02001 89.8664 5.02972C85.1363 5.03942 80.4061 5.01678 75.677 5.04157Z" fill="#DEDEDE"/>
<path d="M114.634 0.320902C116.206 0.32198 117.777 0.324136 119.349 0.319824C119.352 1.40211 119.35 2.48548 119.35 3.56776C120.804 3.56884 122.26 3.56884 123.715 3.56776C125.297 3.5807 126.915 3.67772 128.402 4.26953C129.546 4.69964 130.547 5.53615 131.097 6.63676C131.586 7.62203 131.779 8.73342 131.782 9.82865C131.788 11.4844 131.788 13.1402 131.784 14.796C131.784 15.9203 131.585 17.0629 131.073 18.073C130.574 19.0432 129.722 19.8096 128.73 20.2537C127.297 20.9081 125.698 21.0547 124.142 21.0913C122.544 21.101 120.947 21.0935 119.35 21.0946C119.351 22.1801 119.35 23.2645 119.351 24.3501C117.777 24.3382 116.205 24.3565 114.631 24.3403C114.639 23.2591 114.629 22.1769 114.637 21.0956C112.994 21.0903 111.353 21.1043 109.71 21.0892C107.985 21.0407 106.183 20.852 104.675 19.9454C103.479 19.2394 102.665 17.9911 102.402 16.6382C102.07 15.2552 102.209 13.8247 102.18 12.4179C102.211 10.7007 102.022 8.92746 102.611 7.27816C103.001 6.13335 103.828 5.14915 104.901 4.58753C106.497 3.72946 108.354 3.58717 110.133 3.56776C111.634 3.571 113.135 3.56561 114.636 3.56992C114.631 2.48655 114.636 1.40427 114.634 0.320902ZM108.054 8.61916C107.459 8.88003 107.032 9.49339 107.036 10.1488C107.028 11.5901 107.032 13.0302 107.034 14.4715C107.022 15.0752 107.361 15.6659 107.891 15.9559C108.476 16.2706 109.15 16.3698 109.807 16.3687C111.417 16.3741 113.027 16.3709 114.637 16.3709C114.63 13.6738 114.636 10.9778 114.634 8.28067C113.098 8.27852 111.563 8.28067 110.028 8.27959C109.357 8.27744 108.676 8.36044 108.054 8.61916ZM119.351 8.27636C119.349 10.9745 119.352 13.6716 119.349 16.3698C120.877 16.373 122.404 16.3698 123.932 16.372C124.714 16.3763 125.549 16.3116 126.223 15.8739C126.69 15.5678 126.943 15.0202 126.948 14.4693C126.973 13.2103 126.948 11.949 126.96 10.6899C126.954 10.1531 126.951 9.55161 126.58 9.12257C126.048 8.47255 125.148 8.35074 124.362 8.29037C122.692 8.2645 121.021 8.29037 119.351 8.27636Z" fill="#DEDEDE"/>
<path d="M174.013 0.918293C176.241 0.128137 178.642 0.362058 180.962 0.322173C187.278 0.322173 193.595 0.323251 199.912 0.322173C199.905 1.89063 199.906 3.45908 199.91 5.02646C193.483 5.0243 187.056 5.02646 180.63 5.02538C179.628 5.03616 178.627 5.00166 177.627 5.05017C176.941 5.11701 176.197 5.24529 175.682 5.74331C175.311 6.10443 175.193 6.64019 175.203 7.14145C175.205 10.3732 175.203 13.605 175.204 16.8378C175.213 17.4911 175.113 18.2446 175.569 18.7825C176.162 19.4929 177.167 19.6093 178.036 19.6169C185.348 19.6244 192.661 19.6201 199.974 19.619C199.981 21.195 199.973 22.7699 199.977 24.3459C193.495 24.347 187.014 24.3459 180.531 24.3459C178.382 24.3276 176.166 24.4785 174.098 23.7768C173.092 23.4286 172.132 22.8497 171.496 21.9787C170.649 20.8522 170.385 19.4034 170.365 18.0225C170.36 15.0053 170.364 11.988 170.363 8.97077C170.383 7.70091 170.294 6.42351 170.486 5.16228C170.648 4.32146 170.918 3.4828 171.425 2.78211C172.047 1.89063 172.996 1.26971 174.013 0.918293Z" fill="#DEDEDE"/>
<path d="M8.10742 10.1747C9.68234 10.1671 11.2573 10.1736 12.8322 10.1714C12.8365 10.8074 12.8236 11.4435 12.8376 12.0795C12.608 12.1118 12.3762 12.1129 12.1455 12.1053C11.9655 12.1043 11.7855 12.1032 11.6055 12.1021C11.4254 12.1053 11.2454 12.1043 11.0654 12.0999C10.6698 12.1129 10.2752 12.1172 9.88069 12.0978C9.2878 12.1075 8.69168 12.1409 8.10095 12.0687C8.11712 11.437 8.10634 10.8053 8.10742 10.1747Z" fill="#DEDEDE"/>
<path d="M16.7926 10.1726C18.3589 10.1693 19.9263 10.1736 21.4926 10.1704C21.4872 10.815 21.4904 11.4597 21.4915 12.1032C20.7822 12.0666 20.075 12.1194 19.3657 12.1021C18.5141 12.1237 17.6615 12.0924 16.8088 12.1151C16.7797 11.4683 16.8012 10.8204 16.7926 10.1726Z" fill="#DEDEDE"/>
<path d="M8.10742 17.2957C9.68234 17.2892 11.2583 17.2979 12.8333 17.2925C12.83 17.9382 12.8333 18.5839 12.83 19.2307C11.2573 19.2274 9.6845 19.2307 8.11173 19.2285C8.10527 18.5839 8.11173 17.9403 8.10742 17.2957Z" fill="#DEDEDE"/>
<path d="M16.7937 17.2915C18.36 17.2958 19.9263 17.2926 21.4936 17.2937C21.4872 17.9383 21.4915 18.5829 21.4893 19.2286C19.9273 19.234 18.3643 19.2232 16.8023 19.234C16.7861 18.5862 16.798 17.9394 16.7937 17.2915Z" fill="#DEDEDE"/>
<path d="M0.00866699 29.5748C66.6728 29.5726 133.336 29.5704 200 29.5748C199.996 30.2194 199.998 30.864 199.998 31.5086C133.336 31.5076 66.6728 31.5097 0.0097452 31.5076C0.00866722 30.8629 0.0108229 30.2183 0.00866699 29.5748Z" fill="#DEDEDE"/>
<path d="M18.0539 37.7274C19.0424 36.9167 20.3823 36.5976 21.6382 36.7895C22.7356 36.9049 23.8017 37.4816 24.4064 38.4194C25.12 39.4694 25.1847 40.8082 24.981 42.0242C22.797 42.0436 20.612 42.0306 18.428 42.0317C18.5185 42.9329 19.2289 43.6541 20.0546 43.9527C21.5013 44.4766 23.1301 44.2577 24.5099 43.6347C24.5078 44.1909 24.511 44.7461 24.5088 45.3023C23.0051 45.9243 21.2857 46.0774 19.7065 45.6656C18.4226 45.3206 17.2541 44.4 16.7916 43.1302C16.4542 42.3141 16.4434 41.4119 16.52 40.5463C16.6558 39.4586 17.1926 38.4151 18.0539 37.7274ZM19.3572 38.815C18.7783 39.2096 18.4312 39.8898 18.4107 40.5872C20.0212 40.584 21.6317 40.5905 23.2422 40.584C23.2993 39.7346 22.8261 38.8582 22.0209 38.5369C21.1574 38.2178 20.1279 38.2944 19.3572 38.815Z" fill="#DEDEDE"/>
<path d="M146.623 36.8725C148.366 36.4801 150.389 36.9329 151.559 38.3483C152.916 40.0191 152.908 42.6731 151.518 44.3213C150.147 45.9049 147.717 46.2832 145.828 45.4931C144.665 45.0155 143.701 44.0227 143.361 42.8003C142.85 41.1273 143.211 39.0953 144.572 37.916C145.148 37.3942 145.872 37.0568 146.623 36.8725ZM147.159 38.5757C146.489 38.7277 145.87 39.1276 145.515 39.7205C145.015 40.5635 144.969 41.6425 145.336 42.5437C145.634 43.2994 146.336 43.8729 147.13 44.0367C147.967 44.1909 148.906 44.11 149.591 43.557C150.841 42.5567 150.912 40.4816 149.863 39.3109C149.183 38.5779 148.106 38.3978 147.159 38.5757Z" fill="#DEDEDE"/>
<path d="M163.509 36.9514C164.905 36.5741 166.471 36.6787 167.744 37.3988C167.735 37.9917 167.744 38.5856 167.739 39.1785C166.767 38.508 165.508 38.3054 164.363 38.5652C163.684 38.7344 163.034 39.1203 162.658 39.7229C162.204 40.4387 162.16 41.3453 162.34 42.1537C162.571 43.1121 163.41 43.8397 164.355 44.0564C165.531 44.3313 166.785 44.0704 167.838 43.5066C167.832 44.1038 167.834 44.6999 167.834 45.2971C166.082 46.0733 163.913 46.1724 162.235 45.1538C161.206 44.5404 160.499 43.4441 160.333 42.2615C160.19 41.1782 160.272 40.0237 160.806 39.0492C161.355 38.0025 162.386 37.2716 163.509 36.9514Z" fill="#DEDEDE"/>
<path d="M0 36.9655C0.646785 36.9611 1.29249 36.9633 1.93928 36.9601C1.94251 38.1307 1.9285 39.3003 1.94682 40.471C3.39131 40.4689 4.83688 40.4656 6.28244 40.4721C6.29538 39.3025 6.2846 38.134 6.28783 36.9644C6.93138 36.9611 7.57493 36.9644 8.21848 36.959C8.22926 39.8598 8.22172 42.7606 8.2228 45.6615C7.57709 45.6593 6.93246 45.655 6.28783 45.6636C6.28567 44.493 6.29322 43.3233 6.2846 42.1527C4.83688 42.157 3.39023 42.1484 1.94359 42.1559C1.93497 43.3244 1.93604 44.4919 1.94251 45.6604C1.29573 45.6582 0.648941 45.6604 0.002156 45.6615C-0.0021559 42.7628 0.00323393 39.8641 0 36.9655Z" fill="#DEDEDE"/>
<path d="M35.7305 38.0747C35.7434 37.6985 35.6992 37.318 35.7833 36.9482C38.0298 36.9763 40.2763 36.959 42.5228 36.9579C42.5293 39.3219 42.5271 41.6859 42.5239 44.0499C42.9529 44.064 43.3841 44.0607 43.8142 44.0575C43.8164 45.3651 43.8175 46.6716 43.8132 47.9792C43.203 47.9727 42.5929 47.9846 41.9828 47.9705C41.9838 47.2009 41.9838 46.4312 41.986 45.6615C39.664 45.6561 37.3432 45.6648 35.0212 45.6572C35.0137 46.4269 35.018 47.1976 35.0212 47.9684C34.41 48.018 33.7966 47.9554 33.1854 47.9738C33.1843 46.6683 33.1811 45.3629 33.1854 44.0575C33.5832 44.0596 33.981 44.0607 34.3787 44.0586C35.3942 42.2443 35.7133 40.1283 35.7305 38.0747ZM37.5641 38.5566C37.4941 40.4355 37.2343 42.3478 36.401 44.0553C37.7937 44.065 39.1865 44.0553 40.5792 44.0596C40.5771 42.2249 40.5835 40.3913 40.5749 38.5566C39.5713 38.5587 38.5677 38.5609 37.5641 38.5566Z" fill="#DEDEDE"/>
<path d="M52.3755 36.9565C54.0561 36.9706 55.7378 36.9544 57.4183 36.9641C58.1837 36.9921 59.0116 37.1937 59.5333 37.7952C60.4733 38.8117 60.1693 40.7338 58.8337 41.2609C59.4762 41.4463 60.0421 41.9433 60.2254 42.5965C60.4938 43.4761 60.2383 44.5552 59.4729 45.1093C58.8844 45.5361 58.1352 45.6687 57.4216 45.6612C55.7367 45.6526 54.0507 45.6709 52.3658 45.6504C52.3842 42.7528 52.3658 39.8541 52.3755 36.9565ZM54.3116 38.4409C54.3116 39.1556 54.3159 39.8692 54.3105 40.5839C55.1664 40.5861 56.0234 40.5893 56.8804 40.585C57.2728 40.5699 57.7428 40.4977 57.9659 40.1301C58.2473 39.6676 58.1643 38.967 57.7018 38.649C57.4334 38.4603 57.0949 38.4409 56.7791 38.4388C55.9566 38.4388 55.1341 38.4388 54.3116 38.4409ZM54.3127 41.9713C54.3094 42.7097 54.3191 43.4481 54.3084 44.1876C55.2031 44.1876 56.0989 44.193 56.9936 44.1876C57.3838 44.1801 57.8226 44.1326 58.1125 43.8426C58.451 43.4427 58.4596 42.8099 58.1621 42.3841C57.9099 42.0683 57.4862 41.9767 57.1014 41.9756C56.1711 41.9659 55.2419 41.9756 54.3127 41.9713Z" fill="#DEDEDE"/>
<path d="M69.0443 36.962C69.6889 36.9588 70.3346 36.9663 70.9793 36.9577C70.99 38.8528 70.9803 40.749 70.9836 42.6451C72.5531 40.763 74.0849 38.8474 75.649 36.9599C76.201 36.962 76.7518 36.9642 77.3037 36.9556C77.3124 39.8575 77.307 42.7583 77.307 45.6602C76.6613 45.6581 76.0156 45.6581 75.3709 45.6624C75.3752 43.7651 75.3742 41.8679 75.3699 39.9707C73.8219 41.8701 72.2588 43.7565 70.7195 45.6624C70.16 45.6581 69.6016 45.6581 69.0432 45.6602C69.0518 42.7605 69.0497 39.8607 69.0443 36.962Z" fill="#DEDEDE"/>
<path d="M85.7108 36.963C86.4158 36.9565 87.1219 36.9652 87.828 36.9576C88.6192 38.1488 89.4115 39.3389 90.192 40.5365C90.5617 40.5419 90.9325 40.5408 91.3033 40.5397C91.299 39.3453 91.2958 38.1499 91.3044 36.9565C91.9491 36.9652 92.5948 36.9619 93.2394 36.9598C93.2351 38.152 93.2394 39.3443 93.2372 40.5376C93.6091 40.544 93.9821 40.5548 94.3551 40.5333C95.1258 39.3302 95.93 38.1488 96.7159 36.9565C97.4133 36.9673 98.1108 36.9576 98.8082 36.9587C97.8467 38.4097 96.8657 39.8487 95.9117 41.304C96.9972 42.7485 98.0709 44.2027 99.1456 45.6558C98.4363 45.6612 97.727 45.6601 97.0177 45.6569C96.1812 44.4916 95.2972 43.3597 94.4489 42.203C94.0457 42.1998 93.6425 42.1966 93.2394 42.1998C93.2372 43.3532 93.2362 44.5067 93.2405 45.6612C92.5948 45.659 91.9491 45.6569 91.3033 45.6633C91.2958 44.5088 91.299 43.3554 91.3023 42.203C90.8991 42.1966 90.4949 42.1966 90.0928 42.2074C89.2293 43.3576 88.3723 44.5121 87.5067 45.6601C86.806 45.6601 86.1053 45.6558 85.4047 45.6623C86.4643 44.1962 87.5498 42.7507 88.6332 41.3029C87.6695 39.8487 86.6885 38.4064 85.7108 36.963Z" fill="#DEDEDE"/>
<path d="M107.619 36.961C108.264 36.962 108.911 36.9642 109.557 36.9556C109.569 38.8539 109.558 40.7522 109.562 42.6494C111.119 40.7544 112.661 38.8485 114.223 36.9577C114.773 36.9642 115.323 36.9631 115.874 36.9566C115.868 39.8575 115.872 42.7594 115.872 45.6613C115.226 45.657 114.581 45.6613 113.937 45.6581C113.928 43.7651 113.943 41.8711 113.93 39.9771C112.391 41.8776 110.832 43.7619 109.287 45.657C108.73 45.657 108.173 45.6635 107.615 45.6602C107.628 42.7605 107.621 39.8607 107.619 36.961Z" fill="#DEDEDE"/>
<path d="M125.069 36.9619C125.722 36.9587 126.375 36.9619 127.03 36.9619C127.936 38.4043 128.878 39.825 129.788 41.2663C129.853 41.3439 129.884 41.484 130.004 41.4991C130.987 39.9846 131.967 38.4679 132.954 36.9565C133.603 36.9662 134.252 36.9619 134.902 36.9587C134.904 39.8585 134.903 42.7582 134.902 45.659C134.279 45.6633 133.657 45.6526 133.035 45.6612C133.026 43.7014 133.048 41.7417 133.024 39.7819C132.216 41.0453 131.376 42.2871 130.577 43.557C130.187 43.5872 129.796 43.5807 129.407 43.5785C128.564 42.3195 127.769 41.0291 126.925 39.7711C126.928 41.7352 126.927 43.6993 126.926 45.6623C126.306 45.6569 125.688 45.6612 125.069 45.659C125.071 42.7593 125.071 39.8606 125.069 36.9619Z" fill="#DEDEDE"/>
<path d="M176.034 36.9602C178.674 36.9623 181.313 36.9666 183.953 36.958C183.96 37.5304 183.962 38.1028 183.955 38.6752C182.959 38.6688 181.964 38.6774 180.969 38.6698C180.966 41.0004 180.966 43.331 180.969 45.6616C180.321 45.6573 179.673 45.6594 179.026 45.6605C179.029 43.331 179.029 41.0004 179.027 38.6709C178.027 38.6774 177.027 38.6688 176.028 38.6741C176.029 38.1028 176.024 37.5315 176.034 36.9602Z" fill="#DEDEDE"/>
<path d="M192.242 36.961C192.883 36.9567 193.527 36.9739 194.17 36.9502C194.197 37.9182 194.176 38.8873 194.182 39.8564C195.199 39.8866 196.221 39.8068 197.234 39.9049C198.089 40.0213 198.955 40.3933 199.473 41.1101C200.139 42.0199 200.163 43.3361 199.557 44.2826C199.173 44.8809 198.537 45.2819 197.863 45.477C197.031 45.7411 196.152 45.6387 195.295 45.6592C194.277 45.6592 193.259 45.6592 192.242 45.6592C192.243 42.7605 192.243 39.8607 192.242 36.961ZM194.181 41.385C194.183 42.2959 194.184 43.2068 194.18 44.1177C194.803 44.1187 195.426 44.1274 196.051 44.1177C196.558 44.0972 197.11 44.0832 197.535 43.7641C198.156 43.3232 198.186 42.2991 197.614 41.8043C197.209 41.4615 196.658 41.385 196.146 41.385C195.491 41.385 194.835 41.3871 194.181 41.385Z" fill="#DEDEDE"/>
</svg>
