<svg width="200" height="26" viewBox="0 0 200 26" fill="none" xmlns="http://www.w3.org/2000/svg">
<path d="M7.29376 0.00606468C8.08001 0.00606468 8.86626 0.000488281 9.65252 0.000488281C12.0949 6.69201 14.5206 13.3835 16.9519 20.0751C15.9537 20.0751 14.9611 20.0806 13.9686 20.0862C13.4667 18.5973 12.9481 17.1141 12.4518 15.6252C9.80308 15.6196 7.14877 15.6196 4.50005 15.6196C3.99818 17.1085 3.47959 18.5973 2.97773 20.0862C1.98515 20.0806 0.992576 20.0806 0 20.0806C2.43125 13.3891 4.85135 6.69201 7.29376 0.00606468ZM5.41456 12.9486C7.44989 12.9876 9.49081 12.9988 11.5261 12.9095C10.5168 9.89836 9.49638 6.89833 8.47593 3.8983C7.44432 6.90948 6.41828 9.92067 5.41456 12.9486Z" fill="#DEDEDE"/>
<path d="M19.4722 6.13965C20.3979 6.14522 21.3291 6.13965 22.2603 6.13965C22.2492 6.62478 22.2325 7.58948 22.2213 8.07461C24.0782 5.46492 28.6117 5.45934 30.0281 8.48168C31.0708 11.0523 30.7865 13.9966 30.4296 16.6844C29.6935 20.3591 24.3291 21.2792 22.2213 18.268C22.2771 20.7885 22.2436 23.3034 22.2492 25.8239C21.3235 25.8183 20.3979 25.8183 19.4722 25.8239C19.4666 19.2606 19.4722 12.7029 19.4722 6.13965ZM23.554 8.97239C21.541 10.2382 22.3886 13.0765 22.2994 15.0673C22.1711 17.9223 26.7381 18.4911 27.6637 15.9873C28.082 14.2587 27.9872 12.4241 27.7808 10.6732C27.4518 8.79953 25.0875 8.19171 23.554 8.97239Z" fill="#DEDEDE"/>
<path d="M36.5747 7.06556C38.9279 5.62689 42.519 5.74956 44.27 8.08044C45.5525 9.74775 45.6306 11.9281 45.7143 13.9355C42.6975 13.9634 39.6752 13.9299 36.6584 13.9578C36.887 15.0675 37.0933 16.4002 38.2365 16.9523C39.9595 17.9281 41.9949 17.2701 43.5284 16.2441C44.1194 16.8296 44.7161 17.4095 45.3128 17.9895C42.9317 20.2256 39.0283 20.8501 36.2736 18.9542C34.3108 17.5936 34.0041 15.0062 34.0989 12.8035C34.0654 10.679 34.6454 8.25888 36.5747 7.06556ZM36.6751 11.6939C38.822 11.7273 40.9688 11.7273 43.1157 11.6994C42.8257 10.2217 41.9057 8.54885 40.1603 8.6548C38.2867 8.42617 37.0041 10.0266 36.6751 11.6939Z" fill="#DEDEDE"/>
<path d="M49.5843 6.13965C50.5099 6.14522 51.4412 6.14522 52.3668 6.13965C52.3501 8.09134 52.3668 10.0375 52.3835 11.9892C54.4245 12.0003 56.4654 12.0003 58.5063 11.978C58.5063 10.0319 58.5174 8.08577 58.5119 6.13965C59.4375 6.14522 60.3688 6.14522 61.2944 6.13965C61.2944 10.7847 61.2944 15.4353 61.2944 20.0803C60.3688 20.0747 59.4375 20.0747 58.5119 20.0803C58.5174 18.2234 58.5063 16.3665 58.5119 14.5041C56.4654 14.5041 54.4133 14.504 52.3668 14.5096C52.3668 16.3665 52.3612 18.2234 52.3668 20.0803C51.4356 20.0747 50.5099 20.0747 49.5843 20.0803C49.5787 15.4353 49.5787 10.7847 49.5843 6.13965Z" fill="#DEDEDE"/>
<path d="M67.6568 6.14564C70.9468 6.13449 74.2424 6.14007 77.5324 6.14007C77.5268 9.84828 77.5491 13.5509 77.5157 17.2591C78.3577 17.393 79.2053 17.5268 80.0529 17.6606C80.0529 19.5844 80.0529 21.5027 80.0529 23.4209C79.1272 23.4209 78.196 23.4209 77.2703 23.4265C77.2703 22.3112 77.2703 21.2016 77.2703 20.0863C74.0417 20.0752 70.8074 20.0807 67.5732 20.0863C67.5732 21.196 67.5732 22.3112 67.5732 23.4265C66.6531 23.4209 65.733 23.4209 64.8185 23.4265C64.7962 21.4023 64.7014 19.3837 64.7126 17.3595C65.4542 17.3205 66.1959 17.287 66.9375 17.2591C68.3093 13.7349 67.4003 9.83156 67.6568 6.14564ZM69.7424 17.5937C71.4097 17.5714 73.077 17.5658 74.7443 17.5658C74.7554 14.5937 74.7554 11.6215 74.7443 8.65496C73.3502 8.66054 71.9617 8.64939 70.5732 8.61593C70.1885 11.6048 70.8967 14.7108 69.7424 17.5937Z" fill="#DEDEDE"/>
<path d="M83.0027 8.11385C85.2109 6.11197 88.6236 5.50974 91.3114 6.85362C92.8727 7.64545 93.6757 9.42427 93.6423 11.1195C93.7092 14.1028 93.6367 17.0916 93.6646 20.0805C92.7835 20.0805 91.908 20.0805 91.0326 20.0861C91.0326 19.8129 91.027 19.2664 91.0214 18.9932C88.9526 20.3872 86.0976 20.4597 83.9395 19.2218C81.486 17.5377 81.854 12.7812 84.9433 12.0117C86.9619 11.521 89.0697 11.7663 91.1274 11.705C90.9043 10.6901 90.7649 9.42427 89.6664 8.96144C88.105 8.22538 86.4154 8.93914 84.9544 9.56368C84.302 9.07855 83.6496 8.59899 83.0027 8.11385ZM86.0139 14.1306C84.5864 14.6492 84.6254 17.0861 86.0753 17.56C87.3634 18.0006 88.8132 17.9392 90.1125 17.5545C91.5679 17.0415 90.8318 15.1176 91.0381 13.9522C89.3653 13.9689 87.6645 13.8016 86.0139 14.1306Z" fill="#DEDEDE"/>
<path d="M98.1184 0.00606468C99.0496 0.00606468 99.9753 0.00606455 100.907 0.000488281C100.901 2.98937 100.918 5.98382 100.89 8.9727C103.717 9.11769 106.555 9.11211 109.388 8.97828C109.355 5.98382 109.377 2.98937 109.371 0.000488281C110.297 0.00606455 111.228 0.00606468 112.154 0.00606468C112.148 6.69201 112.154 13.3835 112.154 20.0695C111.228 20.0695 110.297 20.0695 109.371 20.0751C109.371 17.2869 109.371 14.5044 109.371 11.7162C106.55 11.7051 103.728 11.7051 100.901 11.7162C100.907 14.5044 100.907 17.2869 100.907 20.0751C99.9753 20.0695 99.0496 20.0695 98.1184 20.0695C98.124 13.3835 98.124 6.69201 98.1184 0.00606468Z" fill="#DEDEDE"/>
<path d="M119.916 6.48043C122.554 5.64956 126.134 6.20161 127.427 8.94514C128.37 11.1812 128.158 13.7519 127.84 16.1051C126.87 20.9955 118.963 21.514 116.983 17.1311C116.18 15.2519 116.37 13.1385 116.459 11.1533C116.537 9.08454 117.881 7.06593 119.916 6.48043ZM120.87 9.0232C118.606 10.0492 119.169 13.0102 119.269 15.0065C119.448 17.8002 123.859 18.3133 124.946 15.882C125.487 14.237 125.375 12.4136 125.097 10.724C124.645 8.93956 122.42 8.39309 120.87 9.0232Z" fill="#DEDEDE"/>
<path d="M131.872 6.13443C134.799 6.25154 137.771 5.85562 140.665 6.38537C142.729 6.85935 143.654 9.51365 142.539 11.2423C142.043 12.0787 141.039 12.3241 140.214 12.6977C143.431 13.233 144.502 18.129 141.407 19.5565C138.357 20.5881 135.033 19.8576 131.872 20.0751C131.866 15.4301 131.866 10.7795 131.872 6.13443ZM134.654 8.64933C134.654 9.57499 134.654 10.5007 134.654 11.4263C136.171 11.4207 137.693 11.5211 139.204 11.3482C140.61 11.2479 140.476 8.79989 139.132 8.7274C137.649 8.54896 136.143 8.65491 134.654 8.64933ZM134.626 13.9468C134.637 15.1513 134.643 16.3557 134.66 17.5602C136.321 17.5212 138.028 17.7498 139.667 17.3595C140.794 16.6903 140.716 14.694 139.545 14.1085C137.927 13.7851 136.26 13.9747 134.626 13.9468Z" fill="#DEDEDE"/>
<path d="M146.888 8.15308C149.046 6.08986 152.476 5.52108 155.158 6.8315C156.736 7.6066 157.556 9.38543 157.528 11.0918C157.6 14.0862 157.522 17.0807 157.55 20.0751C156.669 20.0751 155.794 20.0751 154.918 20.0807C154.918 19.8075 154.913 19.261 154.907 18.9878C152.838 20.3818 149.978 20.4487 147.825 19.2164C145.366 17.5268 145.745 12.7647 148.846 12.0007C150.859 11.5156 152.961 11.7609 155.013 11.6996C154.79 10.6847 154.645 9.41331 153.546 8.95048C151.996 8.22557 150.307 8.92818 148.862 9.55272C148.199 9.08432 147.541 8.61591 146.888 8.15308ZM149.916 14.1197C148.466 14.6215 148.505 17.0863 149.972 17.5602C151.26 17.9952 152.71 17.9339 154.004 17.5491C155.448 17.0249 154.717 15.1123 154.924 13.9468C153.256 13.9691 151.561 13.7963 149.916 14.1197Z" fill="#DEDEDE"/>
<path d="M160.188 6.13428C163.84 6.13428 167.498 6.13428 171.157 6.13428C171.157 6.97072 171.157 7.80716 171.157 8.63802C169.79 8.6436 168.424 8.6436 167.064 8.64917C167.058 12.4578 167.064 16.2664 167.058 20.0749C166.132 20.0694 165.201 20.0694 164.281 20.0749C164.275 16.2664 164.287 12.4578 164.275 8.64917C162.909 8.6436 161.549 8.6436 160.188 8.63802C160.182 7.80716 160.182 6.97072 160.188 6.13428Z" fill="#DEDEDE"/>
<path d="M176.761 6.49113C179.409 5.64354 183.017 6.19559 184.311 8.95027C185.248 11.1919 185.036 13.757 184.718 16.1102C183.737 21.0006 175.824 21.508 173.861 17.1251C173.058 15.2459 173.242 13.1269 173.337 11.1362C173.42 9.0841 174.748 7.08222 176.761 6.49113ZM177.781 9.0116C175.489 10.0098 176.047 12.9931 176.147 15.0005C176.32 17.7998 180.753 18.3184 181.829 15.8704C182.365 14.2198 182.253 12.3964 181.969 10.7068C181.506 8.94469 179.32 8.40379 177.781 9.0116Z" fill="#DEDEDE"/>
<path d="M188.75 6.13429C189.675 6.13987 190.606 6.13429 191.538 6.13429C191.527 6.61943 191.51 7.58412 191.499 8.06926C192.653 6.79787 194.287 5.79414 196.077 6.19563C198.48 6.40753 199.969 8.82763 199.93 11.086C199.941 13.4281 200.348 16.0322 199.066 18.1344C197.409 20.6828 193.283 20.7162 191.499 18.2683C191.554 20.7831 191.521 23.298 191.527 25.8185C190.601 25.8129 189.675 25.8129 188.75 25.8185C188.744 19.2553 188.744 12.6976 188.75 6.13429ZM192.837 8.96704C192.017 9.3518 191.593 10.2496 191.577 11.1251C191.493 12.7533 191.376 14.4262 191.761 16.0266C192.625 18.3073 196.662 18.0117 197.064 15.547C197.281 13.9355 197.281 12.2905 197.058 10.679C196.746 8.79975 194.37 8.18078 192.837 8.96704Z" fill="#DEDEDE"/>
</svg>
