<svg width="96" height="100" viewBox="0 0 96 100" fill="none" xmlns="http://www.w3.org/2000/svg">
<path d="M12.4549 0.0311362C16.3021 0.0149118 20.1493 0.0372205 23.9985 0.0209961C24.0431 27.3976 24.0026 54.7782 24.0168 82.1548C22.3659 82.1487 20.7131 82.1467 19.0602 82.1589C18.1577 82.1933 17.3121 81.8019 16.5252 81.4065C15.4564 80.7473 14.4282 79.9787 13.6352 78.9951C12.9883 77.9993 12.4529 76.8515 12.4589 75.6387C12.465 64.0119 12.465 52.3851 12.461 40.7563C12.3555 40.2006 12.9436 39.9532 13.2762 39.6368C16.3426 37.1586 17.9935 33.0903 17.5737 29.1762C17.2593 25.8907 15.4706 22.8142 12.8483 20.8308C12.6922 20.6807 12.4346 20.557 12.4731 20.2994C12.4447 13.544 12.4812 6.78656 12.4549 0.0311362Z" fill="#DEDEDE" fill-opacity="0.5"/>
<path d="M72.8013 0.0353838C76.6526 0.0171314 80.5059 0.0211871 84.3592 0.0333553C84.4302 6.77863 84.3653 13.5239 84.3916 20.2692C84.489 20.689 84.1462 20.9425 83.8664 21.1778C80.9663 23.5161 79.3154 27.3065 79.5223 31.0199C79.6054 33.6665 80.6296 36.2705 82.3291 38.2985C82.8949 39.0854 83.6919 39.6512 84.3693 40.3266C84.418 51.8884 84.3673 63.4524 84.3936 75.0163C84.4565 76.9936 83.2316 78.76 81.7592 79.9708C80.2382 81.0294 78.5042 81.8346 76.6648 82.1246C75.377 82.1935 74.0831 82.1408 72.7932 82.1489C72.7973 54.7784 72.7811 27.4059 72.8013 0.0353838Z" fill="#DEDEDE" fill-opacity="0.5"/>
<path d="M86.663 51.8354C88.3199 54.9951 89.0338 58.5746 89.263 62.1116C89.845 61.0407 90.1695 59.8624 90.4271 58.676C90.8935 59.7894 90.8509 61.0286 90.8225 62.213C90.7597 64.0909 89.8673 65.9182 90.3094 67.8104C89.6949 67.5082 89.1494 66.9464 88.4416 66.914C87.8596 67.1736 87.4418 67.7069 86.8395 67.93C85.9045 67.6319 86.1418 66.4232 86.3466 65.6951C87.5371 61.6735 87.5493 57.3903 86.8354 53.2814C86.7928 53.0786 86.7279 52.886 86.6427 52.6994L86.5819 52.527C86.6022 52.3526 86.6427 52.0078 86.663 51.8354Z" fill="#DEDEDE" fill-opacity="0.5"/>
<path d="M9.99281 52.1884L10.226 52.0586C9.52028 55.6381 9.25054 59.3514 9.86707 62.9634C10.0597 64.1701 10.437 65.3362 10.6803 66.5307C10.7878 67.0073 10.5282 67.4494 10.3883 67.8895C9.51622 68.0477 9.08425 67.1351 8.34401 66.9059C7.65042 66.9363 7.15355 67.5427 6.53094 67.7861C6.70738 66.8917 6.6871 65.973 6.47415 65.0868C6.0219 62.9695 5.65482 60.6595 6.43156 58.5808C6.63234 59.8078 6.96088 61.0408 7.62405 62.1035C7.74371 58.6923 8.49814 55.2649 9.99281 52.1884Z" fill="#DEDEDE" fill-opacity="0.5"/>
<path d="M4.35481 69.305C4.94497 67.9584 6.64447 68.1795 7.6443 67.3398C7.53478 68.2809 8.10872 69.0759 8.41698 69.9195C9.18156 71.6697 10.0739 73.4585 10.0597 75.4135C10.0759 75.9144 9.94207 76.4579 9.54255 76.7905C9.10855 76.9589 8.61573 76.7824 8.29327 76.4762C7.77409 75.9225 7.3766 75.2512 6.76413 74.7868C6.45789 74.5374 5.9955 74.5556 5.70143 74.8152C5.14575 75.2492 4.59209 75.6974 3.94312 75.9895C4.80301 73.8154 3.47058 71.4568 4.35481 69.305Z" fill="#DEDEDE" fill-opacity="0.5"/>
<path d="M89.2975 67.4272C90.2223 68.1817 91.7717 67.9444 92.3659 69.1105C93.0514 70.3233 92.7979 71.7774 92.6276 73.0916C92.4896 74.0448 92.6357 75.002 92.8222 75.9369C92.1935 75.6307 91.6358 75.2109 91.0761 74.7992C90.7759 74.5416 90.2831 74.5437 89.9992 74.8215C89.2569 75.4198 88.8696 76.4196 87.959 76.811C87.4479 77.0321 87.091 76.5169 86.7462 76.2391L86.7523 76.1134C86.7787 75.0101 86.8355 73.8906 87.2228 72.8421C87.7744 70.9824 88.9284 69.3437 89.2975 67.4272Z" fill="#DEDEDE" fill-opacity="0.5"/>
<path d="M3.25158 76.3669C4.01413 76.1945 4.6915 75.7929 5.32222 75.3447C5.26138 76.1235 5.20662 76.9347 5.48243 77.6831C5.89616 78.8897 6.77633 79.847 7.57538 80.8144C7.12718 81.1672 6.68709 81.5343 6.18819 81.8142C5.4074 82.2381 4.50492 82.3435 3.71195 82.741C5.09913 82.599 6.45792 82.0474 7.46789 81.0679C7.96476 80.6907 8.53059 80.0964 9.21404 80.3499C10.6722 80.7616 12.0229 82.1366 11.8586 83.7408C11.8322 84.7711 11.09 85.56 10.4207 86.2597C9.70482 86.9634 9.15117 87.8253 8.82871 88.7765C8.69486 88.2411 8.53059 87.7057 8.22232 87.2433C7.5916 86.3083 6.9406 85.3572 6.01784 84.6859C6.00567 84.6737 5.98336 84.6514 5.97322 84.6393C5.37495 83.7692 4.46233 83.2135 3.58216 82.6721C3.27389 83.031 2.8987 83.4447 3.05081 83.9639C3.27795 84.6981 3.71804 85.3775 3.68761 86.1765C3.40774 86.0488 3.0934 85.9615 2.88045 85.7263C0.923388 83.6435 0.349451 80.4412 1.30872 77.7703C1.56425 76.9205 2.45659 76.5433 3.25158 76.3669Z" fill="#DEDEDE" fill-opacity="0.5"/>
<path d="M91.4898 75.3223C92.1469 75.811 92.8851 76.1984 93.6882 76.391C94.4244 76.5736 95.2782 76.9041 95.5195 77.7052C96.568 80.6155 95.8278 84.2173 93.4144 86.2392C92.9074 85.5659 93.4935 84.8379 93.7288 84.1889C93.9377 83.7914 93.747 83.3614 93.6497 82.966C92.8892 82.4772 91.9826 82.3657 91.1552 82.0473C90.4494 81.7796 89.8816 81.2726 89.2772 80.8426C90.561 79.3114 92.0354 77.4659 91.4898 75.3223Z" fill="#DEDEDE" fill-opacity="0.5"/>
<path d="M84.9838 83.5459C84.927 81.8768 86.4501 80.5302 88.0117 80.3071C88.7134 80.4126 89.2062 81.0088 89.7639 81.4023C90.6968 82.2013 91.9076 82.5258 93.0798 82.7895C91.9563 83.4668 90.9382 84.3186 90.1046 85.3347L90.0884 85.3529C89.2042 86.2818 88.4802 87.3668 87.9711 88.543C87.5919 87.7805 87.1741 87.02 86.5535 86.4237C85.8093 85.6226 84.9311 84.7262 84.9838 83.5459Z" fill="#DEDEDE" fill-opacity="0.5"/>
<path d="M14.3713 84.5134C15.1379 83.8238 16.2635 83.7894 17.245 83.7204C18.837 83.6109 20.4757 83.98 21.8142 84.8662C22.1103 85.0549 22.3233 85.3368 22.5382 85.6126C21.6641 86.1946 20.6663 85.5538 19.7983 85.2901C19.192 85.0751 18.3158 84.704 17.8697 85.3814C17.5918 86.8213 18.2165 88.2308 18.3564 89.6504C18.3645 90.3683 18.1658 91.068 18.0441 91.7717C16.5332 91.0558 14.8661 90.7861 13.2194 90.5955C12.542 90.5144 11.8585 90.5813 11.1873 90.6746C11.7429 89.9911 12.2621 89.2752 12.7205 88.5248C13.4506 87.2634 13.6189 85.7606 14.3713 84.5134Z" fill="#DEDEDE" fill-opacity="0.5"/>
<path d="M76.7662 84.053C78.0966 83.6109 79.5345 83.6474 80.9054 83.8523C81.5585 83.976 82.321 84.195 82.6414 84.842C83.26 86.0527 83.4567 87.4439 84.1726 88.6121C84.6147 89.3341 85.1258 90.0114 85.645 90.6787C84.8905 90.561 84.1219 90.5063 83.3654 90.628C81.8079 90.847 80.1936 91.0417 78.7902 91.8083C78.6442 90.9058 78.342 89.9851 78.561 89.0664C78.6624 88.3748 78.9666 87.6812 78.8713 86.9836C78.8389 87.016 78.7719 87.0809 78.7395 87.1134C78.634 88.2328 78.1371 89.3199 78.3481 90.4576C78.488 91.5345 78.9504 92.6418 78.6016 93.7248C78.1615 94.4954 77.5612 95.183 76.7804 95.619C75.0849 96.7689 73.0853 97.3063 71.1465 97.8884C62.0912 100.247 52.6446 100.034 43.3663 99.961C38.0731 99.8576 32.7617 99.4865 27.578 98.3609C25.4465 97.8458 23.3069 97.2881 21.3113 96.3552C20.1391 95.7549 18.9466 95.0085 18.2875 93.8262C17.6426 92.2403 18.902 90.63 18.4619 89.0218C18.251 88.0381 18.0218 87.0566 17.963 86.0486C18.9872 86.8842 20.1979 87.4784 21.4715 87.813C26.0022 88.969 30.6383 89.7133 35.3028 90.0439C40.2269 90.4069 45.1672 90.3359 50.1014 90.342C55.7252 90.3461 61.3754 90.2974 66.9484 89.472C69.7025 89.0846 72.4363 88.5512 75.1356 87.8779C76.4944 87.5494 77.7802 86.945 78.8591 86.0547C78.8855 86.1825 78.9382 86.436 78.9626 86.5638C79.2181 86.1176 79.1147 85.1867 78.4921 84.9738C77.0582 84.9555 75.8191 86.1561 74.3569 85.7708C74.7361 84.7852 75.8313 84.3572 76.7662 84.053ZM26.3388 89.8147C26.4605 90.0236 26.5842 90.2345 26.7079 90.4454C26.3794 92.2727 26.0346 94.1 25.629 95.913C25.6189 96.4241 25.0855 96.5154 24.7002 96.6269C26.781 97.2272 28.8861 97.7403 31.0277 98.077C30.8999 97.8884 30.764 97.7038 30.6606 97.503C30.7032 96.5681 30.9567 95.6555 31.0317 94.7226C30.3888 94.4265 29.5594 94.3129 29.1862 93.6437C29.6486 92.9501 30.614 93.2279 31.3136 93.236C31.486 92.3721 31.3927 91.354 32.062 90.6827C30.1394 90.4982 28.2351 90.1717 26.3388 89.8147ZM65.1151 90.6584C65.2591 91.5467 65.4152 92.4329 65.5572 93.3212C66.2082 93.1813 67.3196 92.9237 67.6197 93.7126C67.1898 94.3251 66.4252 94.4711 65.7701 94.7185C65.908 95.5906 66.0926 96.4586 66.1534 97.3428C66.2346 97.6876 65.8918 97.8681 65.691 98.079C67.8509 97.791 69.9601 97.2333 72.0571 96.6573C71.8461 96.5864 71.6373 96.5174 71.4284 96.4505C70.9214 95.1667 70.826 93.7714 70.4752 92.4451L70.3271 92.3133C70.3231 92.291 70.3129 92.2463 70.3089 92.224C70.4914 91.4189 69.8789 90.555 70.4549 89.8289C68.6865 90.1818 66.8997 90.411 65.1151 90.6584ZM32.4473 90.6989C32.5183 91.3033 32.6055 91.9077 32.6866 92.512C32.9381 92.2666 33.1896 92.0192 33.4431 91.7758C34.09 91.9421 34.9824 91.6359 35.4529 92.1896C35.0128 92.2342 34.2543 92.2281 34.3009 92.8669C34.159 93.234 34.6335 93.4104 34.7735 93.6781C34.1671 94.0675 33.4573 94.1831 32.7556 94.248C32.788 95.3513 32.855 96.4566 32.9361 97.5598C32.9097 98.1439 33.5729 98.5191 34.0941 98.3893C34.9438 98.2575 35.5381 97.6105 36.114 97.0386C36.4973 97.5659 36.4588 98.3285 35.897 98.7077C36.688 98.7057 37.4789 98.7645 38.2658 98.8355C38.0691 98.5637 37.8703 98.2798 37.8683 97.931C37.5844 95.7711 37.2254 93.6173 37.0307 91.4493C37.2173 91.3297 37.4018 91.21 37.5884 91.0904C35.8707 91.0214 34.1549 90.8896 32.4473 90.6989ZM61.6714 90.9383C62.3346 91.8894 62.1136 93.1508 62.3427 94.2399C61.6856 93.7572 61.2435 93.019 60.5195 92.6317C60.4952 92.6073 60.4506 92.5607 60.4262 92.5364C60.3127 92.1754 60.2295 91.8063 60.1626 91.4372C60.3451 91.3155 60.5276 91.1958 60.7101 91.0762C59.7407 91.0518 58.7734 91.0924 57.806 91.1289C58.0615 91.3925 58.3231 91.6724 58.2948 92.074C58.4874 94.0351 58.7612 95.9881 58.8971 97.9553C58.9843 98.3264 58.676 98.5678 58.4651 98.8192C59.4791 98.7442 60.4972 98.6976 61.5072 98.5536C61.3145 98.4278 61.1218 98.3041 60.9292 98.1824C60.7811 96.7263 60.6331 95.2702 60.4729 93.814L60.5844 93.9154C60.7467 94.2622 61.0468 94.5036 61.3409 94.7388C61.0549 95.1627 60.7811 95.8786 61.3449 96.2051C61.7384 96.5722 62.2494 96.3247 62.6713 96.1605C62.6713 96.9595 63.0424 97.8539 62.4705 98.5434C63.4217 98.3021 64.4134 98.3001 65.3686 98.0648C64.7723 98.006 64.7683 97.3854 64.6993 96.9332C64.4701 95.0146 64.1903 93.1022 63.9449 91.1857C64.1132 90.991 64.3262 90.8429 64.5249 90.6827C63.5778 90.8064 62.6246 90.8754 61.6714 90.9383ZM39.1034 91.2546C39.1966 91.3581 39.3812 91.5669 39.4745 91.6704C39.3812 93.8262 39.2555 95.98 39.1338 98.1358C39.081 98.4623 38.7322 98.6286 38.5274 98.8659C39.4867 98.9227 40.45 98.9409 41.4113 98.9531C41.3241 98.8537 41.1497 98.657 41.0625 98.5576C41.1395 96.5316 41.2206 94.5076 41.3606 92.4836C41.7824 92.5039 42.2063 92.5222 42.6281 92.5445C42.547 94.5502 42.4253 96.5539 42.3888 98.5597C42.2874 98.659 42.0846 98.8618 41.9832 98.9612C42.8552 99.0667 43.7354 99.0099 44.6095 99.0585C44.5061 98.7665 44.358 98.4765 44.3763 98.1601C44.3844 96.0063 44.5507 93.8586 44.6237 91.7069C44.7677 91.5751 44.9137 91.4453 45.0597 91.3175C43.0743 91.2932 41.0888 91.2749 39.1034 91.2546ZM45.4552 94.2825C45.2808 95.7893 46.6213 96.8378 46.9397 98.2271C46.7511 98.2068 46.3719 98.1662 46.1812 98.148C46.3313 98.365 46.4145 98.6894 46.741 98.7138C46.7856 98.7483 46.8748 98.8172 46.9194 98.8517C47.4183 99.3587 48.2438 99.2573 48.8968 99.1924C49.2091 99.0748 49.7141 99.1234 49.8763 98.7787L50.0325 98.7057L50.1298 98.582C50.9005 98.1155 51.2108 97.1907 51.2939 96.3389C51.2311 94.972 50.1197 93.9438 49.9615 92.6073C49.9291 92.2463 50.43 92.2565 50.6389 92.076C50.2637 91.7089 49.8642 91.285 49.2983 91.2688C47.4751 90.9139 45.5505 92.4289 45.4552 94.2825ZM51.3 91.2769C51.7239 92.6215 52.1092 93.9763 52.5189 95.3249C52.7643 95.0187 53.1861 94.7611 53.1435 94.3149C53.1557 93.668 53.107 93.0211 53.1111 92.3761C53.2956 92.3701 53.6607 92.3599 53.8452 92.3559C53.9223 93.883 53.971 95.4101 54.0541 96.9352C54.0683 97.6409 54.3056 98.4501 53.7742 99.0322C54.6625 98.9957 55.5508 98.9531 56.4411 98.9551C56.2748 98.8273 56.1166 98.6955 55.9645 98.5576C55.7901 97.6896 55.7962 96.8013 55.7536 95.9212C55.7455 94.682 55.5731 93.451 55.5934 92.2119C55.8347 92.2463 56.0761 92.2829 56.3194 92.3194C56.4229 92.7959 56.5263 93.2746 56.646 93.7491C57.0069 92.9197 57.2361 92.0415 57.5626 91.1999C55.4737 91.1816 53.3889 91.3114 51.3 91.2769Z" fill="#DEDEDE" fill-opacity="0.5"/>
<path d="M8.87742 88.9628C9.30331 88.0562 9.76368 87.1537 10.4552 86.4155C10.6499 86.6204 10.8446 86.8272 11.0413 87.0321L11.0697 87.0604L11.1407 87.1679C11.4774 87.7621 12.2521 87.7763 12.8321 87.9731C12.2136 89.1574 11.3395 90.1735 10.5708 91.2565C11.1529 92.1975 12.7165 92.4003 12.7814 93.6475C10.6175 94.0937 8.28523 93.1527 6.83315 91.5282C6.13551 90.788 5.53318 89.8429 5.55143 88.7924C5.63255 88.549 5.77654 88.2347 6.07061 88.2185C6.84127 88.5632 7.19415 89.4434 7.95264 89.8064C8.4414 89.8591 8.67056 89.3095 8.87742 88.9628Z" fill="#DEDEDE" fill-opacity="0.5"/>
<path d="M84.0226 87.9754C84.9859 87.799 85.8397 87.2758 86.4076 86.4727C87.0707 87.1683 87.521 88.0221 87.9225 88.886C88.1334 89.245 88.3241 89.7784 88.8027 89.823C89.6585 89.3809 90.0966 88.3932 91.0477 88.089C91.068 88.1519 91.1106 88.2817 91.1309 88.3445C91.6034 89.5999 90.7212 90.833 89.8999 91.7111C88.389 93.1632 86.1987 94.0697 84.0915 93.6742C84.1585 93.3518 84.1098 92.9381 84.4464 92.7555C85.0751 92.2769 85.7606 91.8652 86.2899 91.267C85.4828 90.2063 84.6452 89.1598 84.0226 87.9754Z" fill="#DEDEDE" fill-opacity="0.5"/>
<path d="M28.6792 90.7477C28.8455 90.2833 29.531 90.3968 29.6506 90.8349C29.6628 91.3298 29.5655 91.8185 29.4864 92.3073C29.0767 92.4026 28.6711 92.5081 28.2695 92.6277C28.4216 92.0051 28.4723 91.3561 28.6792 90.7477Z" fill="#DEDEDE" fill-opacity="0.5"/>
<path d="M67.1086 91.2019C67.4575 91.1228 67.8083 91.0417 68.1653 90.9971C68.4451 91.4838 68.4025 92.1105 68.5668 92.6499C68.1612 92.5282 67.7576 92.4167 67.35 92.3072C67.2689 91.9381 67.1877 91.569 67.1086 91.2019Z" fill="#DEDEDE" fill-opacity="0.5"/>
<path d="M47.9253 93.3029C48.0896 92.733 48.5358 92.2666 49.1361 92.1611C48.2742 93.3698 49.0428 94.8726 48.8319 96.2233C48.6777 97.0163 48.6392 98.1297 47.6962 98.4014C48.2782 96.7547 47.6029 94.9862 47.9253 93.3029Z" fill="#DEDEDE" fill-opacity="0.5"/>
<path d="M28.0141 93.8608C28.3365 94.2908 28.6915 94.6964 29.0646 95.0838C28.876 95.8767 28.874 96.7427 28.3913 97.4363C28.1053 97.3369 27.8234 97.2335 27.5436 97.126C27.574 96.0207 27.9188 94.958 28.0141 93.8608Z" fill="#DEDEDE" fill-opacity="0.5"/>
<path d="M34.7025 95.2014C35.0574 94.7816 35.3677 94.3294 35.6719 93.873C35.7693 94.6194 35.893 95.3637 36.041 96.1039C35.7003 96.2641 35.3596 96.4223 35.0148 96.5744C34.8222 96.1404 34.7329 95.6719 34.7025 95.2014Z" fill="#DEDEDE" fill-opacity="0.5"/>
<path d="M67.7942 95.0776C68.1329 94.7328 68.4614 94.3759 68.79 94.021C68.9502 94.9904 69.2605 95.9517 69.2686 96.9373C69.2686 97.4788 68.3884 97.4788 68.2039 97.057C67.9767 96.4181 67.9199 95.7387 67.7942 95.0776Z" fill="#DEDEDE" fill-opacity="0.5"/>
<path d="M24.1871 0.0253129C30.9426 0.0111166 37.698 0.0597899 44.4514 0.000976562C46.3151 0.447147 47.6313 1.99657 48.404 3.67174C48.8157 2.96598 49.489 2.01892 50.1076 1.29081C50.0427 1.33949 50.1725 1.24011 50.1076 1.29081C50.0609 1.31109 50.1542 1.27053 50.1076 1.29081C50.8519 0.556662 51.8456 -0.0010517 52.9185 0.0253129C59.4934 0.029369 66.0683 0.0232853 72.6432 0.0273414C72.6351 27.4141 72.6432 54.8008 72.6392 82.1875C66.5449 82.1693 60.4506 82.1855 54.3584 82.1774C53.0341 82.0963 51.7381 82.7473 50.9005 83.7532C49.7344 85.1099 48.9435 86.7547 48.4446 88.4664C47.7429 86.3694 46.7329 84.2135 44.8671 82.9095C44.2202 82.4248 43.413 82.1612 42.6038 82.1875C36.4649 82.1794 30.326 82.2058 24.1871 82.1754C24.1912 54.7927 24.1871 27.408 24.1871 0.0253129ZM44.7921 19.0159C43.196 20.543 41.8068 22.2628 40.3547 23.9218C38.2313 26.3696 36.3757 29.0324 34.5748 31.7216C32.2243 35.4411 30.1476 39.3775 28.8902 43.6121C28.3669 45.5245 27.9532 47.4958 28.0059 49.4873C27.866 53.5799 29.6405 57.6725 32.6765 60.4104C34.8952 62.5601 37.6635 64.0852 40.5697 65.087C43.8085 66.2491 47.2987 66.7663 50.7282 66.389C55.2588 65.805 59.7205 64.1379 63.2737 61.2216C65.7621 59.2057 67.6725 56.4293 68.4249 53.298C69.3152 49.6719 68.7555 45.849 67.5407 42.3689C65.7276 37.0554 62.7808 32.2124 59.4792 27.7041C56.1755 23.3681 52.6 19.1903 48.4101 15.6859C47.2176 16.8114 45.8994 17.7991 44.7921 19.0159Z" fill="#DEDEDE"/>
<path d="M47.1669 19.8777C47.1446 18.7461 47.8747 17.8456 48.3939 16.9087C48.623 17.6793 49.1889 18.2898 49.4241 19.0584C49.6817 20.0136 49.6472 21.1798 48.8461 21.8754C48.3046 22.8306 48.8481 24.0089 48.5662 25.0351C47.6982 24.1184 48.6433 22.6602 47.8848 21.6787C47.5238 21.1372 47.0574 20.5754 47.1669 19.8777ZM48.2134 19.2633C48.2661 20.0278 48.1647 20.8208 48.4121 21.561C48.4527 20.2205 48.3107 18.882 48.406 17.5435C48.1079 18.0647 48.2336 18.6893 48.2134 19.2633Z" fill="#DEDEDE"/>
<path d="M45.581 23.5747C44.7495 22.4796 44.9239 20.9808 45.2971 19.7417C45.5871 20.6949 46.4814 21.1958 47.1771 21.8204C47.3028 22.8203 47.5076 23.812 47.9842 24.7104C47.5522 24.4975 47.1669 24.1669 46.6802 24.0797C46.2847 23.9783 45.8183 23.9621 45.581 23.5747ZM45.2829 20.6482C45.3336 22.0172 46.2158 23.1894 47.2886 23.9681C46.9134 23.4409 46.38 23.0454 46.0413 22.4897C45.6236 21.9502 45.6053 21.2364 45.2829 20.6482Z" fill="#DEDEDE"/>
<path d="M49.8215 21.8368C50.4746 21.2345 51.2432 20.7417 51.6224 19.896C52.095 21.1311 52.1274 22.7535 51.087 23.7087C50.3671 24.0494 49.5721 24.2299 48.9028 24.6944C49.3896 23.798 49.4119 22.7515 49.8215 21.8368ZM51.446 20.8309C51.3162 22.0417 50.434 22.9036 49.6897 23.7797C50.5618 23.0618 51.6022 22.0599 51.446 20.8309Z" fill="#DEDEDE"/>
<path d="M52.1518 21.9241C52.3404 21.5449 52.8535 21.6706 53.1922 21.5591C52.9934 22.3784 53.0644 23.2748 52.6507 24.0333C52.2268 24.7573 51.3791 25.0595 50.5902 25.169C50.3002 24.8891 49.994 24.6255 49.6816 24.372C50.3367 24.2361 51.0932 24.1043 51.515 23.5243C51.88 23.0456 52.2633 22.5832 52.7115 22.1797C52.6548 22.1776 52.5432 22.1756 52.4885 22.1736C52.3505 22.3277 52.0727 22.6339 51.9348 22.7881C51.9896 22.5711 52.097 22.1391 52.1518 21.9241Z" fill="#DEDEDE"/>
<path d="M43.7435 21.7783C44.0721 21.831 44.4615 21.7438 44.7494 21.9466C44.8022 22.1535 44.9076 22.5693 44.9604 22.7761C44.7028 22.5652 44.4554 22.3482 44.1938 22.1454C44.3377 22.4537 44.6054 22.6626 44.8731 22.8613C45.1469 23.3075 45.4511 23.7476 45.8709 24.07C46.3435 24.2424 46.8485 24.3012 47.3149 24.5C47.033 24.7048 46.7511 24.9056 46.4692 25.1063C45.8709 24.9745 45.1875 24.936 44.7393 24.4635C44.1065 23.711 43.9686 22.7031 43.7435 21.7783Z" fill="#DEDEDE"/>
<path d="M42.1028 24.9947C42.2083 24.4451 41.8798 23.8468 42.2813 23.3682C42.3868 24.2828 43.2325 24.7553 43.7577 25.4165C44.1917 25.9843 44.07 26.7449 44.1005 27.4121C44.3317 27.6169 43.9707 28.126 43.7598 27.8461C42.9222 27.0754 42.5226 25.958 42.1799 24.8973C42.1961 26.0614 42.8816 27.1038 43.6482 27.9292L43.4596 28.1219C43.78 28.128 44.1025 28.1361 44.425 28.1483C44.5264 28.4687 44.5811 28.7993 44.5892 29.1359C44.214 28.923 43.8429 28.7019 43.4758 28.4788C43.4353 28.5701 43.3562 28.7547 43.3176 28.8459C42.839 29.0731 42.8532 29.6571 42.7072 30.0911C42.6342 30.0709 42.4922 30.0323 42.4212 30.012C42.3787 29.3326 42.7741 28.7547 43.3217 28.3916C42.3117 28.0996 41.5005 27.189 41.4194 26.1263C41.3626 25.4185 41.606 24.7188 41.9284 24.0983C41.973 24.3234 42.0602 24.7716 42.1028 24.9947Z" fill="#DEDEDE"/>
<path d="M54.6321 23.3496C54.699 23.4875 54.8349 23.7593 54.9018 23.8952C54.557 24.5218 54.63 25.2722 54.3441 25.9212C54.1088 26.6067 53.6566 27.1826 53.3341 27.8235C54.3684 26.8237 54.7497 25.3736 54.9342 23.9905C55.5954 24.9213 55.8043 26.2923 55.133 27.2759C54.6442 27.9736 53.7925 28.2027 53.0259 28.4441C52.8251 28.7138 52.5817 28.949 52.316 29.1559C52.2288 28.4684 52.9772 28.0628 52.9143 27.3814C52.9143 26.5985 52.8798 25.6879 53.4943 25.0978C53.9953 24.6029 54.5165 24.0797 54.6321 23.3496Z" fill="#DEDEDE"/>
<path d="M48.5703 25.0738C49.0165 24.7087 49.8034 24.4654 50.209 25.015C51.006 26.1203 50.1907 27.692 49.0976 28.2517C48.8928 28.1686 48.69 28.0875 48.4851 28.0063C48.2174 28.0875 47.9518 28.2031 47.6699 28.2092C46.8384 27.7143 46.2239 26.7287 46.4206 25.739C46.453 25.2786 46.8809 24.9562 47.2703 24.7858C47.7246 24.7047 48.1485 24.942 48.5703 25.0738Z" fill="#DEDEDE"/>
<path d="M45.0354 30.0037C44.4615 28.6591 44.9929 27.1807 44.9381 25.7793C45.6276 26.7812 46.7431 27.4808 47.1669 28.6611C47.4894 29.4298 46.9053 30.2572 47.2399 31.0299C47.6009 31.9831 47.9619 32.9342 48.2337 33.9199C48.0755 32.0155 48.0471 30.0929 48.254 28.1927C48.3635 28.1906 48.5825 28.1866 48.692 28.1846L48.8096 28.4056C48.9415 30.1011 48.9273 31.8087 48.9293 33.5082C49.1301 32.5773 49.5377 31.7174 49.8135 30.8109C50.0934 30.0098 49.3978 29.1398 49.8926 28.3934C50.4158 27.5437 51.1257 26.8278 51.8193 26.12C52.1295 27.2496 52.2208 28.434 52.1235 29.6022C51.8983 30.4965 50.9837 30.8149 50.2556 31.1922C49.2943 32.6077 49.1159 34.4086 49.1422 36.0818C49.055 37.6494 49.3167 39.2557 48.7934 40.7706C49.1869 40.2109 49.2153 39.4483 49.7324 38.9656C50.3793 38.2376 51.3548 37.5602 51.3467 36.4833C51.1906 35.8688 50.7606 35.3273 50.7626 34.6682C50.7444 33.5589 51.4238 32.626 51.7909 31.6221C52.3607 32.5814 53.5188 33.3987 53.2997 34.6459C53.1983 35.6031 52.4236 36.244 51.872 36.9538C52.4054 36.5908 52.8171 36.0757 53.1618 35.5383C53.4904 35.017 53.389 34.3376 53.7094 33.8225C54.5003 33.3277 55.5144 33.4311 56.3033 32.92C56.2708 33.0762 56.2079 33.3926 56.1755 33.5508C55.5225 33.5508 55.3886 34.3316 54.9769 34.7088C54.4679 35.3861 53.6851 35.7613 53.0929 36.3474C54.3928 35.8019 55.1777 34.5851 56.068 33.5731C55.9261 34.5952 55.7293 35.7593 54.8897 36.457C54.0663 36.9538 53.0503 36.8139 52.162 37.114C52.1904 37.1911 52.2492 37.3432 52.2776 37.4203C51.0912 38.4951 49.8906 39.7546 49.5641 41.379C49.27 42.8392 49.4728 44.3319 49.5438 45.8022C49.3694 46.153 49.2092 46.512 49.0936 46.8892C49.6695 45.9259 50.2374 44.9443 51.0425 44.1372C52.0058 43.2144 50.8397 41.815 51.4867 40.7584C52.0525 39.9148 52.8982 39.3145 53.5776 38.5722C53.6486 39.86 54.2184 41.235 53.6202 42.4721C53.172 42.9792 52.6447 43.4476 52.0342 43.7559C51.9835 43.8289 51.8821 43.977 51.8314 44.052C51.5313 44.1372 51.296 44.342 51.1034 44.5813C51.2068 44.5184 51.4096 44.3927 51.511 44.3298C51.6144 44.4211 51.7179 44.5164 51.8213 44.6117C52.018 44.4272 52.2168 44.2426 52.45 44.1047C52.377 43.9932 52.306 43.8816 52.235 43.7701C53.0118 43.3523 53.6871 42.7135 54.0988 41.9266C54.7356 41.2756 55.6807 40.9531 56.5872 41.0099C57.3761 41.0647 58.1468 41.2634 58.9296 41.3831C57.9318 42.0321 57.5323 43.3483 56.3682 43.7579C55.486 44.1514 54.5328 43.7539 53.6323 43.6585L53.6222 43.9161C53.533 43.91 53.3565 43.8999 53.2673 43.8938C52.8069 44.411 52.1397 44.6746 51.6611 45.1715C50.4828 46.3214 49.5276 47.81 49.3978 49.4892C49.1483 52.1256 49.1808 54.7905 49.4343 57.4269C49.5986 58.6012 49.779 60.1709 51.1236 60.5664C52.3506 60.7489 53.5634 60.2338 54.7944 60.3473C55.5509 60.5075 56.2404 60.0573 56.9887 60.0391C57.9095 59.9579 58.7775 60.3291 59.6597 60.5278C60.8765 60.7327 62.1238 60.6759 63.3426 60.4954C62.0224 61.3756 60.3208 61.2924 58.818 61.0734C58.3273 61.0409 57.9602 60.6799 57.5039 60.5461C56.8995 60.3818 56.2668 60.4001 55.6482 60.396L55.6584 60.5927C56.6643 60.5907 57.944 60.54 58.5625 61.5053C58.8464 62.2233 58.5098 63.0162 58.0474 63.5821C58.0778 62.9716 58.3049 62.2638 57.875 61.7386C57.514 61.1748 56.79 61.0369 56.1714 61.0511C55.3501 61.0571 54.5226 60.9902 53.7074 61.1139C54.2286 61.2863 54.8938 61.266 55.2507 61.7548C55.6604 62.1442 55.6543 62.7485 55.78 63.2616C55.7922 63.8153 56.2911 64.1317 56.6054 64.5251C56.0964 64.373 55.4211 64.2432 55.2669 63.6429C55.0844 64.1743 54.8147 64.6732 54.3868 65.0463C54.5389 64.4845 54.5551 63.8842 54.8451 63.3691C55.0864 62.9027 55.2629 62.2091 54.7173 61.8846C53.9954 61.5702 53.1862 61.7183 52.4297 61.5824C51.8537 61.408 51.3548 61.0592 50.7951 60.8503C51.2818 61.3167 51.9572 61.5094 52.4723 61.9454C52.6001 62.8641 52.4885 63.8173 52.8657 64.6914C52.6143 64.4278 52.3182 64.1824 52.1884 63.8315C52.0403 63.3346 52.1052 62.7891 51.876 62.3166C51.5637 61.9637 50.9837 62.0549 50.6775 61.6838C50.0366 61.1018 49.8338 60.2236 49.2964 59.5746C49.5762 60.4852 50.1177 61.2823 50.7606 61.9779C51.513 62.8033 51.6469 64.3142 50.5882 64.953C51.0527 64.2392 51.0405 63.1846 50.3388 62.6248C49.7851 62.1807 49.5478 61.5094 49.1422 60.9557C49.3065 61.5236 49.6533 62.0529 49.6168 62.6634C49.5925 63.2292 49.6594 63.793 49.8054 64.3406C49.1341 63.797 49.2781 62.8864 48.9354 62.1827C48.9252 62.8317 49.1159 63.4523 49.2416 64.081C49.343 64.6285 49.1057 65.1599 48.9678 65.6791C49.1929 64.7036 48.836 63.6956 48.3858 62.8418C48.1282 63.6652 47.895 64.4967 47.749 65.3485C47.4001 64.2777 47.9883 63.2555 47.9457 62.1868C47.6151 62.9067 47.7611 63.8315 47.0736 64.3852C47.1649 63.8072 47.2237 63.2251 47.248 62.6411C47.2399 62.0367 47.5908 61.5216 47.7814 60.9679C47.4123 61.3512 47.2582 61.8826 46.8911 62.2659C46.595 62.6532 46.1225 62.9534 46.0312 63.4644C45.8669 63.9613 46.09 64.4501 46.2097 64.9287C45.7534 64.592 45.4918 64.0445 45.5526 63.4746C45.5465 62.6451 46.1286 62.0063 46.6133 61.3999C47.0757 60.8726 47.3515 60.2216 47.6313 59.5888C47.0615 60.1425 46.9195 60.9902 46.3374 61.5439C46.0211 62.0651 45.3417 62.0002 44.9138 62.3774C44.8773 63.2535 44.8184 64.3182 43.8916 64.732C44.6643 63.9552 43.8064 62.7141 44.494 61.8927C44.9077 61.4993 45.4674 61.3167 45.9339 61.0004C45.9805 60.7874 46.0373 60.5785 46.0981 60.3717C46.7532 60.1324 47.027 59.4185 47.1771 58.7939C47.676 56.6076 47.5198 54.3463 47.5563 52.1216C47.5117 50.562 47.5928 48.9274 46.9621 47.4632C46.5098 46.4532 45.9075 45.4797 45.0375 44.778C44.8306 44.5691 44.494 44.4231 44.4879 44.0844C43.4211 43.4091 42.2043 44.3481 41.0889 43.908C39.8578 43.4456 39.073 42.3079 37.9596 41.6508C38.9067 41.5433 39.8295 41.2695 40.7806 41.1945C41.531 41.2107 42.2124 41.5859 42.8938 41.8637C43.3157 42.6993 43.9971 43.399 44.786 43.8938C44.2263 43.1799 43.2792 42.6891 43.0845 41.736C42.8046 40.582 43.628 39.5213 43.5164 38.3674C44.3195 39.3692 45.585 40.0648 45.9379 41.3729C46.1651 42.2085 45.5952 42.9812 45.5972 43.7944C45.942 44.4454 46.5098 44.9301 47.0148 45.4534C47.4285 45.8793 47.6516 46.4532 48.0836 46.8689C47.9619 46.6073 47.824 46.3518 47.6861 46.1003C47.8707 45.4148 47.9031 44.705 47.899 43.9993C47.897 42.971 47.9599 41.8921 47.5157 40.9349C47.0148 39.6836 46.0292 38.7345 45.2646 37.6515C45.1429 37.4629 44.9726 37.3432 44.7515 37.2885C44.7576 37.185 44.7677 36.9802 44.7738 36.8768C43.9586 36.5097 43.048 37.1485 42.2773 36.6172C41.1031 35.8546 40.7968 34.3863 40.5514 33.1046C41.5006 33.6319 42.6667 33.6623 43.5448 34.3336C43.7213 34.8224 43.7659 35.3679 44.06 35.808C44.4493 36.2724 44.9503 36.6293 45.4512 36.964C45.1531 36.4874 44.642 36.2318 44.2607 35.8404C43.8206 35.2178 43.7152 34.3985 43.8348 33.6603C44.0883 33.1046 44.5913 32.7091 44.9361 32.2102C45.437 32.7679 44.9057 33.4575 44.8712 34.0821C44.8468 34.7858 44.717 35.6113 45.2606 36.1649C44.9929 35.3517 44.8103 34.4614 45.1206 33.6299C45.3315 33.1756 45.1977 32.5834 45.5567 32.2062C45.946 33.3338 46.6822 34.7392 45.8 35.8222C45.4045 36.2116 45.6357 36.7571 45.7737 37.2033C45.7006 37.4588 45.6763 37.7143 45.8649 37.9293C45.9318 37.8664 46.0637 37.7407 46.1306 37.6758C46.5707 38.2883 47.0939 38.8318 47.5746 39.4098C47.9315 39.8235 48.0248 40.4076 48.4182 40.7909C48.2884 40.3609 48.0735 39.9655 47.9254 39.5436C47.8301 36.9092 48.327 34.0841 47.0838 31.6363C46.6802 30.7602 45.3822 30.9285 45.0354 30.0037ZM45.2464 26.7102C45.7919 27.8053 46.0616 29.0323 46.6761 30.0869C46.5362 29.4196 46.2543 28.797 46.017 28.1602C45.8081 27.6552 45.6662 27.0914 45.2464 26.7102ZM50.3834 30.4763C51.1581 29.4724 51.2473 28.1156 51.5718 26.9231C50.9938 28.0284 50.935 29.3446 50.3834 30.4763ZM51.7584 32.1494C51.7665 33.0093 52.1397 33.8144 52.1539 34.6723C52.1559 35.305 51.8984 35.8932 51.7767 36.5056C52.6731 35.2036 52.2431 33.5203 51.7584 32.1494ZM41.0341 33.6907C41.4762 35.1245 42.904 36.0047 44.2486 36.4772C43.6625 36.0128 42.9141 35.808 42.3523 35.3071C41.7662 34.8994 41.4397 34.2545 41.0341 33.6907ZM45.0334 37.1607C45.1551 37.2783 45.1551 37.2783 45.0334 37.1607V37.1607ZM43.8328 39.2678C44.4189 40.5516 44.0214 42.1781 44.9868 43.2874C44.7515 42.7054 44.5223 42.1132 44.4615 41.4845C44.3358 40.7341 44.3702 39.8702 43.8328 39.2678ZM52.6974 40.5171C52.4439 41.4176 52.1032 42.3018 51.9693 43.2327C52.5595 41.9793 52.7339 40.5516 53.2916 39.2719C52.9103 39.5781 52.8373 40.077 52.6974 40.5171ZM56.0112 42.4417C55.3724 42.6567 54.6484 42.6851 54.1028 43.1171C55.4515 42.7175 56.9421 42.5249 58.0819 41.6346C57.3822 41.8779 56.7352 42.2592 56.0112 42.4417ZM38.8844 41.7664C39.3062 42.2653 39.9734 42.4174 40.5778 42.5817C41.5918 42.7845 42.618 42.9508 43.5874 43.328C42.1921 42.3707 40.3142 42.6952 38.8844 41.7664Z" fill="#DEDEDE"/>
<path d="M38.2354 28.7102C38.8417 27.5583 39.8335 26.2867 41.3058 26.4996C41.4194 26.7795 41.5411 27.0573 41.6628 27.3352C40.5777 27.325 39.2717 27.6049 38.7038 28.6331C39.4907 27.8462 40.6487 27.321 41.7723 27.5684C42.1414 27.8219 42.4699 28.1281 42.8228 28.4019C42.1211 28.7183 41.4052 29.2517 40.594 29.0549C39.8111 28.9089 39.0324 28.7345 38.2354 28.7102Z" fill="#DEDEDE"/>
<path d="M55.2405 27.3753C55.4108 27.0427 55.5589 26.698 55.7657 26.3856C57.1164 26.3207 58.0736 27.3814 58.7226 28.4299C57.8343 28.4137 57.0393 28.8396 56.1855 29.0039C55.3784 29.1478 54.703 28.5759 53.9851 28.3163C54.3968 28.1014 54.7578 27.8073 55.1451 27.5538C56.076 27.5193 57.0211 27.6714 57.8688 28.0689C57.2056 27.353 56.1206 27.4828 55.2405 27.3753Z" fill="#DEDEDE"/>
<path d="M53.3767 28.349C54.4719 28.1868 54.3705 29.5212 54.7761 30.1398L54.8288 29.7747C55.275 29.7666 55.782 29.7159 56.1268 30.0627C56.7129 30.7766 56.3499 31.8575 55.7131 32.4132C55.1269 32.5369 54.5023 32.4051 53.9365 32.6566C52.9346 32.4781 52.0545 31.1781 52.7602 30.2635C53.1638 29.649 53.9912 29.793 54.4962 30.1966C54.2407 29.5131 53.898 28.8662 53.3767 28.349Z" fill="#DEDEDE"/>
<path d="M40.7197 30.5655C40.9895 29.6995 42.109 29.9307 42.6971 30.316C42.9587 30.1193 43.2365 29.8901 43.5894 29.9368C44.3641 29.8962 44.7515 30.8555 44.4432 31.4781C44.1694 32.1899 43.3663 33.0437 42.5876 32.4455C42.2631 32.5955 41.8068 32.8572 41.5147 32.5043C40.9814 32.0358 40.3608 31.3159 40.7197 30.5655Z" fill="#DEDEDE"/>
<path d="M58.5605 30.2129C58.6112 30.4481 59.1263 30.7889 58.7694 30.945C58.6984 30.9288 58.5564 30.8984 58.4854 30.8842C58.5037 31.7339 58.6801 32.5938 58.5078 33.4375C58.4165 33.9344 58.0596 34.3116 57.8061 34.7314C58.1731 34.4616 58.4936 34.1027 58.6092 33.6525C58.9215 32.7966 58.4794 31.8171 58.9904 31.018C59.1993 32.1132 59.682 33.3117 59.1182 34.3846C58.668 34.8551 58.0109 35.0538 57.4471 35.358C57.443 35.4757 57.4349 35.7129 57.4309 35.8306L56.9705 35.644C57.1611 36.1368 57.9886 36.9095 57.2463 37.2806C57.1327 36.9298 57.1368 36.4998 56.8508 36.2301C56.5162 35.861 55.9788 35.8833 55.5387 35.7413C56.0924 35.4594 56.8975 35.3662 57.0861 34.6624C57.1713 34.1169 56.9015 33.5734 56.9948 33.0258C57.151 31.9185 58.0514 31.1559 58.5605 30.2129Z" fill="#DEDEDE"/>
<path d="M37.4891 33.8552C37.3187 32.614 37.9819 31.4925 38.4626 30.3994C39.0041 31.3161 39.6855 32.1861 39.9329 33.2448C40.0546 33.9343 39.9714 34.638 40.0586 35.3336C40.5393 35.5141 41.0544 35.6419 41.4641 35.9705C41.0747 35.9542 40.5738 35.8407 40.3101 36.2219C39.9268 36.4795 40.1012 37.3881 39.4583 37.1731C39.6165 36.7229 39.8639 36.3173 40.1377 35.9319L39.9167 35.8062C39.6733 35.4026 39.1298 35.4817 38.7424 35.3195C38.0428 35.1937 37.5398 34.5468 37.4891 33.8552ZM39.3529 35.0923C39.0284 34.5853 38.5741 34.1047 38.5356 33.4739C38.4707 32.7053 38.5579 31.9306 38.4605 31.164C38.278 32.4903 38.0772 34.2243 39.3529 35.0923Z" fill="#DEDEDE"/>
<path d="M45.2483 32.3524C44.9015 32.3219 44.9198 31.7358 45.2382 31.6831C45.5525 31.7298 45.6052 32.324 45.2483 32.3524Z" fill="#DEDEDE"/>
<path d="M57.5708 35.3985C59.0229 34.7556 60.6555 34.0053 62.2657 34.5184C63.4055 34.8794 63.9571 36.0293 64.4925 36.9987C63.083 36.4734 61.6654 37.5016 60.2539 37.0514C59.4021 36.808 58.6923 36.2523 57.8791 35.9238L57.5728 35.9745C57.5708 35.7818 57.5708 35.5892 57.5708 35.3985ZM58.7714 35.5162L58.7978 35.6764C59.8057 35.506 60.8522 35.4046 61.8581 35.646C62.5598 35.7697 63.1398 36.2098 63.7949 36.4633C62.4462 35.2302 60.4709 35.1917 58.7714 35.5162Z" fill="#DEDEDE"/>
<path d="M32.569 37.1529C33.3295 35.719 34.7775 34.413 36.5013 34.5631C37.4221 34.561 38.0487 35.3439 38.9127 35.5264C39.2047 35.6075 39.4927 35.7089 39.7807 35.8103C38.3712 35.9888 37.3511 37.2746 35.901 37.2806C34.8018 37.1894 33.6337 36.5627 32.569 37.1529ZM33.4228 36.5363C34.163 36.1977 34.8688 35.7292 35.7003 35.646C36.6007 35.4615 37.5093 35.6278 38.4016 35.7657C37.9108 35.4311 37.2963 35.427 36.7244 35.4047C35.5482 35.4067 34.2908 35.6967 33.4228 36.5363Z" fill="#DEDEDE"/>
<path d="M39.6773 37.4447C40.2107 37.1932 40.7988 36.7754 41.4093 37.0532C42.038 37.4325 42.111 38.3187 41.7804 38.9251C41.4579 39.6573 40.7116 40.5273 39.8254 40.0811C39.4421 40.3853 38.9574 40.4401 38.5862 40.0892C37.992 39.5761 37.126 38.8907 37.4262 37.9983C37.6797 37.0573 38.9878 36.822 39.6773 37.4447Z" fill="#DEDEDE"/>
<path d="M55.3034 37.465C55.7293 36.6964 56.7555 36.9499 57.297 37.4366C57.8202 37.0391 58.5503 36.6619 59.1628 37.1203C60.264 38.114 59.3473 40.0711 58.0311 40.3388C57.806 40.2171 57.5849 40.0954 57.3619 39.9737C57.0942 40.0893 56.8285 40.2069 56.5628 40.3266C55.4271 39.9717 54.768 38.5318 55.3034 37.465Z" fill="#DEDEDE"/>
<path d="M31.9139 38.3535C32.2364 38.8707 32.646 39.3412 33.1733 39.6575C33.8101 40.1037 34.666 40.2295 35.1588 40.8703C35.607 41.4321 35.9497 42.1723 36.6758 42.4238C36.9536 42.5678 37.2963 42.5597 37.5356 42.3386C37.996 42.3954 38.6409 42.148 38.9269 42.6449C38.428 42.726 37.8297 42.7138 37.4748 43.1417C37.0347 43.4926 36.9739 44.0807 36.909 44.5999C36.7974 44.5431 36.5744 44.4336 36.4628 44.3788C36.3472 43.6873 36.9029 43.2452 37.3572 42.8416C35.9152 43.1924 34.1245 43.6406 32.8874 42.5455C31.6685 41.5315 31.7598 39.7792 31.9139 38.3535ZM32.1634 39.2864C32.5913 41.0691 34.1711 42.5394 35.968 42.8882C35.5076 42.4968 34.8586 42.4623 34.3699 42.1135C33.7959 41.6775 33.226 41.207 32.863 40.5742C32.571 40.1767 32.4858 39.6616 32.1634 39.2864Z" fill="#DEDEDE"/>
<path d="M62.0771 40.5641C62.8985 39.6555 64.3627 39.8583 65.1131 38.8423C65.176 39.8137 65.2611 40.8926 64.6588 41.7282C64.168 42.3569 63.5049 42.9714 62.6632 43.0119C61.7628 43.1417 60.8765 42.9085 59.9963 42.7503C60.4567 43.1032 60.7264 43.6041 60.8704 44.1598C60.7406 44.2349 60.4831 44.3829 60.3533 44.4579C60.2438 43.9651 60.2417 43.377 59.8077 43.0363C59.3778 42.5881 58.741 42.509 58.1589 42.44C58.382 41.7282 59.2926 42.292 59.8199 42.3143C60.8664 42.2149 61.3572 41.1806 62.0771 40.5641ZM62.9046 41.5801C62.2191 42.1683 61.2902 42.2048 60.5054 42.5719C62.4057 42.4542 64.2268 41.1198 64.9367 39.3675C64.3607 40.193 63.803 41.065 62.9046 41.5801Z" fill="#DEDEDE"/>
<path d="M62.2109 43.2651C62.9715 43.2346 63.7157 43.0115 64.2309 42.4214C65.7195 43.1616 67.0438 44.3156 67.6562 45.8975C67.5893 45.9137 67.4534 45.9441 67.3865 45.9603C67.3399 45.8752 67.2445 45.7048 67.1959 45.6216C66.6807 45.4168 66.4049 44.8915 65.9567 44.5894C65.2631 44.1047 64.531 43.6139 63.6833 43.4658C64.4783 43.9221 65.3625 44.2365 66.0662 44.8408C66.4779 45.2099 66.8511 45.6176 67.2506 46.0009L66.985 46.1956C67.2648 46.1854 67.5467 46.1814 67.8306 46.1773C67.8165 46.3517 67.786 46.7046 67.7718 46.879C66.8998 46.1287 65.6971 46.1185 64.6872 45.6683C63.6001 45.21 62.7362 44.3115 62.2109 43.2651Z" fill="#DEDEDE"/>
<path d="M29.8757 45.555C30.549 44.3605 31.5286 43.3749 32.7049 42.6772C33.0598 42.9206 33.4329 43.1356 33.8203 43.3262C32.7738 43.5594 31.922 44.2287 31.1128 44.8898C30.7559 45.1981 30.3767 45.5185 30.2022 45.9748C30.0927 45.8329 29.9852 45.693 29.8757 45.555Z" fill="#DEDEDE"/>
<path d="M30.2124 46.0986C31.344 44.5269 33.1936 43.237 35.2075 43.3932C34.6741 44.0422 34.1711 44.7297 33.5161 45.2651C32.281 46.2568 30.5592 46.3136 29.3667 47.3783C29.464 46.9403 29.5573 46.5022 29.6263 46.0621C29.7216 46.2162 29.8169 46.3744 29.9102 46.5326L29.7338 46.0865C29.8534 46.0885 30.0927 46.0946 30.2124 46.0986Z" fill="#DEDEDE"/>
<path d="M58.6578 44.4356C59.2114 44.0118 59.9557 44.2288 60.4708 44.606C61.0549 44.2227 61.8864 44.0929 62.4016 44.6668C63.0343 45.7397 62.3448 47.2262 61.2618 47.7048C61.0346 47.5649 60.8116 47.427 60.5864 47.2891C60.3208 47.4351 60.0571 47.5832 59.7935 47.7312C59.1364 47.3783 58.6192 46.7963 58.3049 46.125C58.0554 45.5592 58.2542 44.8757 58.6578 44.4356Z" fill="#DEDEDE"/>
<path d="M36.8218 44.7556C37.2963 44.3744 38.0163 44.1898 38.5517 44.5589C39.0445 45.0112 39.1358 45.7879 38.8762 46.3862C38.6349 46.9378 38.2414 47.4022 37.8439 47.8484C37.5336 47.7531 37.2254 47.6456 36.909 47.5746C36.6027 47.6578 36.2965 48.0147 35.9741 47.7957C35.4163 47.4103 34.9438 46.877 34.6579 46.2604C34.3394 45.5831 34.7288 44.5974 35.4995 44.4535C35.9659 44.3419 36.402 44.5853 36.8218 44.7556Z" fill="#DEDEDE"/>
<path d="M36.7245 60.6073C37.6899 60.518 38.5782 60.0556 39.5496 60.0171C40.1742 60.0171 40.7887 60.1672 41.3769 60.374C40.6427 60.4268 39.8741 60.3517 39.1785 60.6316C38.6856 60.8263 38.3064 61.3069 37.7325 61.2684C36.3189 61.3698 34.7391 61.384 33.5547 60.4876C34.6032 60.6377 35.6699 60.7168 36.7245 60.6073Z" fill="#DEDEDE"/>
<path d="M38.3124 61.4793C39.2189 60.3396 40.7724 60.7472 42.0055 60.3497C43.2933 60.2686 44.5669 60.6499 45.8507 60.6539C45.9115 61.094 45.3457 61.1366 45.0739 61.3292C44.2181 61.8484 43.1452 61.4814 42.2793 61.96C41.8108 62.2317 42.0035 62.8645 42.1921 63.2579C42.4942 63.8501 42.4456 64.5356 42.549 65.1765C42.1373 64.8297 41.8311 64.3855 41.7378 63.8501C41.3748 64.3024 40.8231 64.4626 40.2695 64.5173C40.5595 64.2152 40.8596 63.9211 41.1355 63.6067C41.1983 63.0936 41.2612 62.5765 41.4255 62.0837C41.6871 61.4063 42.5105 61.3597 43.056 61.023C41.8534 61.1488 40.4824 60.7796 39.4136 61.4854C38.6917 61.9377 38.7849 62.8746 38.8965 63.6027C38.3327 63.0511 38.1157 62.2419 38.3124 61.4793Z" fill="#DEDEDE"/>
<path d="M26.6917 90.0464C27.3731 90.1843 28.0586 90.2918 28.7461 90.4033C28.2249 91.1415 28.2695 92.0886 28.087 92.9364C28.5697 92.691 29.0949 92.551 29.6222 92.4395C29.7439 91.8088 29.9021 91.1557 29.7013 90.523C30.3665 90.6467 31.0378 90.7461 31.7111 90.8231C31.3075 91.4964 31.2954 92.3016 31.1676 93.056C30.4699 93.0256 29.46 92.8248 29.0645 93.5833C29.2531 94.3499 30.186 94.5426 30.8289 94.7981C30.835 95.8223 30.3807 96.818 30.5612 97.8442C29.8737 97.6962 29.1862 97.5502 28.4885 97.4609C29.1294 96.7531 29.028 95.7411 29.2693 94.8772C28.6163 94.6561 28.3121 94.0031 28.0424 93.4271C27.6996 94.6541 27.4096 95.9338 27.4299 97.2155C26.7404 96.9864 26.0407 96.7714 25.3126 96.7105C25.5418 96.4428 25.773 96.163 25.8298 95.804C26.1685 94.2221 26.4625 92.6321 26.7809 91.0462C26.8823 90.7096 26.8174 90.3648 26.6917 90.0464Z" fill="#DEDEDE"/>
<path d="M65.3077 90.7887C66.9079 90.5758 68.5141 90.3872 70.096 90.0444C69.9236 90.7786 70.1609 91.5087 70.3089 92.2246C70.313 92.2469 70.3231 92.2915 70.3272 92.3138C70.6557 93.776 70.6922 95.3579 71.4446 96.6863C70.7693 96.8222 70.1061 96.9986 69.445 97.1892C69.4429 95.9055 69.0475 94.6704 68.8588 93.409C68.5242 93.989 68.216 94.6258 67.5893 94.9442C67.7799 95.8021 67.784 96.735 68.3011 97.4874C67.6359 97.5806 66.9768 97.7023 66.3157 97.8139C66.3177 96.8161 66.1291 95.8345 65.9709 94.8529C66.6848 94.6035 67.3804 94.2709 67.8651 93.6685C67.3885 92.9141 66.4658 92.9587 65.691 93.0622C65.5471 92.3077 65.4335 91.5472 65.3077 90.7887ZM66.9363 91.0686C67.0154 91.5229 67.1026 91.9792 67.1958 92.4335C67.7272 92.5653 68.2504 92.7255 68.7615 92.9202C68.6337 92.2084 68.4999 91.4965 68.3924 90.7806C67.9057 90.8739 67.421 90.9692 66.9363 91.0686Z" fill="#DEDEDE"/>
<path d="M32.5892 90.9102C34.0677 91.0156 35.5441 91.1596 37.0246 91.2346C36.7244 91.8207 36.9901 92.4799 37.0327 93.0944C37.3288 94.946 37.4647 96.8239 37.8622 98.6593C37.3633 98.5924 36.8623 98.564 36.3614 98.562C36.6697 97.9637 36.4263 97.3107 36.3107 96.7002C35.6617 97.2316 35.1365 97.984 34.2725 98.1807C33.8791 98.3064 33.1571 98.2578 33.1348 97.7183C33.007 96.6211 33.0151 95.5138 32.8975 94.4146C33.7006 94.3376 34.4976 94.1165 35.1223 93.5831C34.5646 93.4756 34.3212 93.0112 34.5057 92.4839C34.9012 92.3947 35.2946 92.4028 35.6678 92.5874C35.5907 92.3115 35.5157 92.0378 35.4427 91.764C34.7309 91.7133 34.017 91.6504 33.3031 91.6058C33.1551 91.7984 33.005 91.9911 32.8529 92.1838C32.7555 91.7599 32.6704 91.336 32.5892 90.9102ZM34.5382 95.1914C34.5483 95.7328 34.6578 96.2682 35.0067 96.7002C35.4346 96.5867 35.828 96.3818 36.2133 96.1648C36.043 95.2603 35.9091 94.3497 35.7773 93.4412C35.3555 94.0191 35.0046 94.6458 34.5382 95.1914Z" fill="#DEDEDE"/>
<path d="M62.0994 91.0538C62.6652 91.0275 63.2331 90.989 63.7969 90.918C63.8273 92.0638 64.0686 93.1894 64.1944 94.3271C64.3749 95.5622 64.4681 96.8155 64.7622 98.0323C64.1538 98.1033 63.5454 98.1784 62.941 98.2696C62.9937 97.4077 62.8498 96.5559 62.7544 95.7021C62.4117 96.0368 61.9838 96.4322 61.4808 96.1402C60.9698 95.7974 61.1807 95.1485 61.6147 94.8544C61.274 94.538 60.9353 94.2196 60.5844 93.9154L60.4729 93.814C60.4181 93.7613 60.3066 93.6558 60.2518 93.6031C60.55 95.2215 60.4769 96.8987 60.9191 98.4887C60.2701 98.5211 59.6211 98.5678 58.9742 98.6286C59.1912 97.2414 58.8099 95.8542 58.7186 94.4691C58.5686 93.3861 58.5909 92.2707 58.2461 91.2222C58.8444 91.2343 59.4447 91.2343 60.045 91.2323C60.0815 91.6886 59.9841 92.2423 60.4262 92.5364C60.4506 92.5607 60.4952 92.6073 60.5195 92.6317C61.1685 93.3334 61.8601 93.9945 62.5598 94.6496C62.4583 93.4449 62.2758 92.2484 62.0994 91.0538Z" fill="#DEDEDE"/>
<path d="M39.5678 91.4151C41.2531 91.4029 42.9384 91.5023 44.6197 91.4415C44.3966 91.8126 44.4453 92.2567 44.4088 92.6705C44.3337 94.5606 44.2242 96.4508 44.2039 98.3429C44.2445 98.4889 44.3256 98.785 44.3662 98.931C43.7415 98.8459 43.1108 98.8378 42.4821 98.8702C42.6403 96.7063 42.7153 94.5302 42.7681 92.3602C42.2428 92.348 41.7216 92.3277 41.1984 92.2993C41.0828 94.4633 40.9144 96.6272 40.9286 98.7931C40.2817 98.7749 39.6347 98.7505 38.9878 98.7404C39.1723 98.4362 39.3569 98.1198 39.3184 97.7507C39.3975 95.6395 39.6672 93.5263 39.5678 91.4151Z" fill="#DEDEDE"/>
<path d="M45.6336 94.094C45.8222 91.9645 48.6676 90.5388 50.3752 91.9442C50.1623 92.1004 49.9513 92.2546 49.7404 92.4107C49.8966 93.7512 50.8863 94.7977 51.1134 96.1159C51.1763 97.0387 50.7037 97.8925 50.1298 98.5821L50.0325 98.7058L49.8763 98.7788C48.917 99.0789 47.8848 99.1965 46.9194 98.8518C46.8748 98.8173 46.7856 98.7483 46.7409 98.7139C46.6598 98.6449 46.4976 98.509 46.4185 98.4401C46.5848 98.4117 46.9194 98.3529 47.0877 98.3245C46.8647 96.8156 45.3233 95.7124 45.6336 94.094ZM47.7022 93.662C47.6495 94.9518 47.7834 96.2417 47.7732 97.5315C47.7813 97.8864 47.4447 98.1217 47.2905 98.4117C47.7185 98.4482 48.1991 98.503 48.4404 98.0629C49.278 96.6858 48.9941 95.0107 48.8805 93.4896C48.767 92.8995 49.1685 92.4411 49.5275 92.0375C48.55 91.8773 47.7529 92.7433 47.7022 93.662Z" fill="#DEDEDE"/>
<path d="M51.511 91.4355C53.4539 91.4112 55.3988 91.4314 57.3376 91.3179C57.1165 91.9344 56.9745 92.5895 56.6237 93.1532C56.5689 92.8065 56.5223 92.4597 56.4777 92.1129C56.1228 92.1129 55.7699 92.1129 55.419 92.119C55.4231 93.6603 55.6036 95.1955 55.6259 96.7388C55.6948 97.4243 55.5833 98.1706 55.9504 98.7912C55.346 98.7953 54.7437 98.8135 54.1414 98.848C54.2326 98.556 54.3158 98.2558 54.2813 97.9496C54.1515 96.027 54.1109 94.1024 53.9974 92.1798C53.6526 92.196 53.3078 92.2102 52.9651 92.2264C52.8698 93.2019 53.247 94.2849 52.6507 95.1509C52.2512 93.9178 51.9085 92.6665 51.511 91.4355Z" fill="#DEDEDE"/>
<path d="M7.87971 67.119C8.61387 67.0176 9.1371 67.5773 9.64006 68.0113C9.03976 68.0884 8.4719 68.2973 7.90405 68.496C7.85538 68.0377 7.82901 67.5773 7.87971 67.119Z" fill="#DEDEDE"/>
<path d="M87.225 67.9953C87.6732 67.6789 88.0544 67.1861 88.6203 67.0786C88.7906 67.2104 88.959 67.3504 89.1212 67.4984C89.0178 67.8452 88.9062 68.192 88.7785 68.5307C88.31 68.2245 87.7665 68.0926 87.225 67.9953Z" fill="#DEDEDE"/>
<path d="M5.93882 74.7832C7.30775 74.7933 7.66063 76.4685 8.772 77.0039C7.74378 77.2878 6.81899 77.8354 5.92868 78.4053C5.53321 77.2696 5.0485 75.8135 5.93882 74.7832Z" fill="#DEDEDE"/>
<path d="M90.1493 74.9248C90.5631 74.6227 90.9829 74.937 91.2708 75.2432C91.5304 76.312 91.3357 77.4356 90.847 78.409C90.0195 77.754 89.0501 77.3179 88.0564 76.9772C88.9731 76.527 89.3503 75.4947 90.1493 74.9248Z" fill="#DEDEDE"/>
<path d="M3.22335 83.5484C3.21118 83.232 3.56609 82.9542 3.86218 83.1347C4.31849 83.301 4.70788 83.6032 5.12566 83.8445C4.79509 84.459 4.32863 84.9863 3.94939 85.5724C3.65938 84.9214 3.18887 84.2886 3.22335 83.5484Z" fill="#DEDEDE"/>
<path d="M91.7738 83.8401C92.2605 83.5015 92.7615 83.1628 93.3455 83.0127C94.0371 83.8341 93.159 84.7244 93.0008 85.568C92.4856 85.0752 92.076 84.483 91.7738 83.8401Z" fill="#DEDEDE"/>
<path d="M18.1619 85.8682C17.7563 85.4991 18.3545 85.0144 18.752 85.201C19.9324 85.489 21.0539 85.9838 22.2524 86.217C22.1592 86.3205 21.9746 86.5253 21.8813 86.6287C21.8387 86.6247 21.7576 86.6186 21.715 86.6145C21.6177 86.9512 21.5122 87.2858 21.4007 87.6204C20.265 87.1824 18.9812 86.8275 18.1619 85.8682Z" fill="#DEDEDE"/>
<path d="M77.9872 85.2074C78.2853 85.1344 78.7517 85.1344 78.8207 85.5238C78.7538 85.9233 78.4151 86.1808 78.1149 86.41C77.3098 86.9474 76.3951 87.2902 75.4846 87.6005C75.2331 87.1178 75.0161 86.6169 74.8254 86.1078C75.9368 86.0287 76.9143 85.4406 77.9872 85.2074Z" fill="#DEDEDE"/>
<path d="M6.45398 88.1926C6.99141 87.9026 7.55521 87.6673 8.0967 87.3813C8.44349 88.0932 8.8633 89.0849 8.13523 89.7055C7.41527 89.383 7.05225 88.6631 6.45398 88.1926Z" fill="#DEDEDE"/>
<path d="M88.6832 89.6972C87.9956 89.0361 88.4175 88.1072 88.7541 87.3853C89.2794 87.6813 89.831 87.9227 90.409 88.093C89.8919 88.6852 89.3747 89.3018 88.6832 89.6972Z" fill="#DEDEDE"/>
<path d="M10.719 91.2425C11.3457 90.6138 12.3009 90.8085 13.1019 90.7578C13.0269 91.5041 12.9438 92.2504 12.8566 92.9968C12.2238 92.3133 11.3781 91.8935 10.719 91.2425Z" fill="#DEDEDE"/>
<path d="M83.7327 90.7661C84.4891 90.8269 85.5052 90.5694 86.0487 91.2265C85.564 92.0174 84.5337 92.2283 83.972 92.9686C83.899 92.2324 83.8158 91.5002 83.7327 90.7661Z" fill="#DEDEDE"/>
</svg>
