<svg width="155" height="100" viewBox="0 0 155 100" fill="none" xmlns="http://www.w3.org/2000/svg">
<rect x="38.9309" y="22.2559" width="15.0761" height="33.7417" fill="url(#paint0_linear_914_7528)"/>
<rect x="56.1609" y="10.769" width="27.9984" height="45.2283" fill="url(#paint1_linear_914_7528)"/>
<rect x="92.0562" y="31.5884" width="22.9731" height="24.4089" fill="url(#paint2_linear_914_7528)"/>
<path d="M77.3391 0.000488281H103.543V50.972H86.313V10.4102H77.3391V0.000488281Z" fill="url(#paint3_linear_914_7528)"/>
<path d="M14.7212 78.2696V81.4645H4.91587V99.7059H0.881836V78.2696H14.7212Z" fill="#DEDEDE"/>
<path d="M30.2095 78.2696V81.4645H19.7417V78.2696H30.2095ZM33.1982 78.2696V99.7059H29.1348V78.2696H33.1982ZM19.0939 78.2696H23.1279L22.5979 88.9731C22.5194 90.5533 22.377 91.9372 22.1709 93.1249C21.9648 94.3125 21.6851 95.3284 21.3317 96.1725C20.9784 97.0068 20.5367 97.684 20.0067 98.2042C19.4767 98.7244 18.8485 99.1072 18.1222 99.3526C17.4057 99.5882 16.5714 99.7059 15.6193 99.7059H14.6034V96.5258L15.1776 96.4669C15.6782 96.4277 16.1101 96.305 16.4732 96.0989C16.8462 95.8927 17.1652 95.5836 17.4302 95.1713C17.6952 94.7493 17.9111 94.2094 18.078 93.5518C18.2547 92.8942 18.3921 92.0943 18.4902 91.152C18.5982 90.2098 18.6767 89.1056 18.7258 87.8394L19.0939 78.2696Z" fill="#DEDEDE"/>
<path d="M46.1395 81.5234L40.0296 99.7059H35.7453L43.7545 78.2696H46.4929L46.1395 81.5234ZM51.2483 99.7059L45.1089 81.5234L44.7409 78.2696H47.494L55.5474 99.7059H51.2483ZM50.9686 91.7409V94.9358H39.4701V91.7409H50.9686Z" fill="#DEDEDE"/>
<path d="M65.9711 90.1509H60.4942L60.4648 87.2947H65.1613C65.9662 87.2947 66.6385 87.1818 67.1783 86.956C67.7182 86.7303 68.1255 86.4015 68.4003 85.9696C68.685 85.5378 68.8273 85.0126 68.8273 84.3943C68.8273 83.7072 68.6948 83.1478 68.4298 82.7159C68.1746 82.284 67.7721 81.9699 67.2225 81.7736C66.6728 81.5675 65.976 81.4645 65.1319 81.4645H61.8045V99.7059H57.7558V78.2696H65.1319C66.3489 78.2696 67.4335 78.3874 68.3856 78.623C69.3475 78.8487 70.1621 79.2021 70.8296 79.683C71.497 80.164 72.0025 80.7676 72.346 81.4939C72.6994 82.2202 72.876 83.084 72.876 84.0851C72.876 84.9685 72.6699 85.7831 72.2577 86.5291C71.8553 87.2652 71.232 87.8639 70.3879 88.3253C69.5536 88.7866 68.4936 89.0516 67.2078 89.1203L65.9711 90.1509ZM65.7944 99.7059H59.3017L60.9948 96.5258H65.7944C66.5992 96.5258 67.2618 96.3933 67.782 96.1283C68.312 95.8633 68.7046 95.5001 68.9598 95.0388C69.2248 94.5677 69.3573 94.0279 69.3573 93.4193C69.3573 92.7519 69.2395 92.1728 69.0039 91.682C68.7782 91.1913 68.415 90.8134 67.9145 90.5484C67.4237 90.2834 66.7759 90.1509 65.9711 90.1509H61.7604L61.7898 87.2947H67.1489L68.0764 88.3989C69.3131 88.4087 70.3192 88.6541 71.0946 89.135C71.8798 89.616 72.4589 90.2343 72.8319 90.9901C73.2048 91.7458 73.3913 92.5605 73.3913 93.434C73.3913 94.8082 73.092 95.9615 72.4932 96.8939C71.9043 97.8263 71.0406 98.5281 69.902 98.9992C68.7733 99.4704 67.4041 99.7059 65.7944 99.7059Z" fill="#DEDEDE"/>
<path d="M89.4391 92.6537H93.4879C93.3799 94.0868 92.9824 95.3578 92.2953 96.4669C91.6083 97.5662 90.6513 98.43 89.4244 99.0581C88.1975 99.6863 86.7105 100 84.9634 100C83.6187 100 82.4065 99.7648 81.3269 99.2937C80.257 98.8128 79.3393 98.1306 78.5737 97.2472C77.818 96.3541 77.2389 95.2842 76.8364 94.0377C76.434 92.7813 76.2328 91.3729 76.2328 89.8123V88.178C76.2328 86.6174 76.4389 85.2089 76.8512 83.9526C77.2634 82.6963 77.8523 81.6264 78.6179 80.743C79.3933 79.8499 80.3208 79.1628 81.4005 78.6819C82.49 78.2009 83.7071 77.9604 85.0517 77.9604C86.7988 77.9604 88.276 78.2843 89.4833 78.9321C90.6905 79.5701 91.6279 80.4486 92.2953 81.5675C92.9628 82.6864 93.3652 83.9722 93.5026 85.4249H89.4538C89.3753 84.5219 89.179 83.7563 88.8649 83.1281C88.5607 82.5 88.0993 82.0239 87.481 81.7C86.8724 81.3663 86.0627 81.1995 85.0517 81.1995C84.2665 81.1995 83.5746 81.3467 82.9758 81.6411C82.3869 81.9356 81.8962 82.3773 81.5036 82.9662C81.1109 83.5453 80.8165 84.2716 80.6202 85.1451C80.4239 86.0089 80.3257 87.01 80.3257 88.1486V89.8123C80.3257 90.9017 80.4141 91.8783 80.5907 92.7421C80.7674 93.6058 81.0422 94.337 81.4152 94.9358C81.7882 95.5345 82.2691 95.9909 82.858 96.305C83.447 96.6191 84.1487 96.7761 84.9634 96.7761C85.9547 96.7761 86.7596 96.6191 87.3779 96.305C88.0061 95.9909 88.4821 95.5296 88.806 94.921C89.1397 94.3125 89.3508 93.5567 89.4391 92.6537Z" fill="#DEDEDE"/>
<path d="M110.846 87.118V90.2981H99.5684V87.118H110.846ZM100.673 78.2696V99.7059H96.6238V78.2696H100.673ZM113.849 78.2696V99.7059H109.801V78.2696H113.849Z" fill="#DEDEDE"/>
<path d="M126.761 81.5234L120.651 99.7059H116.367L124.376 78.2696H127.115L126.761 81.5234ZM131.87 99.7059L125.731 81.5234L125.363 78.2696H128.116L136.169 99.7059H131.87ZM131.59 91.7409V94.9358H120.092V91.7409H131.59Z" fill="#DEDEDE"/>
<path d="M152.173 78.2696V81.4645H142.367V99.7059H138.333V78.2696H152.173ZM141.057 86.2935H146.254C147.913 86.2935 149.336 86.5733 150.524 87.1327C151.711 87.6824 152.619 88.4529 153.247 89.4442C153.885 90.4355 154.204 91.5986 154.204 92.9335C154.204 93.9346 154.023 94.8474 153.66 95.6719C153.306 96.4964 152.786 97.2129 152.099 97.8214C151.412 98.4201 150.578 98.8864 149.596 99.2201C148.615 99.544 147.501 99.7059 146.254 99.7059H138.333V78.2696H142.397V96.5258H146.254C147.138 96.5258 147.869 96.359 148.448 96.0253C149.027 95.6915 149.459 95.2499 149.743 94.7002C150.028 94.1506 150.17 93.5518 150.17 92.904C150.17 92.266 150.028 91.6869 149.743 91.1667C149.459 90.6465 149.027 90.2343 148.448 89.93C147.869 89.6258 147.138 89.4736 146.254 89.4736H141.057V86.2935Z" fill="#DEDEDE"/>
<path d="M6.95102 66.0677V66.4094C6.95102 66.9107 6.88419 67.3619 6.75051 67.7629C6.61684 68.1609 6.42696 68.4996 6.18088 68.7791C5.9348 69.0586 5.64164 69.2728 5.30138 69.4217C4.96112 69.5705 4.58288 69.6449 4.16667 69.6449C3.75654 69.6449 3.37983 69.5705 3.03653 69.4217C2.69627 69.2728 2.40158 69.0586 2.15246 68.7791C1.90334 68.4996 1.71043 68.1609 1.57372 67.7629C1.43701 67.3619 1.36865 66.9107 1.36865 66.4094V66.0677C1.36865 65.5634 1.43701 65.1122 1.57372 64.7142C1.71043 64.3162 1.90183 63.9775 2.14791 63.698C2.39399 63.4155 2.68716 63.1998 3.02741 63.0509C3.37071 62.902 3.74743 62.8276 4.15756 62.8276C4.57377 62.8276 4.952 62.902 5.29226 63.0509C5.63252 63.1998 5.92569 63.4155 6.17177 63.698C6.42089 63.9775 6.61228 64.3162 6.74596 64.7142C6.88267 65.1122 6.95102 65.5634 6.95102 66.0677ZM5.68417 66.4094V66.0586C5.68417 65.697 5.65075 65.3796 5.58391 65.1061C5.51708 64.8297 5.41834 64.5973 5.28771 64.4089C5.15707 64.2206 4.99605 64.0793 4.80466 63.9851C4.61326 63.8879 4.39756 63.8393 4.15756 63.8393C3.91452 63.8393 3.69882 63.8879 3.51046 63.9851C3.32514 64.0793 3.16716 64.2206 3.03653 64.4089C2.90589 64.5973 2.80564 64.8297 2.73576 65.1061C2.66893 65.3796 2.63551 65.697 2.63551 66.0586V66.4094C2.63551 66.7679 2.66893 67.0854 2.73576 67.3619C2.80564 67.6383 2.90589 67.8723 3.03653 68.0637C3.1702 68.252 3.33122 68.3948 3.51957 68.492C3.70793 68.5892 3.92363 68.6378 4.16667 68.6378C4.40972 68.6378 4.62542 68.5892 4.81377 68.492C5.00213 68.3948 5.16011 68.252 5.28771 68.0637C5.41834 67.8723 5.51708 67.6383 5.58391 67.3619C5.65075 67.0854 5.68417 66.7679 5.68417 66.4094Z" fill="#DEDEDE"/>
<path d="M10.3141 64.6231V69.5538H9.1065V64.6231H10.3141ZM11.9182 64.6231V65.5618H7.52977V64.6231H11.9182Z" fill="#DEDEDE"/>
<path d="M13.9096 64.6231V69.5538H12.7066V64.6231H13.9096ZM17.1223 64.6231L14.9486 67.649H13.6681L13.5177 66.5462H14.4063L15.6048 64.6231H17.1223ZM15.6778 69.5538L14.3289 67.4393L15.3314 66.8105L17.2773 69.5538H15.6778Z" fill="#DEDEDE"/>
<path d="M19.0317 65.571V71.4495H17.8241V64.6231H18.9406L19.0317 65.571ZM22.1989 67.0383V67.134C22.1989 67.4925 22.1563 67.8252 22.0713 68.132C21.9893 68.4358 21.8677 68.7016 21.7067 68.9295C21.5457 69.1543 21.3452 69.3305 21.1052 69.4581C20.8682 69.5827 20.5948 69.6449 20.2849 69.6449C19.9811 69.6449 19.7168 69.5872 19.492 69.4718C19.2672 69.3533 19.0773 69.1862 18.9224 68.9705C18.7674 68.7548 18.6429 68.5042 18.5487 68.2186C18.4575 67.93 18.3892 67.6155 18.3436 67.2753V66.97C18.3892 66.6084 18.4575 66.2803 18.5487 65.9856C18.6429 65.6879 18.7674 65.4312 18.9224 65.2155C19.0773 64.9968 19.2657 64.8282 19.4874 64.7097C19.7123 64.5912 19.975 64.5319 20.2758 64.5319C20.5887 64.5319 20.8637 64.5912 21.1006 64.7097C21.3406 64.8282 21.5427 64.9983 21.7067 65.2201C21.8708 65.4418 21.9938 65.7061 22.0758 66.013C22.1579 66.3198 22.1989 66.6616 22.1989 67.0383ZM20.9913 67.134V67.0383C20.9913 66.8196 20.9715 66.6176 20.932 66.4322C20.8925 66.2439 20.8318 66.0798 20.7497 65.9401C20.6677 65.7973 20.5614 65.6864 20.4307 65.6074C20.3001 65.5284 20.1421 65.4889 19.9568 65.4889C19.7715 65.4889 19.612 65.5193 19.4783 65.5801C19.3446 65.6408 19.2353 65.7274 19.1502 65.8398C19.0652 65.9522 18.9983 66.0859 18.9497 66.2408C18.9041 66.3927 18.8738 66.5613 18.8586 66.7467V67.5031C18.8859 67.728 18.9391 67.93 19.0181 68.1092C19.0971 68.2885 19.2125 68.4313 19.3644 68.5376C19.5193 68.6439 19.7198 68.6971 19.9659 68.6971C20.1512 68.6971 20.3092 68.6561 20.4399 68.574C20.5705 68.492 20.6768 68.3796 20.7589 68.2368C20.8409 68.091 20.9001 67.9239 20.9366 67.7355C20.973 67.5472 20.9913 67.3467 20.9913 67.134Z" fill="#DEDEDE"/>
<path d="M23.9351 66.1406H25.3751C25.8126 66.1406 26.1848 66.2135 26.4916 66.3593C26.8015 66.5021 27.0369 66.7026 27.1979 66.9608C27.362 67.216 27.444 67.5123 27.444 67.8495C27.444 68.0925 27.3969 68.3188 27.3028 68.5285C27.2116 68.7351 27.0779 68.9158 26.9017 69.0708C26.7255 69.2227 26.5083 69.3411 26.2501 69.4262C25.9949 69.5113 25.7032 69.5538 25.3751 69.5538H23.1604V64.6231H24.368V68.6105H25.3751C25.5848 68.6105 25.7518 68.5756 25.8764 68.5057C26.004 68.4328 26.0951 68.3401 26.1498 68.2277C26.2075 68.1123 26.2364 67.9892 26.2364 67.8586C26.2364 67.7249 26.2075 67.6004 26.1498 67.4849C26.0951 67.3664 26.004 67.2707 25.8764 67.1978C25.7518 67.1249 25.5848 67.0884 25.3751 67.0884H23.9351V66.1406ZM29.4674 64.6231V69.5538H28.2597V64.6231H29.4674Z" fill="#DEDEDE"/>
<path d="M33.0902 64.6231V69.5538H31.8826V64.6231H33.0902ZM34.6943 64.6231V65.5618H30.3058V64.6231H34.6943Z" fill="#DEDEDE"/>
<path d="M35.0224 67.1386V67.0429C35.0224 66.6814 35.074 66.3487 35.1773 66.0449C35.2806 65.738 35.431 65.4722 35.6285 65.2474C35.8259 65.0226 36.0675 64.8479 36.353 64.7233C36.6386 64.5957 36.9637 64.5319 37.3282 64.5319C37.6989 64.5319 38.027 64.5957 38.3126 64.7233C38.6012 64.8479 38.8442 65.0226 39.0417 65.2474C39.2392 65.4722 39.3895 65.738 39.4928 66.0449C39.5961 66.3487 39.6478 66.6814 39.6478 67.0429V67.1386C39.6478 67.4971 39.5961 67.8297 39.4928 68.1366C39.3895 68.4404 39.2392 68.7062 39.0417 68.934C38.8442 69.1589 38.6027 69.3335 38.3171 69.4581C38.0315 69.5827 37.705 69.6449 37.3374 69.6449C36.9728 69.6449 36.6462 69.5827 36.3576 69.4581C36.069 69.3335 35.8259 69.1589 35.6285 68.934C35.431 68.7062 35.2806 68.4404 35.1773 68.1366C35.074 67.8297 35.0224 67.4971 35.0224 67.1386ZM36.2254 67.0429V67.1386C36.2254 67.3543 36.2467 67.5563 36.2892 67.7447C36.3318 67.933 36.3971 68.0986 36.4852 68.2414C36.5733 68.3842 36.6872 68.4966 36.827 68.5786C36.9698 68.6576 37.1399 68.6971 37.3374 68.6971C37.5318 68.6971 37.6989 68.6576 37.8386 68.5786C37.9784 68.4966 38.0923 68.3842 38.1804 68.2414C38.2715 68.0986 38.3384 67.933 38.3809 67.7447C38.4234 67.5563 38.4447 67.3543 38.4447 67.1386V67.0429C38.4447 66.8302 38.4234 66.6312 38.3809 66.4459C38.3384 66.2575 38.2715 66.092 38.1804 65.9492C38.0923 65.8034 37.9769 65.6894 37.8341 65.6074C37.6943 65.5223 37.5257 65.4798 37.3282 65.4798C37.1338 65.4798 36.9667 65.5223 36.827 65.6074C36.6872 65.6894 36.5733 65.8034 36.4852 65.9492C36.3971 66.092 36.3318 66.2575 36.2892 66.4459C36.2467 66.6312 36.2254 66.8302 36.2254 67.0429Z" fill="#DEDEDE"/>
<path d="M42.7374 69.6449C42.3638 69.6449 42.0281 69.5842 41.7303 69.4627C41.4326 69.3411 41.1789 69.1725 40.9693 68.9568C40.7627 68.7381 40.6032 68.4844 40.4908 68.1958C40.3815 67.9042 40.3268 67.5912 40.3268 67.2571V67.0748C40.3268 66.695 40.3815 66.3502 40.4908 66.0403C40.6002 65.7274 40.7551 65.4585 40.9556 65.2337C41.1562 65.0089 41.3962 64.8358 41.6757 64.7142C41.9552 64.5927 42.2635 64.5319 42.6007 64.5319C42.9501 64.5319 43.2585 64.5912 43.5258 64.7097C43.7932 64.8251 44.0165 64.9892 44.1957 65.2018C44.3749 65.4145 44.5101 65.6697 44.6013 65.9674C44.6924 66.2621 44.738 66.5887 44.738 66.9472V67.453H40.8736V66.6236H43.5532V66.5325C43.5471 66.3411 43.5106 66.1664 43.4438 66.0084C43.377 65.8474 43.2737 65.7198 43.1339 65.6256C42.9942 65.5284 42.8134 65.4798 42.5916 65.4798C42.4124 65.4798 42.2559 65.5193 42.1222 65.5983C41.9916 65.6742 41.8822 65.7836 41.7941 65.9264C41.7091 66.0662 41.6453 66.2332 41.6027 66.4277C41.5602 66.6221 41.5389 66.8378 41.5389 67.0748V67.2571C41.5389 67.4636 41.5663 67.655 41.621 67.8312C41.6787 68.0074 41.7622 68.1609 41.8716 68.2915C41.984 68.4191 42.1177 68.5194 42.2726 68.5923C42.4306 68.6621 42.6098 68.6971 42.8104 68.6971C43.0625 68.6971 43.2904 68.6485 43.4939 68.5513C43.7005 68.451 43.8797 68.3037 44.0316 68.1092L44.6377 68.7381C44.5344 68.89 44.3947 69.0358 44.2185 69.1756C44.0453 69.3153 43.8357 69.4292 43.5896 69.5173C43.3435 69.6024 43.0595 69.6449 42.7374 69.6449Z" fill="#DEDEDE"/>
<path d="M50.5983 63.9259L48.7072 69.5538H47.3811L49.8601 62.9188H50.7077L50.5983 63.9259ZM52.1796 69.5538L50.2793 63.9259L50.1654 62.9188H51.0176L53.5103 69.5538H52.1796ZM52.093 67.0884V68.0773H48.534V67.0884H52.093Z" fill="#DEDEDE"/>
<path d="M55.2693 64.6231V69.5538H54.0662V64.6231H55.2693ZM58.482 64.6231L56.3083 67.649H55.0278L54.8774 66.5462H55.766L56.9645 64.6231H58.482ZM57.0374 69.5538L55.6885 67.4393L56.6911 66.8105L58.637 69.5538H57.0374Z" fill="#DEDEDE"/>
<path d="M59.1975 69.5538V64.6231H60.4051V68.6059H62.196V64.6231H63.4082V69.5538H59.1975ZM64.11 68.6105L64.0234 71.0166H62.9069V69.5538H62.3373V68.6105H64.11Z" fill="#DEDEDE"/>
<path d="M66.0558 67.8358L67.8513 64.6231H69.0589V69.5538H67.8513V66.3365L66.0558 69.5538H64.8482V64.6231H66.0558V67.8358Z" fill="#DEDEDE"/>
<path d="M69.9384 67.1386V67.0429C69.9384 66.6814 69.9901 66.3487 70.0933 66.0449C70.1966 65.738 70.347 65.4722 70.5445 65.2474C70.742 65.0226 70.9835 64.8479 71.2691 64.7233C71.5546 64.5957 71.8797 64.5319 72.2443 64.5319C72.6149 64.5319 72.943 64.5957 73.2286 64.7233C73.5172 64.8479 73.7602 65.0226 73.9577 65.2474C74.1552 65.4722 74.3056 65.738 74.4089 66.0449C74.5122 66.3487 74.5638 66.6814 74.5638 67.0429V67.1386C74.5638 67.4971 74.5122 67.8297 74.4089 68.1366C74.3056 68.4404 74.1552 68.7062 73.9577 68.934C73.7602 69.1589 73.5187 69.3335 73.2331 69.4581C72.9476 69.5827 72.621 69.6449 72.2534 69.6449C71.8888 69.6449 71.5622 69.5827 71.2736 69.4581C70.985 69.3335 70.742 69.1589 70.5445 68.934C70.347 68.7062 70.1966 68.4404 70.0933 68.1366C69.9901 67.8297 69.9384 67.4971 69.9384 67.1386ZM71.1415 67.0429V67.1386C71.1415 67.3543 71.1627 67.5563 71.2053 67.7447C71.2478 67.933 71.3131 68.0986 71.4012 68.2414C71.4893 68.3842 71.6032 68.4966 71.743 68.5786C71.8858 68.6576 72.0559 68.6971 72.2534 68.6971C72.4478 68.6971 72.6149 68.6576 72.7547 68.5786C72.8944 68.4966 73.0083 68.3842 73.0964 68.2414C73.1876 68.0986 73.2544 67.933 73.2969 67.7447C73.3395 67.5563 73.3607 67.3543 73.3607 67.1386V67.0429C73.3607 66.8302 73.3395 66.6312 73.2969 66.4459C73.2544 66.2575 73.1876 66.092 73.0964 65.9492C73.0083 65.8034 72.8929 65.6894 72.7501 65.6074C72.6104 65.5223 72.4417 65.4798 72.2443 65.4798C72.0498 65.4798 71.8827 65.5223 71.743 65.6074C71.6032 65.6894 71.4893 65.8034 71.4012 65.9492C71.3131 66.092 71.2478 66.2575 71.2053 66.4459C71.1627 66.6312 71.1415 66.8302 71.1415 67.0429Z" fill="#DEDEDE"/>
<path d="M78.8064 66.6464V67.5897H76.2772V66.6464H78.8064ZM76.6555 64.6231V69.5538H75.4479V64.6231H76.6555ZM79.6495 64.6231V69.5538H78.4373V64.6231H79.6495Z" fill="#DEDEDE"/>
<path d="M82.9579 69.6449C82.5842 69.6449 82.2485 69.5842 81.9508 69.4627C81.653 69.3411 81.3994 69.1725 81.1897 68.9568C80.9831 68.7381 80.8237 68.4844 80.7112 68.1958C80.6019 67.9042 80.5472 67.5912 80.5472 67.2571V67.0748C80.5472 66.695 80.6019 66.3502 80.7112 66.0403C80.8206 65.7274 80.9756 65.4585 81.1761 65.2337C81.3766 65.0089 81.6166 64.8358 81.8961 64.7142C82.1756 64.5927 82.4839 64.5319 82.8212 64.5319C83.1705 64.5319 83.4789 64.5912 83.7462 64.7097C84.0136 64.8251 84.2369 64.9892 84.4161 65.2018C84.5954 65.4145 84.7306 65.6697 84.8217 65.9674C84.9128 66.2621 84.9584 66.5887 84.9584 66.9472V67.453H81.094V66.6236H83.7736V66.5325C83.7675 66.3411 83.731 66.1664 83.6642 66.0084C83.5974 65.8474 83.4941 65.7198 83.3543 65.6256C83.2146 65.5284 83.0338 65.4798 82.812 65.4798C82.6328 65.4798 82.4763 65.5193 82.3427 65.5983C82.212 65.6742 82.1027 65.7836 82.0146 65.9264C81.9295 66.0662 81.8657 66.2332 81.8232 66.4277C81.7806 66.6221 81.7594 66.8378 81.7594 67.0748V67.2571C81.7594 67.4636 81.7867 67.655 81.8414 67.8312C81.8991 68.0074 81.9827 68.1609 82.092 68.2915C82.2044 68.4191 82.3381 68.5194 82.493 68.5923C82.651 68.6621 82.8303 68.6971 83.0308 68.6971C83.2829 68.6971 83.5108 68.6485 83.7143 68.5513C83.9209 68.451 84.1002 68.3037 84.2521 68.1092L84.8582 68.7381C84.7549 68.89 84.6151 69.0358 84.4389 69.1756C84.2657 69.3153 84.0561 69.4292 83.81 69.5173C83.564 69.6024 83.2799 69.6449 82.9579 69.6449Z" fill="#DEDEDE"/>
<path d="M86.9681 65.571V71.4495H85.7604V64.6231H86.8769L86.9681 65.571ZM90.1352 67.0383V67.134C90.1352 67.4925 90.0927 67.8252 90.0076 68.132C89.9256 68.4358 89.8041 68.7016 89.643 68.9295C89.482 69.1543 89.2815 69.3305 89.0415 69.4581C88.8045 69.5827 88.5311 69.6449 88.2212 69.6449C87.9174 69.6449 87.6531 69.5872 87.4283 69.4718C87.2035 69.3533 87.0136 69.1862 86.8587 68.9705C86.7038 68.7548 86.5792 68.5042 86.485 68.2186C86.3939 67.93 86.3255 67.6155 86.2799 67.2753V66.97C86.3255 66.6084 86.3939 66.2803 86.485 65.9856C86.5792 65.6879 86.7038 65.4312 86.8587 65.2155C87.0136 64.9968 87.202 64.8282 87.4238 64.7097C87.6486 64.5912 87.9114 64.5319 88.2121 64.5319C88.525 64.5319 88.8 64.5912 89.037 64.7097C89.277 64.8282 89.479 64.9983 89.643 65.2201C89.8071 65.4418 89.9301 65.7061 90.0122 66.013C90.0942 66.3198 90.1352 66.6616 90.1352 67.0383ZM88.9276 67.134V67.0383C88.9276 66.8196 88.9078 66.6176 88.8683 66.4322C88.8289 66.2439 88.7681 66.0798 88.6861 65.9401C88.604 65.7973 88.4977 65.6864 88.3671 65.6074C88.2364 65.5284 88.0785 65.4889 87.8931 65.4889C87.7078 65.4889 87.5483 65.5193 87.4146 65.5801C87.281 65.6408 87.1716 65.7274 87.0865 65.8398C87.0015 65.9522 86.9346 66.0859 86.886 66.2408C86.8405 66.3927 86.8101 66.5613 86.7949 66.7467V67.5031C86.8222 67.728 86.8754 67.93 86.9544 68.1092C87.0334 68.2885 87.1488 68.4313 87.3007 68.5376C87.4557 68.6439 87.6562 68.6971 87.9023 68.6971C88.0876 68.6971 88.2455 68.6561 88.3762 68.574C88.5068 68.492 88.6132 68.3796 88.6952 68.2368C88.7772 68.091 88.8364 67.9239 88.8729 67.7355C88.9094 67.5472 88.9276 67.3467 88.9276 67.134Z" fill="#DEDEDE"/>
<path d="M94.3824 66.6464V67.5897H91.8532V66.6464H94.3824ZM92.2314 64.6231V69.5538H91.0238V64.6231H92.2314ZM95.2254 64.6231V69.5538H94.0132V64.6231H95.2254Z" fill="#DEDEDE"/>
<path d="M96.1049 67.1386V67.0429C96.1049 66.6814 96.1566 66.3487 96.2599 66.0449C96.3632 65.738 96.5135 65.4722 96.711 65.2474C96.9085 65.0226 97.15 64.8479 97.4356 64.7233C97.7212 64.5957 98.0462 64.5319 98.4108 64.5319C98.7814 64.5319 99.1095 64.5957 99.3951 64.7233C99.6837 64.8479 99.9268 65.0226 100.124 65.2474C100.322 65.4722 100.472 65.738 100.575 66.0449C100.679 66.3487 100.73 66.6814 100.73 67.0429V67.1386C100.73 67.4971 100.679 67.8297 100.575 68.1366C100.472 68.4404 100.322 68.7062 100.124 68.934C99.9268 69.1589 99.6852 69.3335 99.3997 69.4581C99.1141 69.5827 98.7875 69.6449 98.4199 69.6449C98.0553 69.6449 97.7287 69.5827 97.4401 69.4581C97.1515 69.3335 96.9085 69.1589 96.711 68.934C96.5135 68.7062 96.3632 68.4404 96.2599 68.1366C96.1566 67.8297 96.1049 67.4971 96.1049 67.1386ZM97.308 67.0429V67.1386C97.308 67.3543 97.3292 67.5563 97.3718 67.7447C97.4143 67.933 97.4796 68.0986 97.5677 68.2414C97.6558 68.3842 97.7698 68.4966 97.9095 68.5786C98.0523 68.6576 98.2224 68.6971 98.4199 68.6971C98.6143 68.6971 98.7814 68.6576 98.9212 68.5786C99.0609 68.4966 99.1748 68.3842 99.2629 68.2414C99.3541 68.0986 99.4209 67.933 99.4635 67.7447C99.506 67.5563 99.5273 67.3543 99.5273 67.1386V67.0429C99.5273 66.8302 99.506 66.6312 99.4635 66.4459C99.4209 66.2575 99.3541 66.092 99.2629 65.9492C99.1748 65.8034 99.0594 65.6894 98.9166 65.6074C98.7769 65.5223 98.6083 65.4798 98.4108 65.4798C98.2163 65.4798 98.0493 65.5223 97.9095 65.6074C97.7698 65.6894 97.6558 65.8034 97.5677 65.9492C97.4796 66.092 97.4143 66.2575 97.3718 66.4459C97.3292 66.6312 97.308 66.8302 97.308 67.0429Z" fill="#DEDEDE"/>
<path d="M103.82 69.6449C103.446 69.6449 103.111 69.5842 102.813 69.4627C102.515 69.3411 102.261 69.1725 102.052 68.9568C101.845 68.7381 101.686 68.4844 101.573 68.1958C101.464 67.9042 101.409 67.5912 101.409 67.2571V67.0748C101.409 66.695 101.464 66.3502 101.573 66.0403C101.683 65.7274 101.838 65.4585 102.038 65.2337C102.239 65.0089 102.479 64.8358 102.758 64.7142C103.038 64.5927 103.346 64.5319 103.683 64.5319C104.033 64.5319 104.341 64.5912 104.608 64.7097C104.876 64.8251 105.099 64.9892 105.278 65.2018C105.457 65.4145 105.593 65.6697 105.684 65.9674C105.775 66.2621 105.821 66.5887 105.821 66.9472V67.453H101.956V66.6236H104.636V66.5325C104.63 66.3411 104.593 66.1664 104.526 66.0084C104.459 65.8474 104.356 65.7198 104.216 65.6256C104.077 65.5284 103.896 65.4798 103.674 65.4798C103.495 65.4798 103.338 65.5193 103.205 65.5983C103.074 65.6742 102.965 65.7836 102.877 65.9264C102.792 66.0662 102.728 66.2332 102.685 66.4277C102.643 66.6221 102.621 66.8378 102.621 67.0748V67.2571C102.621 67.4636 102.649 67.655 102.704 67.8312C102.761 68.0074 102.845 68.1609 102.954 68.2915C103.067 68.4191 103.2 68.5194 103.355 68.5923C103.513 68.6621 103.692 68.6971 103.893 68.6971C104.145 68.6971 104.373 68.6485 104.576 68.5513C104.783 68.451 104.962 68.3037 105.114 68.1092L105.72 68.7381C105.617 68.89 105.477 69.0358 105.301 69.1756C105.128 69.3153 104.918 69.4292 104.672 69.5173C104.426 69.6024 104.142 69.6449 103.82 69.6449Z" fill="#DEDEDE"/>
<path d="M114.415 66.0677V66.4094C114.415 66.9107 114.348 67.3619 114.215 67.7629C114.081 68.1609 113.891 68.4996 113.645 68.7791C113.399 69.0586 113.106 69.2728 112.765 69.4217C112.425 69.5705 112.047 69.6449 111.631 69.6449C111.221 69.6449 110.844 69.5705 110.501 69.4217C110.16 69.2728 109.866 69.0586 109.617 68.7791C109.367 68.4996 109.175 68.1609 109.038 67.7629C108.901 67.3619 108.833 66.9107 108.833 66.4094V66.0677C108.833 65.5634 108.901 65.1122 109.038 64.7142C109.175 64.3162 109.366 63.9775 109.612 63.698C109.858 63.4155 110.151 63.1998 110.491 63.0509C110.835 62.902 111.212 62.8276 111.622 62.8276C112.038 62.8276 112.416 62.902 112.756 63.0509C113.097 63.1998 113.39 63.4155 113.636 63.698C113.885 63.9775 114.076 64.3162 114.21 64.7142C114.347 65.1122 114.415 65.5634 114.415 66.0677ZM113.148 66.4094V66.0586C113.148 65.697 113.115 65.3796 113.048 65.1061C112.981 64.8297 112.882 64.5973 112.752 64.4089C112.621 64.2206 112.46 64.0793 112.269 63.9851C112.077 63.8879 111.862 63.8393 111.622 63.8393C111.379 63.8393 111.163 63.8879 110.975 63.9851C110.789 64.0793 110.631 64.2206 110.501 64.4089C110.37 64.5973 110.27 64.8297 110.2 65.1061C110.133 65.3796 110.1 65.697 110.1 66.0586V66.4094C110.1 66.7679 110.133 67.0854 110.2 67.3619C110.27 67.6383 110.37 67.8723 110.501 68.0637C110.634 68.252 110.795 68.3948 110.984 68.492C111.172 68.5892 111.388 68.6378 111.631 68.6378C111.874 68.6378 112.089 68.5892 112.278 68.492C112.466 68.3948 112.624 68.252 112.752 68.0637C112.882 67.8723 112.981 67.6383 113.048 67.3619C113.115 67.0854 113.148 66.7679 113.148 66.4094Z" fill="#DEDEDE"/>
<path d="M118.439 62.4585H119.414C119.414 62.7167 119.381 62.9339 119.314 63.1102C119.247 63.2833 119.144 63.4291 119.004 63.5476C118.864 63.6631 118.685 63.7588 118.466 63.8347C118.248 63.9107 117.986 63.9775 117.682 64.0352C117.427 64.0869 117.202 64.1719 117.008 64.2904C116.814 64.4089 116.651 64.5714 116.52 64.778C116.393 64.9846 116.3 65.2474 116.242 65.5664C116.185 65.8854 116.167 66.2697 116.188 66.7193V66.9836L115.244 67.093V66.8287C115.244 66.2424 115.298 65.732 115.404 65.2975C115.51 64.8601 115.661 64.4925 115.855 64.1947C116.05 63.894 116.282 63.6555 116.552 63.4793C116.826 63.3 117.131 63.174 117.468 63.101C117.693 63.0555 117.877 63.0084 118.02 62.9598C118.166 62.9112 118.272 62.8489 118.339 62.7729C118.406 62.6939 118.439 62.5891 118.439 62.4585ZM117.765 64.9011C118.096 64.9011 118.389 64.9588 118.644 65.0742C118.902 65.1866 119.119 65.3461 119.296 65.5527C119.472 65.7563 119.606 65.9978 119.697 66.2773C119.791 66.5538 119.838 66.856 119.838 67.1841V67.2798C119.838 67.6201 119.786 67.9345 119.683 68.2231C119.583 68.5118 119.435 68.7624 119.241 68.9751C119.047 69.1877 118.807 69.3533 118.521 69.4718C118.235 69.5903 117.909 69.6495 117.541 69.6495C117.177 69.6495 116.852 69.5872 116.566 69.4627C116.28 69.3351 116.039 69.1589 115.841 68.934C115.644 68.7092 115.495 68.4449 115.395 68.1411C115.295 67.8343 115.244 67.5001 115.244 67.1386V67.0429C115.241 66.9821 115.261 66.9244 115.304 66.8697C115.346 66.815 115.396 66.7543 115.454 66.6874C115.515 66.6206 115.57 66.5401 115.618 66.4459C115.785 66.1239 115.974 65.8474 116.183 65.6165C116.396 65.3856 116.633 65.2094 116.894 65.0879C117.155 64.9633 117.446 64.9011 117.765 64.9011ZM117.532 65.8489C117.274 65.8489 117.064 65.9112 116.903 66.0358C116.745 66.1573 116.63 66.3198 116.557 66.5234C116.484 66.7239 116.448 66.9441 116.448 67.1841V67.2798C116.448 67.4743 116.467 67.6581 116.507 67.8312C116.549 68.0014 116.613 68.1518 116.698 68.2824C116.783 68.413 116.896 68.5163 117.035 68.5923C117.175 68.6652 117.344 68.7016 117.541 68.7016C117.739 68.7016 117.906 68.6652 118.043 68.5923C118.182 68.5163 118.295 68.413 118.38 68.2824C118.465 68.1518 118.527 68.0014 118.567 67.8312C118.609 67.6581 118.63 67.4743 118.63 67.2798V67.1841C118.63 67.0049 118.609 66.8348 118.567 66.6738C118.527 66.5127 118.465 66.3715 118.38 66.25C118.295 66.1254 118.181 66.0282 118.038 65.9583C117.898 65.8854 117.73 65.8489 117.532 65.8489Z" fill="#DEDEDE"/>
<path d="M128.05 68.6105L127.963 71.0166H126.847V69.5538H126.273V68.6105H128.05ZM120.581 64.6231H121.784V68.6059H123.251V64.6231H124.459V68.6059H125.922V64.6231H127.129V69.5538H120.581V64.6231Z" fill="#DEDEDE"/>
<path d="M131.044 69.6449C130.67 69.6449 130.334 69.5842 130.037 69.4627C129.739 69.3411 129.485 69.1725 129.276 68.9568C129.069 68.7381 128.91 68.4844 128.797 68.1958C128.688 67.9042 128.633 67.5912 128.633 67.2571V67.0748C128.633 66.695 128.688 66.3502 128.797 66.0403C128.906 65.7274 129.061 65.4585 129.262 65.2337C129.462 65.0089 129.702 64.8358 129.982 64.7142C130.261 64.5927 130.57 64.5319 130.907 64.5319C131.256 64.5319 131.565 64.5912 131.832 64.7097C132.099 64.8251 132.323 64.9892 132.502 65.2018C132.681 65.4145 132.816 65.6697 132.908 65.9674C132.999 66.2621 133.044 66.5887 133.044 66.9472V67.453H129.18V66.6236H131.859V66.5325C131.853 66.3411 131.817 66.1664 131.75 66.0084C131.683 65.8474 131.58 65.7198 131.44 65.6256C131.3 65.5284 131.12 65.4798 130.898 65.4798C130.719 65.4798 130.562 65.5193 130.429 65.5983C130.298 65.6742 130.189 65.7836 130.1 65.9264C130.015 66.0662 129.952 66.2332 129.909 66.4277C129.866 66.6221 129.845 66.8378 129.845 67.0748V67.2571C129.845 67.4636 129.873 67.655 129.927 67.8312C129.985 68.0074 130.069 68.1609 130.178 68.2915C130.29 68.4191 130.424 68.5194 130.579 68.5923C130.737 68.6621 130.916 68.6971 131.117 68.6971C131.369 68.6971 131.597 68.6485 131.8 68.5513C132.007 68.451 132.186 68.3037 132.338 68.1092L132.944 68.7381C132.841 68.89 132.701 69.0358 132.525 69.1756C132.352 69.3153 132.142 69.4292 131.896 69.5173C131.65 69.6024 131.366 69.6449 131.044 69.6449Z" fill="#DEDEDE"/>
<path d="M135.874 68.6971C136.044 68.6971 136.196 68.6637 136.33 68.5968C136.464 68.53 136.57 68.4358 136.649 68.3143C136.731 68.1928 136.775 68.0515 136.781 67.8905H137.916C137.91 68.2247 137.815 68.5239 137.633 68.7882C137.451 69.0525 137.208 69.2622 136.904 69.4171C136.603 69.569 136.266 69.6449 135.892 69.6449C135.513 69.6449 135.182 69.5811 134.899 69.4535C134.616 69.326 134.381 69.1482 134.193 68.9204C134.007 68.6925 133.868 68.4282 133.773 68.1275C133.682 67.8267 133.637 67.5047 133.637 67.1614V67.0155C133.637 66.6722 133.682 66.3502 133.773 66.0494C133.868 65.7487 134.007 65.4844 134.193 65.2565C134.381 65.0287 134.616 64.8509 134.899 64.7233C135.182 64.5957 135.511 64.5319 135.888 64.5319C136.286 64.5319 136.635 64.6094 136.936 64.7644C137.24 64.9193 137.477 65.138 137.647 65.4206C137.82 65.7031 137.91 66.0358 137.916 66.4186H136.781C136.775 66.2424 136.735 66.0844 136.663 65.9446C136.59 65.8049 136.486 65.6925 136.353 65.6074C136.219 65.5223 136.056 65.4798 135.865 65.4798C135.662 65.4798 135.491 65.5223 135.355 65.6074C135.221 65.6925 135.116 65.8094 135.04 65.9583C134.967 66.1041 134.916 66.2682 134.885 66.4505C134.858 66.6297 134.844 66.8181 134.844 67.0155V67.1614C134.844 67.3619 134.858 67.5533 134.885 67.7355C134.916 67.9178 134.967 68.0819 135.04 68.2277C135.116 68.3705 135.221 68.4844 135.355 68.5695C135.491 68.6545 135.665 68.6971 135.874 68.6971Z" fill="#DEDEDE"/>
<path d="M141.11 64.6231V69.5538H139.903V64.6231H141.11ZM142.714 64.6231V65.5618H138.326V64.6231H142.714Z" fill="#DEDEDE"/>
<path d="M145.845 67.4667H144.282L144.273 66.651H145.558C145.749 66.651 145.906 66.6312 146.027 66.5917C146.149 66.5522 146.238 66.493 146.296 66.414C146.357 66.335 146.387 66.2393 146.387 66.1269C146.387 66.0297 146.369 65.9461 146.333 65.8763C146.296 65.8034 146.241 65.7441 146.169 65.6986C146.099 65.653 146.009 65.6196 145.9 65.5983C145.793 65.574 145.669 65.5618 145.526 65.5618H144.71V69.5538H143.503V64.6231H145.526C145.845 64.6231 146.132 64.652 146.387 64.7097C146.642 64.7644 146.86 64.8479 147.039 64.9603C147.218 65.0727 147.355 65.2155 147.449 65.3887C147.546 65.5588 147.595 65.7593 147.595 65.9902C147.595 66.1421 147.561 66.2849 147.495 66.4186C147.428 66.5522 147.329 66.6707 147.198 66.774C147.068 66.8773 146.907 66.9624 146.715 67.0292C146.524 67.093 146.305 67.1325 146.059 67.1477L145.845 67.4667ZM145.845 69.5538H143.958L144.405 68.6151H145.845C146.021 68.6151 146.167 68.5938 146.282 68.5513C146.398 68.5057 146.483 68.4404 146.538 68.3553C146.595 68.2702 146.624 68.1669 146.624 68.0454C146.624 67.9269 146.597 67.8252 146.542 67.7401C146.491 67.652 146.407 67.5852 146.292 67.5396C146.179 67.491 146.03 67.4667 145.845 67.4667H144.601L144.61 66.651H146.055L146.374 66.9745C146.702 66.9958 146.974 67.0626 147.189 67.175C147.405 67.2844 147.566 67.4241 147.672 67.5943C147.779 67.7614 147.832 67.9452 147.832 68.1457C147.832 68.3796 147.788 68.5847 147.7 68.7609C147.612 68.9371 147.482 69.0844 147.312 69.2029C147.142 69.3184 146.934 69.4065 146.688 69.4672C146.442 69.5249 146.161 69.5538 145.845 69.5538Z" fill="#DEDEDE"/>
<path d="M148.493 67.1386V67.0429C148.493 66.6814 148.544 66.3487 148.648 66.0449C148.751 65.738 148.901 65.4722 149.099 65.2474C149.296 65.0226 149.538 64.8479 149.823 64.7233C150.109 64.5957 150.434 64.5319 150.798 64.5319C151.169 64.5319 151.497 64.5957 151.783 64.7233C152.071 64.8479 152.314 65.0226 152.512 65.2474C152.709 65.4722 152.86 65.738 152.963 66.0449C153.066 66.3487 153.118 66.6814 153.118 67.0429V67.1386C153.118 67.4971 153.066 67.8297 152.963 68.1366C152.86 68.4404 152.709 68.7062 152.512 68.934C152.314 69.1589 152.073 69.3335 151.787 69.4581C151.502 69.5827 151.175 69.6449 150.808 69.6449C150.443 69.6449 150.116 69.5827 149.828 69.4581C149.539 69.3335 149.296 69.1589 149.099 68.934C148.901 68.7062 148.751 68.4404 148.648 68.1366C148.544 67.8297 148.493 67.4971 148.493 67.1386ZM149.696 67.0429V67.1386C149.696 67.3543 149.717 67.5563 149.759 67.7447C149.802 67.933 149.867 68.0986 149.955 68.2414C150.044 68.3842 150.157 68.4966 150.297 68.5786C150.44 68.6576 150.61 68.6971 150.808 68.6971C151.002 68.6971 151.169 68.6576 151.309 68.5786C151.449 68.4966 151.563 68.3842 151.651 68.2414C151.742 68.0986 151.809 67.933 151.851 67.7447C151.894 67.5563 151.915 67.3543 151.915 67.1386V67.0429C151.915 66.8302 151.894 66.6312 151.851 66.4459C151.809 66.2575 151.742 66.092 151.651 65.9492C151.563 65.8034 151.447 65.6894 151.304 65.6074C151.165 65.5223 150.996 65.4798 150.798 65.4798C150.604 65.4798 150.437 65.5223 150.297 65.6074C150.157 65.6894 150.044 65.8034 149.955 65.9492C149.867 66.092 149.802 66.2575 149.759 66.4459C149.717 66.6312 149.696 66.8302 149.696 67.0429Z" fill="#DEDEDE"/>
<defs>
<linearGradient id="paint0_linear_914_7528" x1="46.469" y1="22.2559" x2="46.469" y2="55.9976" gradientUnits="userSpaceOnUse">
<stop stop-color="#DEDEDE"/>
<stop offset="1" stop-color="#DEDEDE" stop-opacity="0"/>
</linearGradient>
<linearGradient id="paint1_linear_914_7528" x1="70.1601" y1="10.769" x2="70.1601" y2="55.9973" gradientUnits="userSpaceOnUse">
<stop stop-color="#DEDEDE"/>
<stop offset="1" stop-color="#DEDEDE" stop-opacity="0"/>
</linearGradient>
<linearGradient id="paint2_linear_914_7528" x1="103.543" y1="31.5884" x2="103.543" y2="55.9973" gradientUnits="userSpaceOnUse">
<stop stop-color="#DEDEDE"/>
<stop offset="1" stop-color="#DEDEDE" stop-opacity="0"/>
</linearGradient>
<linearGradient id="paint3_linear_914_7528" x1="90.4409" y1="0.000488281" x2="90.4409" y2="50.972" gradientUnits="userSpaceOnUse">
<stop stop-color="#DEDEDE"/>
<stop offset="1" stop-color="#DEDEDE" stop-opacity="0"/>
</linearGradient>
</defs>
</svg>
