<svg width="89" height="100" viewBox="0 0 89 100" fill="none" xmlns="http://www.w3.org/2000/svg">
<path d="M31.0295 2.96201C38.4064 -0.600221 47.2347 -0.954039 54.8951 1.93147C60.5716 4.04579 65.5766 7.90001 69.0839 12.838C72.8367 18.0783 74.8703 24.5346 74.7398 30.9824C74.7003 37.5915 72.385 44.1509 68.3161 49.3534C64.4275 54.3722 58.9382 58.1302 52.8443 59.9165C46.242 61.8728 38.975 61.5258 32.6028 58.9031C26.7081 56.5071 21.6155 52.208 18.244 46.8149C14.1407 40.3019 12.6086 32.1812 14.2214 24.6428C14.3124 24.1276 14.4241 23.6157 14.5684 23.1142C14.6611 22.6985 14.7573 22.2829 14.8999 21.8827C14.9479 21.7075 15.0046 21.534 15.0682 21.3657C15.2142 20.847 15.3636 20.3249 15.6006 19.8388C15.6813 19.5898 15.7655 19.3424 15.8497 19.0951C18.6871 12.0874 24.1884 6.1979 31.0295 2.96201ZM35.3097 8.47882C39.6397 8.39982 43.9868 9.61585 47.6263 11.9672C52.5557 15.1052 56.1472 20.2699 57.3254 25.998C58.6067 31.9906 57.255 38.4881 53.6515 43.4502C49.8918 48.7282 43.6931 52.2733 37.1956 52.5842L37.0719 52.6615C36.4553 52.6597 35.8352 52.6408 35.2238 52.7216C40.5929 54.8514 46.7246 55.0283 52.1693 53.0668C58.0451 51.0023 63.0157 46.5246 65.6882 40.8996C68.3986 35.3037 68.7678 28.6344 66.7102 22.769C64.7367 17.0289 60.4668 12.1304 55.0599 9.37539C49.021 6.24256 41.6028 5.88874 35.3097 8.47882ZM28.3209 17.101C24.8669 18.9817 22.1875 22.2365 21.0281 25.998C20.2913 28.3184 20.1745 30.8106 20.5472 33.21C21.0693 36.3601 22.6289 39.328 24.9167 41.554C27.4072 44.0444 30.7908 45.6006 34.2946 45.9286C37.2591 46.2 40.3129 45.6057 42.9322 44.1836C38.4167 43.7954 34.2087 40.9975 32.1133 36.9784C30.595 34.1719 30.181 30.8226 30.8457 27.7121C31.5104 24.5569 33.3516 21.6697 35.9314 19.7357C37.9547 18.2174 40.4143 17.1972 42.958 17.0838C38.5301 14.5367 32.7677 14.638 28.3209 17.101ZM43.3135 23.7222C41.608 23.9438 39.9986 24.818 38.8994 26.1423C37.6559 27.597 37.0736 29.5877 37.3381 31.4822C37.5957 33.5278 38.8238 35.4291 40.5963 36.4889C42.1318 37.4438 44.0504 37.7083 45.804 37.2996C47.683 36.8581 49.3353 35.5717 50.249 33.8747C51.0237 32.4612 51.2504 30.778 50.9533 29.1995C50.5823 27.3411 49.4109 25.651 47.7792 24.6789C46.4567 23.8613 44.8542 23.5298 43.3135 23.7222Z" fill="#DEDEDE"/>
<path d="M0.00515248 72.0972C0.623476 72.1109 1.24352 72.1058 1.86184 72.1058C3.5004 74.9827 5.21281 77.8167 6.87884 80.6782C7.1382 81.1505 7.47312 81.585 7.65175 82.0986C7.77541 82.09 7.90079 82.0814 8.02618 82.0745C8.08629 81.8873 8.16358 81.7087 8.25805 81.5404C10.1165 78.3972 11.9542 75.2438 13.8023 72.0955C14.4241 72.0989 15.0476 72.0989 15.6693 72.0903C15.6608 77.5522 15.6573 83.014 15.6745 88.4759C14.9102 88.4639 14.1476 88.4622 13.385 88.4776C13.4004 84.7058 13.3815 80.9341 13.3815 77.164C13.1033 77.2447 13.0037 77.5281 12.8646 77.7514C11.3462 80.3484 9.7884 82.9247 8.27694 85.5251C7.98152 85.5749 7.67579 85.5715 7.38209 85.5268C5.90327 83.002 4.4107 80.4858 2.92157 77.9678C2.68799 77.5591 2.39257 77.1709 2.30497 76.6986C2.25001 80.6198 2.2689 84.5444 2.27405 88.469C1.51489 88.4536 0.757446 88.4501 0 88.4673C0.0240459 83.0106 0.0171754 77.5539 0.00515248 72.0972Z" fill="#DEDEDE"/>
<path d="M45.6511 77.3789C47.0835 76.3758 48.9385 76.2384 50.6252 76.4754C51.2624 76.5991 52.0318 76.6506 52.4234 77.2501C52.7893 77.834 52.4097 78.5142 52.1521 79.0621C50.7574 78.4489 49.0965 78.0024 47.6503 78.7169C46.3553 79.3901 45.9637 80.9806 45.9998 82.3323C45.9259 83.8421 46.3123 85.618 47.7276 86.4236C49.1807 87.2222 50.9326 86.7465 52.2757 85.9461C52.499 86.5404 52.803 87.102 52.9971 87.71C51.4771 88.6444 49.6255 88.9415 47.8702 88.7388C46.491 88.5671 45.1633 87.7993 44.4746 86.5713C43.5333 84.9843 43.5179 83.0657 43.6639 81.2829C43.8459 79.8127 44.4076 78.2737 45.6511 77.3789Z" fill="#DEDEDE"/>
<path d="M21.5176 76.7348C22.7989 76.2951 24.2262 76.2677 25.5247 76.6507C26.5415 76.9392 27.39 77.6967 27.8331 78.6534C28.4686 79.9862 28.5476 81.4976 28.5425 82.9507C25.9163 82.9473 23.2901 82.9421 20.664 82.9473C20.6743 83.095 20.6949 83.3921 20.7052 83.5415C20.7619 83.8335 20.8117 84.1307 20.8512 84.4278C21.126 85.3055 21.7031 86.1179 22.5653 86.494C24.1541 87.145 26.0898 86.8719 27.4398 85.8122C27.6923 86.3721 28.1045 86.865 28.2676 87.4627C27.8468 87.9488 27.177 88.1532 26.5896 88.3799C24.7209 88.9364 22.5705 89.0103 20.822 88.045C19.2436 87.1759 18.5153 85.333 18.3813 83.6154C18.3436 82.3444 18.2766 81.0356 18.6957 79.8127C19.1027 78.4318 20.1298 77.1969 21.5176 76.7348ZM22.5808 78.5108C21.7718 78.8028 21.138 79.44 20.8392 80.2438C20.8134 80.5547 20.7911 80.8673 20.7722 81.1816C22.6701 81.1696 24.5697 81.173 26.4694 81.1747C26.4161 80.4723 26.2306 79.7371 25.705 79.2339C25.2653 78.7324 24.623 78.5022 23.9961 78.339C23.759 78.339 23.522 78.3425 23.285 78.3493C23.0514 78.4077 22.8161 78.4627 22.5808 78.5108Z" fill="#DEDEDE"/>
<path d="M62.4473 76.7125C63.2442 76.6472 64.0515 76.7743 64.8484 76.6489C63.3936 78.5966 61.8598 80.4946 60.3072 82.3667C61.9285 84.4364 63.5963 86.47 65.2177 88.5413C64.8725 88.4709 64.5221 88.4572 64.1768 88.4984C63.5929 88.4658 63.0072 88.4469 62.4266 88.5276C61.044 86.8702 59.7369 85.1509 58.3595 83.49C58.0469 83.4917 57.736 83.4917 57.4251 83.4917C57.4302 85.1577 57.4199 86.8221 57.4302 88.4881C56.6591 88.4795 55.8896 88.4795 55.1184 88.4898C55.1253 84.5549 55.1253 80.6217 55.1184 76.6884C55.8896 76.697 56.6591 76.6987 57.4302 76.6901C57.4199 78.3545 57.4285 80.0188 57.4251 81.6814C57.7549 81.6831 58.0864 81.6883 58.4178 81.6986C59.7953 80.0634 61.0663 78.339 62.4473 76.7125Z" fill="#DEDEDE"/>
<path d="M67.746 77.0063C68.6477 76.7212 69.5872 76.5219 70.5387 76.5288C71.6054 76.5253 72.7338 76.4515 73.7197 76.9444C74.3294 77.2193 74.7743 77.7568 75.0628 78.3494C75.7447 80.4208 75.2277 82.6107 75.293 84.7336C75.2535 86.0046 75.4235 87.2739 75.6519 88.5225C74.9082 88.4401 74.1491 88.4246 73.4054 88.5208C73.3332 88.1275 73.2508 87.7342 73.1786 87.3426C72.0468 88.5741 70.2571 88.9571 68.6477 88.7286C67.8147 88.5191 66.9697 88.1722 66.4149 87.4886C65.4032 86.2605 65.3912 84.2819 66.4801 83.0985C66.8717 82.6467 67.3939 82.3445 67.9349 82.1074C68.2853 82.001 68.6374 81.903 68.9947 81.8137C70.367 81.5527 71.7634 81.5681 73.1546 81.5613C73.1649 81.0082 73.1735 80.4551 73.1563 79.9038C73.0206 79.3284 72.6823 78.7221 72.0588 78.5847C70.805 78.279 69.4996 78.5383 68.2767 78.8681C67.8731 79.0124 67.4712 79.1635 67.0813 79.3422C66.8683 78.8698 66.5712 78.3786 66.6828 77.8393C66.8683 77.3996 67.3115 77.1454 67.746 77.0063ZM69.6559 83.4987C68.9861 83.679 68.3643 84.0689 68.0552 84.7113C68.0517 85.175 68.0122 85.6937 68.3368 86.075C68.6374 86.5199 69.1733 86.6796 69.6559 86.8462C70.9355 86.9647 72.3628 86.434 73.0361 85.2918C73.0275 84.6288 73.0344 83.9676 73.0292 83.3063C71.8991 83.2805 70.7689 83.284 69.6559 83.4987Z" fill="#DEDEDE"/>
<path d="M32.8673 76.6951C35.4488 76.6882 38.0303 76.6968 40.6118 76.6899C40.6015 79.9705 40.6135 83.251 40.6032 86.5316C41.1288 86.5728 41.7179 86.4423 42.2074 86.602C42.2882 88.1856 42.2298 89.7744 42.2401 91.3597C41.505 91.3665 40.7698 91.3614 40.0347 91.3665C40.0313 90.4408 40.045 89.515 40.0364 88.591C39.9832 88.5703 39.8733 88.5308 39.82 88.5119C38.2639 88.5824 36.7078 88.5085 35.1517 88.5429C34.037 88.5326 32.9206 88.5824 31.8093 88.4673C31.7956 89.4326 31.8007 90.3978 31.8042 91.3631C31.0982 91.358 30.3906 91.3545 29.6864 91.3648C29.6898 89.7555 29.6881 88.1444 29.6864 86.535C30.1381 86.5385 30.5881 86.5385 31.0416 86.5316C31.8849 85.1953 32.1992 83.622 32.4379 82.0831C32.6818 80.2968 32.8278 78.4968 32.8673 76.6951ZM35.0074 78.6325C34.7103 81.2999 34.5385 84.0549 33.4204 86.5402C35.0469 86.5333 36.6735 86.5385 38.3 86.5333C38.2948 83.9037 38.2897 81.2741 38.3034 78.6445C37.2042 78.6342 36.1067 78.6497 35.0074 78.6325Z" fill="#DEDEDE"/>
<path d="M78.5203 76.7073C79.2794 76.7159 80.0403 76.7228 80.8012 76.7021C80.772 78.1174 80.8012 79.5344 80.784 80.9497C80.7668 81.209 80.8081 81.4684 80.8733 81.7226C82.6064 81.6831 84.3394 81.7037 86.0724 81.7174C86.0518 80.048 86.0844 78.3785 86.0552 76.709C86.8144 76.7262 87.5753 76.7279 88.3361 76.709C88.3155 80.6285 88.3155 84.5497 88.3361 88.4675C87.5753 88.4486 86.8144 88.452 86.0535 88.4692C86.0844 86.7997 86.0501 85.1302 86.0724 83.4608C84.3531 83.4917 82.6338 83.4608 80.9163 83.4797C80.8854 83.514 80.8252 83.5862 80.7943 83.6222C80.7857 85.2385 80.7806 86.8581 80.8012 88.4761C80.0403 88.4537 79.2794 88.4606 78.5203 88.4709C78.5357 84.5497 78.5357 80.6285 78.5203 76.7073Z" fill="#DEDEDE"/>
<path d="M0.228468 94.5186C0.400225 93.902 0.633814 93.1789 1.32428 92.9814C1.65061 92.8783 1.99756 92.8904 2.32562 92.9917C2.5489 93.0793 2.76875 93.1789 2.9886 93.2802C2.98173 93.4623 2.97314 93.6444 2.96455 93.8281C2.78592 93.7612 2.62104 93.6598 2.46474 93.5533C2.18134 93.3026 1.77084 93.4314 1.43248 93.4005C0.975611 93.7577 0.877709 94.3177 0.760914 94.8501C0.738586 95.3396 0.747174 95.8308 0.736869 96.3221L0.860533 96.3461C0.872556 96.657 0.855381 96.9833 1.01683 97.265C1.1113 97.4608 1.20233 97.6635 1.27962 97.8713C1.3466 97.8627 1.47714 97.8472 1.54412 97.8404L1.57161 98.0293C1.72962 98.0293 2.04737 98.0276 2.20539 98.0276C2.3634 97.9142 2.51798 97.7974 2.67085 97.6806C2.8134 97.6772 2.95768 97.6772 3.10196 97.6806C3.11226 97.7597 3.13287 97.9177 3.14489 97.9967C2.60901 98.469 1.80004 98.5652 1.15595 98.3041C-0.0669512 97.4728 0.168354 95.7948 0.228468 94.5186Z" fill="#DEDEDE"/>
<path d="M4.15826 95.2572C4.40216 95.0322 4.60311 94.7162 4.93117 94.6131C5.4327 94.5564 6.06476 94.4706 6.40484 94.9412C6.84454 95.3585 6.7432 96.0078 6.78957 96.5557C6.03728 96.5471 5.28499 96.5127 4.53613 96.5608C4.31972 97.1603 4.75254 97.7116 5.22831 98.0294C5.47049 98.0208 5.71438 98.0122 5.95827 98.0019C6.22278 97.8129 6.80847 97.6498 6.76209 98.1685C5.95827 98.5343 4.76457 98.6614 4.22869 97.7958C3.78384 97.0452 3.86456 96.0507 4.15826 95.2572ZM4.7096 95.1662C4.60139 95.4942 4.50865 95.824 4.44853 96.1675C5.04625 96.1658 5.64396 96.1624 6.24339 96.1692C6.23137 95.9992 6.20732 95.6626 6.19701 95.4925C6.02354 95.3002 5.84491 95.1147 5.66629 94.9326C5.33308 94.9446 5.01017 95.0253 4.7096 95.1662Z" fill="#DEDEDE"/>
<path d="M11.1865 94.6129C11.3652 94.5905 11.5438 94.5699 11.7241 94.5527C11.7172 95.0817 11.7173 95.6108 11.7121 96.1398C12.2445 96.1604 12.88 96.0298 13.3026 96.4472C13.8711 96.9522 13.6942 98.0119 12.9728 98.285C12.3957 98.4499 11.7791 98.3486 11.1865 98.3829C11.1882 97.1257 11.19 95.8684 11.1865 94.6129ZM11.7121 97.9209C12.181 97.926 12.6825 97.9552 13.0724 97.6444C13.0758 97.3129 13.1222 96.9453 12.8663 96.6894C12.7736 96.655 12.5915 96.5863 12.4987 96.552C12.2394 96.54 11.9783 96.5297 11.719 96.5228C11.719 96.9882 11.7173 97.4537 11.7121 97.9209Z" fill="#DEDEDE"/>
<path d="M21.8989 94.6268C22.3009 94.5375 22.732 94.5255 23.1304 94.6372C23.8484 95.0116 23.9325 95.9133 23.9137 96.6347C23.1047 96.6381 22.2923 96.602 21.485 96.6639C21.5967 97.2238 21.844 97.7906 22.4073 98.0242C22.5465 98.019 22.8264 98.0053 22.9673 98.0001C23.2095 97.8851 23.4533 97.77 23.6972 97.6566C23.7282 97.8353 23.7608 98.0156 23.7917 98.1994C23.2043 98.4656 22.5173 98.5343 21.8972 98.3488C21.1827 98.0104 20.9096 97.162 20.9629 96.42C20.9285 95.7123 21.2497 94.9618 21.8989 94.6268ZM21.5795 96.1555C22.1514 96.1572 22.7234 96.1572 23.297 96.1538C23.2988 95.6351 23.072 94.9309 22.4365 94.9652C21.8165 94.9497 21.5726 95.6351 21.5795 96.1555Z" fill="#DEDEDE"/>
<path d="M29.1814 94.6009C29.3154 94.5872 29.585 94.5597 29.719 94.5459C29.7328 95.5215 29.6932 96.4988 29.7396 97.4744C30.2463 96.5057 30.8062 95.5679 31.3421 94.6164C31.5104 94.5872 31.6805 94.5597 31.8522 94.5356C31.8522 95.8204 31.8488 97.1051 31.8539 98.3899C31.7183 98.3881 31.4452 98.3847 31.3078 98.3813C31.2957 97.428 31.3404 96.4748 31.2837 95.5232C30.8045 96.5074 30.2257 97.4366 29.6864 98.3881C29.5593 98.3864 29.3051 98.3864 29.178 98.3864C29.1831 97.124 29.178 95.8633 29.1814 94.6009Z" fill="#DEDEDE"/>
<path d="M33.3602 94.6162C33.544 94.5852 33.7312 94.556 33.9167 94.5303C33.9339 95.6467 33.9184 96.7648 33.9064 97.883C34.4079 97.9156 34.9095 97.9156 35.4127 97.9087C35.4059 96.8078 35.4093 95.7085 35.4093 94.6093C35.5965 94.5818 35.7837 94.5543 35.9709 94.5303C35.9726 95.6501 35.9761 96.7717 35.9675 97.8933C36.0912 97.9001 36.3385 97.9104 36.4604 97.9156C36.4656 98.4618 36.4656 99.008 36.4604 99.5559C36.2767 99.5524 36.0946 99.5507 35.9143 99.5524C35.9108 99.1643 35.9108 98.7761 35.9108 98.3914C35.0606 98.3914 34.2104 98.3931 33.3602 98.3896C33.3619 97.1307 33.3637 95.8734 33.3602 94.6162Z" fill="#DEDEDE"/>
<path d="M39.7324 94.6012C39.9076 94.5771 40.0828 94.5548 40.2597 94.5342C40.2632 95.8189 40.258 97.1037 40.2632 98.3901C40.1206 98.3901 39.8355 98.3901 39.6929 98.3918C39.6826 97.4369 39.7084 96.4819 39.6844 95.5287C39.1845 96.4991 38.6109 97.43 38.0853 98.3867C37.8912 98.385 37.6971 98.3832 37.5048 98.3832C37.5065 97.1277 37.5065 95.8722 37.5048 94.6166C37.6559 94.5995 37.9599 94.5617 38.1111 94.5445C38.1196 95.5338 38.0853 96.5231 38.1368 97.5124C38.5765 96.4939 39.1931 95.5664 39.7324 94.6012Z" fill="#DEDEDE"/>
<path d="M41.7574 94.6044C41.9429 94.5769 42.1302 94.5511 42.3174 94.5288C42.3191 95.0819 42.3191 95.6366 42.3174 96.1931C42.8292 96.1983 43.3428 96.1983 43.8563 96.2C43.8563 95.6676 43.858 95.1385 43.8563 94.6078C44.0555 94.5855 44.2565 94.5666 44.4575 94.5477C44.4523 95.8256 44.4557 97.1034 44.4557 98.3813C44.3063 98.383 44.0057 98.3865 43.8563 98.3882C43.858 97.8197 43.858 97.2494 43.8546 96.6826C43.3428 96.6826 42.8309 96.6826 42.3191 96.6895C42.3191 97.2563 42.3191 97.8231 42.3174 98.3899C42.1302 98.3899 41.9429 98.3899 41.7574 98.3916C41.7574 97.1292 41.7574 95.8668 41.7574 94.6044Z" fill="#DEDEDE"/>
<path d="M46.6371 94.6284C47.2228 94.4566 47.8652 94.5391 48.389 94.8551C48.3615 94.9736 48.31 95.2106 48.2842 95.3291C47.9459 95.3446 47.6573 95.0664 47.3465 94.9616C46.8707 95.0595 46.4224 95.4013 46.3898 95.92C46.3486 96.5349 46.2489 97.2614 46.6715 97.7767C47.1438 98.2198 47.7947 97.8883 48.2791 97.6496C48.2671 97.8454 48.5058 98.1992 48.1932 98.2748C47.6264 98.5376 46.9085 98.6406 46.3692 98.261C45.823 97.9021 45.6856 97.1893 45.7096 96.5795C45.6839 95.8393 45.9518 95.0028 46.6371 94.6284Z" fill="#DEDEDE"/>
<path d="M49.5054 94.6216C49.6874 94.5872 49.8695 94.5529 50.0533 94.522C50.1203 95.0802 50.1254 95.6435 50.122 96.2069C50.3504 96.1794 50.5823 96.1537 50.8142 96.1262C50.9567 95.6934 51.0151 95.2262 51.2539 94.8329C51.4067 94.5237 51.7726 94.5838 52.056 94.5323C52.0766 94.6353 52.1143 94.8414 52.1332 94.9445C51.9632 95.0184 51.7949 95.0939 51.6266 95.1712C51.5252 95.6281 51.4497 96.1537 51.0048 96.4147C51.5682 96.6621 51.5785 97.3525 51.7743 97.8541C51.9546 97.9245 52.1332 97.9966 52.3153 98.0705C52.2449 98.1958 52.1058 98.4483 52.0353 98.5737C51.7674 98.4518 51.4033 98.4363 51.2693 98.1306C51.0752 97.7218 51.0357 97.2598 50.8382 96.8561C50.6956 96.6071 50.3659 96.6964 50.1357 96.638C50.0395 97.2186 50.0619 97.8077 50.0704 98.3951C49.9296 98.3951 49.6479 98.3934 49.5071 98.3934C49.5071 97.1361 49.5088 95.8789 49.5054 94.6216Z" fill="#DEDEDE"/>
<path d="M53.2977 94.6164C53.4935 94.5889 53.6911 94.5648 53.8886 94.5425C53.8542 95.5627 53.825 96.583 53.8336 97.6049C54.3231 96.5692 54.95 95.6074 55.5031 94.606C55.6766 94.582 55.8535 94.5597 56.0304 94.5391C56.0287 95.8221 56.0304 97.1068 56.0287 98.3916C55.8913 98.3898 55.6147 98.3881 55.4773 98.3881C55.4704 97.4091 55.4928 96.4318 55.4705 95.4562C55.005 96.4644 54.3815 97.3885 53.8697 98.3744C53.7271 98.3795 53.442 98.3881 53.2994 98.3916C53.2977 97.1326 53.3029 95.8736 53.2977 94.6164Z" fill="#DEDEDE"/>
<path d="M59.5994 94.5562C59.7935 94.6266 59.9841 94.7021 60.1782 94.7812C59.7282 95.3016 59.3332 95.8649 58.9107 96.4077C59.3521 96.9985 59.7454 97.6254 60.2057 98.2025C60.0271 98.3125 59.8347 98.3915 59.6355 98.4533C59.3246 97.926 58.9536 97.4382 58.6496 96.9075C58.203 97.3644 57.8887 97.926 57.5263 98.4499C57.3649 98.364 56.9509 98.4155 57.0351 98.139C57.4353 97.5499 57.9385 97.0363 58.3112 96.4266C57.9076 95.8632 57.4525 95.3291 57.1399 94.7073C57.2738 94.6729 57.5401 94.6025 57.674 94.5682C57.9815 95.0474 58.3233 95.5111 58.55 96.0384C58.9622 95.5901 59.2628 95.0594 59.5994 94.5562Z" fill="#DEDEDE"/>
<path d="M63.0363 94.6011C63.2183 94.5805 63.4004 94.5616 63.5842 94.5444C63.5739 95.6677 63.5859 96.7893 63.5756 97.9126C64.0788 97.9143 64.5821 97.9143 65.0853 97.9023C65.0716 96.8013 65.0802 95.7021 65.0802 94.6011C65.2622 94.5822 65.446 94.565 65.6315 94.5479C65.6229 95.6694 65.6298 96.791 65.6263 97.9126C65.75 97.9143 65.9956 97.9177 66.1176 97.9195C66.121 98.4622 66.121 99.0067 66.121 99.5494C65.987 99.5494 65.7191 99.5494 65.5851 99.5494C65.5868 99.163 65.5886 98.7765 65.5954 98.3918C64.7418 98.3832 63.8882 98.3832 63.0363 98.3918C63.038 97.1277 63.038 95.8635 63.0363 94.6011Z" fill="#DEDEDE"/>
<path d="M67.2822 95.0387C67.6652 94.4857 68.4158 94.4977 69.0049 94.6282C69.7417 94.9941 69.8121 95.9061 69.8001 96.6326C69.0169 96.6309 68.2354 96.6257 67.4539 96.636C67.4368 97.2252 67.7305 97.7696 68.2766 98.0204C68.4175 98.0187 68.7009 98.0135 68.8417 98.0118C69.0839 97.8933 69.3244 97.7731 69.5665 97.6511C69.5992 97.8315 69.6318 98.0135 69.6679 98.199C68.895 98.5443 67.7545 98.6508 67.2135 97.8641C66.6879 97.0328 66.693 95.8374 67.2822 95.0387ZM67.4522 96.1551C68.0516 96.1568 68.6511 96.1586 69.2522 96.1551C69.223 95.5059 68.8194 94.8171 68.074 94.9408C67.6703 95.2259 67.4419 95.6519 67.4522 96.1551Z" fill="#DEDEDE"/>
<path d="M70.9852 94.6128C71.1793 94.5939 71.3734 94.5784 71.5709 94.563C71.4936 95.1023 71.5177 95.6485 71.516 96.193C72.0621 96.205 72.6118 96.2067 73.1614 96.1912C73.1494 95.6588 73.1494 95.1263 73.1528 94.5956C73.328 94.5836 73.5066 94.5733 73.687 94.5647C73.6681 95.8323 73.6818 97.0998 73.6784 98.3691C73.5015 98.3743 73.3263 98.3829 73.1511 98.3914C73.1511 97.8195 73.1494 97.2493 73.1597 96.679C72.61 96.6687 72.0604 96.6687 71.5125 96.679C71.5228 97.2475 71.5211 97.8178 71.5194 98.3897C71.3854 98.3863 71.1192 98.3794 70.9869 98.3777C70.9904 97.1222 70.9921 95.8666 70.9852 94.6128Z" fill="#DEDEDE"/>
<path d="M78.1252 95.209C77.8332 94.8895 78.0204 94.5168 78.4532 94.5374C78.4858 94.6972 78.5494 95.0184 78.582 95.1798C79.0149 94.2626 80.5881 94.3726 80.8509 95.3945C81.009 96.1932 81.0278 97.0468 80.7359 97.8163C80.5796 98.0378 80.3906 98.2319 80.1794 98.402C79.6761 98.4191 79.1162 98.5359 78.6971 98.177C78.6971 98.7592 78.6937 99.3449 78.6988 99.9306C78.515 99.9512 78.333 99.9752 78.1526 100.001C78.1492 98.4037 78.1973 96.8046 78.1252 95.209ZM78.6988 95.3447C78.6988 96.1657 78.692 96.9867 78.704 97.8077C78.8963 97.8661 79.0887 97.9331 79.2794 98.0069C79.592 98.0602 79.8891 97.9537 80.1742 97.8317C80.2309 97.6497 80.2944 97.4693 80.3614 97.2924C80.4044 96.7651 80.4026 96.2361 80.3631 95.7122C80.2962 95.5405 80.2309 95.3705 80.1708 95.2021C80.0815 95.1437 79.9011 95.0287 79.8118 94.9703C79.4047 94.9686 79.0441 95.1558 78.6988 95.3447Z" fill="#DEDEDE"/>
<path d="M81.9846 95.8859C82.1306 95.3707 82.3933 94.8262 82.9275 94.627C83.429 94.5634 84.0542 94.4638 84.4476 94.8691C84.7155 95.0941 84.8374 95.4325 84.9559 95.752C85.047 96.1968 85.0367 96.6537 85.0092 97.1071C84.8563 97.7753 84.3634 98.5104 83.5888 98.4331C82.8279 98.5842 82.1735 97.9745 82.0309 97.2651C81.9313 96.81 81.9536 96.3445 81.9846 95.8859ZM82.864 95.1731C82.8159 95.259 82.7214 95.4325 82.6733 95.5184C82.5565 95.9838 82.4723 96.4596 82.5084 96.944C82.6098 97.3854 82.797 97.7993 83.18 98.0655C83.6643 98.1377 84.0697 97.9333 84.3325 97.5296C84.396 97.0968 84.5025 96.6657 84.4922 96.226C84.4149 95.9976 84.3582 95.764 84.3136 95.5304C84.2672 95.4445 84.1762 95.271 84.1298 95.1834C83.7657 94.8743 83.2349 94.888 82.864 95.1731Z" fill="#DEDEDE"/>
<path d="M7.58308 95.13C7.29797 94.9101 7.45426 94.5511 7.81667 94.6405C8.61877 94.6302 9.42088 94.649 10.223 94.6336C10.2127 94.7538 10.1921 94.9908 10.18 95.1111C9.82622 95.1059 9.47241 95.1025 9.12031 95.1008C9.12718 96.1914 9.12031 97.2821 9.12546 98.3744C8.94511 98.3744 8.76649 98.3779 8.58786 98.383C8.59645 97.2889 8.57755 96.1966 8.6016 95.1025C8.26152 95.1025 7.92144 95.1076 7.58308 95.13Z" fill="#DEDEDE"/>
<path d="M16.7531 94.8517C16.7995 94.4892 17.4058 94.5133 17.483 94.8482C17.7321 95.5919 18.11 96.3116 18.1323 97.1137C18.1838 96.9831 18.2869 96.7238 18.3384 96.5933C18.3642 96.5022 18.4174 96.3202 18.4432 96.2291C18.6424 95.7053 18.8365 95.1814 18.9859 94.6438C19.1439 94.6387 19.46 94.6284 19.6197 94.6232C19.7605 95.8736 19.7949 97.1343 19.8189 98.3933C19.6455 98.383 19.472 98.3761 19.2985 98.3692C19.2727 97.3267 19.2745 96.2824 19.2126 95.2415C18.9808 96.0282 18.6871 96.7942 18.4294 97.574C18.2714 97.562 18.1151 97.5517 17.9571 97.5431C17.763 96.7805 17.4538 96.0539 17.2477 95.2965C17.1378 96.3236 17.1859 97.3627 17.0588 98.3916C16.9506 98.3898 16.7342 98.3864 16.626 98.3847C16.6603 97.2064 16.6672 96.0265 16.7531 94.8517Z" fill="#DEDEDE"/>
<path d="M25.4475 94.6304C26.1826 94.6338 26.916 94.6321 27.6511 94.6338C27.6494 95.7279 27.6528 96.822 27.6494 97.9178C27.7542 97.9144 27.9671 97.9109 28.0736 97.9075C28.0754 98.4554 28.0754 99.0033 28.0754 99.5529C27.9431 99.5529 27.6769 99.5546 27.5446 99.5546C27.5326 99.1647 27.5292 98.7731 27.5292 98.385C26.7649 98.3884 25.9988 98.3936 25.2345 98.3764C25.2293 98.7354 25.2311 99.0926 25.25 99.4533C25.0404 99.5065 24.7467 99.6903 24.6419 99.4035C24.6162 99.0291 24.6213 98.6546 24.6282 98.2819C24.5148 97.9745 24.8549 97.9212 25.0456 97.8508C25.4921 96.834 25.4544 95.7142 25.4475 94.6304ZM25.9696 95.0958C25.9902 96.0422 25.9507 97.0144 25.5797 97.9006C26.0624 97.9109 26.5467 97.9144 27.0311 97.9264C27.1118 96.9834 27.0036 96.0371 27.0448 95.0941C26.6858 95.0941 26.3269 95.0941 25.9696 95.0958Z" fill="#DEDEDE"/>
<path d="M74.6883 94.6304C75.5865 94.6424 76.4848 94.6407 77.3848 94.6338C77.3694 94.754 77.3385 94.9928 77.3247 95.113C76.9692 95.1061 76.6171 95.1044 76.265 95.1027C76.2719 96.1916 76.2615 97.2823 76.2719 98.3747C76.1362 98.3781 75.8682 98.3867 75.7325 98.3901C75.7429 97.296 75.7222 96.2037 75.7463 95.1113C75.3907 95.1096 75.0352 95.1079 74.6831 95.1147C74.6848 94.9928 74.6865 94.7523 74.6883 94.6304Z" fill="#DEDEDE"/>
<path d="M86.3007 95.5663C86.2595 95.2434 86.2784 94.9222 86.3918 94.6182C86.8607 94.6491 87.3313 94.6474 87.8019 94.6268V94.7401C88.1557 94.6955 88.458 94.8363 88.6744 95.1128C88.671 95.4082 88.6692 95.7037 88.6658 96.0008C88.5902 96.0695 88.4357 96.2052 88.3601 96.2739C88.4975 96.6294 88.9337 96.8355 88.841 97.2735C88.9234 97.8197 88.4631 98.2749 87.9462 98.3453C87.4309 98.3968 86.9105 98.3642 86.3952 98.3796C86.3729 98.28 86.3265 98.0773 86.3024 97.9777C86.2939 97.8678 86.2732 97.6479 86.2646 97.538L86.39 97.5209C86.3591 97.0966 86.4502 96.6501 86.2939 96.2464C86.3797 96.0163 86.3832 95.7895 86.3007 95.5663ZM86.7834 95.0939C86.7885 95.4581 86.7885 95.8222 86.7834 96.1863C87.2419 96.1983 87.7005 96.1863 88.1574 96.1365C88.1402 96.0644 88.1042 95.9166 88.087 95.8428L88.3223 95.8119C88.2725 95.7037 88.1711 95.4873 88.1213 95.379C88.1299 95.3206 88.1505 95.2039 88.1591 95.1455C87.7023 95.0939 87.2419 95.0785 86.7834 95.0939ZM86.7816 96.6552C86.7937 97.0726 86.7919 97.4899 86.7834 97.909C87.2162 97.9245 87.6524 97.9176 88.0887 97.8764C88.1419 97.8197 88.2519 97.7063 88.3068 97.648C88.3068 97.3766 88.3068 97.1052 88.3086 96.8373L88.1076 96.8733L88.1385 96.681C87.6851 96.6552 87.2334 96.6466 86.7816 96.6552Z" fill="#DEDEDE"/>
</svg>
