<svg width="201" height="66" viewBox="0 0 201 66" fill="none" xmlns="http://www.w3.org/2000/svg">
<g clip-path="url(#clip0_914_6650)">
<path d="M90.1203 0.175638C90.3973 0.0483304 90.7219 0.11247 91.0202 0.0804003C91.6062 0.0813721 92.1932 0.0493022 92.7802 0.0463867C92.959 0.050274 93.2243 0.0405558 93.2845 0.258243C93.4692 0.748039 93.4148 1.28545 93.5178 1.79177C93.5304 1.91228 93.7073 2.05027 93.8084 1.93463C94.4566 1.41179 95.0027 0.772334 95.6402 0.236863C95.8443 0.0726258 96.1242 0.106639 96.3701 0.0969212C96.891 0.106639 97.4118 0.0434713 97.9327 0.0833158C98.0202 0.210624 98.0066 0.325298 97.8939 0.425395C97.3788 0.929769 96.8229 1.39138 96.3108 1.8977C96.1563 2.02598 96.1971 2.23589 96.3302 2.36223C97.1524 3.30295 97.9327 4.28157 98.6849 5.27962C98.7938 5.41859 98.8589 5.5838 98.9201 5.74804C98.442 5.88506 97.9395 5.83356 97.4497 5.86854C96.7646 5.87632 96.0795 5.93171 95.3953 5.89575C95.2262 5.89478 95.0873 5.784 95.0027 5.646C94.6451 5.12608 94.3118 4.5906 93.96 4.06777C93.8793 3.93851 93.7423 3.86368 93.6257 3.77622C93.3438 4.36709 93.6363 5.06874 93.4138 5.6771C93.3244 5.93366 93.0251 5.95892 92.7967 5.98127C92.0455 6.03278 91.2894 6.04541 90.5382 6.00946C90.2904 6.01626 90.062 5.81023 90.0649 5.55853C89.9308 4.19605 89.8978 2.82578 89.8608 1.45844C89.8842 1.02889 89.8531 0.537154 90.1203 0.175638Z" fill="#DEDEDE"/>
<path d="M108.356 0.113276C108.591 0.0054046 108.861 0.0569109 109.111 0.0520518C109.849 0.0957836 110.59 0.07246 111.325 0.143403C111.771 0.209486 111.655 0.801323 111.685 1.12397C112.134 0.633199 112.711 0.241556 113.375 0.121051C114.19 -0.0295808 115.088 0.0559391 115.802 0.501031C116.203 0.749817 116.47 1.15506 116.642 1.58558C117.025 0.923772 117.683 0.443694 118.434 0.293062C119.36 0.109389 120.424 0.221148 121.157 0.865463C121.636 1.27071 121.872 1.90822 121.862 2.5263C121.855 3.62834 121.823 4.73038 121.774 5.83145C121.771 6.0297 121.706 6.30764 121.459 6.30667C120.607 6.34748 119.755 6.28237 118.903 6.2882C118.655 6.28043 118.257 6.26488 118.277 5.91794C118.292 4.8849 118.354 3.85186 118.376 2.81882C118.379 2.51172 118.218 2.18519 117.916 2.07635C117.45 1.87032 116.829 2.2056 116.779 2.72261C116.718 3.76051 116.756 4.80521 116.661 5.84117C116.651 6.17742 116.256 6.18227 116.007 6.1745C115.168 6.13368 114.325 6.16089 113.488 6.09967C113.299 6.09578 113.169 5.92474 113.187 5.74301C113.202 4.73135 113.263 3.71969 113.284 2.70706C113.285 2.46021 113.218 2.18422 113.01 2.0297C112.632 1.71872 112.005 1.86741 111.774 2.2882C111.684 2.4505 111.68 2.63903 111.671 2.81882C111.638 3.66916 111.631 4.52241 111.543 5.36984C111.526 5.64389 111.352 5.95487 111.045 5.95681C110.203 6.01609 109.354 5.96167 108.515 5.8849C108.233 5.88198 108.002 5.63514 108.023 5.35234C107.987 3.89073 108.015 2.4262 108.127 0.968475C108.171 0.681789 108.159 0.345541 108.356 0.113276Z" fill="#DEDEDE"/>
<path d="M75.7306 0.75193C76.8919 0.594495 78.1309 0.536186 79.233 1.0046C79.9774 1.3117 80.5887 1.94824 80.7986 2.73249C81.0707 3.71403 80.9988 4.89187 80.2738 5.66738C79.5381 6.44192 78.4507 6.7218 77.4312 6.8841C76.2932 7.03765 75.095 7.10081 73.9949 6.715C73.2874 6.47205 72.6868 5.91617 72.4342 5.20577C72.0697 4.21549 72.0765 2.99197 72.7772 2.14746C73.4973 1.26894 74.646 0.913252 75.7306 0.75193ZM76.1902 2.46622C75.7723 2.61588 75.7043 3.11539 75.7063 3.5012C75.7267 3.98128 75.7646 4.48954 76.0104 4.9152C76.1795 5.22229 76.5858 5.40013 76.9133 5.23492C77.3282 5.07555 77.4225 4.57798 77.4264 4.18342C77.4167 3.68682 77.3778 3.16204 77.128 2.72083C76.9414 2.40499 76.5109 2.33308 76.1902 2.46622Z" fill="#DEDEDE"/>
<path d="M133.342 1.31644C134.376 1.15123 135.439 1.22703 136.461 1.43597C137.393 1.63228 138.348 2.03266 138.932 2.81886C139.395 3.42528 139.513 4.23091 139.405 4.97144C139.319 5.71294 138.989 6.46318 138.37 6.90827C137.613 7.46123 136.639 7.57591 135.728 7.58271C134.587 7.56813 133.419 7.42819 132.367 6.96075C131.638 6.63713 130.998 6.03072 130.804 5.23674C130.599 4.38543 130.679 3.43888 131.119 2.67212C131.593 1.89661 132.464 1.45541 133.342 1.31644ZM134.796 3.05307C134.493 3.17649 134.389 3.51663 134.314 3.80429C134.206 4.32712 134.143 4.88981 134.322 5.40487C134.457 5.79262 134.954 6.01128 135.32 5.79943C135.675 5.60798 135.792 5.18038 135.862 4.81206C135.929 4.36988 135.98 3.90341 135.843 3.46901C135.709 3.05404 135.176 2.87814 134.796 3.05307Z" fill="#DEDEDE"/>
<path d="M60.4197 2.51767C61.0349 2.39619 61.6549 2.29707 62.2749 2.2028C62.4702 2.16685 62.6763 2.24265 62.8269 2.36801C62.9066 2.54488 62.9299 2.74022 62.9678 2.92875C63.2331 4.38939 63.5295 5.8442 63.7812 7.30679C64.1204 7.18239 64.4586 7.058 64.7939 6.92389C65.0193 7.16684 65.0514 7.5235 65.0475 7.84031C64.7093 8.03565 64.2837 7.97928 63.9105 8.06966C64.0708 9.10173 64.34 10.1542 64.1282 11.2009C63.9999 11.8617 63.7045 12.5371 63.1437 12.9404C62.1748 13.5818 60.9775 13.9307 59.8182 13.7188C58.8852 13.6401 58.0689 12.8908 57.8765 11.9812C57.7793 11.5332 57.753 11.0619 57.8425 10.61C57.9775 9.97345 58.4187 9.46811 58.8386 8.99483C58.0446 9.31262 57.0961 9.38356 56.34 8.92486C55.6034 8.51961 55.2477 7.69357 55.0718 6.91028C54.8658 6.00941 54.8327 4.98414 55.3536 4.17948C55.9892 3.29124 57.1165 2.83254 58.1913 2.87044C58.7569 2.88988 59.2594 3.19892 59.6355 3.60416C59.6248 3.35927 59.5062 3.06869 59.6802 2.85684C59.8541 2.62749 60.1564 2.57598 60.4197 2.51767ZM58.5966 4.4924C58.1836 4.64984 58.0689 5.14935 58.1175 5.54488C58.169 6.00941 58.2603 6.51961 58.6102 6.85781C59.0873 7.28152 59.9377 6.85392 59.9289 6.23001C59.891 5.81116 59.8026 5.39717 59.7064 4.989C59.581 4.53711 59.0145 4.3097 58.5966 4.4924ZM60.0592 9.04925C59.5218 9.26889 59.0242 9.78103 59.0631 10.3972C59.133 10.8364 59.2409 11.3165 59.5791 11.6323C59.9173 11.9521 60.5334 11.7917 60.6977 11.3641C60.8687 10.9268 60.7744 10.4477 60.6967 10.0007C60.6306 9.68677 60.6034 9.36121 60.4858 9.05994C60.375 8.93264 60.1894 8.99775 60.0592 9.04925Z" fill="#DEDEDE"/>
<path d="M148.664 3.97837C148.682 3.66156 149.065 3.53425 149.335 3.59547C149.958 3.69751 150.579 3.82094 151.204 3.922C151.43 3.97254 151.699 3.98517 151.866 4.17079C152.046 4.36029 151.962 4.63921 151.963 4.87147C152.827 4.27089 153.96 4.14358 154.966 4.40305C155.755 4.60616 156.383 5.28352 156.556 6.07555C156.714 6.80636 156.628 7.56826 156.455 8.28935C156.28 8.9774 155.938 9.67322 155.328 10.0736C154.457 10.578 153.322 10.5702 152.43 10.1203C152.023 9.92881 151.815 9.50801 151.475 9.23493C151.374 9.3739 151.276 9.5187 151.258 9.69265C151.09 10.6207 150.921 11.5488 150.715 12.4691C150.655 12.6674 150.609 12.922 150.401 13.0182C150.011 13.0445 149.632 12.9269 149.251 12.8734C148.686 12.7646 148.112 12.7033 147.554 12.5644C147.244 12.4876 147.285 12.096 147.317 11.853C147.724 9.22132 148.198 6.60033 148.664 3.97837ZM152.381 5.94436C152.101 6.02696 151.891 6.26894 151.839 6.55368C151.765 6.92783 151.689 7.30296 151.656 7.68391C151.636 8.26408 152.381 8.71015 152.878 8.39625C153.146 8.2359 153.269 7.92395 153.353 7.63629C153.45 7.21938 153.536 6.76554 153.377 6.35155C153.219 5.97837 152.752 5.80539 152.381 5.94436Z" fill="#DEDEDE"/>
<path d="M22.8073 6.12097C25.6518 4.57093 29.0474 4.19775 32.2087 4.78473C33.0095 4.98978 33.647 5.69629 33.7908 6.50679C33.9337 7.22204 33.6956 8.00241 33.1698 8.5097C32.68 9.0063 31.9473 9.24245 31.2592 9.1268C29.2116 8.81485 27.0435 8.982 25.1669 9.90717C27.1164 11.3707 28.6149 13.4261 29.4167 15.7284C30.1057 17.7293 30.2884 19.983 29.5411 21.9956C29.0085 23.4533 27.922 24.7011 26.5372 25.4077C25.0853 26.1181 23.4633 26.5622 21.8375 26.4397C20.4342 26.3416 19.0678 25.7546 18.0532 24.776C16.7578 23.5389 16.0454 21.7983 15.7976 20.0471C15.4351 17.396 15.9482 14.6652 17.0833 12.2551C12.7024 12.8255 8.56438 15.5311 6.55369 19.5058C5.405 21.7429 5.05223 24.3377 5.36807 26.8197C5.5741 28.4805 5.98906 30.1287 6.71696 31.6399C7.39528 33.0432 8.35933 34.3134 9.55369 35.3163C10.9638 36.5214 12.6849 37.3251 14.4759 37.7779C16.9998 38.396 19.7208 38.4582 22.1931 37.5845C24.8472 36.6642 27.0629 34.7906 28.8093 32.6302C30.7092 30.3124 31.9881 27.569 33.8093 25.1958C34.6752 24.0656 35.8102 23.0578 37.2145 22.6856C38.9414 22.189 40.9366 22.5495 42.2738 23.7828C43.5391 24.9169 44.2204 26.5291 44.7354 28.1122C45.1679 27.1414 45.6499 26.1832 46.2913 25.3309C47.0755 24.2609 48.1241 23.3416 49.4021 22.9256C51.0124 22.3882 52.82 22.7157 54.2777 23.535C55.6227 24.292 56.507 25.6613 56.9725 27.1035C57.6635 26.0286 58.5527 25.0432 59.6985 24.4475C61.233 23.6351 63.1018 23.6351 64.7208 24.189C66.2019 24.7089 67.3078 25.982 67.8637 27.4222C68.5848 29.1501 68.6266 31.051 69.1222 32.8382C70.2748 32.3095 71.1572 31.3581 71.9803 30.4203C73.1786 29.0199 74.2029 27.4786 75.1271 25.8868C75.6266 25.0345 76.7374 24.6215 77.6761 24.9247C78.1222 25.0432 78.4818 25.3484 78.7966 25.6739C79.3914 24.4388 80.2884 23.3231 81.4701 22.6069C82.9259 21.7118 84.6975 21.4533 86.3788 21.6185C88.0065 21.741 89.5566 22.4961 90.7189 23.6321C91.9959 24.8498 92.8423 26.4941 93.1572 28.2259C94.1951 27.5855 95.2369 26.948 96.3175 26.3814C96.8812 26.0967 97.4827 25.7808 98.1368 25.8605C99.1183 25.9324 99.9939 26.7274 100.132 27.707C100.293 28.946 100.384 30.2191 100.851 31.3911C101.033 31.8285 101.311 32.3309 101.83 32.4038C102.347 32.5427 102.785 32.1472 103.139 31.8275C104.015 30.9363 104.625 29.8226 105.143 28.6943C105.876 27.0461 106.403 25.3076 106.717 23.5311C106.897 22.5116 107.881 21.7235 108.914 21.7643C109.84 21.7449 110.722 22.3902 111.002 23.2697C111.728 25.7196 112.469 28.2036 113.766 30.4232C114.174 31.052 114.59 31.7527 115.275 32.1103C115.956 32.2434 116.638 31.9976 117.276 31.776C116.74 30.5515 116.372 29.2541 116.183 27.9305C115.892 26.1676 116.412 24.3387 117.404 22.8751C118.175 21.7313 119.282 20.7838 120.599 20.3406C121.847 19.9208 123.263 20.0257 124.426 20.6477C125.574 21.2599 126.503 22.2483 127.127 23.3824C127.979 25.0044 127.765 26.9839 127.011 28.601C126.268 30.2386 125.087 31.6341 123.777 32.8479C124.405 33.1832 125.1 33.4038 125.816 33.4281C126.304 33.4426 126.827 33.4728 127.271 33.2298C128.145 32.7789 128.775 31.9888 129.33 31.1997C130.278 29.7983 130.946 28.223 131.422 26.604C131.591 26.0734 131.602 25.4912 131.881 24.9975C132.254 24.3192 133.01 23.8664 133.788 23.878C134.574 23.8421 135.35 24.2872 135.743 24.9635C135.894 25.2279 135.976 25.5233 136.073 25.811C136.399 26.8178 136.824 27.7896 137.262 28.7526C137.877 27.6166 138.523 26.4815 139.386 25.5126C140.155 24.6283 141.119 23.8634 142.265 23.5457C143.559 23.1851 144.961 23.4776 146.115 24.1249C147.318 24.7925 148.215 25.9159 148.77 27.1608C149.53 26.2259 150.41 25.3756 151.434 24.7342C152.567 24.0286 153.928 23.6176 155.268 23.8051C157.071 24.0413 158.697 25.2405 159.519 26.8537C160.283 28.3095 160.429 29.9752 160.666 31.5758C160.765 32.0675 160.818 32.6049 161.119 33.0238C161.384 33.2143 161.814 33.2823 162.07 33.0355C162.475 32.6778 162.735 32.19 162.981 31.7157C163.477 30.6982 163.818 29.6156 164.19 28.5486C164.368 28.0452 164.5 27.501 164.86 27.0879C165.099 26.7954 165.434 26.6078 165.766 26.4388C166.347 25.0354 167.309 23.776 168.581 22.9334C170.241 21.8042 172.356 21.429 174.318 21.7983C177.399 22.362 179.97 24.8625 180.748 27.877C181.462 27.2541 182.18 26.6341 182.912 26.0325C183.007 24.5855 183.206 23.1462 183.508 21.7274C183.108 21.5748 182.708 21.4213 182.318 21.2463C179.553 20.0374 177.145 17.8275 176.068 14.9694C175.71 13.9839 176.165 12.7867 177.096 12.2998C177.93 11.8275 179.058 11.9762 179.737 12.6545C180.202 13.087 180.323 13.739 180.662 14.2561C181.563 15.7799 183.111 16.7993 184.732 17.4271C185.974 14.0092 187.913 10.6846 190.931 8.5476C192.36 7.56509 194.091 6.78667 195.865 7.04614C196.935 7.2648 197.96 7.74488 198.803 8.44167C199.944 9.3717 200.635 10.7886 200.747 12.2483V13.1424C200.63 14.7925 199.946 16.3542 199.016 17.7031C198.163 18.8994 197.175 20.0355 195.948 20.8586C193.573 22.3853 190.648 22.775 187.878 22.6147C187.788 23.0228 187.711 23.4339 187.639 23.8459C189.214 23.4261 190.852 23.1764 192.484 23.3085C193.93 23.4125 195.37 23.8518 196.564 24.6905C197.745 25.5107 198.648 26.7245 199.084 28.0957C199.636 29.7837 199.51 31.6535 198.859 33.2959C198.146 35.1025 196.781 36.6419 195.076 37.5699C193.501 38.4446 191.624 38.7371 189.855 38.4154C188.314 38.1249 186.86 37.3824 185.712 36.3153C184.386 35.0685 183.687 33.3124 183.286 31.5709C182.014 32.6496 180.744 33.7303 179.464 34.8003C178.802 35.3416 178.183 35.9441 177.425 36.3532C175.645 37.6399 173.263 38.154 171.15 37.4572C169.382 36.8761 167.826 35.7225 166.689 34.2551C166.019 35.4417 165.105 36.5593 163.853 37.156C161.842 38.1414 159.194 37.6137 157.725 35.9208C156.821 34.88 156.454 33.5068 156.251 32.1734C156.068 31.1404 156.042 30.0646 155.642 29.0821C155.468 28.6185 155.029 28.1968 154.509 28.225C153.898 28.3474 153.401 28.7692 152.96 29.1861C151.352 30.775 150.312 32.8557 149.631 34.9898C149.296 35.879 148.332 36.465 147.388 36.3688C146.326 36.3124 145.391 35.3843 145.356 34.3173C145.343 32.6108 145.381 30.8489 144.794 29.2201C144.575 28.5845 144.137 27.9684 143.442 27.8197C142.734 28.3182 142.246 29.0491 141.801 29.7769C140.924 31.2502 140.257 32.8353 139.622 34.4242C139.391 34.9742 139.252 35.5942 138.815 36.0267C138.282 36.5865 137.443 36.8285 136.693 36.6428C135.888 36.4601 135.211 35.7867 135.047 34.9742C134.865 33.9771 134.357 33.085 133.943 32.1725C133.248 33.4728 132.401 34.706 131.333 35.7313C130.245 36.8003 128.855 37.6127 127.328 37.8236C126.194 37.9674 125.035 37.8975 123.922 37.6409C122.422 37.293 121.037 36.5272 119.899 35.4971C118.361 36.2308 116.657 36.7342 114.939 36.5729C113.691 36.464 112.551 35.8139 111.663 34.9548C110.507 33.8255 109.699 32.4018 109.008 30.9558C108.199 32.6477 107.172 34.2784 105.723 35.4961C104.83 36.2279 103.741 36.7595 102.582 36.8605C100.939 37.0034 99.2145 36.4329 98.0775 35.2191C97.1047 34.224 96.577 32.8965 96.234 31.57C94.888 32.3834 93.5673 33.2386 92.2048 34.0248C91.8647 34.1987 91.7053 34.5622 91.4779 34.8469C90.6198 35.9674 89.507 36.8897 88.2641 37.5554C86.8569 38.294 85.2194 38.6049 83.6441 38.3591C81.8792 38.0938 80.2612 37.1812 78.9745 35.9655C77.8472 34.9023 76.9473 33.6127 76.2582 32.2288C75.6188 33.05 74.9482 33.8508 74.2019 34.5777C73.1543 35.6185 71.9512 36.5554 70.5449 37.0539C69.3894 37.4407 68.0513 37.5019 66.9541 36.9062C66.0095 36.4067 65.3506 35.4903 64.991 34.5019C64.3914 32.8897 64.3545 31.1404 63.8754 29.4971C63.7335 29.0996 63.6062 28.6273 63.2233 28.395C62.6897 28.2026 62.024 28.1618 61.5585 28.5379C61.0435 28.947 60.7033 29.5282 60.3875 30.0957C59.5828 31.6321 59.0396 33.2862 58.5177 34.9344C58.2165 35.912 57.165 36.568 56.1543 36.429C55.3302 36.3464 54.5877 35.7595 54.3195 34.9752C53.7646 33.2852 53.4546 31.5301 53.0814 29.7954C52.9103 29.0986 52.7743 28.3707 52.3953 27.7507C52.1368 27.3212 51.6149 27.1783 51.1504 27.1219C50.6936 27.0636 50.3467 27.4339 50.0678 27.741C49.3953 28.5602 48.9618 29.5418 48.5605 30.5146C47.8627 32.2813 47.337 34.1093 46.8083 35.9315C46.6441 36.464 46.5547 37.0403 46.2155 37.499C45.7607 38.1326 44.9502 38.4796 44.1776 38.3882C43.4993 38.3241 42.8627 37.9217 42.5148 37.3367C42.2514 36.913 42.198 36.4077 42.0814 35.9334C41.6343 33.9713 41.234 31.9956 40.6732 30.0617C40.4244 29.2444 40.1659 28.4183 39.7383 27.673C39.5712 27.4047 39.3904 27.1122 39.0921 26.9771C38.7364 26.8654 38.3263 26.9412 38.0396 27.1822C37.5887 27.5427 37.2534 28.0228 36.9191 28.4883C35.4565 30.6088 34.2612 32.9101 32.6693 34.9431C31.0221 37.0734 29.0483 38.981 26.7238 40.36C24.2077 41.8751 21.2767 42.6953 18.3389 42.6895C14.8404 42.707 11.2932 41.8382 8.33114 39.9441C6.09208 38.532 4.25243 36.5155 3.01142 34.1803C1.49635 31.3328 0.808307 28.0879 0.799561 24.8761C0.823856 21.7692 1.71598 18.67 3.39334 16.052C5.57313 12.6088 9.00947 10.0345 12.8413 8.69823C15.234 7.88385 17.8151 7.49707 20.3311 7.85761C21.0892 7.18997 21.9181 6.60105 22.8073 6.12097ZM193.056 12.5272C191.269 14.0092 190.065 16.0724 189.21 18.2045C190.567 18.1608 191.962 17.9655 193.176 17.3192C193.55 17.1278 193.882 16.8634 194.177 16.5641C194.943 15.7779 195.642 14.8965 196.051 13.8673C196.232 13.3941 196.376 12.8722 196.264 12.3649C196.124 11.8489 195.584 11.5748 195.104 11.4572C194.332 11.5923 193.664 12.0578 193.056 12.5272ZM21.7607 13.0063C20.5994 14.845 19.9434 17.0627 20.1834 19.2434C20.302 20.12 20.5537 21.0685 21.2621 21.6574C21.8851 22.1462 22.7451 22.0442 23.4575 21.8372C24.1135 21.6351 24.8559 21.3999 25.2116 20.7575C25.7063 19.8459 25.6295 18.742 25.3797 17.7692C24.8608 15.7886 23.5401 14.0267 21.7607 13.0063ZM121.593 24.8217C120.997 25.3435 120.6 26.1103 120.557 26.9033C120.61 27.7138 120.82 28.5068 121.077 29.2755C121.969 28.3445 122.876 27.3221 123.194 26.0403C123.374 25.4514 122.871 24.9733 122.447 24.6545C122.172 24.4125 121.821 24.6263 121.593 24.8217ZM83.0124 27.2483C82.6275 27.8119 82.5634 28.5476 82.0823 29.052C81.5702 29.6205 80.7655 29.8566 80.0182 29.7429C80.6538 31.1977 81.6062 32.5748 82.9657 33.4368C83.8238 33.9898 84.9492 34.1783 85.8977 33.7429C87.0007 33.2366 87.9531 32.3523 88.4837 31.2551C89.268 29.6049 88.6538 27.4485 87.127 26.4494C86.4235 25.9723 85.5187 25.9752 84.7082 26.086C83.9968 26.1764 83.3603 26.6253 83.0124 27.2483ZM171.802 26.2774C170.942 26.5486 170.254 27.2405 169.927 28.0724C169.757 28.5272 169.419 28.8877 169.033 29.1696C169.465 30.4941 170.178 31.7935 171.342 32.6069C171.998 33.0461 172.776 33.4543 173.592 33.2765C175.102 32.9354 176.294 31.5573 176.497 30.0345C176.628 29.0491 176.168 28.0908 175.534 27.3639C174.639 26.328 173.115 25.8323 171.802 26.2774ZM187.357 28.6535C187.481 30.0005 187.683 31.3921 188.38 32.5768C188.658 33.0724 189.146 33.395 189.631 33.6681C190.456 34.1171 191.469 34.225 192.36 33.9111C193.936 33.3727 195.106 31.7332 194.966 30.0539C194.913 29.2716 194.44 28.5437 193.746 28.1812C192.911 27.7458 191.934 27.6788 191.011 27.7497C189.753 27.8459 188.525 28.1841 187.357 28.6535Z" fill="#DEDEDE"/>
<path d="M61.8753 53.1417C62.197 53.0309 62.5332 52.9735 62.8724 52.9444C64.1853 52.82 65.5089 52.8181 66.8247 52.9113C67.2873 52.9492 67.7567 52.9862 68.1979 53.1456C69.6624 57.2826 71.1338 61.4177 72.61 65.5508C71.9909 65.8375 71.2902 65.819 70.6245 65.8627C69.6245 65.8627 68.5934 65.9065 67.6313 65.5906C67.3495 64.6762 67.0521 63.7665 66.7645 62.854C65.5468 62.8521 64.3301 62.853 63.1124 62.853C62.8228 63.7665 62.5449 64.6839 62.2543 65.5974C61.3524 65.9016 60.3816 65.8637 59.4418 65.8637C58.8004 65.8248 58.1289 65.8307 57.5332 65.5595C58.9754 61.4186 60.4312 57.2826 61.8753 53.1417ZM63.6615 59.9609C64.5186 59.9619 65.3767 59.9619 66.2339 59.9609C65.8014 58.6762 65.3874 57.3856 64.9404 56.1067C64.4904 57.3827 64.0891 58.6762 63.6615 59.9609Z" fill="#DEDEDE"/>
<path d="M77.2903 52.9498C79.8588 52.8235 82.4321 52.8157 85.0016 52.9042C85.9744 52.9586 86.9618 52.9479 87.9161 53.1666C87.92 57.3055 87.9229 61.4435 87.9141 65.5825C87.0473 65.8983 86.1046 65.8585 85.1969 65.8653C84.5215 65.8381 83.8238 65.8313 83.1863 65.5776C83.1736 62.5718 83.1853 59.566 83.1814 56.5601C82.1688 56.5601 81.1561 56.5601 80.1445 56.5601C80.1387 59.5679 80.1552 62.5747 80.1357 65.5825C79.4895 65.8313 78.7849 65.841 78.1017 65.8663C77.2018 65.8595 76.2689 65.8935 75.4108 65.5815C75.4011 61.4426 75.4088 57.3046 75.4069 53.1656C76.023 53.012 76.6605 52.9936 77.2903 52.9498Z" fill="#DEDEDE"/>
<path d="M90.373 53.1648C91.3808 52.9452 92.4206 52.9559 93.4459 52.9024C96.0649 52.8179 98.6869 52.8247 101.304 52.9442C101.994 52.985 102.69 53.0084 103.368 53.158C103.375 54.3893 103.369 55.6206 103.371 56.8519C101.994 56.8519 100.617 56.8509 99.2408 56.8529C99.2379 59.7625 99.2486 62.6731 99.235 65.5837C98.6033 65.8247 97.9162 65.8402 97.2496 65.8655C96.3915 65.8645 95.511 65.8859 94.6811 65.6449C94.5149 65.6206 94.4877 65.4496 94.5022 65.3125C94.5042 62.4923 94.5022 59.6721 94.5032 56.8519C93.1261 56.8509 91.7491 56.8519 90.373 56.8519C90.373 55.6225 90.372 54.3942 90.373 53.1648Z" fill="#DEDEDE"/>
<path d="M106.07 53.1529C106.776 52.9877 107.503 52.9605 108.225 52.9187C110.236 52.8264 112.25 52.8216 114.261 52.9012C115.111 52.9479 115.971 52.9605 116.804 53.1529C116.808 54.1432 116.805 55.1325 116.806 56.1228C114.798 56.1238 112.79 56.1228 110.781 56.1228C110.78 56.7059 110.78 57.289 110.781 57.8721C112.701 57.8721 114.62 57.8711 116.539 57.8721C116.539 58.8196 116.539 59.7671 116.539 60.7147C114.62 60.7147 112.701 60.7147 110.781 60.7147C110.78 61.3376 110.781 61.9615 110.781 62.5854C112.83 62.5854 114.879 62.5844 116.928 62.5854C116.927 63.5786 116.931 64.5718 116.926 65.565C115.585 65.8575 114.202 65.7701 112.843 65.8896H110.263C108.866 65.774 107.444 65.8653 106.068 65.5602C106.07 61.4251 106.065 57.289 106.07 53.1529Z" fill="#DEDEDE"/>
<path d="M121.254 53.1494C122.026 52.8423 122.875 52.8802 123.691 52.8481C124.46 52.8899 125.268 52.8462 125.992 53.1572C125.994 54.7879 125.979 56.4206 126 58.0513C127.004 56.4662 127.931 54.8316 128.916 53.2349C129.01 53.0551 129.238 53.0503 129.413 53.0046C130.502 52.8307 131.613 52.8287 132.713 52.8851C133.258 52.9269 133.822 52.9463 134.332 53.1669C132.969 55.1183 131.558 57.0367 130.172 58.9716C131.685 61.1601 133.208 63.3409 134.716 65.5323C134.344 65.7403 133.909 65.7597 133.497 65.8044C132.527 65.8861 131.552 65.887 130.582 65.8307C130.076 65.7918 129.558 65.7656 129.08 65.579C128.065 63.7976 127.033 62.025 125.999 60.2554C125.976 62.0299 126.001 63.8054 125.986 65.5809C125.347 65.8297 124.65 65.8404 123.974 65.8657C123.068 65.8608 122.128 65.8958 121.262 65.5858C121.241 61.44 121.256 57.2942 121.254 53.1494Z" fill="#DEDEDE"/>
<path d="M140.777 52.9744C142.167 52.816 143.57 52.814 144.965 52.9103C145.382 52.9482 145.806 52.9705 146.209 53.0968C146.342 53.1114 146.381 53.2407 146.424 53.3485C147.868 57.4195 149.319 61.4885 150.765 65.5585C150.04 65.8607 149.233 65.8384 148.462 65.8665C147.567 65.8588 146.645 65.8792 145.788 65.5896C145.507 64.6761 145.205 63.7684 144.924 62.8549C143.704 62.85 142.486 62.8549 141.266 62.8529C140.992 63.7256 140.73 64.6041 140.448 65.4749C140.409 65.6586 140.181 65.6605 140.038 65.712C139.133 65.8899 138.204 65.8831 137.286 65.851C136.747 65.8063 136.179 65.8024 135.689 65.5488C137.052 61.6654 138.408 57.7791 139.769 53.8947C139.857 53.6537 139.921 53.402 140.036 53.1717C140.247 53.0172 140.528 53.0201 140.777 52.9744ZM143.101 56.1056C142.65 57.3826 142.239 58.6731 141.822 59.9608C142.678 59.9627 143.535 59.9618 144.392 59.9618C143.963 58.6761 143.545 57.3864 143.101 56.1056Z" fill="#DEDEDE"/>
</g>
<defs>
<clipPath id="clip0_914_6650">
<rect width="200" height="65.8892" fill="white" transform="translate(0.74707 0.000488281)"/>
</clipPath>
</defs>
</svg>
