<svg width="201" height="74" viewBox="0 0 201 74" fill="none" xmlns="http://www.w3.org/2000/svg">
<path d="M98.6031 0.0629786C100.133 -0.0817392 101.665 0.0557433 103.192 0.148363C103.906 0.207697 104.571 0.50871 105.288 0.557914C106.453 0.792357 107.67 0.90813 108.749 1.44069C109.523 1.68816 110.305 1.92839 111.016 2.33505C111.877 2.62014 112.603 3.16573 113.422 3.54055C113.971 3.8488 114.405 4.33215 114.998 4.57238C115.463 4.91537 115.904 5.29887 116.337 5.68526C116.629 6.02969 117.084 6.1802 117.361 6.54055C117.856 7.06298 118.27 7.65777 118.809 8.14113C119.69 9.00075 120.13 10.1773 120.872 11.1397C123.259 15.7576 123.267 21.5029 120.913 26.1353C120.128 27.1151 119.703 28.3597 118.765 29.2207C118.107 29.9139 117.568 30.7403 116.761 31.2786C116.188 31.7084 115.714 32.2656 115.114 32.6563C114.551 32.8763 114.162 33.3568 113.633 33.6361C112.353 34.39 111.036 35.1064 109.62 35.5753C108.376 36.2236 106.947 36.3148 105.649 36.8097C102.021 37.4233 98.2847 37.4306 94.6595 36.7967C93.5293 36.335 92.2803 36.2728 91.166 35.7678C90.3802 35.3741 89.4916 35.2135 88.7507 34.7258C87.8549 34.3003 86.9706 33.8343 86.1602 33.2583C85.713 32.8097 85.0575 32.665 84.6465 32.173C84.1226 31.7793 83.6942 31.2772 83.14 30.9255C82.4511 30.3582 82.0227 29.5362 81.3252 28.979C80.7 28.2656 80.289 27.4016 79.797 26.5984C79.1241 25.7605 78.8158 24.7113 78.4612 23.7142C77.7565 21.639 77.6465 19.4277 77.7666 17.254C77.7709 16.241 78.0459 15.2612 78.2586 14.2786C78.5915 13.2627 78.8824 12.2149 79.4222 11.2844C80.1139 10.3625 80.5104 9.23809 81.3295 8.41175C82.0387 7.67803 82.6335 6.83288 83.4193 6.17441C83.9388 5.82998 84.3426 5.34518 84.8505 4.98338C85.2948 4.54055 85.9128 4.34518 86.373 3.9226C86.8201 3.50003 87.4468 3.37702 87.9316 3.01233C88.4612 2.62738 89.1168 2.4899 89.6798 2.16573C90.4641 1.69829 91.4019 1.6187 92.2022 1.18599C93.4511 0.773543 94.7753 0.649086 96.0604 0.379911C96.8795 0.112183 97.7507 0.117971 98.6031 0.0629786ZM97.6117 3.45951C96.4193 3.58975 95.1863 3.62304 94.0618 4.08035C93.1096 4.3061 92.1284 4.46385 91.2456 4.90958C89.6335 5.4378 88.1689 6.30031 86.7131 7.14547C85.7869 7.95878 84.6638 8.54923 83.8824 9.52463C83.1081 10.1585 82.5104 10.9733 82.0054 11.8314C81.6856 12.419 81.1848 12.8951 80.9533 13.5333C80.0343 15.7822 79.5727 18.2989 80.0647 20.7055C80.2427 22.0008 80.6523 23.2627 81.263 24.4175C81.975 25.3524 82.496 26.432 83.3136 27.2844C84.0068 27.7895 84.4858 28.5319 85.1689 29.0485C85.755 29.3582 86.1979 29.8633 86.7608 30.2091C87.3223 30.7113 88.0719 30.898 88.6942 31.3061C89.3932 31.7938 90.2673 31.9168 90.9895 32.3654C91.9793 32.7649 93.0488 32.9327 94.0445 33.322C98.0054 34.1556 102.13 34.1455 106.101 33.3756C106.923 33.118 107.741 32.8459 108.58 32.6404C109.317 32.4957 109.919 32.0152 110.632 31.8025C111.27 31.6375 111.761 31.1744 112.363 30.9269C113.28 30.5652 114.021 29.8893 114.796 29.2989C115.686 28.8227 116.241 27.9356 117.024 27.3191C117.654 26.6693 118.094 25.8647 118.59 25.1151C119.46 24.0427 119.885 22.6751 120.172 21.3423C120.869 18.461 120.366 15.3524 119.005 12.7403C118.286 11.8459 117.768 10.7996 116.992 9.94576C116.176 9.37557 115.615 8.50437 114.751 7.99062C114.233 7.71131 113.852 7.24387 113.34 6.96023C112.639 6.61291 112.014 6.13244 111.286 5.83722C110.424 5.32781 109.445 5.08758 108.542 4.6679C107.644 4.28874 106.645 4.26124 105.745 3.88932C105.435 3.77499 105.107 3.73013 104.783 3.68961C102.412 3.33215 99.9996 3.309 97.6117 3.45951Z" fill="#DEDEDE"/>
<path d="M94.6132 8.1395C98.2616 7.58812 102.004 7.60549 105.651 8.15542C107.289 8.70969 109.095 8.68074 110.661 9.45788C111.237 9.61707 111.822 9.75165 112.377 9.97741C112.38 12.6532 112.496 15.3247 112.479 17.9991C111.668 17.7314 110.826 17.5317 110.071 17.125C109.348 16.7792 108.521 16.769 107.791 16.4405C107.133 16.1294 106.4 16.0469 105.688 15.9456C105.68 20.5158 105.707 25.086 105.675 29.6561C102.126 29.6619 98.5756 29.6793 95.0257 29.6475C95.0329 24.9803 95.0372 20.3132 95.0228 15.646C94.0705 15.7922 93.1009 15.9253 92.1906 16.248C91.5134 16.6446 90.7116 16.7242 90.0286 17.1033C89.3498 17.5708 88.5018 17.7285 87.8882 18.303C87.8694 15.6547 87.865 13.0064 87.8911 10.3595C88.6262 9.69811 89.6726 9.69232 90.4931 9.18436C91.8245 8.69232 93.2688 8.59825 94.6132 8.1395Z" fill="#DEDEDE"/>
<path d="M163.163 54.8229C165.395 54.5595 167.662 54.6536 169.868 55.0834C170.276 55.1442 170.631 55.3656 171.017 55.5002C171.606 55.7303 172.275 55.7752 172.796 56.163C173.309 56.561 174.011 56.6261 174.474 57.1008C175.376 57.7853 176.337 58.4351 176.959 59.4047C177.241 59.9286 177.736 60.3077 177.946 60.8721C178.829 62.7896 178.755 65.0979 177.804 66.9778C177.068 67.959 176.412 69.0487 175.373 69.7506C174.822 70.1037 174.392 70.6391 173.765 70.8663C173.451 70.9763 173.17 71.1514 172.901 71.341C172.299 71.7448 171.541 71.7665 170.911 72.1109C170.275 72.4409 169.541 72.4611 168.852 72.603C167.264 72.8244 165.647 72.9821 164.047 72.7781C163.15 72.71 162.26 72.5726 161.376 72.4134C160.761 72.3135 160.244 71.9315 159.638 71.8041C158.843 71.6174 158.189 71.1153 157.451 70.7969C156.972 70.5784 156.642 70.1428 156.182 69.8967C155.406 69.4901 154.95 68.7072 154.372 68.0849C153.62 67.3338 153.225 66.3005 153.017 65.2773C152.628 63.5291 152.937 61.6377 153.852 60.1008C154.631 59.2412 155.227 58.176 156.259 57.5813C156.777 57.3019 157.152 56.8114 157.707 56.5943C158.046 56.4553 158.386 56.3106 158.693 56.1022C159.325 55.6869 160.111 55.6637 160.783 55.3367C161.522 54.972 162.366 54.9662 163.163 54.8229ZM164.463 59.8924C163.635 59.9879 162.797 60.1703 162.11 60.6652C161.144 61.0415 160.435 61.9098 160.124 62.8823C159.797 63.8707 160.072 64.9966 160.719 65.7954C161.401 66.7303 162.51 67.2021 163.592 67.5074C164.651 67.9271 165.826 67.904 166.939 67.7607C167.903 67.4582 168.936 67.2498 169.752 66.616C170.667 66.1153 171.234 65.1283 171.408 64.121C171.537 62.9648 170.94 61.8114 170.052 61.1022C169.385 60.8244 168.853 60.2802 168.14 60.1181C166.94 59.8215 165.688 59.7477 164.463 59.8924Z" fill="#DEDEDE"/>
<path d="M29.1588 54.9791C31.1125 54.7823 33.1038 54.8199 35.03 55.2106C36.0344 55.6448 37.1849 55.6607 38.1227 56.2613C38.7898 56.5203 39.4483 56.8098 39.9924 57.2859C40.6827 57.5594 41.1791 58.1122 41.7001 58.6187C42.0517 59.0891 42.606 59.3684 42.8795 59.9053C44.7565 62.5449 44.5105 66.4378 42.318 68.8199C41.5525 69.4581 40.9258 70.2801 40.0141 70.7287C39.4381 71.0037 38.9895 71.5088 38.3556 71.6622C37.8578 71.7866 37.4179 72.0529 36.9591 72.27C35.9692 72.5594 34.9475 72.7273 33.9331 72.9169C33.1632 73.1556 32.3499 73.1672 31.551 73.1672C30.6914 73.1672 29.8158 73.1947 28.9794 72.969C27.674 72.639 26.2558 72.6245 25.0734 71.9169C24.4164 71.7128 23.7594 71.4885 23.2297 71.0312C22.3209 70.6578 21.593 69.9719 20.92 69.2729C20.0112 68.5956 19.4584 67.5507 19.0373 66.5203C18.3441 65.3713 18.3542 63.9313 18.58 62.6462C18.6364 62.0992 19.0054 61.6636 19.1791 61.1542C19.5727 60.3481 19.9765 59.4957 20.6842 58.914C21.0792 58.5363 21.483 58.1701 21.8766 57.791C22.2399 57.4581 22.7218 57.3062 23.1082 57.0052C23.6523 56.5927 24.3281 56.4234 24.9186 56.0934C25.7363 55.6491 26.6943 55.6231 27.5394 55.2541C28.0575 55.063 28.6176 55.0515 29.1588 54.9791ZM29.5814 60.1658C28.8477 60.2859 28.195 60.6549 27.5452 60.9936C26.5886 61.5826 25.6378 62.4856 25.6422 63.6926C25.5394 64.5941 25.813 65.5392 26.4671 66.1788C26.9953 66.5189 27.3846 67.0616 27.991 67.2772C28.6147 67.4885 29.1921 67.8474 29.8549 67.9328C30.8723 68.0717 31.9114 68.0529 32.9287 67.9241C33.5611 67.859 34.0792 67.461 34.6784 67.2888C35.4005 67.0659 35.8737 66.448 36.3962 65.9444C37.3672 64.9791 37.3802 63.3467 36.6161 62.257C36.085 61.8257 35.7189 61.1918 35.0619 60.9299C34.5119 60.7085 34.0011 60.3886 33.428 60.228C32.1704 59.9429 30.8477 59.9371 29.5814 60.1658Z" fill="#DEDEDE"/>
<path d="M2.89685 56.2741C4.4627 55.6648 6.16892 55.6185 7.8216 55.4665C9.06762 55.3305 10.3165 55.4767 11.5582 55.5664C12.8969 55.7212 14.2659 55.8168 15.5336 56.3045C16.2673 56.5707 17.0589 56.6417 17.7796 56.9427C18.0705 57.0252 18.0025 57.3826 18.0271 57.6142C18.0401 59.3956 18.072 61.1771 18.0662 62.96C17.1385 62.6677 16.2818 62.1829 15.3325 61.96C14.6118 61.8153 13.9099 61.6055 13.2196 61.3609C13.2051 64.8718 13.2225 68.3826 13.2109 71.8935C10.6349 71.9108 8.05894 71.9181 5.48296 71.8906C5.46994 68.303 5.48875 64.7155 5.47283 61.1279C4.89685 61.2032 4.3093 61.2799 3.77384 61.5244C3.09222 61.837 2.32233 61.9195 1.67254 62.3059C1.18195 62.5982 0.649388 62.8037 0.147217 63.0744V57.3768C0.944612 56.7516 1.96198 56.5939 2.89685 56.2741Z" fill="#DEDEDE"/>
<path d="M93.4468 55.6377C96.6335 55.1746 99.9012 55.3772 103.039 56.0718C103.988 56.4814 105.026 56.6087 105.984 56.9879C106.026 58.9474 106.01 60.9083 106.036 62.8678C105.515 62.7346 104.997 62.5769 104.522 62.3207C103.671 61.888 102.683 61.8837 101.822 61.4842C101.577 61.3858 101.321 61.3308 101.068 61.2672C101.024 64.7911 101.076 68.3164 101.042 71.8417C98.5076 71.8649 95.9735 71.8533 93.441 71.8475C93.4193 68.2686 93.4352 64.6898 93.4338 61.1109C92.3267 61.1123 91.3353 61.6319 90.305 61.9575C89.5452 62.2035 88.894 62.6811 88.1588 62.985C88.0531 61.2455 88.1385 59.4987 88.1125 57.7578C88.0228 57.2006 88.59 56.9242 89.0271 56.778C89.6885 56.5812 90.3599 56.409 90.9895 56.1225C91.7854 55.8692 92.619 55.739 93.4468 55.6377Z" fill="#DEDEDE"/>
<path d="M183.675 56.0284C185.554 55.5306 187.513 55.6347 189.438 55.6261C191.311 55.6434 193.223 55.4958 195.046 56.0255C196.393 56.5175 197.829 56.9777 198.83 58.0689C199.639 58.7028 200.072 59.7259 200.147 60.7346V62.8576C199.858 63.4929 199.616 64.1905 199.079 64.6651C198.612 65.1644 198.14 65.668 197.576 66.0573C197.049 66.3279 196.473 66.4813 195.932 66.7143C196.369 67.2093 196.741 67.7693 197.257 68.1919C197.673 68.5465 197.991 68.998 198.346 69.4133C198.712 69.9083 199.243 70.2585 199.558 70.7954C198.911 71.0863 198.357 71.5378 197.728 71.8576C197.136 72.2353 196.493 72.5306 195.92 72.9343C195.389 73.3265 194.732 73.4973 194.214 73.9097C193.584 73.2614 192.871 72.6999 192.282 72.0125C191.88 71.5436 191.424 71.1253 190.95 70.7317C190.493 70.273 190.063 69.7881 189.6 69.3366C188.593 68.4466 187.73 67.4046 186.66 66.587C186.639 68.2469 186.661 69.9054 186.651 71.5653C184.117 71.587 181.583 71.6159 179.05 71.6116C179.069 67.2397 179.101 62.8677 179.12 58.4958C180.021 57.82 180.88 57.0298 181.968 56.6623C182.544 56.4698 183.097 56.2122 183.675 56.0284ZM188.946 59.82C188.364 59.9271 187.796 60.1196 187.276 60.4018C186.962 60.6608 186.702 60.9937 186.513 61.3554C186.33 61.8721 186.418 62.4814 186.752 62.9198C187.228 63.7274 188.251 63.8388 189.066 64.1109C189.911 64.4235 190.757 64.0182 191.579 63.8374C192.453 63.6087 193.279 62.7737 193.173 61.8214C193.231 61.1659 192.662 60.723 192.246 60.3106C191.249 59.7939 190.05 59.6405 188.946 59.82Z" fill="#DEDEDE"/>
<path d="M45.237 55.9271C53.7464 55.9025 62.2587 55.9227 70.7696 55.9169C71.8304 55.9343 72.9158 55.8475 73.9563 56.1007C74.5583 56.3511 75.1705 56.5783 75.771 56.8359C76.4382 57.2599 76.9606 57.8677 77.444 58.4871C77.9418 58.9589 78.1386 59.6347 78.2558 60.2903C78.6553 61.7346 79.0214 63.189 79.4063 64.6376C80.0156 65.9358 80.2168 67.3699 80.6147 68.7389C80.8492 69.697 81.1618 70.6362 81.3239 71.6116C78.8362 71.6101 76.347 71.6261 73.8608 71.6029C73.3991 70.969 73.2515 70.1919 72.9982 69.4669C72.6871 68.5609 72.3731 67.6565 72.0663 66.7505C71.9621 66.3699 71.6972 66.0646 71.567 65.6955C71.0344 64.147 70.5279 62.5884 69.9736 61.0472C68.2341 61.0559 66.4946 61.0544 64.7551 61.0486C65.0532 61.9213 65.2906 62.8113 65.5771 63.6868C65.7377 64.1803 66.0228 64.6203 66.1762 65.1152C66.6263 66.5826 67.0532 68.0573 67.5496 69.5088C67.8347 70.1499 68.169 70.7838 68.2443 71.4944C65.6437 71.4828 63.0417 71.5219 60.4411 71.4741C60.305 70.8822 60.1024 70.299 59.7812 69.7795C59.0561 68.0617 58.6538 66.2093 57.7797 64.5537C57.3673 63.4495 57.0257 62.3178 56.6017 61.218C56.5612 61.1789 56.4802 61.1022 56.4396 61.0631C55.2472 61.04 54.0547 61.0501 52.8637 61.0602C52.868 64.5363 52.8738 68.0125 52.8608 71.4886C50.8709 71.5088 48.881 71.4799 46.8912 71.5031C46.3383 71.5537 45.7841 71.5537 45.2341 71.4727C45.2443 66.2903 45.2399 61.108 45.237 55.9271Z" fill="#DEDEDE"/>
<path d="M115.058 56.3666C115.495 56.248 115.881 55.9325 116.356 55.9643C119.926 55.9629 123.496 55.9687 127.066 55.9614C127.162 57.9122 127.081 59.8688 127.108 61.8225C127.104 65.0815 127.114 68.342 127.102 71.6011C124.671 71.6199 122.238 71.6257 119.806 71.5982C119.794 70.342 119.819 69.0859 119.793 67.8312C117.372 67.8413 114.949 67.8283 112.528 67.837C112.447 69.0931 112.49 70.3522 112.473 71.6098C111.259 71.643 110.045 71.6228 108.83 71.6373C107.502 71.6025 106.17 71.7965 104.848 71.6213C104.823 70.5143 104.745 69.3869 104.987 68.2986C105.225 67.6344 105.257 66.9238 105.461 66.2509C105.735 65.0772 106.126 63.9238 106.689 62.8558C107.334 61.9614 107.871 60.9889 108.631 60.1828C109.311 59.6662 109.867 59.0048 110.55 58.4896C110.869 58.274 111.243 58.1467 111.541 57.8949C112.053 57.4723 112.722 57.3334 113.283 56.9947C113.829 56.672 114.451 56.5258 115.058 56.3666ZM116.011 60.7472C114.817 61.3637 113.926 62.5012 113.579 63.795C115.651 63.8037 117.725 63.7921 119.798 63.8008C119.804 62.7472 119.814 61.6923 119.793 60.6387C118.79 60.617 117.785 60.6373 116.783 60.6271C116.521 60.6286 116.244 60.6069 116.011 60.7472Z" fill="#DEDEDE"/>
<path d="M129.856 55.9614C132.399 55.9672 134.943 55.9658 137.487 55.9629C137.578 57.7197 137.502 59.4839 137.526 61.2436C137.525 64.6966 137.531 68.1496 137.523 71.6025C134.947 71.6156 132.37 71.6315 129.794 71.5938C129.787 66.6966 129.796 61.7979 129.79 56.8992C129.782 56.5837 129.82 56.2726 129.856 55.9614Z" fill="#DEDEDE"/>
<path d="M139.931 55.9227C142.468 55.9053 145.007 55.9271 147.545 55.9111C147.578 59.448 147.551 62.9849 147.558 66.5218C149.26 66.5349 150.963 66.5045 152.665 66.5363C152.745 68.2208 152.684 69.9097 152.7 71.5957C148.441 71.6289 144.18 71.6188 139.921 71.6C139.924 66.3742 139.905 61.1485 139.931 55.9227Z" fill="#DEDEDE"/>
</svg>
