<svg width="200" height="61" viewBox="0 0 200 61" fill="none" xmlns="http://www.w3.org/2000/svg">
<path d="M62.1656 0.315717C63.0143 0.263085 63.852 0.129315 64.6963 0.0394031C72.4418 0.0394031 80.1874 0.0240525 87.9307 0.0459822C88.8649 0.225805 89.8101 0.267471 90.7619 0.291594C93.3868 0.846413 96.1324 1.21045 98.4657 2.63149C100.885 3.93191 103.049 5.90558 104.049 8.51521C104.374 9.51081 104.985 10.4604 104.933 11.5437C104.913 12.3156 104.983 13.0963 104.867 13.8638C104.437 15.5612 103.83 17.2717 102.646 18.5985C100.374 21.6182 96.7837 23.3221 93.1873 24.1839C92.1785 24.3594 91.1785 24.6532 90.1456 24.6072C81.2203 24.6137 72.2949 24.6072 63.3696 24.6094C61.931 24.7256 61.1919 23.2366 60.2205 22.4449C60.5933 22.2475 60.9376 21.9186 61.3937 21.9712C69.0011 21.9625 76.6085 21.9646 84.2159 21.969C84.7773 21.9493 85.3584 22.0348 85.9088 21.8901C87.2487 21.3725 88.593 20.6379 89.3693 19.3791C90.2948 17.8792 91.2706 16.2673 91.343 14.4603C91.4241 14.0963 91.0886 13.8046 90.7377 13.866C85.3409 13.8551 79.944 13.8638 74.5471 13.8638C73.8059 13.9099 73.2225 13.3858 72.5888 13.0919C71.6633 12.5568 70.6765 12.1336 69.7752 11.5547C69.8454 11.0854 70.4155 11.002 70.8081 11.0064C76.9615 11.0042 83.1128 10.9998 89.2641 11.0064C89.9636 11.0218 90.6632 10.9933 91.3605 10.9538C91.4088 9.63142 90.8583 8.40337 90.3671 7.2082C89.8057 5.81348 88.7136 4.72796 87.5821 3.77841C87.0251 3.4056 86.4834 2.84201 85.7619 2.89683C77.2993 2.89903 68.8344 2.89026 60.3718 2.90341C60.3893 2.46482 60.3784 2.02403 60.4529 1.58983C60.9529 1.08106 61.5384 0.653433 62.1656 0.315717Z" fill="#DEDEDE"/>
<path d="M16.6574 0.0348174C23.6792 0.0392033 30.7033 0.0413962 37.7252 0.0348174C39.1089 -0.0550941 40.1685 0.0348563 41.8413 0.267271C43.1571 0.5699 44.5211 1.6291 44.4904 3.10716C35.951 3.17953 27.4095 3.10497 18.8701 3.14444C18.4819 3.19707 17.8021 3.29137 17.8657 3.82645C17.8701 9.70359 17.8547 15.5785 17.8744 21.4535C17.7516 22.0631 18.4358 22.1136 18.8613 22.1618C25.9577 22.1706 33.0519 22.1596 40.1484 22.1684C40.8479 22.1925 41.5256 21.993 42.2141 21.9096C42.2032 21.3526 42.2558 20.789 42.1769 20.2364C41.3786 19.1575 40.3414 18.2452 39.133 17.6531C38.0409 17.1005 37.0146 16.4338 35.9839 15.7803C33.2669 14.3176 30.4401 13.0391 27.9073 11.2584C34.0366 11.1926 40.1659 11.2628 46.2952 11.2255C47.2404 11.1444 48.0562 11.7036 48.9136 12.004C51.1921 12.8088 53.3654 13.8965 55.4158 15.1707C56.5824 15.9009 57.8609 16.9031 57.9991 18.3768C57.7118 19.8351 56.4487 20.8307 55.2469 21.5675C53.3632 22.6311 51.3566 23.4579 49.3172 24.1706C48.6922 24.3789 48.065 24.6508 47.3917 24.6114C31.6441 24.596 15.8964 24.6333 0.148726 24.5916C0.0741656 17.7978 0.153112 11.0018 0.109253 4.20803C2.4645 3.0633 4.79342 1.76945 7.36577 1.17516C9.20128 0.800162 14.7714 -0.0507082 16.6574 0.0348174Z" fill="#DEDEDE"/>
<path d="M106.852 3.0873C106.913 1.75179 107.988 0.58513 109.273 0.297852C109.979 0.192589 110.683 0.0259241 111.404 0.034696C126.902 0.0412749 142.402 0.036889 157.899 0.036889C158.779 0.0500468 159.669 -0.0354788 160.538 0.144344C161.318 0.319781 162.2 0.118029 162.867 0.664077C163.805 1.12898 164.259 2.11362 164.45 3.09388C159.125 3.19914 153.796 3.10923 148.47 3.13993C147.044 3.19256 145.566 2.93818 144.207 3.47984C144.237 10.46 144.204 17.4424 144.222 24.4248C143.753 24.5696 143.264 24.6266 142.777 24.6134C137.549 24.5959 132.321 24.6288 127.093 24.5959C127.077 17.6859 127.11 10.7758 127.077 3.8658C127.084 3.25177 126.334 3.23423 125.889 3.15528C119.545 3.08511 113.196 3.21669 106.852 3.0873Z" fill="#DEDEDE"/>
<path d="M0.00871768 32.0444H11.7167C11.7343 32.4755 11.7331 32.9065 11.7296 33.3375C8.62689 33.341 5.52421 33.3328 2.42153 33.341C2.42738 34.2851 2.42153 35.2279 2.42504 36.1708C4.98894 36.1731 7.55284 36.1685 10.1179 36.1731C10.8148 36.1802 11.6078 36.2938 12.0657 36.8818C12.5577 37.5365 12.6162 38.3986 12.6338 39.188C12.6256 40.0172 12.5834 40.9215 12.0821 41.6195C11.6312 42.2239 10.823 42.3457 10.1191 42.3492C6.74701 42.3539 3.37376 42.3504 0.00169008 42.3516C0.00637514 38.9151 -0.0088513 35.4798 0.00871768 32.0444ZM2.4227 37.4358C2.42504 38.6469 2.42387 39.8579 2.42387 41.069C4.55791 41.0807 6.69196 41.0702 8.82601 41.0749C9.20784 41.069 9.64823 41.0597 9.92934 40.7622C10.2444 40.3932 10.2081 39.8732 10.221 39.4199C10.2034 38.9045 10.2795 38.347 10.0219 37.875C9.80636 37.5049 9.33785 37.4393 8.94899 37.4358C6.77395 37.4311 4.59891 37.4334 2.4227 37.4358Z" fill="#DEDEDE"/>
<path d="M14.502 35.4937C15.227 34.7863 16.3046 34.7406 17.2568 34.7324C18.5874 34.7488 19.9203 34.6996 21.2497 34.7629C22.1071 34.7945 23.0382 35.0967 23.5208 35.8545C24.1333 36.8184 24.0924 38.0084 24.1123 39.1059C21.3949 39.1071 18.6788 39.1059 15.9626 39.1071C15.979 39.6506 15.9638 40.262 16.328 40.707C16.6431 41.0819 17.169 41.1275 17.6258 41.1322C19.6111 41.1334 21.5964 41.1322 23.5817 41.1334C23.5817 41.5386 23.5817 41.9451 23.5829 42.3503C21.3598 42.348 19.1356 42.3609 16.9125 42.3445C15.993 42.3363 14.9518 42.1758 14.3334 41.4203C13.6482 40.5688 13.6201 39.4093 13.6259 38.3657C13.6505 37.3654 13.7559 36.241 14.502 35.4937ZM17.5297 35.954C17.1034 35.9634 16.622 36.0267 16.328 36.371C15.9778 36.7915 15.9813 37.3713 15.9626 37.8902C17.8964 37.8913 19.8301 37.8878 21.7639 37.8913C21.7463 37.3666 21.7522 36.7763 21.3938 36.3523C21.0904 36.0126 20.6055 35.9634 20.1768 35.954C19.2948 35.9494 18.4117 35.9482 17.5297 35.954Z" fill="#DEDEDE"/>
<path d="M38.8655 34.8286C40.1293 34.6565 41.4095 34.7631 42.6815 34.7338C43.7403 34.7549 44.8952 34.633 45.8415 35.2093C46.5654 35.6474 46.8828 36.5012 46.9952 37.3012C47.1018 38.1644 47.1018 39.0417 46.9964 39.9049C46.8886 40.6557 46.6146 41.4486 45.9786 41.9113C45.3332 42.3915 44.4993 42.4641 43.7227 42.4794C42.5561 42.4887 41.3884 42.4805 40.2218 42.4829C39.3949 42.47 38.5059 42.4512 37.7938 41.9734C37.132 41.5447 36.8204 40.7611 36.7033 40.0103C36.5827 39.1658 36.585 38.305 36.667 37.4558C36.7584 36.705 36.9879 35.9074 37.5841 35.3979C37.9449 35.0887 38.4028 34.9165 38.8655 34.8286ZM40.4912 35.9554C40.0121 35.9589 39.4488 36.069 39.1993 36.5258C38.8608 37.163 38.9744 37.9126 38.951 38.6048C38.9732 39.2959 38.8631 40.042 39.1969 40.6791C39.4417 41.1383 40.0004 41.2577 40.4795 41.2612C41.4235 41.2648 42.3676 41.273 43.3116 41.2566C43.793 41.2519 44.34 41.0703 44.5379 40.5901C44.8272 39.8873 44.7066 39.1073 44.7347 38.367C44.7183 37.7346 44.7968 37.0423 44.4583 36.4754C44.1795 36.0327 43.6114 35.9566 43.1312 35.9531C42.2516 35.9507 41.3708 35.9472 40.4912 35.9554Z" fill="#DEDEDE"/>
<path d="M89.5274 35.3356C90.2899 34.7476 91.3007 34.743 92.2201 34.7324C93.5108 34.7488 94.8039 34.6996 96.0947 34.7629C96.9509 34.7957 97.882 35.0967 98.3646 35.8533C98.9771 36.8173 98.9362 38.0084 98.9561 39.1059C96.2399 39.1071 93.5237 39.1059 90.8076 39.1071C90.8205 39.6517 90.8076 40.2631 91.173 40.7094C91.4857 41.0807 92.0081 41.1275 92.4626 41.1322C94.4502 41.1346 96.4378 41.1322 98.4266 41.1334C98.4255 41.5386 98.4255 41.9451 98.4266 42.3515C96.4753 42.3527 94.524 42.3503 92.5738 42.3515C91.6755 42.3398 90.7232 42.3948 89.8952 41.9837C89.2955 41.7003 88.8785 41.1264 88.6946 40.5009C88.4194 39.5791 88.4451 38.5999 88.506 37.65C88.5798 36.8032 88.8223 35.8791 89.5274 35.3356ZM92.3735 35.954C91.946 35.9634 91.4623 36.0267 91.1695 36.3745C90.8205 36.795 90.824 37.3736 90.8064 37.8902C92.7402 37.8913 94.6739 37.889 96.6088 37.8913C96.5901 37.3678 96.596 36.7798 96.2411 36.3558C95.9365 36.0126 95.4469 35.9634 95.0159 35.954C94.1351 35.9505 93.2543 35.9482 92.3735 35.954Z" fill="#DEDEDE"/>
<path d="M126.392 35.8849C126.792 35.2278 127.549 34.8893 128.289 34.7991C129.226 34.6937 130.17 34.7452 131.111 34.7335C132.04 34.7452 132.973 34.6925 133.898 34.805C134.638 34.9045 135.387 35.2606 135.774 35.9259C136.338 36.8816 136.3 38.0341 136.32 39.1058C133.602 39.107 130.886 39.1058 128.17 39.107C128.185 39.6505 128.171 40.2607 128.534 40.707C128.848 41.0806 129.37 41.1275 129.826 41.1321C131.814 41.1345 133.802 41.131 135.79 41.1333C135.788 41.5386 135.789 41.945 135.79 42.3503C133.759 42.3526 131.728 42.3503 129.698 42.3526C128.696 42.3456 127.567 42.3561 126.768 41.6545C125.985 40.9518 125.853 39.8285 125.833 38.8365C125.831 37.8362 125.848 36.7621 126.392 35.8849ZM128.532 36.3745C128.184 36.7949 128.187 37.3735 128.17 37.8901C130.104 37.8912 132.037 37.8877 133.971 37.8912C133.955 37.3923 133.958 36.8465 133.657 36.4213C133.388 36.0512 132.901 35.9692 132.474 35.9563C131.589 35.9446 130.703 35.9528 129.819 35.9528C129.366 35.9587 128.846 36.0043 128.532 36.3745Z" fill="#DEDEDE"/>
<path d="M151.897 35.6109C152.546 34.866 153.6 34.7454 154.53 34.7372C155.901 34.7407 157.272 34.7091 158.642 34.7559C159.535 34.7758 160.524 35.0616 161.028 35.8557C161.64 36.8185 161.599 38.0085 161.619 39.106C158.901 39.1072 156.185 39.106 153.47 39.1072C153.483 39.6483 153.47 40.2562 153.83 40.7024C154.142 41.0808 154.67 41.1276 155.129 41.1323C157.115 41.1346 159.102 41.1323 161.089 41.1335C161.087 41.5387 161.088 41.9452 161.089 42.3504C159.175 42.3528 157.263 42.3516 155.35 42.3516C154.26 42.3387 153.029 42.4312 152.124 41.705C151.26 40.9812 151.143 39.7654 151.129 38.7136C151.138 37.6513 151.173 36.4636 151.897 35.6109ZM155.034 35.9541C154.606 35.9635 154.124 36.0279 153.832 36.3734C153.483 36.7939 153.487 37.3725 153.469 37.8902C155.403 37.8914 157.336 37.8879 159.27 37.8914C159.253 37.3667 159.259 36.7752 158.9 36.3512C158.594 36.0127 158.111 35.9635 157.683 35.9541C156.8 35.9506 155.917 35.9483 155.034 35.9541Z" fill="#DEDEDE"/>
<path d="M25.2097 34.8647C28.5373 34.8647 31.8648 34.8647 35.1912 34.8647C35.1924 35.2712 35.1924 35.6764 35.1912 36.0829C33.9181 36.0864 32.6449 36.0782 31.3717 36.0875C31.3776 38.1747 31.3741 40.2631 31.3741 42.3515C30.5917 42.3515 29.8093 42.3515 29.0269 42.3515C29.0269 40.2631 29.0245 38.1747 29.028 36.0864C27.756 36.0782 26.4829 36.0852 25.2097 36.0829C25.2097 35.6764 25.2097 35.2712 25.2097 34.8647Z" fill="#DEDEDE"/>
<path d="M49.1351 34.8661C49.9175 34.8638 50.6999 34.8649 51.4835 34.8649C51.4835 35.8429 51.4835 36.8209 51.4835 37.799C53.0964 37.8025 54.7104 37.7966 56.3232 37.8025C56.3349 36.8233 56.3244 35.8441 56.329 34.8649C57.1115 34.8661 57.895 34.8614 58.6774 34.8673C58.6739 37.3621 58.6774 39.8569 58.6763 42.3517C57.8939 42.3517 57.1103 42.3517 56.329 42.3517C56.3255 41.239 56.3337 40.1274 56.3244 39.0159C54.7104 39.0241 53.0952 39.0136 51.4823 39.0218C51.4859 40.1309 51.4824 41.2413 51.4835 42.3517C50.6999 42.3517 49.9175 42.3528 49.1351 42.3505C49.1363 39.8557 49.1363 37.3609 49.1351 34.8661Z" fill="#DEDEDE"/>
<path d="M61.082 34.8661C61.8644 34.8638 62.6468 34.8649 63.4304 34.8649C63.4304 35.8429 63.4304 36.8209 63.4304 37.799C65.0456 37.8013 66.6619 37.8001 68.2771 37.8001C68.2724 36.8209 68.2759 35.8429 68.2759 34.8649C69.0583 34.8661 69.8419 34.8614 70.6243 34.8673C70.6208 37.3621 70.6243 39.8569 70.6232 42.3517C69.8408 42.3517 69.0572 42.3517 68.2759 42.3517C68.2724 41.239 68.2818 40.1274 68.2701 39.0159C66.6561 39.0253 65.0421 39.0136 63.4281 39.0218C63.4328 40.1309 63.4292 41.2413 63.4304 42.3517C62.6468 42.3517 61.8644 42.3528 61.082 42.3505C61.0832 39.8557 61.0844 37.3609 61.082 34.8661Z" fill="#DEDEDE"/>
<path d="M73.0289 34.8653C73.8113 34.8641 74.5937 34.8653 75.3773 34.8653C75.3785 35.7121 75.3761 36.5589 75.3785 37.4057C76.9304 37.4081 78.4835 37.4011 80.0354 37.4093C80.8155 37.4315 81.6717 37.4819 82.3171 37.9738C82.8863 38.4283 83.0023 39.2107 83.0046 39.8947C83.0011 40.6045 82.8547 41.4208 82.2269 41.8507C81.5546 42.3005 80.7077 42.3333 79.9253 42.3508C77.6261 42.3532 75.3281 42.352 73.0289 42.3508C73.0301 39.856 73.0301 37.3612 73.0289 34.8653ZM75.3773 38.6239C75.3773 39.4613 75.375 40.2976 75.3797 41.1351C76.702 41.1292 78.0255 41.1386 79.3479 41.1304C79.7555 41.121 80.2275 41.0496 80.4887 40.6982C80.7382 40.3245 80.6644 39.8408 80.641 39.4168C80.5801 38.8487 79.957 38.6274 79.4603 38.6309C78.0993 38.6133 76.7383 38.6285 75.3773 38.6239Z" fill="#DEDEDE"/>
<path d="M84.156 34.8653C84.9384 34.8641 85.7208 34.8653 86.5044 34.8653C86.5044 37.3612 86.5044 39.856 86.5044 42.352C85.7208 42.352 84.9384 42.3532 84.156 42.3508C84.1572 39.856 84.1572 37.3612 84.156 34.8653Z" fill="#DEDEDE"/>
<path d="M103.611 34.8671C105.553 34.8671 107.495 34.8542 109.435 34.873C110.35 34.8835 111.386 35.0522 111.995 35.8088C112.64 36.6275 112.686 37.7262 112.692 38.7241C112.67 39.6962 112.584 40.7738 111.893 41.5246C111.239 42.2203 110.226 42.3374 109.323 42.3468C107.42 42.3562 105.515 42.3515 103.611 42.3492C103.613 41.9427 103.612 41.5375 103.614 41.131C105.316 41.1334 107.018 41.1334 108.72 41.1322C109.173 41.1264 109.695 41.0736 110.002 40.6953C110.34 40.2643 110.333 39.6857 110.356 39.1668C108.435 39.1633 106.515 39.1657 104.596 39.1657C104.595 38.7616 104.596 38.3575 104.593 37.9534C106.513 37.9417 108.434 37.9522 110.354 37.9475C110.33 37.4591 110.321 36.918 110 36.5174C109.692 36.145 109.175 36.0911 108.724 36.0852C107.02 36.0805 105.316 36.0841 103.613 36.0829C103.612 35.6776 103.613 35.2724 103.611 34.8671Z" fill="#DEDEDE"/>
<path d="M116.358 34.8638C118.862 34.8661 121.366 34.8638 123.871 34.8649C123.871 37.3609 123.871 39.8557 123.871 42.3517C123.088 42.3517 122.305 42.3528 121.523 42.3505C121.525 40.2621 121.523 38.1738 121.524 36.0842C120.171 36.0854 118.82 36.0772 117.467 36.0889C117.299 37.4733 117.119 38.8578 116.943 40.2411C116.84 40.9157 116.76 41.7555 116.099 42.1268C115.374 42.4653 114.546 42.3165 113.774 42.3517C113.773 41.896 113.771 41.4404 113.775 40.9848C114.236 40.9719 114.708 41.0328 115.163 40.9286C115.601 40.7951 115.65 40.2809 115.718 39.899C115.939 38.2218 116.14 36.5422 116.358 34.8638Z" fill="#DEDEDE"/>
<path d="M138.268 34.865C139.091 34.865 139.912 34.865 140.734 34.865C141.759 36.6301 142.775 38.4011 143.807 40.1626C144.813 38.3975 145.855 36.6512 146.849 34.8791C147.623 34.8463 148.399 34.8732 149.174 34.865C149.174 37.361 149.174 39.8558 149.174 42.3517C148.39 42.3517 147.608 42.3541 146.826 42.3506C146.827 40.6405 146.829 38.9305 146.824 37.2204C145.826 38.9223 144.863 40.644 143.874 42.3517C143.408 42.3506 142.943 42.3529 142.478 42.3494C141.503 40.6429 140.536 38.9316 139.548 37.2321C139.543 38.9387 139.547 40.6452 139.546 42.3517C139.119 42.3517 138.693 42.3529 138.268 42.3506C138.269 39.8558 138.269 37.3598 138.268 34.865Z" fill="#DEDEDE"/>
<path d="M163.568 34.8661C164.35 34.8638 165.133 34.8649 165.916 34.8649C165.916 35.8429 165.915 36.821 165.916 37.799C167.528 37.8036 169.141 37.7954 170.753 37.8036C170.772 36.8233 170.753 35.8429 170.763 34.8638C171.544 34.8673 172.328 34.8614 173.11 34.8673C173.107 37.3609 173.108 39.8557 173.11 42.3493C172.326 42.354 171.543 42.3505 170.76 42.3517C170.758 41.2401 170.765 40.1286 170.758 39.0171C169.143 39.0229 167.529 39.0147 165.915 39.0206C165.917 40.131 165.915 41.2413 165.916 42.3517C165.133 42.3517 164.35 42.3528 163.568 42.3505C163.569 39.8557 163.569 37.3609 163.568 34.8661Z" fill="#DEDEDE"/>
<path d="M174.78 34.8647C178.108 34.8647 181.434 34.8647 184.762 34.8647C184.762 35.2712 184.762 35.6764 184.762 36.0829C183.489 36.0864 182.215 36.0782 180.943 36.0864C180.947 38.1747 180.943 40.2631 180.946 42.3503C180.162 42.3526 179.38 42.3515 178.597 42.3515C178.599 40.2631 178.595 38.1747 178.6 36.0864C177.325 36.0782 176.053 36.0864 174.78 36.0829C174.779 35.6764 174.779 35.2712 174.78 34.8647Z" fill="#DEDEDE"/>
<path d="M186.525 34.8662C187.307 34.8639 188.089 34.865 188.873 34.865C188.873 35.7119 188.871 36.5587 188.874 37.4055C190.427 37.4079 191.98 37.4008 193.534 37.409C194.289 37.4289 195.104 37.4805 195.747 37.922C196.363 38.3624 196.5 39.1765 196.5 39.8839C196.498 40.5972 196.353 41.4194 195.721 41.8516C195.048 42.3002 194.201 42.333 193.42 42.3506C191.121 42.3529 188.823 42.3529 186.525 42.3506C186.526 39.8558 186.526 37.361 186.525 34.8662ZM188.873 38.6248C188.874 39.4611 188.87 40.2974 188.875 41.1348C190.233 41.1266 191.593 41.1442 192.95 41.1266C193.441 41.1243 194.043 40.9041 194.131 40.3548C194.164 39.9296 194.229 39.4517 194.004 39.0664C193.69 38.6283 193.087 38.626 192.602 38.6225C191.358 38.6248 190.116 38.6213 188.873 38.6248Z" fill="#DEDEDE"/>
<path d="M197.652 34.8662C198.434 34.8639 199.216 34.865 200 34.865C200 37.361 200 39.8558 200 42.3518C199.216 42.3518 198.434 42.3529 197.652 42.3506C197.653 39.8558 197.653 37.361 197.652 34.8662Z" fill="#DEDEDE"/>
<path d="M71.9921 49.7523C73.3707 49.5754 74.7657 49.6925 76.1525 49.6574C77.1961 49.6668 78.3791 49.6094 79.2271 50.3297C80.0844 51.0957 80.1723 52.3372 80.1957 53.4125C80.1852 54.4889 80.1524 55.6953 79.411 56.5526C78.7422 57.3011 77.6704 57.4006 76.7299 57.4065C75.4029 57.3994 74.0758 57.4287 72.7499 57.3889C71.902 57.3713 70.9673 57.1476 70.4238 56.446C69.8124 55.6531 69.7503 54.606 69.7292 53.6432C69.7363 52.6863 69.7644 51.6638 70.2786 50.8216C70.6405 50.2161 71.3128 49.8682 71.9921 49.7523ZM73.6061 50.8802C73.1283 50.8837 72.5696 50.995 72.3213 51.4482C71.9957 52.0491 72.0893 52.7589 72.0718 53.4136C72.094 54.1152 71.9863 54.8555 72.2721 55.5184C72.4759 56.001 73.0287 56.179 73.516 56.1825C74.4612 56.1966 75.4076 56.1907 76.3551 56.1848C76.833 56.1813 77.394 56.0478 77.6259 55.5805C77.9211 54.982 77.8379 54.2909 77.8555 53.6444C77.8309 52.9451 77.9375 52.2072 77.6587 51.5443C77.4584 51.0606 76.9009 50.8884 76.4207 50.8837C75.4813 50.8685 74.5432 50.8755 73.6061 50.8802Z" fill="#DEDEDE"/>
<path d="M0.00135246 49.79C3.32892 49.79 6.65531 49.79 9.98288 49.79C9.98288 50.1965 9.9817 50.6017 9.98288 51.0082C8.70971 51.0105 7.43655 51.0035 6.16455 51.0117C6.16924 53.0989 6.16221 55.1861 6.16807 57.2733C5.38449 57.2803 4.60091 57.2744 3.8185 57.2768C3.8185 55.1884 3.81616 53.1 3.81968 51.0117C2.54651 51.0046 1.27335 51.0105 0.00135246 51.0082C-0.00099007 50.6017 0.000181195 50.1965 0.00135246 49.79Z" fill="#DEDEDE"/>
<path d="M11.6284 49.7905C13.5739 49.7882 15.5217 49.7894 17.4683 49.7894C18.6021 49.8198 19.8366 49.6582 20.8638 50.252C21.7458 50.772 22.0421 51.8578 22.0902 52.8182C22.1382 53.9509 22.1698 55.1924 21.5291 56.1821C20.9798 57.0055 19.9268 57.2527 18.9945 57.262C17.3219 57.2948 15.6482 57.2655 13.9756 57.2773C13.978 58.2553 13.9756 59.2333 13.9768 60.2101C13.1932 60.2113 12.4108 60.2113 11.6296 60.2113C11.6284 56.7373 11.6308 53.2633 11.6284 49.7905ZM13.9791 51.0063C13.9745 52.6906 13.9756 54.3749 13.9791 56.0591C15.3999 56.0533 16.8218 56.0638 18.2437 56.0545C18.6958 56.0463 19.2241 55.9549 19.49 55.5414C19.8355 54.9781 19.7593 54.2847 19.7757 53.6534C19.7523 52.9658 19.8577 52.2244 19.5298 51.5896C19.2826 51.1293 18.7181 51.0157 18.2402 51.0122C16.8195 51.0016 15.3999 51.0133 13.9791 51.0063Z" fill="#DEDEDE"/>
<path d="M24.3239 49.7886C26.137 49.7897 27.9513 49.7897 29.7656 49.7886C30.7565 49.8097 31.8505 49.778 32.6996 50.3742C33.3649 50.8486 33.5312 51.7176 33.5476 52.4837C33.5652 54.0813 33.55 55.6789 33.5558 57.2765C31.6291 57.2765 29.7024 57.2765 27.7768 57.2765C26.6852 57.2495 25.5151 57.3936 24.5101 56.8806C23.9128 56.596 23.6258 55.9237 23.593 55.2935C23.5462 54.606 23.6223 53.8072 24.1716 53.3211C24.8135 52.7905 25.6908 52.7226 26.4907 52.7015C28.0638 52.6886 29.6379 52.7003 31.2121 52.6957C31.1922 52.2435 31.1969 51.7282 30.8654 51.3768C30.5433 51.0582 30.0619 51.0231 29.6356 51.0102C27.8646 51.0043 26.0937 51.0102 24.3227 51.0079C24.3216 50.6014 24.3216 50.195 24.3239 49.7886ZM26.1007 54.3214C25.8758 54.6411 25.8794 55.0757 25.9941 55.4364C26.1733 55.9096 26.7297 56.0478 27.1876 56.0537C28.5276 56.0607 29.8687 56.0607 31.2098 56.0537C31.2051 55.3404 31.2074 54.6282 31.2074 53.9149C29.905 53.9138 28.6014 53.9126 27.2989 53.9161C26.8761 53.9243 26.383 53.9653 26.1007 54.3214Z" fill="#DEDEDE"/>
<path d="M35.7566 49.7897C36.539 49.7886 37.3214 49.7897 38.105 49.7897C38.105 50.7678 38.1038 51.7458 38.105 52.7238C39.719 52.7261 41.333 52.7238 42.947 52.7249C42.9529 51.7469 42.9458 50.7678 42.9505 49.7886C43.7329 49.7921 44.5153 49.7862 45.2989 49.7921C45.2966 52.2857 45.2942 54.7782 45.3001 57.2718C44.5165 57.2812 43.7329 57.2741 42.9505 57.2765C42.947 56.1649 42.9529 55.0534 42.947 53.9419C41.3318 53.9466 39.7178 53.9407 38.1038 53.9454C38.105 55.0558 38.1038 56.1661 38.105 57.2765C37.3214 57.2765 36.539 57.2776 35.7566 57.2753C35.7578 54.7805 35.7578 52.2857 35.7566 49.7897Z" fill="#DEDEDE"/>
<path d="M48.0315 50.7092C48.6546 49.9596 49.6947 49.8062 50.6141 49.7968C52.5397 49.7804 54.4664 49.7944 56.3932 49.7898C56.392 50.1962 56.392 50.6014 56.3932 51.0079C54.6972 51.009 53.0023 51.0067 51.3075 51.009C50.8566 51.0149 50.3447 51.0582 50.0285 51.4166C49.6935 51.8008 49.6701 52.3408 49.6572 52.8245C49.6572 53.4125 49.6385 54.0016 49.6736 54.5896C49.7029 55.0101 49.8013 55.4739 50.1444 55.7562C50.4701 56.0221 50.9116 56.0513 51.3169 56.0572C53.0082 56.0595 54.7007 56.0572 56.3932 56.0584C56.392 56.4636 56.392 56.8701 56.3932 57.2765C54.6597 57.2777 52.9274 57.2753 51.1951 57.2777C50.1936 57.2695 49.0657 57.2859 48.2622 56.5936C47.4681 55.8921 47.3369 54.7571 47.317 53.7603C47.3123 52.7179 47.3416 51.5584 48.0315 50.7092Z" fill="#DEDEDE"/>
<path d="M58.1278 49.7907C61.3078 49.7895 64.489 49.7872 67.6701 49.7919C67.6666 52.2867 67.669 54.7803 67.669 57.2751C66.8854 57.2774 66.103 57.2763 65.3217 57.2763C65.3206 55.1867 65.3217 53.0972 65.3206 51.0076C63.7066 51.0065 62.0926 51.01 60.4785 51.0065C60.4715 53.096 60.4774 55.1855 60.4762 57.2763C59.6926 57.2763 58.9102 57.2774 58.1278 57.2751C58.129 54.7803 58.129 52.2855 58.1278 49.7907Z" fill="#DEDEDE"/>
<path d="M82.2559 49.7897C84.4754 49.7886 86.6938 49.7909 88.9133 49.7886C89.8058 49.7991 90.7698 49.7886 91.551 50.2899C92.2468 50.7279 92.563 51.5513 92.6708 52.3314C92.7703 53.1548 92.7703 53.9911 92.659 54.8121C92.5419 55.5887 92.1976 56.3969 91.4936 56.8091C90.6878 57.2976 89.711 57.2671 88.8044 57.2776C87.4036 57.2765 86.0027 57.2741 84.6031 57.2776C84.6043 58.2557 84.6031 59.2337 84.6043 60.2117C83.8207 60.2117 83.0383 60.2117 82.257 60.2117C82.2559 56.7377 82.257 53.2637 82.2559 49.7897ZM84.6043 51.009C84.6054 52.6921 84.6007 54.3764 84.6066 56.0595C86.0273 56.0525 87.4492 56.0642 88.8712 56.0548C89.3526 56.0525 89.923 55.9319 90.1654 55.4622C90.484 54.8285 90.3786 54.0918 90.4032 53.4078C90.3833 52.7484 90.4723 52.0023 90.0553 51.4412C89.6911 51.009 89.0785 51.0102 88.5643 51.0079C87.2431 51.009 85.9231 51.0067 84.6043 51.009Z" fill="#DEDEDE"/>
<path d="M93.9369 49.79C97.2645 49.79 100.591 49.79 103.918 49.79C103.917 50.1965 103.917 50.6017 103.918 51.0082C102.645 51.0117 101.372 51.0023 100.099 51.0128C100.107 53.0989 100.095 55.1849 100.105 57.2721C99.3189 57.2779 98.533 57.2838 97.7482 57.2686C97.7611 55.1825 97.7494 53.0965 97.7553 51.0105C96.4821 51.0046 95.2089 51.0105 93.9369 51.0082C93.9346 50.6017 93.9346 50.1965 93.9369 49.79Z" fill="#DEDEDE"/>
<path d="M105.61 49.7886C107.422 49.7897 109.235 49.7897 111.048 49.7886C111.795 49.7933 112.558 49.8038 113.28 50.0228C113.791 50.1809 114.268 50.5089 114.518 50.9938C114.805 51.5572 114.833 52.2061 114.842 52.8268C114.84 54.3097 114.84 55.7925 114.842 57.2765C112.521 57.2753 110.201 57.28 107.882 57.2741C107.083 57.2566 106.218 57.2097 105.549 56.7236C105.033 56.3383 104.868 55.6554 104.866 55.0429C104.858 54.4057 104.984 53.6783 105.524 53.2672C106.199 52.7624 107.082 52.7156 107.895 52.698C109.429 52.6921 110.964 52.6992 112.498 52.6957C112.478 52.2435 112.483 51.7294 112.152 51.378C111.827 51.0559 111.342 51.0231 110.912 51.0102C109.145 51.0043 107.376 51.0102 105.609 51.0079C105.606 50.6014 105.606 50.195 105.61 49.7886ZM107.275 54.5287C107.138 54.9679 107.173 55.5559 107.597 55.8276C108.065 56.1228 108.644 56.0455 109.173 56.0584C110.28 56.0537 111.388 56.0654 112.497 56.0525C112.49 55.3404 112.494 54.6271 112.493 53.9149C111.151 53.9173 109.808 53.9079 108.466 53.9196C108.011 53.9267 107.445 54.0473 107.275 54.5287Z" fill="#DEDEDE"/>
</svg>
