<svg width="201" height="89" viewBox="0 0 201 89" fill="none" xmlns="http://www.w3.org/2000/svg">
<g clip-path="url(#clip0_914_6666)">
<path d="M0.886192 0.209812C30.5549 0.20825 60.2221 0.206687 89.8909 0.209812C89.8924 29.7239 89.8909 59.2364 89.8909 88.7505H0.886192C0.886192 59.2364 0.88463 29.7223 0.886192 0.209812ZM16.7971 12.3114C16.7956 14.202 16.7956 16.0911 16.7971 17.9817C20.5159 17.9848 24.2346 17.9817 27.9534 17.9833C27.9534 23.2895 27.9534 28.5942 27.9534 33.8989C23.2878 33.9004 18.6237 33.8973 13.9581 33.9004C13.9565 35.7145 13.9565 37.5286 13.9581 39.3426C22.4206 39.3426 30.8831 39.3442 39.3456 39.3426C39.3471 37.5286 39.3471 35.7145 39.3456 33.9004C37.4503 33.8973 35.5549 33.9004 33.6596 33.8989C33.6565 26.702 33.6628 19.5067 33.6565 12.3098C28.0378 12.3098 22.4174 12.3083 16.7971 12.3114ZM54.2893 12.3114C54.2878 14.202 54.2878 16.0926 54.2893 17.9833C60.8487 17.9833 67.4065 17.9864 73.9659 17.9817C73.9659 16.0911 73.969 14.2004 73.9643 12.3114C67.4065 12.3114 60.8471 12.3083 54.2893 12.3114ZM51.4518 33.8942C51.4503 35.7114 51.4503 37.527 51.4518 39.3426C59.8315 39.3426 68.2112 39.3473 76.5909 39.3411C76.5878 37.5254 76.5909 35.7098 76.5893 33.8942C68.2096 33.8926 59.8315 33.8926 51.4518 33.8942ZM13.8909 63.3114C15.7862 63.3145 17.6799 63.3114 19.5753 63.3129C20.1487 60.6223 20.7128 57.9301 21.2893 55.2395C25.019 55.2411 28.7487 55.2379 32.4768 55.2411C31.3628 60.5395 30.244 65.8364 29.1284 71.1348C23.4987 71.1364 17.869 71.1348 12.2393 71.1348C11.8565 73.0333 11.4799 74.9333 11.1018 76.8333C18.6221 76.8348 26.1424 76.8333 33.6612 76.8333C35.5549 67.8161 37.4549 58.8004 39.3471 49.7817C31.8299 49.7817 24.3143 49.7817 16.7971 49.7817C15.8253 54.2911 14.8565 58.802 13.8909 63.3114ZM51.4518 49.7864C51.4503 58.8051 51.4503 67.8223 51.4534 76.8395C59.8315 76.8395 68.2096 76.8411 76.5878 76.8395C76.5924 67.8223 76.5893 58.8036 76.5893 49.7864C68.2096 49.7848 59.8315 49.7848 51.4518 49.7864Z" fill="#DEDEDE"/>
<path d="M111.961 0.209666C141.556 0.204979 171.152 0.209666 200.747 0.208104V88.7503H111.961C111.961 59.2363 111.96 29.7237 111.961 0.209666ZM123.264 12.3034C123.264 18.5675 123.263 24.8315 123.266 31.094C123.267 33.6191 124.33 36.1362 126.196 37.8472C127.914 39.4628 130.272 40.3347 132.622 40.3378C134.971 40.33 137.328 39.4472 139.027 37.8097C140.853 36.0862 141.858 33.5831 141.867 31.0847C141.871 24.8237 141.869 18.5644 141.867 12.3034C140.044 12.3019 138.219 12.3019 136.396 12.3034C136.394 18.5097 136.397 24.7175 136.394 30.9237C136.435 32.3425 135.647 33.7628 134.375 34.4159C133.203 35.0612 131.674 34.9972 130.564 34.2487C129.45 33.5519 128.789 32.2378 128.822 30.9331C128.821 24.7222 128.825 18.5128 128.821 12.3019C126.967 12.3034 125.116 12.3019 123.264 12.3034ZM149.471 12.3034C149.469 21.6425 149.469 30.9831 149.471 40.3222C151.363 40.3237 153.253 40.3237 155.146 40.3222C155.149 34.9753 155.142 29.6284 155.149 24.28C157.606 29.6253 160.05 34.9769 162.506 40.3222C164.403 40.3237 166.299 40.3253 168.196 40.3222C168.196 30.9815 168.199 21.6425 168.194 12.3019C166.297 12.3034 164.402 12.3003 162.506 12.3034C162.505 17.6425 162.508 22.9815 162.503 28.3206C160.044 22.9847 157.603 17.6394 155.144 12.3034C153.253 12.3034 151.361 12.3019 149.471 12.3034ZM177.48 12.3112C177.478 21.6519 177.478 30.9925 177.48 40.3347C179.378 40.3378 181.277 40.3347 183.175 40.3347C183.18 30.9941 183.178 21.6519 183.177 12.3112C181.277 12.3112 179.378 12.3097 177.48 12.3112ZM149.471 48.8284C149.471 58.1659 149.469 67.5034 149.472 76.8409C155.713 76.8409 161.955 76.8425 168.197 76.8394C168.197 74.9409 168.197 73.0425 168.196 71.1425C163.846 71.1394 159.497 71.1441 155.147 71.1409C155.146 63.7034 155.147 56.2659 155.146 48.8269C153.253 48.8253 151.363 48.8237 149.471 48.8284ZM127.303 50.4566C124.847 52.105 123.286 54.9941 123.264 57.955C123.258 61.0347 123.266 64.1144 123.261 67.1941C123.119 70.4316 124.836 73.6441 127.571 75.3659C129.585 76.655 132.091 77.1378 134.438 76.6613C135.099 78.6081 135.738 80.5613 136.394 82.5097C138.217 82.5113 140.041 82.5113 141.864 82.5097C141.005 79.7034 140.136 76.9003 139.275 74.0941C140.875 72.23 141.917 69.8206 141.867 67.3378C141.866 64.9441 141.867 62.5519 141.866 60.1597C141.852 58.6862 141.964 57.1847 141.564 55.7472C140.828 52.7519 138.474 50.2191 135.531 49.2878C132.803 48.3909 129.666 48.8128 127.303 50.4566ZM178.742 48.955C176.814 49.2706 174.996 50.2253 173.644 51.6378C172.006 53.3128 171.08 55.6378 171.06 57.9753C171.044 60.6831 171.056 63.3894 171.053 66.0956C171.028 67.6144 171.033 69.1706 171.571 70.6144C172.388 72.9722 174.189 74.9816 176.472 76.0019C179.203 77.2847 182.563 77.08 185.127 75.4909C187.774 73.8972 189.51 70.9112 189.575 67.8206C189.567 64.3284 189.619 60.8347 189.549 57.3456C189.38 55.2862 188.528 53.28 187.111 51.7706C185.038 49.4862 181.771 48.4237 178.742 48.955Z" fill="#DEDEDE"/>
<path d="M131.705 54.413C132.727 54.1755 133.852 54.3505 134.722 54.9442C135.775 55.6301 136.411 56.8739 136.391 58.1254C136.396 61.0395 136.389 63.9551 136.394 66.8707C136.394 67.4473 136.417 68.0411 136.222 68.5942C135.702 70.1364 134.099 71.2254 132.471 71.1348C130.566 71.1145 128.777 69.4395 128.821 67.4973C128.824 64.3207 128.813 61.1442 128.825 57.9676C128.838 56.3083 130.091 54.7755 131.705 54.413Z" fill="#DEDEDE"/>
<path d="M179.239 54.4611C180.321 54.1502 181.539 54.3236 182.467 54.9705C183.497 55.658 184.133 56.8783 184.116 58.1158C184.121 61.0361 184.114 63.9564 184.119 66.8767C184.117 67.422 184.146 67.9829 183.971 68.5095C183.48 70.0548 181.91 71.1783 180.286 71.1361C178.344 71.1689 176.478 69.4798 176.521 67.4986C176.524 64.3189 176.513 61.1408 176.525 57.9627C176.544 56.3658 177.706 54.8845 179.239 54.4611Z" fill="#DEDEDE"/>
<path d="M57.1408 55.2517C61.7971 55.2501 66.4533 55.2501 71.1111 55.2517C71.1127 60.547 71.1127 65.8439 71.1111 71.1407C66.4533 71.1407 61.7971 71.1423 57.1408 71.1407C57.1393 65.8439 57.1393 60.547 57.1408 55.2517Z" fill="#DEDEDE"/>
</g>
<defs>
<clipPath id="clip0_914_6666">
<rect width="200" height="88.75" fill="white" transform="translate(0.74707 0.000488281)"/>
</clipPath>
</defs>
</svg>
