<svg width="83" height="100" viewBox="0 0 83 100" fill="none" xmlns="http://www.w3.org/2000/svg">
<g clip-path="url(#clip0_914_7400)">
<path d="M7.55036 0.593825C17.4679 0.526815 27.388 0.593825 37.3055 0.56032C38.5375 0.428877 39.5658 1.28455 40.3699 2.10671C40.9602 2.72269 41.1638 3.60929 41.8004 4.1763C42.4266 2.63506 43.5504 1.21754 45.1612 0.650526C45.723 0.539702 46.3004 0.573207 46.8699 0.562897C51.6998 0.586093 56.5272 0.539702 61.3545 0.588671C43.4344 21.6248 25.5375 42.6866 7.57613 63.6866C7.52459 55.5526 7.57613 47.4186 7.55036 39.2845C10.6096 37.1247 12.5581 33.4211 12.4705 29.6634C12.5117 26.1505 10.7875 22.684 8.02716 20.5268C7.3184 20.1196 7.61479 19.2175 7.54778 18.55C7.56325 12.5655 7.55551 6.57836 7.55036 0.593825Z" fill="#DEDEDE" fill-opacity="0.5"/>
<path d="M61.1226 1.64264C61.5427 1.21223 61.8365 0.428724 62.5762 0.55759C67.0066 0.560168 71.437 0.544704 75.87 0.567899C75.8674 5.07305 75.8674 9.57821 75.87 14.0808C58.2514 34.8437 40.5607 55.5473 22.9138 76.2844C21.9963 77.2458 21.2772 78.4262 20.2488 79.2612C17.8365 79.305 15.4086 79.3463 12.9988 79.2354C10.3803 78.4751 7.79266 76.3179 7.5504 73.4468C7.56328 70.4906 7.48854 67.5293 7.58648 64.5782C12.9808 58.0653 18.553 51.6787 24.0169 45.2174C24.0195 45.2122 24.0298 45.2019 24.0349 45.1968C36.3906 30.671 48.7695 16.1684 61.1226 1.64264ZM62.5659 4.81275C62.2901 5.18903 61.8958 5.42873 61.4885 5.63749C60.9885 6.15553 60.3829 6.65037 60.2798 7.41068C60.0787 7.66584 59.8494 7.9313 59.8674 8.27924C59.4731 9.09883 59.5324 10.0344 59.6483 10.9081C59.7849 11.2045 59.8854 11.5138 59.955 11.8334C60.205 12.8076 60.5787 13.7457 60.7952 14.7277C60.9911 15.537 60.5324 16.2818 60.2592 17.0112C60.7669 16.9725 61.2875 16.9004 61.6818 16.5473C61.986 16.4261 62.2772 16.2741 62.5736 16.1349C63.2385 16.3746 63.9447 16.3823 64.6432 16.3926C65.5272 16.3849 66.3958 16.6169 67.2798 16.5756C68.388 16.72 69.4963 16.3926 70.455 15.8488C70.9782 15.2586 71.4138 14.5911 71.9937 14.0473C72.1973 13.2148 72.3055 12.3334 71.9525 11.5241C71.6303 10.787 71.8777 9.77924 71.1638 9.25089L71.12 8.98543C70.8468 8.73027 70.5839 8.46223 70.3494 8.17357C70.0272 8.02666 69.7076 7.87976 69.3854 7.738C69.62 7.41326 69.9499 7.18646 70.2927 6.988C70.1999 6.58336 70.0736 6.18903 69.9061 5.81017C69.8004 5.79986 69.5916 5.78182 69.4885 5.77409C69.1019 6.51635 68.6406 7.22769 67.9576 7.73027C67.7282 7.37202 67.5169 7.00089 67.3133 6.62718C67.2308 6.46223 67.1432 6.29728 67.0684 6.12976C66.3519 5.82306 65.8107 5.24831 65.1483 4.85914C64.2978 4.71481 63.4241 4.75089 62.5659 4.81275ZM50.2102 18.8334C49.6947 19.3566 49.0452 19.8746 48.9628 20.6555C48.2514 21.4957 48.2849 22.6452 48.0891 23.6684C48.3133 24.1401 48.5452 24.622 48.5762 25.1581C48.9782 26.1813 49.2901 27.238 49.4988 28.3179C49.571 29.0602 49.1097 29.7122 48.9035 30.4004C49.8107 30.3256 50.5736 29.7973 51.3442 29.3669L51.3519 29.7818C52.1689 29.6581 52.9963 29.6658 53.7901 29.9158C53.9215 29.8617 54.1818 29.7509 54.3133 29.6968C55.821 30.3566 57.6741 29.9416 59.0968 29.1916C59.6097 28.6091 60.053 27.9674 60.6354 27.4468C60.7308 26.8076 60.8726 26.1684 60.8468 25.5164C60.6973 25.0009 60.4138 24.5215 60.3983 23.9725C60.3906 22.9262 59.5813 22.1684 59.004 21.3823C58.5891 21.2509 58.1483 21.1169 57.986 20.6633C58.4189 20.5911 58.7901 20.3566 59.1664 20.153C58.8287 19.7406 58.6148 18.9674 57.9396 19.1865C57.6947 19.9725 57.2566 20.8772 56.2875 20.8024C56.1406 20.2792 56.0143 19.7483 55.9061 19.2122C55.7025 19.2406 55.5014 19.2715 55.3004 19.2999C55.2824 19.2329 55.2437 19.0988 55.2231 19.0318C54.6947 18.9004 54.3442 18.4519 53.8777 18.2122C52.6251 17.9365 51.1844 17.8591 50.2102 18.8334ZM39.0942 32.1066C38.8597 32.5215 38.4344 32.72 38.022 32.9184C37.9086 33.0963 37.7978 33.2792 37.6921 33.4648C37.1586 33.5834 37.0246 34.0859 36.9189 34.5473C36.0994 35.7354 35.8597 37.3669 36.4499 38.7019C36.8726 39.8437 37.0865 41.0499 37.437 42.2148C37.4267 42.5808 37.4164 42.9493 37.4061 43.3153C37.169 43.7148 36.6586 44.1272 37.2025 44.5189C37.7669 44.2225 38.2901 43.8024 38.919 43.6555C40.0427 43.5756 41.1638 43.7921 42.2901 43.7019C43.7566 44.2947 45.4757 43.8875 46.9241 43.3463C47.138 43.0602 47.3545 42.7741 47.5736 42.4906C48.0117 42.0602 48.419 41.5988 48.7643 41.0859C48.7385 40.3901 48.8545 39.6658 48.5942 39.0009C48.4834 38.5292 48.1921 38.0963 48.4525 37.6349C48.0298 36.8566 47.6303 36.0396 46.9499 35.4493C46.5942 35.2818 46.2102 35.1143 46.0787 34.7097C46.4035 34.5421 46.7231 34.3669 47.0375 34.1787C46.9679 33.6323 46.4447 33.3102 46.1148 32.921C45.8519 33.3978 45.5891 33.8746 45.3287 34.354C45.2566 34.439 45.1097 34.6091 45.0375 34.6942C44.8468 34.7071 44.4653 34.7354 44.2746 34.7483C44.1354 34.3128 44.0092 33.8746 43.8597 33.4442C43.5143 33.287 43.1509 33.1736 42.8004 33.0344C42.5401 32.7277 42.2798 32.421 42.004 32.1323C41.0349 32.0937 40.0633 32.0086 39.0942 32.1066ZM27.2179 46.7947C26.772 47.4829 25.8726 47.7277 25.3906 48.4158C25.2875 48.7071 25.1844 49.0009 25.0839 49.2947C24.4602 50.0602 24.4138 51.1117 24.2772 52.0499C24.5916 54.037 25.7488 55.9004 25.5891 57.9571C25.37 58.287 25.1612 58.622 24.9602 58.9648C25.5478 58.9725 26.205 58.9777 26.5787 58.4365C26.7076 58.3849 26.9628 58.287 27.0891 58.238C28.1999 58.3927 29.3236 58.421 30.4421 58.4107C31.9009 58.9262 33.6458 58.7071 34.9963 57.9545C35.6999 57.3798 36.3313 56.6942 36.8262 55.9339C37.2514 54.7174 36.5968 53.5344 36.6019 52.3231C36.3262 51.8359 36.071 51.3385 35.8339 50.8308C35.4782 50.5009 35.1561 50.0834 34.6509 49.988C33.8313 49.4803 34.8159 49.0756 35.2617 48.8231C35.022 48.3514 34.7102 47.9107 34.2179 47.6762C33.9473 48.2741 33.62 48.8411 33.2695 49.3952C33.0891 49.4339 32.7282 49.5112 32.5478 49.5473C32.3726 49.086 32.2076 48.6195 32.022 48.1607C31.3107 47.8566 30.6458 47.4442 30.1844 46.8076C29.1947 46.7741 28.2025 46.6787 27.2179 46.7947ZM15.3674 60.9545C15.0787 61.2303 14.7385 61.439 14.3648 61.5782C13.803 62.1787 13.2566 62.8437 13.1767 63.6968C13.0865 63.7122 12.9086 63.738 12.821 63.7535C12.7128 64.6272 12.4782 65.4803 12.4112 66.3617C12.7437 67.0808 12.9653 67.8437 13.2076 68.5963C13.2927 69.1813 13.4628 69.7483 13.705 70.287C13.7824 70.8334 13.7849 71.3849 13.736 71.9365C13.5324 72.3102 13.3571 72.6968 13.1921 73.0911C13.8287 72.9932 14.4653 72.8102 14.9473 72.3617C15.5813 72.1813 16.2514 72.3695 16.888 72.2174C17.2334 72.3205 17.5813 72.4262 17.9318 72.5164C18.7308 72.354 19.5169 72.6762 20.321 72.6246C21.3958 72.6736 22.4757 72.4133 23.3906 71.8463C24.0014 71.238 24.486 70.5189 25.0633 69.8823C25.272 68.4004 24.8287 66.9545 24.5014 65.5267C24.4086 65.4468 24.2205 65.287 24.1277 65.2071C23.9215 64.7999 23.7076 64.3901 23.3829 64.0705C23.138 64.0061 22.8958 63.9442 22.6535 63.8849C22.5839 63.7792 22.4421 63.5705 22.3726 63.4648C22.705 63.2457 23.0865 63.086 23.3623 62.7947C23.2153 62.3308 22.8726 61.9674 22.6045 61.5756C22.12 62.153 21.8442 62.8798 21.3236 63.4236C20.4318 63.8102 20.3571 62.5086 20.1535 61.9494C20.0736 61.9829 19.9086 62.0499 19.8287 62.0834C19.2927 61.6762 18.7669 61.2277 18.2102 60.8411C17.2772 60.6942 16.2566 60.555 15.3674 60.9545Z" fill="#DEDEDE"/>
<path d="M10.138 85.4392C13.4834 82.5577 18.0272 81.434 22.3674 81.5062C26.2772 81.5294 30.0194 82.9624 33.4009 84.8284C36.2127 86.2639 39.1638 88.0191 42.4447 87.7485C46.7102 87.2356 50.1045 84.3206 54.0529 82.8902C58.7153 81.0938 64.022 81.0397 68.7076 82.7794C70.687 83.5474 72.5761 84.6531 74.0272 86.2201C74.6483 86.8 74.0478 87.5938 73.7153 88.1531C72.5169 89.9186 72.187 92.0577 71.7901 94.1041C71.0555 93.3954 70.3777 92.5861 69.4395 92.1351C67.0813 90.9469 64.3339 90.9314 61.7746 91.2923C57.3313 92.349 53.4086 94.8 49.1638 96.4005C44.4937 98.1969 39.2256 98.166 34.4885 96.6325C30.4834 95.3644 26.9009 93.0629 22.9292 91.7072C20.089 91.0345 17.0091 90.9083 14.2256 91.8979C13.138 92.2459 12.3339 93.0861 11.5401 93.8644C11.1818 92.0371 10.8906 90.1273 9.87769 88.5242C9.57614 87.9959 9.16377 87.4856 9.10449 86.8593C9.14831 86.2253 9.72305 85.8438 10.138 85.4392ZM56.37 85.0088C55.8364 85.9211 55.888 87.0423 56.0323 88.0526C56.6122 89.3103 58.1818 89.9263 59.5091 89.7974C59.8493 88.8438 60.4988 87.9289 60.3957 86.8722C60.2694 86.0629 59.7127 85.3052 58.9163 85.05L58.7772 84.9933C58.3081 84.166 56.6715 83.9392 56.37 85.0088ZM27.9447 86.4804C27.5633 87.2871 28.7385 87.3412 29.2385 87.5758C29.3571 87.2433 29.473 86.9108 29.5865 86.5784C29.7901 86.5887 30.1973 86.6093 30.4009 86.6196C30.2411 87.2356 30.4499 88.032 29.8519 88.4598C29.4112 88.4057 28.9808 88.3026 28.5504 88.1969C28.5864 88.4624 28.6277 88.7304 28.6715 88.9985C28.9705 89.2072 29.272 89.4186 29.5736 89.6325C29.4009 90.0655 29.2437 90.5062 29.022 90.916C28.6354 91.0088 28.2488 90.8387 27.8674 90.7949C27.4473 90.4727 27.0942 89.867 26.4756 90.1144C26.0143 90.2845 26.0813 90.7923 25.9937 91.184C26.4988 91.2665 26.8828 90.9959 27.2849 90.7562C28.0323 90.9907 28.4808 91.9005 29.3442 91.8516C30.2256 91.8748 30.772 90.9753 30.8029 90.1814C30.4447 89.8052 30.0968 89.4237 29.7591 89.032C30.156 89.0345 30.5555 89.0371 30.955 89.0474C31.1045 88.9366 31.406 88.7175 31.5555 88.6093C31.5323 88.6918 31.4859 88.8619 31.4627 88.9443C31.6947 88.5449 32.205 88.1299 31.9473 87.6144C31.5581 86.6995 30.638 85.9263 29.6071 85.9314C29.0194 85.9108 28.2076 85.7923 27.9447 86.4804ZM52.4447 86.6866L52.388 86.6557C51.4344 87.001 50.4473 87.2716 49.5504 87.7562C49.5529 87.8696 49.5581 88.0938 49.5607 88.2046C49.8261 88.282 50.0916 88.3567 50.3571 88.434C50.6921 89.4701 51.1612 90.4546 51.5555 91.4675L51.839 91.3619C51.8674 91.4366 51.9241 91.5887 51.9524 91.666C51.9009 92.0242 51.8519 92.3825 51.8055 92.7433C52.4009 92.6222 52.9937 92.4675 53.5787 92.2949C53.7411 92.0912 53.9035 91.8876 54.0684 91.6892C54.772 91.6376 55.4395 91.4186 56.0736 91.1222L55.9705 90.8206H56.0029L55.8107 90.6634C55.1792 89.1351 54.3158 87.6866 53.9086 86.0758C53.4267 86.2923 52.9421 86.5036 52.4447 86.6866ZM32.7926 87.7871C32.9035 88.117 33.0968 88.4083 33.2669 88.7098C32.7875 90.1325 32.3442 91.5732 31.7359 92.9521L31.4138 93.0552C32.12 93.184 32.8133 93.3773 33.5194 93.501C33.406 93.4083 33.1767 93.2175 33.0633 93.1248C33.3622 92.4856 33.5684 91.8103 33.6947 91.1196C34.0272 91.1222 34.3571 91.0809 34.6895 91.0397C33.937 92.3335 34.9524 93.6531 35.656 94.7021C36.3777 95.1016 37.1818 94.4675 37.7127 93.9959C38.9267 93.9083 39.0633 92.3335 39.187 91.3979C39.7179 91.4005 40.2514 91.4263 40.7772 91.3335C40.7978 90.9907 40.8158 90.6479 40.8313 90.3052C41.0916 90.3309 41.6148 90.3799 41.8777 90.4031C41.8184 90.7021 41.7669 91.001 41.7205 91.3026C41.7643 91.5449 41.8081 91.7897 41.8468 92.0371C41.4035 92.0964 40.9602 92.1583 40.5194 92.2201C40.4138 93.1969 41.522 92.9186 42.1457 92.9263C42.4267 93.5242 42.2875 94.2021 42.2849 94.8387L42.0813 94.8954C41.2127 94.8052 41.522 94.7923 40.6457 94.7639C40.2669 94.6531 41.0091 94.9134 40.6457 94.7639C40.1251 94.6067 39.6612 94.6969 39.2566 95.0371C39.0498 95.2109 38.754 95.9907 39.4215 96.0681C39.9524 96.2201 40.3313 95.8773 40.5658 95.4418C41.3957 95.483 42.2282 95.4985 43.0607 95.4882C43.406 94.9753 43.8983 94.4675 43.8545 93.8C43.6818 93.184 43.1354 92.7949 42.7076 92.3644C42.9318 92.2175 43.1509 92.0655 43.3622 91.9005C43.4473 91.2717 43.6071 90.4057 42.9653 90.0139C42.187 89.4134 40.888 89.3206 40.1303 89.9933C39.6844 90.2382 39.2488 90.5423 38.9576 90.9675C38.7462 90.3155 38.406 89.7227 37.9859 89.1866C37.2411 89.3722 36.0968 89.2768 35.8261 90.1711C35.3957 90.5629 34.9808 91.0655 34.3184 90.867C34.4292 90.2949 34.5478 89.7253 34.6792 89.1557C34.4705 89.1892 34.888 89.1222 34.6792 89.1557C34.5452 88.9289 35.2617 88.5603 35.1715 88.3129C35.1818 88.4469 35.1999 88.7175 35.2102 88.8541C35.0529 88.8567 34.7359 88.8644 34.5787 88.867L34.705 88.5294L34.589 88.501C34.6535 88.0861 34.5272 88.0345 34.2127 88.3464L34.0272 88.2639C33.7488 87.8232 33.2926 87.6608 32.7926 87.7871ZM47.089 88.8464C47.205 89.1325 47.321 89.4186 47.4395 89.7046C47.6884 90.3052 47.314 90.5144 47.3191 90.7026C48.1608 89.9835 48.4189 92.6273 48.6071 93.7845C49.0323 93.7382 49.455 93.6918 49.8828 93.6505C49.1715 92.05 48.6792 90.3567 48.2102 88.6737C47.8365 88.7278 47.4627 88.7871 47.089 88.8464ZM44.0323 89.8825C44.0452 89.9057 44.071 89.9546 44.0839 89.9778C44.2127 90.0758 44.4705 90.2717 44.5993 90.3696C44.9602 91.3258 45.1999 92.3232 45.5426 93.2871C45.7127 93.7923 45.8519 94.3077 45.9782 94.8258C46.4267 94.6505 46.8803 94.4856 47.3442 94.3516C46.2746 92.6012 46.8957 91.3593 47.3442 90.6634C47.1612 90.7227 46.3906 92.1505 46.2746 92.0629C45.9524 91.2278 45.5581 90.3747 45.6767 89.4546C45.1277 89.5964 44.5813 89.7433 44.0323 89.8825Z" fill="#DEDEDE"/>
<path d="M56.5685 85.7588C56.9267 86.0655 57.3674 86.3928 57.87 86.2717L58.1664 86.2382C58.9525 86.5036 59.7824 86.8902 59.8803 87.8232C59.785 87.9985 59.5994 88.349 59.504 88.5242C59.3133 88.5268 59.1226 88.5294 58.9319 88.5346C58.138 88.0603 57.1587 87.8284 56.5504 87.0938C56.3958 86.6609 56.5272 86.1969 56.5685 85.7588Z" fill="#DEDEDE"/>
<path d="M51.9731 86.9186C53.1072 86.8052 53.2695 88.1042 53.5273 88.9237C52.8391 88.6583 52.1922 88.3052 51.5659 87.9186C51.7025 87.5861 51.8365 87.2536 51.9731 86.9186Z" fill="#DEDEDE"/>
<path d="M7.16647 89.4545C8.01698 89.2921 8.86492 89.1246 9.71544 88.9751C10.6175 90.4725 10.7721 92.2406 11.2257 93.89C11.3881 94.5266 11.8031 95.2328 12.5634 95.1761C15.1355 94.9957 17.4835 93.6916 20.0505 93.4596C20.9268 93.439 21.5866 94.256 21.6639 95.0756C20.5917 95.5447 19.4319 95.8256 18.2567 95.6864C14.6407 95.2844 10.9629 96.1297 7.7077 97.6967C6.75925 98.14 5.87781 98.7148 4.91389 99.1349C5.2541 97.3823 6.0943 95.756 7.15616 94.3333C7.35977 94.1452 7.401 93.7586 7.10461 93.6272C5.37781 92.4519 3.7077 91.1684 2.2644 89.6529C3.89842 89.6169 5.55049 89.7689 7.16647 89.4545Z" fill="#DEDEDE"/>
<path d="M73.7102 89.0088C74.5736 89.0578 75.4087 89.3206 76.2592 89.4572C77.8984 89.7794 79.5711 89.6041 81.2283 89.6273C79.6407 91.2536 77.7773 92.5526 76.0015 93.9521C77.2102 95.4727 78.0092 97.2665 78.5968 99.1067C78.0685 98.916 77.5479 98.7047 77.0633 98.4237C73.9989 96.6686 70.5092 95.6016 66.9654 95.5655C65.285 95.5938 63.3907 96.0552 61.8984 95.0346C61.6278 94.5088 62.1664 94.0603 62.517 93.7485C63.035 93.2588 63.7721 93.5011 64.3829 93.6145C66.4757 94.0294 68.4628 94.8825 70.5814 95.1686C71.1304 95.2459 71.8056 95.0268 71.9706 94.4392C72.6561 92.6737 72.5453 90.5732 73.7102 89.0088Z" fill="#DEDEDE"/>
<path d="M52.3135 89.1943C53.0042 89.5784 53.7336 89.8825 54.4887 90.1247C54.548 90.3077 54.6047 90.4959 54.6537 90.6892C54.5789 91.2665 53.9733 92.0139 53.365 91.5345C52.8779 90.8232 52.6279 89.9881 52.3135 89.1943Z" fill="#DEDEDE"/>
<path d="M35.9345 92.0808C35.8237 91.3386 36.0376 90.6272 36.5454 90.0757C37.0118 91.1762 38.218 92.4984 37.3237 93.6813C36.7825 93.7973 36.7335 93.1813 36.4938 92.8592C36.4268 92.7664 36.2954 92.5834 36.2283 92.4906C36.1536 92.3875 36.0067 92.1839 35.9345 92.0808Z" fill="#DEDEDE"/>
<path d="M15.6666 91.8309C17.615 91.4443 19.6279 91.55 21.5918 91.7665C21.6846 92.452 21.7671 93.1376 21.847 93.8258C21.2078 93.5165 20.5712 93.0242 19.8186 93.1582C17.5042 93.349 15.3753 94.3928 13.1047 94.8051C12.731 94.8438 12.2671 95.0113 11.9965 94.6453C11.7619 94.4005 12.0274 94.1247 12.1382 93.8953C12.8882 92.666 14.3289 92.1299 15.6666 91.8309Z" fill="#DEDEDE"/>
<path d="M61.9112 91.6352C64.3855 91.2151 67.0607 91.3207 69.3288 92.4908C70.2257 93.0166 71.285 93.6687 71.3777 94.8156C68.5169 94.8723 65.9525 93.1506 63.0942 93.1455C62.4087 93.1016 62.004 93.7537 61.5298 94.1352C61.571 93.2898 61.6947 92.4522 61.9112 91.6352Z" fill="#DEDEDE"/>
<path d="M71.986 19.4647C73.321 18.0214 74.4499 16.3951 75.8519 15.0137C75.8365 16.7998 75.8958 18.5884 75.8262 20.3745C74.4267 21.5059 73.2488 22.9364 72.4035 24.524C71.3726 26.8101 70.8339 29.4132 71.3829 31.8977C71.8571 34.8204 73.5633 37.4544 75.8494 39.2998C75.8648 50.4312 75.8623 61.5652 75.8494 72.6967C75.8855 73.7096 75.4215 74.6503 74.9757 75.5291C73.5298 77.6683 70.9911 78.8384 68.5143 79.2585C61.3854 79.2998 54.2566 79.2585 47.1277 79.2791C45.6303 79.2688 44.3494 80.2559 43.4989 81.408C42.6586 82.4106 42.2437 83.6632 41.7076 84.8358C40.9112 82.8668 39.8906 80.8436 37.9911 79.725C37.3854 79.4132 36.6999 79.3023 36.0272 79.2895C31.1251 79.2637 26.2257 79.2869 21.3262 79.2559C21.5762 78.7121 21.9473 78.2431 22.3674 77.823C38.8545 58.3255 55.4293 38.9028 71.986 19.4647Z" fill="#DEDEDE" fill-opacity="0.5"/>
</g>
<defs>
<clipPath id="clip0_914_7400">
<rect width="81.4433" height="100" fill="white" transform="translate(0.983398 0.000976562)"/>
</clipPath>
</defs>
</svg>
