<svg width="147" height="100" viewBox="0 0 147 100" fill="none" xmlns="http://www.w3.org/2000/svg">
<g clip-path="url(#clip0_914_6685)">
<path d="M130.359 0.000488281H137.894C140.674 4.91412 143.441 9.83685 146.2 14.7626C143.689 14.7626 141.179 14.7626 138.67 14.7611C135.902 9.83988 133.138 4.91564 130.359 0.000488281Z" fill="#DEDEDE"/>
<path d="M59.8289 37.7126C62.3319 37.7035 64.8334 37.7171 67.3349 37.7065C70.1334 42.6217 72.8834 47.5641 75.6682 52.4868C73.1576 52.4914 70.6485 52.4868 68.1379 52.4899C65.3622 47.5671 62.5819 42.6474 59.8289 37.7126Z" fill="#DEDEDE"/>
<path d="M15.4198 8.39854C18.6319 7.88793 21.9986 8.35611 24.9395 9.74702C28.341 11.3334 31.1577 14.1288 32.7713 17.5167C34.2895 20.6622 34.7562 24.3046 34.0774 27.7304C33.2622 32.1091 30.5335 36.0743 26.7713 38.4516C23.7062 40.4197 19.9713 41.294 16.3486 40.9243C12.0986 40.5394 8.0668 38.3637 5.34862 35.0834C6.89862 33.5213 8.45619 31.9637 10.0153 30.4091C11.3562 32.1925 13.2744 33.5576 15.4471 34.1107C17.8395 34.7652 20.4759 34.444 22.6532 33.2591C24.7759 32.1167 26.441 30.1667 27.2501 27.897C23.6077 27.8864 19.9653 27.897 16.3213 27.8925C16.3198 25.7 16.3198 23.5076 16.3213 21.3152C19.9653 21.3091 23.6077 21.3167 27.2501 21.3122C26.4577 19.0788 24.8335 17.1561 22.7623 16.0061C20.8744 14.9394 18.6259 14.5455 16.4865 14.8743C13.7683 15.2682 11.2713 16.8849 9.76377 19.1758C8.19559 17.6091 6.63044 16.041 5.06226 14.4758C7.58953 11.247 11.3577 9.0046 15.4198 8.39854Z" fill="#DEDEDE"/>
<path d="M109.338 39.3745C115.217 28.9412 121.08 18.5003 126.955 8.06543C132.832 18.4988 138.691 28.9412 144.573 39.3715C142.059 39.3806 139.545 39.3776 137.033 39.373C136.111 37.7306 135.182 36.0912 134.267 34.4457C129.392 34.4412 124.518 34.4412 119.644 34.4457C118.73 36.0912 117.802 37.7291 116.882 39.3715C114.367 39.3821 111.853 39.376 109.338 39.3745ZM126.945 21.4806C125.739 23.6139 124.544 25.7518 123.342 27.8882C125.752 27.8882 128.162 27.8882 130.573 27.8882C129.356 25.7563 128.188 23.5973 126.945 21.4806Z" fill="#DEDEDE"/>
<path d="M44.0424 9.82887C48.5 9.82735 52.9591 9.82887 57.4167 9.82735C58.5743 9.8122 59.747 9.87129 60.8682 10.1849C63.3121 10.8061 65.4985 12.3486 66.9334 14.4183C68.2167 16.2546 68.8955 18.5046 68.8303 20.7455C68.7909 23.5592 67.5516 26.3243 65.5031 28.2501C63.5909 30.0743 60.9788 31.1395 58.3349 31.1683C55.7576 31.1758 53.1803 31.1683 50.6015 31.1728C50.6 33.9061 50.6031 36.638 50.6 39.3713C48.4137 39.3728 46.2273 39.3713 44.0409 39.3728C44.0394 29.5243 44.0364 19.6774 44.0424 9.82887ZM50.6031 16.4001C50.6 19.1319 50.6015 21.8652 50.6015 24.5971C53.1743 24.594 55.747 24.6061 58.3197 24.591C60 24.5637 61.5667 23.3698 62.0682 21.7698C62.6758 20.0516 61.9182 18.0001 60.3758 17.0471C59.6849 16.5971 58.8515 16.388 58.0303 16.3986C55.5546 16.4001 53.0788 16.4001 50.6031 16.4001Z" fill="#DEDEDE"/>
<path d="M79.4077 9.82437C81.585 9.83498 83.7638 9.82437 85.941 9.82892C85.9501 13.6577 85.9425 17.485 85.9441 21.3138C87.9365 21.3138 89.9289 21.3122 91.9228 21.3138C94.088 17.4835 96.2122 13.6289 98.4138 9.81982C100.917 9.86982 103.429 9.76225 105.929 9.87437C105.908 12.0486 105.926 14.2229 105.918 16.3971C104.685 16.4062 103.452 16.391 102.218 16.4047C100.836 18.8638 99.4516 21.3198 98.0713 23.7804C100.986 28.9804 103.917 34.1713 106.83 39.3729C104.318 39.3789 101.806 39.3789 99.2941 39.3729C97.1516 35.5426 94.9941 31.7198 92.8395 27.8956C90.541 27.891 88.2425 27.8926 85.9441 27.8941C85.9441 31.7198 85.9471 35.5456 85.9441 39.3729C83.7531 39.3668 81.5622 39.3835 79.3713 39.3638C79.3789 31.9516 79.3683 24.5395 79.3713 17.1274C79.3925 14.6926 79.3244 12.2562 79.4077 9.82437Z" fill="#DEDEDE"/>
<path d="M56.4153 45.7852C62.2789 56.2215 68.1577 66.6503 74.0198 77.0882C71.5168 77.0957 69.0138 77.076 66.5092 77.0988C65.5562 75.4715 64.6592 73.8109 63.7183 72.176C58.8486 72.173 53.9774 72.173 49.1062 72.176C48.1804 73.8109 47.2623 75.4503 46.3426 77.0882C43.8304 77.0882 41.3168 77.0897 38.8047 77.0882C44.6744 66.6533 50.5486 56.2215 56.4153 45.7852ZM52.8077 65.5897C55.2107 65.6048 57.6153 65.6079 60.0183 65.5912C58.8198 63.4564 57.6138 61.323 56.4168 59.1867C55.2107 61.3185 54.0168 63.4594 52.8077 65.5897Z" fill="#DEDEDE"/>
<path d="M10.8956 47.7519C12.2956 47.4958 13.7259 47.5807 15.1425 47.567C19.4334 47.5701 23.7259 47.5625 28.0168 47.5701C31.6153 47.5928 35.1425 49.3276 37.3865 52.1352C39.3774 54.5685 40.3577 57.7943 40.0774 60.9246C39.8759 63.267 38.9925 65.5473 37.544 67.4019C35.8577 69.5852 33.4168 71.1777 30.7319 71.8201C28.4365 72.3898 26.0562 72.1034 23.7183 72.1761C23.7183 73.814 23.7183 75.4504 23.7183 77.0883C21.5274 77.0898 19.3365 77.0898 17.1456 77.0883C17.144 75.4504 17.1471 73.8125 17.144 72.1746C14.8077 72.1049 12.4289 72.3898 10.1334 71.8201C7.27434 71.1383 4.69556 69.3716 3.00313 66.9701C1.64859 65.0822 0.892525 62.8034 0.74707 60.4898V59.3398C0.865252 56.9792 1.64252 54.6504 3.02737 52.7292C4.86828 50.1292 7.75465 48.2943 10.8956 47.7519ZM11.0062 54.5079C9.12434 55.2019 7.69101 56.9625 7.38495 58.9443C7.1304 60.4746 7.52737 62.1004 8.47434 63.3307C9.49556 64.6913 11.1516 65.5761 12.8622 65.5913C14.2895 65.6019 15.7183 65.6095 17.1456 65.6019C17.1456 61.7761 17.1471 57.9504 17.1456 54.1246C15.9243 54.1231 14.7031 54.1261 13.4819 54.1231C12.6425 54.1034 11.7895 54.1867 11.0062 54.5079ZM23.7198 54.1231C23.7198 57.9549 23.7137 61.7852 23.7228 65.617C25.2804 65.5655 26.8395 65.6686 28.3971 65.5701C30.1198 65.4276 31.7243 64.4125 32.6501 62.9625C33.5319 61.611 33.7698 59.8792 33.344 58.3292C32.738 56.0231 30.5562 54.2549 28.1743 54.1382C26.6895 54.1049 25.2046 54.1352 23.7198 54.1231Z" fill="#DEDEDE"/>
<path d="M79.3699 47.5851C84.1229 47.5426 88.876 47.5775 93.629 47.5684C96.9502 47.5669 100.199 49.2608 102.137 51.9517C103.508 53.826 104.241 56.1593 104.173 58.4835C104.126 61.1532 103.012 63.7835 101.137 65.6835C99.4714 67.3957 97.2123 68.5305 94.8366 68.8063C94.0366 68.9154 93.2275 68.8866 92.4229 68.8896C90.2638 68.8911 88.1032 68.8881 85.9441 68.8926C85.9441 71.6244 85.9472 74.3563 85.9426 77.0896C83.7532 77.0835 81.5623 77.0972 79.3714 77.082C79.3714 67.2502 79.3729 57.4184 79.3699 47.5851ZM85.9456 54.1244C85.9472 56.8563 85.9396 59.5881 85.9487 62.3199C88.4078 62.3169 90.8684 62.3169 93.3275 62.3199C95.382 62.4608 97.3381 60.8244 97.5805 58.7835C97.982 56.4047 95.8851 54.0366 93.482 54.1244C90.9699 54.1229 88.4578 54.1244 85.9456 54.1244Z" fill="#DEDEDE"/>
<path d="M110.549 47.5684C113.324 47.5684 116.102 47.5623 118.877 47.5714C121.57 51.6108 124.262 55.6487 126.955 59.6881C129.65 55.6487 132.338 51.6047 135.036 47.5684C137.812 47.5669 140.586 47.5669 143.362 47.5684C143.364 57.4078 143.365 67.2487 143.362 77.0881C141.176 77.0881 138.989 77.0881 136.805 77.0881C136.799 70.3154 136.808 63.5411 136.8 56.7669C133.518 61.6866 130.239 66.6093 126.955 71.5275C123.676 66.6063 120.391 61.6896 117.12 56.7638C117.106 63.5381 117.12 70.3138 117.112 77.0881C114.924 77.0896 112.736 77.0896 110.549 77.0881C110.549 67.2487 110.547 57.4078 110.549 47.5684Z" fill="#DEDEDE"/>
<path d="M133.095 87.3865C133.485 87.185 133.882 86.9956 134.285 86.8184C134.503 87.5547 135.37 87.9411 136.071 87.6426C136.458 87.5229 136.668 87.1623 136.832 86.8214C137.229 87.0002 137.621 87.188 138.012 87.385C137.256 89.4213 133.855 89.4213 133.095 87.3865Z" fill="#DEDEDE"/>
<path d="M14.238 90.8231C14.838 90.0458 15.8608 89.6913 16.8214 89.861C17.9229 89.9882 18.8805 90.7913 19.2532 91.8276C19.7305 93.1443 19.5396 94.7776 18.5199 95.7943C17.4032 96.9488 15.238 97.0413 14.2396 95.6852C14.2562 97.1231 14.2426 98.561 14.2471 100H12.4305C12.4305 96.6807 12.4305 93.361 12.429 90.0413C13.0365 90.0367 13.6426 90.0367 14.2502 90.0458C14.2471 90.3034 14.2426 90.5625 14.238 90.8231ZM15.182 91.5473C14.2638 91.8731 13.8411 92.9989 14.1638 93.8867C14.4426 94.8216 15.5699 95.3185 16.4653 94.9701C17.4487 94.6367 17.8759 93.4064 17.4714 92.4867C17.1244 91.6155 16.038 91.211 15.182 91.5473Z" fill="#DEDEDE"/>
<path d="M51.2151 90.3232C52.3712 89.5701 54.1818 89.611 55.0151 90.8247C55.0121 90.5626 55.0121 90.3004 55.0121 90.0383C55.6182 90.0398 56.2242 90.0383 56.8303 90.0398C56.8318 92.1853 56.8318 94.3307 56.8288 96.4762C56.2227 96.4762 55.6182 96.4762 55.0121 96.4762C55.0106 96.208 55.0106 95.9398 55.0151 95.6732C54.0712 97.052 51.9439 96.9247 50.8227 95.8444C49.2545 94.405 49.4136 91.505 51.2151 90.3232ZM52.7606 91.5459C51.7666 91.8944 51.3485 93.1656 51.8106 94.0807C52.1939 94.9368 53.3015 95.3156 54.1439 94.9262C55.0848 94.5307 55.4606 93.2913 55.0015 92.405C54.6288 91.5823 53.5833 91.2277 52.7606 91.5459Z" fill="#DEDEDE"/>
<path d="M75.8167 89.9443C76.7773 89.7337 77.8182 89.7913 78.7197 90.2064C79.7925 90.714 80.5031 91.8443 80.5728 93.0201C80.6788 94.3534 79.9379 95.7292 78.7167 96.305C77.7122 96.7625 76.5349 96.7853 75.4864 96.4762C74.0909 96.055 73.1228 94.6186 73.1955 93.1731C73.1849 91.661 74.3212 90.2276 75.8167 89.9443ZM76.2334 91.5473C75.5182 91.8155 75.0197 92.5686 75.0758 93.3352C75.0728 94.3656 76.0985 95.2277 77.1152 95.0625C78.2485 94.9656 79.0197 93.6549 78.5849 92.611C78.2682 91.6807 77.1394 91.1837 76.2334 91.5473Z" fill="#DEDEDE"/>
<path d="M82.7349 96.4746C83.1333 94.2701 83.5212 92.0625 83.9121 89.8565C84.3591 89.8504 84.8076 89.8519 85.2561 89.858C85.853 91.1413 86.4243 92.4383 87.0258 93.7201C87.6227 92.4337 88.197 91.1383 88.797 89.8534C89.247 89.8504 89.697 89.8519 90.147 89.8625C90.5167 92.0686 90.9212 94.2701 91.3136 96.4731C90.7076 96.4731 90.1 96.4731 89.4939 96.4731C89.3182 95.314 89.1273 94.1565 88.953 92.9974C88.4 94.1989 87.853 95.4019 87.2985 96.6019C87.1136 96.6019 86.9288 96.6019 86.747 96.6034C86.2061 95.3958 85.6379 94.2004 85.1 92.9928C84.9182 94.1519 84.7258 95.311 84.5561 96.4731C83.9485 96.4731 83.3409 96.4731 82.7349 96.4746Z" fill="#DEDEDE"/>
<path d="M104.477 90.2428C105.63 89.5762 107.361 89.6504 108.15 90.8398C108.142 90.5716 108.141 90.3065 108.139 90.0413C108.746 90.0383 109.353 90.0383 109.961 90.0398C109.961 92.1853 109.962 94.3307 109.961 96.4762C109.353 96.4762 108.747 96.4762 108.139 96.4746C108.139 96.2049 108.141 95.9337 108.147 95.6656C107.22 97.0489 105.097 96.9246 103.974 95.8625C102.345 94.3974 102.555 91.364 104.477 90.2428ZM105.794 91.5868C105.026 91.9186 104.624 92.8216 104.797 93.6262C104.938 94.5459 105.889 95.2216 106.806 95.0595C107.961 94.9413 108.652 93.5671 108.193 92.5368C107.862 91.5959 106.676 91.1762 105.794 91.5868Z" fill="#DEDEDE"/>
<path d="M5.89558 90.0398C7.26528 90.0413 8.63498 90.0337 10.0047 90.0443C10.0062 90.5549 10.0062 91.0656 10.0047 91.5777C9.23952 91.5837 8.47437 91.5792 7.70922 91.5807C7.70771 93.2126 7.71074 94.8444 7.70922 96.4778C7.10468 96.4762 6.50013 96.4762 5.89558 96.4762C5.89255 94.3308 5.89255 92.1853 5.89558 90.0398Z" fill="#DEDEDE"/>
<path d="M21.1956 90.0411C21.8986 90.0365 22.6016 90.0396 23.3062 90.0396C23.9759 91.2502 24.6319 92.4683 25.2956 93.6835C25.8956 92.4714 26.4789 91.2502 27.0804 90.0396C27.7637 90.0396 28.4471 90.038 29.1304 90.0396C27.3971 93.3638 25.6471 96.679 23.9077 100H21.8562C22.641 98.4941 23.4592 97.0062 24.2516 95.5032C23.2319 93.6835 22.2092 91.8638 21.1956 90.0411Z" fill="#DEDEDE"/>
<path d="M31.532 90.0399C33.5683 90.0414 35.6062 90.0354 37.6426 90.043C37.6396 92.1869 37.6396 94.3293 37.6426 96.4733C37.035 96.4778 36.429 96.4763 35.8214 96.4763C35.8183 94.8445 35.8229 93.2127 35.8199 91.5808C34.9986 91.5793 34.1759 91.5808 33.3547 91.5793C33.3517 93.2127 33.3577 94.8445 33.3532 96.4763C32.7456 96.4763 32.1396 96.4763 31.532 96.4763C31.532 94.3309 31.532 92.1854 31.532 90.0399Z" fill="#DEDEDE"/>
<path d="M40.8091 90.0397C42.8439 90.0382 44.8773 90.0397 46.9121 90.0397C46.9121 92.1852 46.9121 94.3306 46.9121 96.4761C46.3061 96.4761 45.7015 96.4761 45.097 96.4761C45.0954 94.8443 45.0985 93.2125 45.0954 91.5806C44.2742 91.5791 43.453 91.5791 42.6318 91.5806C42.6288 93.2125 42.6333 94.8443 42.6288 96.4761C42.0227 96.4761 41.4167 96.4761 40.8091 96.4761C40.8106 94.3306 40.8106 92.1852 40.8091 90.0397Z" fill="#DEDEDE"/>
<path d="M66.8258 92.52C67.6213 91.6897 68.4183 90.8593 69.2213 90.0366C69.9743 90.0412 70.7289 90.0397 71.4834 90.0381C70.5168 90.9942 69.5471 91.9503 68.5759 92.9033C69.5955 94.0972 70.6183 95.2866 71.641 96.4775C70.8607 96.473 70.0819 96.4821 69.3016 96.4715C68.5652 95.5821 67.8198 94.7003 67.0804 93.8154C67.0168 93.8806 66.8895 94.0094 66.8258 94.0745C66.8258 94.873 66.8258 95.67 66.8258 96.4684C66.2183 96.4791 65.6107 96.476 65.0046 96.4745C65.0062 94.3306 65.0046 92.1851 65.0046 90.0412C65.6122 90.0381 66.2183 90.0351 66.8258 90.0472C66.8258 90.87 66.8258 91.6957 66.8258 92.52Z" fill="#DEDEDE"/>
<path d="M93.9501 90.0396C95.9819 90.0396 98.0138 90.0396 100.047 90.0396C100.05 91.9456 100.043 93.8532 100.05 95.7592C100.024 95.9865 100.106 96.2607 100.003 96.4668C99.4122 96.4956 98.8213 96.4668 98.2319 96.4759C98.2319 94.8441 98.2319 93.2138 98.2319 91.582C97.4107 91.5774 96.591 91.582 95.7698 91.5789C95.7683 93.2107 95.7713 94.841 95.7698 96.4728C95.1622 96.4774 94.5562 96.4759 93.9501 96.4759C93.9486 94.3304 93.9486 92.185 93.9501 90.0396Z" fill="#DEDEDE"/>
<path d="M113.129 90.0414C113.736 90.0384 114.346 90.0384 114.953 90.0399C114.955 90.7945 114.953 91.5505 114.955 92.3066C115.796 92.3081 116.638 92.3066 117.48 92.3066C117.482 91.5505 117.48 90.796 117.48 90.0399C118.088 90.0384 118.696 90.0369 119.303 90.043C119.3 92.1869 119.3 94.3293 119.303 96.4732C118.696 96.4778 118.088 96.4763 117.48 96.4763C117.48 95.6035 117.48 94.7308 117.48 93.8596C116.638 93.8566 115.796 93.8551 114.953 93.8611C114.953 94.7323 114.953 95.6035 114.953 96.4763C114.346 96.4763 113.738 96.4763 113.13 96.4747C113.129 94.3308 113.13 92.1854 113.129 90.0414Z" fill="#DEDEDE"/>
<path d="M122.47 90.0398C123.076 90.0382 123.682 90.0398 124.288 90.0398C124.294 91.358 124.283 92.6761 124.294 93.9959C125.283 92.6731 126.265 91.3458 127.267 90.0337C127.871 90.0428 128.474 90.0382 129.079 90.0398C129.082 92.1852 129.082 94.3307 129.08 96.4762C128.473 96.4762 127.868 96.4762 127.264 96.4777C127.256 95.158 127.271 93.8398 127.255 92.5201C126.27 93.8383 125.279 95.1504 124.299 96.4716C123.688 96.4792 123.079 96.4762 122.47 96.4762C122.47 94.3307 122.471 92.1852 122.47 90.0398Z" fill="#DEDEDE"/>
<path d="M132.252 90.0367C132.856 90.0352 133.459 90.0352 134.064 90.0352C134.067 91.3518 134.061 92.6685 134.068 93.9867C135.067 92.6791 136.044 91.3533 137.033 90.0397C137.641 90.0336 138.25 90.0352 138.859 90.0367C138.858 92.1836 138.858 94.3291 138.859 96.4761C138.252 96.4761 137.646 96.4761 137.04 96.4761C137.035 95.1579 137.041 93.8382 137.036 92.52C136.043 93.8367 135.059 95.1609 134.065 96.4776C133.461 96.4746 132.856 96.4761 132.252 96.4761C132.25 94.3291 132.25 92.1821 132.252 90.0367Z" fill="#DEDEDE"/>
</g>
<defs>
<clipPath id="clip0_914_6685">
<rect width="145.455" height="100" fill="white" transform="translate(0.74707 0.000488281)"/>
</clipPath>
</defs>
</svg>
