<svg width="200" height="41" viewBox="0 0 200 41" fill="none" xmlns="http://www.w3.org/2000/svg">
<path d="M18.9522 0.0847022C20.2145 -0.0832674 21.53 -0.0167431 22.7307 0.437274C24.9825 1.24386 26.7969 3.19796 27.3856 5.52293C28.0974 8.08239 27.3241 11.011 25.3733 12.8321C23.6205 14.565 21.8942 16.3262 20.133 18.0525C18.7477 16.6422 17.3374 15.2552 15.9437 13.8516C15.1388 13.05 14.289 12.2633 13.7219 11.2672C12.5727 9.34631 12.3698 6.90161 13.1731 4.81446C14.0761 2.35978 16.3662 0.482175 18.9522 0.0847022Z" fill="#DEDEDE"/>
<path d="M50.3745 28.3469C51.9677 26.6838 54.8116 26.4859 56.631 27.8895C57.1282 28.2487 57.4841 28.7527 57.835 29.2449C57.1831 29.659 56.5146 30.0449 55.846 30.429C55.3138 29.5842 54.3077 29.0636 53.3098 29.2931C52.0609 29.4744 51.2244 30.7799 51.4139 31.9956C51.4954 33.2047 52.6513 34.1925 53.8586 34.0928C54.6968 34.1244 55.4003 33.5822 55.8743 32.9386C56.5362 33.3228 57.2047 33.6986 57.865 34.0878C57.3494 34.9143 56.631 35.6261 55.7246 36.0086C53.9568 36.7803 51.695 36.421 50.3546 34.9975C48.6333 33.233 48.6433 30.0997 50.3745 28.3469Z" fill="#DEDEDE"/>
<path d="M79.1616 28.3754C80.5336 26.9102 82.8935 26.546 84.6797 27.4241C86.5972 28.3305 87.4304 30.6321 87.1194 32.6428C84.8526 32.6794 82.5859 32.6395 80.3191 32.6877C80.9561 34.5703 83.6519 34.7948 84.9075 33.4161C85.5162 33.7853 86.1332 34.1379 86.7502 34.4954C85.9952 35.4933 84.8792 36.2267 83.617 36.3564C82.1368 36.5377 80.5303 36.235 79.3994 35.2106C77.4836 33.5076 77.4071 30.218 79.1616 28.3754ZM81.0359 29.5861C80.6567 29.8937 80.4738 30.3611 80.2925 30.8001C81.8175 30.8217 83.3426 30.8201 84.8676 30.8018C84.6664 30.3444 84.4718 29.8538 84.066 29.5378C83.2112 28.846 81.8807 28.9075 81.0359 29.5861Z" fill="#DEDEDE"/>
<path d="M90.7157 28.1754C91.3875 27.4853 92.2823 26.988 93.2635 26.9647C94.8384 26.8217 96.415 27.6799 97.2266 29.0236C98.4905 31.0293 98.1196 33.9629 96.2404 35.4647C94.6837 36.7785 92.0893 36.7535 90.7123 35.1836C90.709 36.6937 90.714 38.2054 90.709 39.7155C89.9423 39.7138 89.1773 39.7138 88.4123 39.7138C88.4123 35.5545 88.4106 31.3935 88.4106 27.2342C89.1773 27.2358 89.9423 27.2375 90.709 27.2342C90.7107 27.5468 90.7107 27.8595 90.7157 28.1754ZM93.1221 29.1982C92.3022 29.1749 91.484 29.5957 91.0782 30.3142C90.4063 31.4251 90.6624 33.0682 91.7867 33.7883C93.0689 34.6681 95.1394 34.0477 95.5219 32.4795C96.099 30.9345 94.8267 29.0219 93.1221 29.1982Z" fill="#DEDEDE"/>
<path d="M111.646 27.7811C113.204 26.5754 115.675 26.6685 117.007 28.1786C117.006 27.8643 117.006 27.55 117.009 27.2356C117.799 27.2356 118.592 27.234 119.384 27.2373C119.366 30.2159 119.427 33.1944 119.351 36.1713C118.569 36.1763 117.786 36.1779 117.006 36.1297C117.006 35.8121 117.007 35.4961 117.011 35.1818C116.294 35.9468 115.283 36.4357 114.223 36.3941C112.56 36.4873 110.985 35.4063 110.284 33.9311C109.251 31.8989 109.783 29.1498 111.646 27.7811ZM113.43 29.4176C111.99 30.0978 111.669 32.1982 112.69 33.3674C113.555 34.4001 115.294 34.4583 116.264 33.5403C117.282 32.5807 117.273 30.7564 116.242 29.8084C115.512 29.0999 114.335 29.055 113.43 29.4176Z" fill="#DEDEDE"/>
<path d="M123.389 28.1475C124.085 27.444 125.018 26.965 126.02 26.9617C127.382 26.8702 128.738 27.5172 129.574 28.5865C131.126 30.499 130.955 33.6007 129.117 35.272C127.597 36.7621 124.85 36.8287 123.389 35.2172C123.406 36.7156 123.393 38.214 123.398 39.7124C122.605 39.7141 121.813 39.7157 121.021 39.7124C121.02 35.5548 121.02 31.3954 121.021 27.2378C121.815 27.2361 122.608 27.2344 123.401 27.2378C123.394 27.5388 123.394 27.8431 123.389 28.1475ZM124.733 29.4047C123.193 30.1032 122.929 32.4166 124.126 33.5458C125.056 34.4056 126.644 34.4006 127.56 33.5242C128.565 32.5612 128.557 30.7618 127.531 29.8155C126.799 29.1204 125.641 29.0455 124.733 29.4047Z" fill="#DEDEDE"/>
<path d="M141.981 28.1673C143.797 26.4643 147.05 26.5308 148.653 28.4966C149.657 29.6225 149.875 31.199 149.691 32.6492C147.432 32.6376 145.177 32.6759 142.92 32.6576C143.531 34.5518 146.24 34.8129 147.49 33.4192C148.116 33.7751 148.738 34.136 149.361 34.4986C148.718 35.3301 147.84 35.9953 146.805 36.2415C145.19 36.6123 143.338 36.3778 142.061 35.2553C140.02 33.5057 140.007 29.97 141.981 28.1673ZM143.61 29.6241C143.228 29.9318 143.073 30.4091 142.905 30.8481C144.427 30.7783 145.952 30.8432 147.475 30.7949C147.279 30.3642 147.1 29.9019 146.735 29.5859C145.872 28.8408 144.457 28.8757 143.61 29.6241Z" fill="#DEDEDE"/>
<path d="M58.1064 27.2396C58.928 27.2346 59.7512 27.2363 60.5744 27.2379C61.391 29.207 62.1344 31.206 62.9676 33.1684C63.5696 31.1777 64.2814 29.2203 64.9051 27.2363C65.7383 27.2363 66.5731 27.2346 67.4063 27.2379C66.307 30.2447 65.2127 33.2532 64.1218 36.2617C63.6445 37.5439 62.8296 38.8162 61.5307 39.3816C60.8788 39.6943 60.1454 39.7309 59.4352 39.7275C59.4319 39.0257 59.4319 38.3239 59.4336 37.6221C60.029 37.5157 60.7141 37.4624 61.1449 36.9785C61.4725 36.6243 61.7968 36.1087 61.534 35.6248C60.3898 32.8308 59.2407 30.0385 58.1064 27.2396Z" fill="#DEDEDE"/>
<path d="M68.4973 27.2305C71.223 27.2438 73.9488 27.2255 76.6762 27.2404C76.6745 30.204 76.6762 33.1676 76.6745 36.1312C75.8946 36.1811 75.1129 36.1761 74.3329 36.1694C74.2298 33.9127 74.3113 31.6509 74.2814 29.3925C73.1289 29.3925 71.9781 29.3941 70.8255 29.3891C70.769 31.6509 70.8721 33.9127 70.7873 36.1728C70.014 36.1778 69.2423 36.1678 68.4706 36.1245C68.4839 33.161 68.4374 30.1957 68.4973 27.2305Z" fill="#DEDEDE"/>
<path d="M99.1999 27.2427C99.9666 27.2511 100.74 27.1895 101.507 27.2677C102.333 28.4252 103.005 29.6908 103.83 30.8499C104.74 29.734 105.388 28.4252 106.201 27.2361C106.966 27.2361 107.731 27.2361 108.498 27.2361C108.498 30.203 108.498 33.1699 108.498 36.1368C107.753 36.1751 107 36.2166 106.258 36.1252C106.152 34.4338 106.25 32.7325 106.206 31.0379C105.451 32.2552 104.7 33.4743 103.891 34.6584C102.958 33.5424 102.32 32.217 101.477 31.0362C101.417 32.7359 101.463 34.4372 101.45 36.1368C100.7 36.1884 99.9483 36.1834 99.1999 36.1268C99.1983 33.1649 99.2016 30.2047 99.1999 27.2427Z" fill="#DEDEDE"/>
<path d="M131.872 27.2324C132.653 27.2374 133.433 27.2324 134.217 27.2407C134.217 28.4365 134.213 29.6339 134.217 30.8313C134.526 30.8163 134.923 30.9377 135.108 30.6035C135.936 29.4992 136.701 28.3483 137.518 27.2341C138.447 27.2374 139.377 27.2341 140.308 27.2391C139.203 28.7026 138.1 30.1661 137.011 31.6412C138.156 33.1446 139.304 34.648 140.43 36.1681C139.535 36.1764 138.64 36.1648 137.746 36.1781C136.866 35.0272 136.019 33.8531 135.171 32.679C134.85 32.6723 134.531 32.669 134.213 32.6707C134.218 33.8248 134.215 34.9773 134.217 36.1315C133.433 36.183 132.65 36.1764 131.868 36.1697C131.797 33.1929 131.8 30.2093 131.872 27.2324Z" fill="#DEDEDE"/>
<path d="M150.48 27.2379C153.117 27.2346 155.753 27.2363 158.391 27.2363C158.389 27.968 158.388 28.6997 158.393 29.4315C157.478 29.4298 156.563 29.4315 155.649 29.4282C155.574 31.675 155.64 33.9234 155.607 36.1719C154.824 36.1752 154.04 36.1836 153.26 36.1353C153.255 33.9002 153.269 31.665 153.254 29.4298C152.327 29.4298 151.403 29.4315 150.478 29.4315C150.441 28.6997 150.44 27.968 150.48 27.2379Z" fill="#DEDEDE"/>
<path d="M49.4209 1.4585C53.6102 1.46515 57.7994 1.46016 61.987 1.46016C62.0136 6.95992 62.0136 12.4613 61.987 17.9611C60.8694 17.9594 59.7535 17.9611 58.6359 17.9594C58.6393 13.4924 58.6359 9.02711 58.6393 4.56177C56.6735 4.56344 54.7078 4.56178 52.7437 4.56344C52.747 9.02877 52.7404 13.4941 52.747 17.9594C51.6378 17.9611 50.5285 17.9561 49.4209 17.9628C49.4259 12.4613 49.4259 6.95992 49.4209 1.4585Z" fill="#DEDEDE"/>
<path d="M138.902 1.49665C140.146 1.11414 141.335 2.54937 140.798 3.71185C140.382 4.85438 138.684 5.03898 137.996 4.05611C137.271 3.19131 137.816 1.7328 138.902 1.49665Z" fill="#DEDEDE"/>
<path d="M143.206 1.58012C144.024 1.21758 145.11 1.63667 145.373 2.51809C145.7 3.29641 145.271 4.28926 144.476 4.57697C143.587 4.9944 142.409 4.36908 142.258 3.39619C142.098 2.66278 142.526 1.87948 143.206 1.58012Z" fill="#DEDEDE"/>
<path d="M67.713 6.11855C69.5324 5.39012 71.7077 5.43004 73.4173 6.43786C75.7456 7.76332 76.7551 10.672 76.3078 13.2348C73.2743 13.2415 70.2409 13.2282 67.2075 13.2415C67.4785 13.9815 67.9342 14.7 68.6693 15.0459C70.1677 15.8076 72.2 15.603 73.3292 14.2875C74.1524 14.7815 74.9973 15.2405 75.8205 15.7377C74.9889 16.8769 73.7882 17.7617 72.4012 18.0777C70.3224 18.5666 67.9608 18.2639 66.2545 16.9135C64.2871 15.3835 63.5836 12.6145 64.1956 10.2529C64.633 8.42522 65.9585 6.81704 67.713 6.11855ZM68.4015 8.96406C67.7563 9.38648 67.412 10.0949 67.1659 10.8001C69.2164 10.8184 71.267 10.8184 73.3176 10.8001C73.0897 10.1681 72.8253 9.50289 72.2815 9.07382C71.1888 8.20903 69.5491 8.20404 68.4015 8.96406Z" fill="#DEDEDE"/>
<path d="M81.6434 7.33872C83.5061 5.03537 87.2995 5.12518 89.3501 7.12751C91.9129 9.43086 92.0709 13.8164 89.7791 16.3625C88.6 17.7246 86.754 18.4713 84.9563 18.2701C83.674 18.2019 82.4733 17.5716 81.6517 16.592C81.6517 18.6426 81.6501 20.6915 81.6517 22.742C80.6223 22.7437 79.5929 22.7404 78.5634 22.7437C78.5651 17.1458 78.5668 11.5496 78.5618 5.95339C79.5912 5.95339 80.6223 5.95172 81.6534 5.95339C81.6517 6.41572 81.6517 6.87639 81.6434 7.33872ZM84.2062 8.65753C83.4163 8.82717 82.6812 9.2895 82.2371 9.96969C81.2842 11.3899 81.4954 13.5436 82.8625 14.6296C84.0715 15.5958 85.9641 15.5776 87.1465 14.5747C88.62 13.3441 88.6682 10.8262 87.3145 9.49239C86.5079 8.70909 85.2922 8.4247 84.2062 8.65753Z" fill="#DEDEDE"/>
<path d="M94.0161 8.2917C95.6309 5.79876 99.1516 4.96058 101.813 6.14801C103.424 6.8598 104.641 8.34658 105.099 10.0396C105.413 11.074 105.368 12.1716 105.263 13.2343C102.235 13.241 99.2065 13.226 96.1797 13.241C96.4209 13.8912 96.7635 14.5482 97.3838 14.9107C98.9022 15.8437 101.089 15.6558 102.301 14.2954C103.128 14.776 103.958 15.2516 104.786 15.7306C103.921 16.9463 102.612 17.8344 101.147 18.1321C99.0834 18.5495 96.7718 18.2052 95.117 16.8365C92.659 14.8126 92.2748 10.8927 94.0161 8.2917ZM97.2458 9.04507C96.662 9.46749 96.361 10.1444 96.1248 10.8013C98.1737 10.8179 100.223 10.8146 102.273 10.8013C102.075 10.2325 101.856 9.64044 101.4 9.22468C100.301 8.17362 98.4448 8.15699 97.2458 9.04507Z" fill="#DEDEDE"/>
<path d="M124.086 7.32702C125.955 5.04862 129.711 5.12346 131.766 7.10583C133.956 9.06492 134.44 12.5374 133.082 15.1019C132.094 17.0842 129.918 18.4496 127.682 18.29C126.303 18.2866 124.984 17.6414 124.091 16.6019C124.084 18.6492 124.088 20.6964 124.089 22.7436C123.06 22.7403 122.032 22.7436 121.004 22.742C121.004 17.1458 121.006 11.5495 121.003 5.95333C122.032 5.95166 123.062 5.95333 124.091 5.95166C124.086 6.41067 124.088 6.86802 124.086 7.32702ZM126.611 8.66911C125.862 8.83875 125.162 9.26948 124.721 9.90311C123.765 11.2535 123.901 13.2891 125.099 14.4516C126.336 15.6507 128.508 15.6274 129.749 14.4416C131.011 13.196 131.071 10.9708 129.907 9.64201C129.093 8.74395 127.778 8.39471 126.611 8.66911Z" fill="#DEDEDE"/>
<path d="M136.507 8.21189C138.254 5.61252 142.085 4.88078 144.766 6.40581C147.104 7.72628 148.204 10.6549 147.688 13.2344C144.663 13.246 141.64 13.2161 138.616 13.2493C138.886 13.9595 139.295 14.6613 140 15.0122C141.51 15.8204 143.582 15.6076 144.746 14.2904C145.568 14.7793 146.401 15.25 147.226 15.7373C146.373 16.918 145.112 17.8045 143.68 18.1121C141.628 18.5545 139.331 18.2335 137.653 16.9097C135.079 14.9007 134.698 10.8445 136.507 8.21189ZM139.666 9.06338C139.088 9.48081 138.796 10.156 138.575 10.8096C140.618 10.8079 142.661 10.8196 144.705 10.803C144.532 10.2575 144.32 9.69868 143.906 9.2879C142.817 8.16699 140.885 8.13706 139.666 9.06338Z" fill="#DEDEDE"/>
<path d="M152.685 6.26782C155.128 5.06709 158.372 5.54771 160.193 7.63154C160.493 7.96082 160.732 8.33834 160.973 8.71253C160.087 9.24138 159.194 9.75527 158.307 10.2808C157.401 8.49134 154.724 8.16039 153.325 9.53907C151.918 10.8512 152.016 13.4257 153.578 14.5748C154.434 15.2484 155.623 15.3365 156.646 15.0471C157.379 14.8309 157.933 14.2622 158.341 13.6369C159.225 14.1674 160.128 14.668 161.025 15.1835C160.4 16.2213 159.515 17.1077 158.421 17.6415C156.915 18.3982 155.116 18.483 153.518 17.9874C152.008 17.5235 150.717 16.4292 149.972 15.0422C149.062 13.2943 148.991 11.1406 149.759 9.32952C150.328 8.00406 151.381 6.88981 152.685 6.26782Z" fill="#DEDEDE"/>
<path d="M178.648 5.83774C180.188 5.44193 181.884 5.58994 183.301 6.33167C184.879 7.13493 186.085 8.64333 186.501 10.3696C187.075 12.5831 186.391 15.1027 184.667 16.6327C182.31 18.8928 178.202 18.8329 175.894 16.5329C173.682 14.4424 173.379 10.7355 175.139 8.27247C175.98 7.0867 177.236 6.20361 178.648 5.83774ZM179.31 8.81297C177.934 9.20711 177.025 10.6374 177.106 12.041C177.088 13.3082 177.873 14.5505 179.06 15.0195C180.19 15.4835 181.578 15.2923 182.5 14.4757C183.922 13.2567 183.95 10.787 182.579 9.5181C181.725 8.71152 180.419 8.45042 179.31 8.81297Z" fill="#DEDEDE"/>
<path d="M107.499 5.95166C108.54 5.95332 109.581 5.95332 110.622 5.95332C110.617 7.58313 110.621 9.21293 110.621 10.8427C110.965 10.8411 111.309 10.8394 111.657 10.8377C112.809 9.20628 113.977 7.58812 115.121 5.95166C116.366 5.95499 117.612 5.95166 118.858 5.95332C117.369 7.93237 115.876 9.90477 114.391 11.8855C115.929 13.9094 117.444 15.9517 119.001 17.9607C117.787 17.9573 116.573 17.9607 115.359 17.9573C114.209 16.3824 113.049 14.8141 111.903 13.2359C111.474 13.2359 111.046 13.2359 110.621 13.2359C110.621 14.8108 110.617 16.3857 110.622 17.959C109.581 17.959 108.54 17.959 107.499 17.959C107.502 13.9577 107.504 9.95466 107.499 5.95166Z" fill="#DEDEDE"/>
<path d="M162.38 5.95332C165.915 5.95166 169.451 5.95499 172.985 5.95166C172.98 6.94784 172.983 7.94568 172.983 8.94185C171.744 8.93853 170.505 8.94351 169.268 8.93853C169.26 11.9453 169.283 14.9538 169.256 17.9607C168.207 17.9573 167.156 17.9607 166.108 17.959C166.082 14.9522 166.105 11.9454 166.095 8.94019C164.858 8.94185 163.619 8.94019 162.381 8.94019C162.381 7.94401 162.383 6.94784 162.38 5.95332Z" fill="#DEDEDE"/>
<path d="M188.523 5.95372C189.553 5.95206 190.582 5.95372 191.613 5.95205C191.605 7.58186 191.61 9.21333 191.61 10.8431C191.958 10.8415 192.307 10.8398 192.659 10.8381C193.824 9.21499 194.978 7.58519 196.134 5.95538C197.378 5.94873 198.622 5.96037 199.867 5.94873C198.365 7.9178 196.895 9.91015 195.402 11.8859C196.932 13.9115 198.464 15.9371 200 17.9577C198.791 17.9611 197.582 17.9594 196.375 17.9594C195.219 16.3878 194.063 14.8179 192.917 13.2396C192.48 13.2346 192.044 13.2346 191.61 13.2346C191.608 14.8095 191.607 16.3845 191.612 17.9611C190.581 17.9594 189.553 17.9594 188.523 17.9594C188.527 13.9564 188.527 9.95506 188.523 5.95372Z" fill="#DEDEDE"/>
<path d="M15.3484 27.0905C16.9566 25.4839 18.5664 23.8791 20.1679 22.2676C21.6331 23.7394 23.1049 25.2046 24.5717 26.6747C25.3002 27.3965 26.0535 28.1149 26.5757 29.0063C27.6201 30.7293 27.9128 32.8829 27.3773 34.8237C26.772 37.1553 24.9393 39.1128 22.6709 39.9077C21.3986 40.3335 20.0166 40.4865 18.6978 40.1871C16.2398 39.7281 14.0944 37.9137 13.2063 35.5804C12.4779 33.7311 12.5278 31.5824 13.361 29.7747C13.8117 28.7436 14.5385 27.8621 15.3484 27.0905Z" fill="#DEDEDE"/>
<path d="M5.11742 13.0723C7.09148 12.3755 9.33495 12.6349 11.1543 13.6411C11.9476 14.0918 12.6295 14.7104 13.2681 15.3573C14.858 16.9639 16.4712 18.5471 18.0561 20.1603C16.6757 21.4907 15.3453 22.8694 13.9782 24.2132C13.0203 25.1528 12.1405 26.2355 10.8999 26.8159C9.36821 27.6241 7.55714 27.812 5.87079 27.4794C3.53252 26.9722 1.47697 25.2825 0.577247 23.0607C-0.354069 20.8621 -0.149512 18.2162 1.12606 16.1955C2.05904 14.752 3.46267 13.5812 5.11742 13.0723Z" fill="#DEDEDE"/>
<path d="M27.3155 15.117C29.1316 13.1429 32.0353 12.2149 34.6446 12.9067C37.3671 13.5354 39.5989 15.8288 40.1694 18.5612C40.497 20.2625 40.3273 22.0952 39.4908 23.6319C38.4281 25.704 36.3393 27.1975 34.0393 27.5517C32.6772 27.713 31.2636 27.6216 29.9947 27.0711C28.7507 26.5921 27.7446 25.6841 26.8349 24.7378C25.3132 23.2144 23.7915 21.6944 22.2698 20.171C23.9445 18.4797 25.6375 16.805 27.3155 15.117Z" fill="#DEDEDE"/>
</svg>
