<svg width="81" height="100" viewBox="0 0 81 100" fill="none" xmlns="http://www.w3.org/2000/svg">
<path d="M40.2365 0.802039C40.8167 0.526424 41.4327 0.32936 41.9867 0C47.4287 2.30552 52.8473 4.6634 58.2879 6.96892C58.6118 7.115 58.948 7.228 59.2898 7.32722C59.3697 8.15544 59.3146 8.98642 59.3174 9.81602C59.3325 13.7656 59.3243 17.7138 59.3187 21.6633C59.4014 23.4149 59.1685 25.1953 58.5443 26.8394C58.2824 27.6262 57.9779 28.4049 57.5769 29.1311C57.3398 29.4618 57.1841 29.8381 56.9733 30.184C56.7858 30.472 56.6094 30.7669 56.3972 31.037C56.0761 31.5221 55.7275 31.9892 55.3733 32.4495C55.2576 32.5653 55.1446 32.6838 55.0316 32.8023C54.6553 33.377 54.1248 33.8207 53.6507 34.3099C53.1381 34.8088 52.6764 35.3683 52.0673 35.7541C51.1523 36.5961 50.1449 37.3362 49.11 38.0238C48.8977 38.174 48.6841 38.3229 48.4788 38.4813C48.4347 38.4979 48.3438 38.5337 48.2983 38.5516C48.126 38.6825 47.9496 38.8079 47.776 38.9361C47.0222 39.3619 46.2973 39.8387 45.527 40.2329C44.3694 40.8737 43.1953 41.509 41.9633 41.9941C40.5618 41.3188 39.1865 40.5953 37.8401 39.8222C37.3578 39.5245 36.8589 39.2544 36.3903 38.9361C35.8515 38.6026 35.2961 38.2925 34.8028 37.8915C33.925 37.3224 33.1243 36.6471 32.2823 36.0311C31.8248 35.5171 31.257 35.1271 30.7554 34.6627C30.3902 34.2892 30.0154 33.924 29.6474 33.5547C29.5854 33.4403 29.5262 33.326 29.4669 33.2116C28.5629 32.3393 27.8518 31.2905 27.1793 30.2349C27.1104 30.1302 27.0415 30.0241 26.9726 29.9194C25.4691 27.403 24.6492 24.4663 24.7318 21.5296C24.7208 16.8263 24.7635 12.1215 24.707 7.41817C26.03 6.87797 27.3488 6.32398 28.6676 5.77137C29.4462 5.38551 30.2717 5.10301 31.0517 4.72128C31.0724 4.04051 31.308 3.39971 31.5767 2.78371C31.7035 2.60318 31.8275 2.4199 31.9529 2.23661C32.088 1.99959 32.2561 1.65231 32.5882 1.70054C33.0085 1.87005 33.3999 2.1305 33.8561 2.20492C34.2612 2.25866 34.6719 2.22421 35.0784 2.20078C35.1983 1.94171 35.3802 1.72397 35.6159 1.56274C36.5047 0.88748 37.7657 0.826844 38.7758 1.26232C39.3091 1.29401 39.7611 0.989457 40.2365 0.802039ZM41.7331 1.32984C41.0276 1.62337 40.3385 1.95411 39.6261 2.2311C40.322 3.05519 40.3537 4.34507 39.728 5.21463C39.3973 5.70523 39.316 6.30331 39.1727 6.86556C39.0983 6.90002 38.9508 6.9703 38.8764 7.00475C39.4634 7.17012 39.9899 7.47467 40.4295 7.89636C41.4768 8.44622 42.8742 8.38558 43.6666 9.38882C45.0488 8.94784 46.4944 8.76731 47.9028 8.42968C49.0052 8.22572 50.0043 7.68965 51.093 7.42644C51.7228 7.82746 52.3939 8.26018 52.8128 8.8872C52.839 9.67959 52.0315 10.1771 51.7049 10.8454C51.9805 11.1059 52.3057 11.3402 52.4807 11.6874C52.6585 12.1587 52.5524 12.6741 52.4794 13.1565C52.7453 13.5851 52.9975 14.0371 53.0692 14.5456C53.2028 15.4896 53.2097 16.5272 52.6516 17.3486C52.4173 17.8392 51.8882 18.0541 51.5505 18.451C51.3383 18.9637 51.2308 19.5218 50.929 19.9945C50.6231 20.5333 50.116 20.9095 49.6185 21.2568C50.2965 22.2476 51.4237 22.7837 52.1762 23.707C52.6447 24.2403 52.8363 24.9362 53.0857 25.5853C53.5639 24.5848 53.7651 23.4672 53.812 22.3661C53.8202 16.9834 53.8037 11.602 53.8202 6.22063C50.0112 4.63446 46.2339 2.97113 42.4346 1.36292C42.2127 1.26645 41.9591 1.21546 41.7331 1.32984ZM35.8184 2.91876C35.8102 2.97664 35.7923 3.0924 35.784 3.15166C34.7642 3.50858 33.6879 3.28395 32.6957 2.95183C32.591 3.19713 32.4863 3.44243 32.3857 3.6891C32.6062 3.72631 32.8253 3.76076 33.0471 3.79935C33.484 3.94405 33.9512 3.87928 34.4032 3.87652C34.4032 3.94267 34.4004 4.07634 34.4004 4.14387C33.6631 4.15489 32.9121 4.23207 32.1913 4.035C32.1927 4.21966 32.1941 4.4057 32.1969 4.59174C32.1473 4.65651 32.0467 4.78743 31.9957 4.8522C32.7853 4.87425 33.5997 4.91559 34.3343 4.56969C34.4032 4.65376 34.541 4.81912 34.6099 4.90319C34.2144 5.04237 33.8051 5.1347 33.4041 5.24908C32.9782 5.2546 32.5524 5.26838 32.1293 5.2918C32.1679 5.55915 32.2106 5.8265 32.2575 6.09246C32.9989 6.02081 33.7196 5.78929 34.3577 5.40343C34.45 5.41445 34.6361 5.43375 34.7284 5.44339C34.6884 5.51781 34.6099 5.66802 34.5699 5.74243C33.8836 6.0966 33.167 6.45214 32.3719 6.41356C32.6544 6.73465 32.9355 7.05987 33.2139 7.3851C33.3269 7.31206 33.4385 7.23902 33.5515 7.16461C33.7362 7.03507 33.9181 6.90277 34.0972 6.76359C34.6305 6.42596 34.9875 5.90091 35.383 5.4241C35.6338 5.14022 35.3719 4.77365 35.3637 4.45394C35.4312 4.14111 35.5759 3.85172 35.7647 3.59402C36.0913 3.60918 36.4262 3.61331 36.739 3.73045C37.0587 3.74423 37.3812 3.73734 37.7023 3.76076C38.3417 3.82553 38.8516 4.33404 39.5103 4.3051C39.5448 3.96885 39.6936 3.60366 39.5351 3.27982C39.3601 2.96424 39.0927 2.71205 38.8226 2.47778C38.4271 2.15806 37.909 2.11397 37.4363 1.98718C36.7762 2.05333 36.225 2.4075 35.8184 2.91876ZM36.0086 4.07221C36.0376 4.40019 35.9935 4.76814 36.2429 5.02584C36.2498 5.07958 36.2608 5.18569 36.2663 5.23944C35.9438 5.71487 35.9411 6.36946 36.2057 6.87108C36.5571 7.33824 37.18 7.43884 37.6899 7.65658C37.7781 7.6235 37.9545 7.5546 38.044 7.52153C38.0688 7.3534 38.0936 7.18803 38.1212 7.02129C37.9186 6.9386 37.8056 6.77599 37.7395 6.57892C37.9296 6.59822 38.1212 6.61889 38.3141 6.64094C38.2783 6.56928 38.2053 6.42458 38.1681 6.35292C37.5934 6.38875 37.0036 6.41769 36.4496 6.23303C36.4496 5.6501 36.3614 5.03686 36.6522 4.50079C36.5268 4.45531 36.4027 4.40984 36.2815 4.36436C36.2126 4.29132 36.0761 4.14525 36.0086 4.07221ZM37.0932 4.30235C36.9526 4.79845 36.7914 5.29456 36.7183 5.8072C37.0863 6.02218 37.5162 6.08282 37.9324 6.13656C37.9476 6.00289 37.9765 5.73554 37.9917 5.60187C38.2025 5.71487 38.3637 5.88575 38.4588 6.10762C38.5291 6.09936 38.6711 6.0842 38.7413 6.07593C38.824 5.65562 38.9329 5.23944 39.0404 4.82326C38.9715 4.83015 38.835 4.84255 38.7661 4.84944C38.2604 4.54213 37.7009 4.27065 37.0932 4.30235ZM30.2248 6.33501C30.2731 10.8041 30.2317 15.2732 30.2441 19.7423C30.2593 20.802 30.1904 21.8659 30.3199 22.9201C30.5487 25.3469 31.7366 27.6001 33.3476 29.3957C33.7389 28.4366 33.8506 27.3713 33.6507 26.3529C33.5005 25.5426 33.5157 24.7102 33.6618 23.8999C33.4771 23.8806 33.2924 23.86 33.1105 23.8407C33.3048 22.8333 33.5377 21.8314 33.7169 20.8199C33.8891 19.7685 34.2585 18.7446 34.2557 17.6669C34.275 16.7905 34.264 15.801 33.6521 15.1023C33.0099 14.383 32.3402 13.6471 32.0081 12.7238C31.749 11.9851 31.3797 11.2795 31.2239 10.5092C31.0572 9.34885 31.7517 8.33873 32.2878 7.37683C31.9846 6.84352 31.7214 6.28815 31.5133 5.71074C31.0682 5.88713 30.6383 6.0966 30.2248 6.33501ZM33.4674 7.93633C33.2359 8.08516 32.9686 8.00937 32.7288 7.93357C32.2437 8.60469 31.8799 9.37504 31.7931 10.206C31.8565 10.5616 31.9736 10.9047 32.0784 11.2506C32.4601 12.1987 32.7522 13.2405 33.5143 13.9709C34.3081 14.7316 34.9875 15.7845 34.7821 16.9338C35.6655 17.1474 36.5846 17.197 37.4804 17.0385C37.4087 16.9958 37.2654 16.909 37.1938 16.8649C37.089 16.5093 36.9498 16.1648 36.8341 15.8134C36.6274 15.6742 36.4303 15.5226 36.2346 15.3697C35.9935 14.7592 36.0155 14.1005 36.0403 13.4569C35.7151 13.3067 35.394 13.1482 35.0826 12.9746C34.6746 12.6907 34.3232 12.3365 34.0421 11.9272C33.7996 11.5744 33.3655 11.4518 32.9989 11.2726C32.6585 10.9722 32.3815 10.6043 32.263 10.1605C32.4284 10.0861 32.5979 10.0117 32.766 9.93591C33.0912 10.5023 33.6053 10.9998 34.2681 11.1252C34.3356 11.252 34.4045 11.3788 34.4734 11.5083C34.9695 11.9134 35.3402 12.6452 36.0444 12.6769C36.0417 12.1243 36.0238 11.5717 36.0624 11.0205C36.1368 11.0329 36.287 11.0577 36.3614 11.0701C37.3288 11.4408 38.2011 12.229 38.4037 13.2764C38.4671 13.45 38.5277 13.625 38.5911 13.8014C38.9467 13.9461 39.2884 14.1253 39.6247 14.3113C39.9885 14.1459 40.384 14.088 40.7643 13.9695C41.5485 13.6801 42.2403 13.1923 42.8852 12.6659C43.4626 12.1904 44.142 11.8694 44.8297 11.5882C45.1356 11.4683 45.3313 11.1872 45.5504 10.9557C45.8701 10.873 46.1926 10.7958 46.5219 10.76C46.533 10.8482 46.555 11.026 46.5674 11.1155C46.883 11.3512 47.2578 11.4807 47.6478 11.5276C47.6506 11.478 47.6533 11.3774 47.6561 11.3278C47.4094 10.6704 46.679 10.5919 46.1044 10.3879C45.5063 10.6305 44.9151 10.924 44.2605 10.9653C42.7874 11.2382 41.3087 11.5359 39.9017 12.0609C39.6522 11.9906 39.4056 11.9107 39.1644 11.8197C39.0225 11.5496 38.9508 11.2037 38.6587 11.0508C37.8869 10.5051 36.9733 10.2363 36.1092 9.87941C36.0968 9.2896 35.7399 8.83208 35.3223 8.45448C35.4078 8.29049 35.4932 8.12512 35.5787 7.96113C36.123 8.10859 36.349 8.66257 36.6053 9.10493C36.6136 9.17797 36.6301 9.32405 36.637 9.39709C37.3509 9.69337 38.0647 9.98552 38.7565 10.3314C39.1754 10.6208 39.5117 11.0108 39.7845 11.4394C39.9582 11.3815 40.1318 11.325 40.3082 11.2685C40.1745 11.0384 40.0477 10.8027 39.9251 10.5671C40.0436 10.0572 40.1249 9.49631 39.9223 8.99607C40.1401 8.9561 40.3578 8.90649 40.5769 8.85688C40.6334 9.60655 40.4005 10.4389 40.8829 11.0921C41.576 10.9088 42.2692 10.7159 42.9775 10.5905C43.3662 10.4982 43.763 10.4334 44.1599 10.3783C44.8517 10.3328 45.4691 9.97588 46.081 9.68235C46.6832 9.918 47.2868 10.1495 47.8986 10.359C48.4071 9.94694 49.183 9.83394 49.409 9.14077C50.0388 9.11734 50.6686 9.12285 51.2997 9.12561C51.1509 9.03879 51.0021 8.95335 50.856 8.86791C50.7071 8.84034 50.5597 8.81278 50.4136 8.78522C50.4081 8.68324 50.3957 8.47791 50.3902 8.37593C50.8064 8.45724 51.2088 8.59229 51.6029 8.74664C51.6167 8.81416 51.6429 8.94646 51.6553 9.01398C51.7242 9.25515 51.7393 9.50595 51.7614 9.75401C51.8675 9.58037 51.9764 9.40811 52.0935 9.24136C52.1045 9.17797 52.1266 9.04981 52.1376 8.98642C51.7972 8.71218 51.4375 8.46137 51.1247 8.15682C50.641 8.14304 50.1945 8.32908 49.7439 8.47653C49.4049 8.66809 49.0466 8.82932 48.6635 8.90374C47.572 9.19451 46.4517 9.34196 45.3506 9.58175C44.9868 9.69337 44.6147 9.77192 44.2467 9.86563C43.905 9.99793 43.5357 9.93867 43.1829 9.90146C42.8893 9.51973 42.5159 9.17935 42.0336 9.07324C41.4286 8.85413 40.8016 8.71218 40.1897 8.52063C39.808 8.0259 39.2099 7.81781 38.6655 7.56425C38.6022 7.71721 38.5401 7.87156 38.4795 8.0259C37.9159 8.22159 37.2778 8.24502 36.7225 8.00799C36.2195 7.84538 35.9039 7.39888 35.5304 7.05574C35.4863 6.83387 35.4436 6.612 35.3967 6.39013C34.829 6.98821 34.2088 7.56287 33.4674 7.93633ZM28.9653 6.80906C27.9207 7.21146 26.9119 7.6993 25.8715 8.10859C25.8054 13.038 25.866 17.9673 25.8398 22.8953C25.8205 23.4259 25.9473 23.944 26.0203 24.4663C26.5068 27.2294 27.9386 29.7195 29.6736 31.8873C30.1945 32.3779 30.6093 32.9622 31.0958 33.4858C31.8193 34.1459 32.5565 34.7895 33.3076 35.4179C33.7086 35.7321 34.0931 36.0683 34.5106 36.3619C34.789 36.5355 35.0522 36.7339 35.2934 36.9586C35.343 36.9806 35.4422 37.0275 35.4932 37.0495C35.8984 37.3375 36.3104 37.62 36.7307 37.8874C37.1938 38.1699 37.6568 38.4524 38.124 38.7308C39.4056 39.5011 40.7616 40.1337 42.0859 40.8268C42.735 40.5195 43.373 40.186 43.9863 39.8112C44.7112 39.457 45.4236 39.078 46.1085 38.6522C47.2565 38.0073 48.341 37.2617 49.4131 36.501C49.9437 36.1386 50.3902 35.6646 50.9511 35.3448C51.166 35.1354 51.3783 34.9218 51.5864 34.7054C51.6415 34.6889 51.7517 34.653 51.8082 34.6365C51.8689 34.5745 51.9915 34.4505 52.0521 34.3871C52.4104 34.0122 52.7853 33.6512 53.1519 33.2819C55.0233 31.4091 56.5281 29.1614 57.5011 26.6933C57.8993 25.4682 58.2218 24.199 58.2397 22.9036C58.4478 21.7198 58.3279 20.5154 58.3582 19.3206C58.3348 15.5819 58.4065 11.8418 58.3196 8.10583C57.2172 7.75856 56.2029 7.17563 55.1032 6.81458C55.0481 6.81595 54.9378 6.81871 54.8827 6.82009C54.9613 7.63591 54.8979 8.45586 54.9075 9.27306C54.9144 13.4996 54.8965 17.7275 54.9185 21.9541C54.8193 22.8526 54.7725 23.7621 54.563 24.6455C53.7045 28.1761 51.1454 30.9929 48.3176 33.1344C48.1246 33.2722 47.9358 33.4142 47.7539 33.5644C47.6203 33.6443 47.4907 33.7256 47.3626 33.8097C46.0079 34.7674 44.5472 35.5598 43.0588 36.2847C42.6358 36.4707 42.1934 36.8414 41.7097 36.632C40.6141 36.1138 39.5503 35.5364 38.4988 34.9369C38.1405 34.7054 37.7739 34.4904 37.417 34.2603C36.9181 33.9061 36.3945 33.5878 35.908 33.2171C35.8074 33.1427 35.7068 33.0696 35.6076 32.9966C35.4284 32.8505 35.2465 32.7072 35.0591 32.5763C34.7215 32.2607 34.377 31.9562 34.0132 31.6723C33.0402 30.8137 32.2065 29.8064 31.4389 28.7632C30.2745 27.024 29.3966 25.0217 29.2809 22.9105C29.2877 17.4891 29.2657 12.0664 29.296 6.64507C29.1844 6.69882 29.0741 6.75394 28.9653 6.80906ZM49.646 9.7292C49.9451 9.78984 50.251 9.82842 50.5569 9.86563C50.5101 10.4665 50.3557 11.0522 50.1449 11.6158C50.1366 11.5607 50.1187 11.4504 50.1091 11.3939C50.0167 11.3526 49.8307 11.2671 49.7384 11.2244C49.6391 11.2093 49.4393 11.1776 49.3401 11.1624C49.4311 10.9157 49.5289 10.6718 49.6309 10.4293C49.7094 10.2391 49.7962 10.0544 49.8872 9.86977C49.5771 10.1164 49.4118 10.4844 49.1775 10.7945C49.0783 11.11 48.9901 11.4284 48.9157 11.7508C48.1784 12.2345 47.222 12.0251 46.4103 11.8666C46.3015 11.7398 46.194 11.6144 46.0878 11.4904C45.9335 11.5524 45.7819 11.6158 45.6303 11.6806C45.5339 11.8804 45.4374 12.0788 45.3437 12.2786C46.2022 12.2483 47.0566 12.3696 47.8918 12.5694C48.5587 12.7417 49.2684 12.8726 49.8211 13.3163C49.8348 13.5975 49.8638 13.8772 49.8996 14.157C50.2179 14.2989 50.5569 14.3719 50.9015 14.4243C50.9097 14.157 50.9152 13.891 50.918 13.6236C50.7512 13.3577 50.5845 13.0945 50.4343 12.8202C50.8339 12.8685 51.2143 13.0021 51.5891 13.1468C51.6553 13.1041 51.7889 13.0187 51.8551 12.9759C51.9047 12.7086 52.0301 12.4454 52.0081 12.1684C51.9364 11.9079 51.7655 11.6943 51.607 11.4835C51.4554 11.3636 51.3066 11.241 51.1592 11.1224C51.2529 11.2823 51.3438 11.4435 51.4348 11.6075C51.3604 11.901 51.1233 12.1684 50.8174 12.2332C50.7857 11.7605 50.7361 11.2823 50.8119 10.8124C50.9263 10.7256 51.0462 10.6442 51.1702 10.5698C51.1881 10.2804 51.2074 9.99104 51.2253 9.70164C50.6989 9.67684 50.1683 9.63825 49.646 9.7292ZM49.9974 10.5395C50.0719 10.6167 50.0719 10.6167 49.9974 10.5395V10.5395ZM48.1109 11.4229C48.4623 11.3154 48.494 10.9364 48.5808 10.6401C48.2914 10.811 48.1136 11.0783 48.1109 11.4229ZM49.8514 10.9254C49.9258 11.0039 49.9258 11.0039 49.8514 10.9254V10.9254ZM36.6356 11.8501C36.6315 11.9396 36.6232 12.1188 36.6191 12.2084C36.7831 12.2979 36.9498 12.3861 37.1193 12.4674C37.3343 12.6879 37.479 12.9594 37.6127 13.235C37.4556 13.3012 37.2985 13.3659 37.1414 13.4293C37.3936 13.6691 37.4446 14.0012 37.4391 14.3361C37.3495 14.3306 37.169 14.3209 37.0794 14.3168C37.0284 14.1418 36.9802 13.9668 36.9319 13.7918C36.8175 13.687 36.7032 13.5837 36.5902 13.4789C36.5998 13.8455 36.5626 14.2148 36.6136 14.58C36.7666 14.9301 37.0587 15.1878 37.3288 15.4482C37.4928 15.9016 37.7202 16.3288 37.869 16.7877C38.1901 17.4078 38.485 18.0417 38.8116 18.6591C38.9963 19.0188 39.3573 19.2641 39.7542 19.3289C40.8264 19.5742 41.8958 19.8346 42.9734 20.0537C43.6735 20.2095 44.3763 20.3528 45.0832 20.4727C45.2376 19.7657 45.4856 19.0533 45.3933 18.3201C45.3285 17.9287 45.2059 17.5484 45.0612 17.1791C43.3841 16.6278 41.6518 17.3568 39.9499 17.2135C39.9403 17.1391 39.921 16.9917 39.9113 16.9186C39.8025 16.8111 39.695 16.705 39.5889 16.5989C39.3132 16.1841 39.0197 15.7789 38.6835 15.411C38.6614 15.349 38.6187 15.225 38.5966 15.1629C38.4519 15.0486 38.3114 14.9342 38.1694 14.8198C37.8911 14.1707 37.9407 13.4238 37.5769 12.8009C37.377 12.3848 36.9802 12.1339 36.6356 11.8501ZM42.2058 13.9241C41.8572 14.1528 41.4685 14.332 41.1667 14.6241C41.1185 15.298 41.1213 15.976 41.0179 16.6458C41.3542 16.191 41.5085 15.637 41.8076 15.1616C42.221 14.4973 42.6978 13.8565 43.3372 13.3921C43.843 12.9704 44.4645 12.7127 44.9454 12.258C43.8802 12.5336 43.1236 13.3742 42.2058 13.9241ZM36.4896 12.6659C36.6067 12.9897 36.8423 13.2392 37.1634 13.3673C37.1083 13.2102 37.0518 13.0545 36.9953 12.8988C36.8258 12.8202 36.6563 12.7431 36.4896 12.6659ZM45.3492 12.8519C44.911 13.1027 44.4452 13.3177 44.0731 13.6664C44.0235 13.6912 43.9243 13.7408 43.876 13.767C43.5329 14.1239 43.1567 14.4491 42.8273 14.8184C42.3987 15.3517 42.0515 15.9443 41.7538 16.5576C42.5806 16.2847 43.4709 16.4887 44.3253 16.4156C44.4796 16.2241 44.6436 16.0394 44.82 15.8671C45.3961 16.3922 45.7268 17.1047 45.9748 17.8295C45.9556 18.5971 45.99 19.3688 45.8453 20.1281C45.7213 20.1984 45.5973 20.2673 45.4732 20.3321C45.5394 20.5443 45.6055 20.7579 45.651 20.9784C45.9101 21.0349 46.1678 21.0956 46.4296 21.1521C46.6005 20.7993 46.7466 20.4368 46.894 20.0758C47.12 19.1277 47.1696 18.1038 46.8623 17.168C46.6887 16.6389 46.2698 16.2213 46.1623 15.6659C47.0098 15.914 47.211 16.9035 47.386 17.6517C47.6051 18.4538 47.3998 19.2724 47.3074 20.0758C47.1641 20.4217 47.0511 20.7786 46.9354 21.1341C47.3116 21.1107 47.6892 21.0969 48.0668 21.0776C48.4154 20.0524 48.7723 18.9334 48.4857 17.8516C48.3727 17.1377 48.1715 16.417 47.7209 15.8396C47.8297 15.7293 47.94 15.6205 48.0516 15.5116C48.2611 15.9236 48.4774 16.3343 48.6345 16.7712C48.72 17.0151 48.8027 17.2645 48.8357 17.5222C48.8936 18.7046 48.917 19.9077 48.5367 21.0446C48.8564 20.9095 49.1678 20.7579 49.482 20.6077C49.8266 19.7354 50.0719 18.7804 49.9203 17.8392C49.8059 17.1446 49.6405 16.457 49.3911 15.7982C49.4586 15.7362 49.5923 15.6136 49.6598 15.5516C50.1697 16.4556 50.2345 17.5015 50.3626 18.5062C50.302 19.0574 50.1725 19.6003 50.0856 20.1502C50.1697 20.0096 50.2551 19.8691 50.342 19.7299C50.7333 19.1098 50.9773 18.4 51.053 17.671C51.1123 16.9875 50.856 16.3357 50.7513 15.6687C51.0007 15.7321 51.2129 15.8878 51.2653 16.1524C51.3548 16.6912 51.3769 17.2397 51.421 17.784C51.6387 17.5663 51.8592 17.3527 52.0866 17.1432C52.3815 16.5893 52.5992 15.9733 52.5689 15.338C52.602 14.7606 52.3057 14.2479 52.1541 13.7091C51.9309 13.6981 51.7076 13.6912 51.4858 13.6843C51.4747 14.0949 51.5285 14.5387 51.2584 14.8832C50.5693 14.97 49.7714 14.9879 49.3098 14.3733C49.274 14.1184 49.2395 13.8662 49.2051 13.6126C48.5753 13.4362 47.9717 13.1661 47.3198 13.0765C46.9684 13.0076 46.606 12.9911 46.267 12.8712C45.9611 12.8519 45.6551 12.8505 45.3492 12.8519ZM38.8557 14.6186C39.0555 14.8487 39.2567 15.0803 39.4428 15.3228C39.7845 15.7583 40.1235 16.1993 40.3936 16.6843C40.4322 15.9843 40.61 15.298 40.6004 14.5938C40.2779 14.7178 39.9706 14.9108 39.6164 14.9204C39.3463 14.8667 39.1065 14.722 38.8557 14.6186ZM34.7697 17.5636C34.7725 17.6834 34.7766 17.9246 34.7794 18.0445C35.4588 18.305 36.1933 18.1534 36.8892 18.3229C37.2268 18.3821 37.5479 18.2099 37.8718 18.1313C37.7781 17.9701 37.6899 17.8089 37.603 17.6462C36.6591 17.6834 35.7041 17.7234 34.7697 17.5636ZM34.7683 18.6894C34.5671 19.683 34.4073 20.6849 34.1455 21.6647C33.9994 22.209 34.0104 22.7933 33.7706 23.3115C34.6939 23.2302 35.6476 23.0386 36.5612 23.277C36.6797 23.277 36.7996 23.277 36.9209 23.2757C37.1979 22.4419 37.1345 21.5627 37.1634 20.7001C37.3757 20.6904 37.5879 20.6808 37.8029 20.6711C37.8704 21.6316 37.6485 22.5825 37.5259 23.532C37.4487 23.667 37.3784 23.8049 37.3054 23.9427C37.3881 23.9923 37.5534 24.0929 37.6361 24.1439C37.8594 24.1301 38.0826 24.1163 38.3072 24.1011C38.5484 23.1158 38.7441 22.1153 38.649 21.0956C38.8488 21.1645 39.2705 20.9564 39.3105 21.2554C39.1796 22.187 39.2292 23.1379 38.9715 24.0529C39.2113 23.9812 39.4524 23.9054 39.6936 23.8338C39.7694 23.798 39.9196 23.7235 39.9954 23.6877C40.1208 23.0097 40.1966 22.3248 40.198 21.6344C40.3606 21.633 40.5232 21.633 40.6872 21.6316C40.7202 22.3262 40.8029 23.0414 40.6072 23.7208C40.6569 23.6533 40.7588 23.5196 40.8084 23.4521C40.9214 23.4493 41.1461 23.4424 41.2577 23.4397C41.5788 23.3377 41.9123 23.2936 42.2416 23.2274C41.802 22.2793 41.2797 21.3491 41.0965 20.3073C40.6348 20.1392 40.1483 20.0524 39.6757 19.9242C39.356 19.847 39.0418 19.7533 38.7289 19.6596C38.5332 19.3647 38.3362 19.0712 38.1405 18.7776C38.1033 18.8162 38.0303 18.892 37.993 18.9306C36.9113 18.9389 35.835 18.8769 34.7683 18.6894ZM41.7951 20.4355C41.8544 20.6876 41.9233 20.9357 41.9908 21.1865C42.181 21.6812 42.3932 22.1691 42.6757 22.6183C43.3786 23.7663 44.2164 24.8412 45.3216 25.628C45.9955 25.9491 46.657 26.3143 47.3956 26.4742C47.9427 26.9524 48.4209 27.556 48.5711 28.2836C48.8357 29.3351 48.72 30.4293 48.5891 31.4904C49.1348 31.1059 49.6088 30.6373 50.0705 30.1578C50.3998 29.8601 50.6948 29.5252 50.9469 29.1587C51.1853 28.8844 51.4072 28.5937 51.6387 28.3125C51.9874 27.782 52.3705 27.2693 52.6213 26.6823C52.8335 26.2344 52.4683 25.8058 52.3664 25.38C52.0687 24.3892 51.2556 23.6932 50.5211 23.0207C49.9671 22.6128 49.4503 22.1374 49.1017 21.5365C48.4154 21.6261 47.7402 21.8838 47.0415 21.7956C46.3276 21.6978 45.6165 21.5917 44.9082 21.4649C44.8958 21.3147 44.8862 21.1658 44.8765 21.017C44.6106 20.9826 44.346 20.9522 44.0869 20.8888C43.3152 20.7745 42.5517 20.6256 41.7951 20.4355ZM34.2474 23.9013C34.2695 24.3878 34.2144 24.8715 34.1634 25.3538C34.2323 25.7865 34.2529 26.2234 34.2681 26.6602C34.4045 26.9055 34.4142 27.188 34.3439 27.4554C34.2254 27.9198 34.2419 28.4007 34.2309 28.8762C34.0697 29.2414 33.9263 29.6134 33.7982 29.991C34.5506 30.6938 35.3347 31.365 36.1299 32.0209C36.2263 31.6254 36.3132 31.2285 36.3986 30.8303C36.6163 29.9717 36.0996 29.1132 36.3766 28.256C36.4689 27.5312 37.0091 27.002 37.2778 26.3474C37.4942 25.8237 37.6995 25.2959 37.898 24.7654C37.4308 24.7309 36.987 24.5931 36.5764 24.3712C36.575 24.2072 36.575 24.0433 36.575 23.8793C35.8102 23.6436 35.0164 23.7621 34.2474 23.9013ZM39.5737 24.4457C40.1814 25.1374 40.7106 25.9009 41.3817 26.5362C41.7028 26.8724 41.995 27.2611 42.13 27.7131C41.842 28.1279 41.4313 28.4393 41.0951 28.8141C40.4033 29.8133 39.8259 31.0039 40.0684 32.2538C40.2806 33.0876 40.4157 33.9392 40.5053 34.7964C40.9325 34.9976 41.3597 35.2029 41.7635 35.451C41.8296 35.0927 41.9247 34.7399 42.0611 34.4009C42.4194 32.9057 43.0575 31.5 43.4268 30.0076C43.6073 29.466 43.7796 28.9189 44.0249 28.4007C44.3556 27.9267 44.6478 27.4278 44.9234 26.9193C44.7263 26.3185 44.4838 25.6969 43.9932 25.2739C43.5012 24.8288 43.0271 24.3547 42.6785 23.7856C41.6243 23.9151 40.61 24.2334 39.5737 24.4457ZM38.5746 24.662C38.2218 25.6432 37.9076 26.652 37.3371 27.5353C37.1069 27.8771 36.9347 28.2671 36.9705 28.6887C37.0091 29.9359 37.1056 31.2189 36.6356 32.4068C37.6223 33.1344 38.66 33.8042 39.7584 34.3526C39.8755 33.4541 39.3863 32.6287 39.4703 31.7329C39.378 30.1219 40.2586 28.6033 41.412 27.5408C40.9311 26.9841 40.4763 26.4039 39.9361 25.9023C39.4703 25.4847 39.3256 24.6496 38.5746 24.662ZM45.0433 28.0259C44.6354 28.6667 44.2605 29.3488 44.0552 30.0847C43.9932 30.7572 44.0318 31.438 44.0538 32.1119C44.5127 32.3034 44.8765 32.6438 45.239 32.9746C45.2555 33.0545 45.2872 33.2171 45.3037 33.2984C45.363 33.4596 45.4222 33.6209 45.4801 33.7835C45.9611 33.3659 46.5605 33.1069 47.018 32.6659C46.9409 32.1229 46.77 31.5786 46.9119 31.0301C46.9822 30.2322 47.521 29.5817 48.1233 29.1008C48.0268 28.4641 47.8394 27.8123 47.408 27.3189C46.821 26.8848 46.0947 26.7264 45.4388 26.4315C45.4539 26.9937 45.3795 27.5573 45.0433 28.0259ZM47.5307 30.9446C47.3763 31.4077 47.4935 31.8969 47.5968 32.3558C47.7553 32.1684 48.0433 32.0223 48.0034 31.7329C48.002 31.1086 48.0199 30.4802 48.2115 29.8808C47.9331 30.1977 47.6478 30.5298 47.5307 30.9446ZM43.3992 32.0953C43.1029 33.2295 42.6633 34.3196 42.3863 35.4578C42.7226 35.2911 43.0561 35.1202 43.3841 34.9369C43.9394 34.6103 44.5789 34.3637 44.944 33.7986C44.5954 33.2474 44.1007 32.8202 43.5439 32.4895C43.4957 32.3572 43.4475 32.2263 43.3992 32.0953Z" fill="#DEDEDE"/>
<path d="M37.8124 4.7168C38.1362 4.83945 38.5138 4.90284 38.7453 5.18534C38.5124 5.26389 38.2837 5.34244 38.0535 5.42513C37.9199 5.31212 37.7862 5.19774 37.6553 5.08474C37.7076 4.96209 37.76 4.83945 37.8124 4.7168Z" fill="#DEDEDE"/>
<path d="M49.9973 10.5396C50.0717 10.6167 50.0717 10.6167 49.9973 10.5396V10.5396Z" fill="#DEDEDE"/>
<path d="M49.8513 10.9253C49.9257 11.0038 49.9257 11.0038 49.8513 10.9253V10.9253Z" fill="#DEDEDE"/>
<path d="M36.4895 12.666C36.6562 12.7432 36.8258 12.8204 36.9953 12.8989C37.0518 13.0546 37.1083 13.2104 37.1634 13.3675C36.8423 13.2393 36.6066 12.9899 36.4895 12.666Z" fill="#DEDEDE"/>
<path d="M3.64722 50.1988C4.96603 49.2548 6.60318 48.8648 8.20175 48.811C9.81272 48.9475 11.4154 49.3623 12.8238 50.1739C12.5358 50.761 12.2368 51.3426 11.9501 51.9296C11.8991 51.9255 11.7985 51.9145 11.7475 51.9089C10.911 50.812 9.52608 50.3586 8.20588 50.207C7.10756 50.2525 5.95274 50.6177 5.1948 51.45C4.38311 52.2424 4.00138 53.3656 3.80431 54.4584C3.7988 55.4906 3.69958 56.5503 3.96555 57.5618C4.10611 57.916 4.22187 58.2784 4.34728 58.6395C4.70695 59.17 5.02254 59.7488 5.54345 60.1457C6.2628 60.6928 7.13788 61.0952 8.05843 61.0814C8.85634 61.0842 9.69283 61.1407 10.437 60.7934C10.8959 60.5839 11.2969 60.2601 11.7806 60.1016C11.9611 60.4916 12.1568 60.8747 12.3718 61.2482C12.3181 61.3019 12.2119 61.4094 12.1582 61.4631C12.0356 61.5307 11.9143 61.6009 11.793 61.6726C11.5326 61.7773 11.2735 61.8834 11.0199 62.0047C10.0759 62.3713 9.06167 62.4636 8.06394 62.5752C6.90912 62.4677 5.71846 62.392 4.66148 61.8655C3.57555 61.4369 2.70875 60.6073 2.02385 59.6827C1.6435 59.0625 1.32654 58.4038 1.11707 57.7065C0.631988 55.8061 0.86213 53.6563 1.98113 52.0137C2.00731 51.971 2.0583 51.8841 2.08448 51.8414C2.17957 51.6967 2.27328 51.5506 2.36698 51.4046C2.77903 50.987 3.18832 50.5653 3.64722 50.1988Z" fill="#DEDEDE"/>
<path d="M17.4211 49.7012C18.2907 49.2809 19.2526 49.1334 20.1608 48.8247C20.4474 49.573 20.6431 50.3544 20.9724 51.0875C21.3473 52.1886 21.6973 53.2993 22.0763 54.399C22.4608 55.6724 22.9803 56.9002 23.3758 58.1694C23.8457 59.5089 24.2619 60.8663 24.7346 62.2044C23.7961 62.1741 22.8563 62.1562 21.9192 62.2086C21.5512 61.4231 21.3611 60.5742 21.0537 59.7666C20.8925 59.3063 20.7451 58.8406 20.6527 58.361C19.1368 58.27 17.6168 58.3568 16.0996 58.3114C16.083 58.3885 16.05 58.5429 16.0348 58.6214C15.6269 59.7763 15.2259 60.9352 14.8965 62.1162C14.3549 62.2031 13.8051 62.1962 13.2607 62.1741C13.732 61.0813 14.0531 59.9306 14.439 58.8061C14.9985 57.3591 15.4588 55.8791 15.9466 54.4073C16.5047 53.1753 16.7859 51.8399 17.3013 50.5914C17.4308 50.313 17.4087 49.9988 17.4211 49.7012ZM16.5819 57.0752C17.785 57.0876 18.988 57.0628 20.1911 57.1014C19.5847 55.2645 19.0666 53.3972 18.401 51.5795C17.8263 53.4206 17.191 55.2438 16.5819 57.0752Z" fill="#DEDEDE"/>
<path d="M46.4364 49.3169C47.2067 49.0289 48.0267 48.9297 48.837 48.8208C49.4585 48.7588 50.0621 48.9517 50.6795 48.9875C51.0502 49.1033 51.4319 49.1901 51.8164 49.2576C52.4971 49.5443 53.2399 49.7345 53.8408 50.1837C53.6313 50.7887 53.3185 51.3551 52.9988 51.9077C52.9671 51.9187 52.9051 51.9407 52.8747 51.9518C52.6212 51.7464 52.4048 51.4998 52.1816 51.2655C51.4319 50.6674 50.5003 50.4111 49.5798 50.2209C48.3423 50.1575 47.0165 50.5751 46.1897 51.5328C45.7487 51.9917 45.4221 52.5512 45.2182 53.1521C45.0721 53.6275 44.886 54.1002 44.8585 54.6018C44.8282 55.5885 44.7606 56.5945 45.0225 57.5592C45.3835 58.8738 46.2076 60.1444 47.5016 60.6915C48.4814 61.2179 49.617 61.0732 50.6822 61.0608C51.097 60.8955 51.5449 60.7976 51.9197 60.5468C52.2133 60.3511 52.5275 60.1803 52.8803 60.1224C53.0663 60.5275 53.2661 60.9299 53.4039 61.3571C52.5233 61.8133 51.6207 62.2818 50.6202 62.3948C49.8981 62.461 49.1732 62.6759 48.4525 62.494C47.7152 62.4775 46.9835 62.3714 46.2958 62.0972C45.633 61.845 44.999 61.5184 44.4134 61.1201C43.898 60.5758 43.2806 60.1058 42.9333 59.4264C42.6494 58.8683 42.327 58.3226 42.1657 57.7135C41.8501 56.25 41.8116 54.6624 42.4069 53.2623C43.0808 51.4391 44.5856 49.9343 46.4364 49.3169Z" fill="#DEDEDE"/>
<path d="M59.6742 49.1187C60.0986 49.0167 60.5299 48.9271 60.9709 48.9464C61.9494 48.9726 62.9636 48.8334 63.8966 49.2083C65.276 49.5624 66.3964 50.5312 67.2384 51.6461C68.192 53.0627 68.5738 54.8322 68.3891 56.5217C68.2141 57.6848 67.7318 58.7845 67.0675 59.7505C66.621 60.2191 66.1842 60.6959 65.6908 61.1162C64.7372 61.7708 63.6527 62.26 62.5033 62.4323C61.3995 62.4901 60.2612 62.5439 59.1974 62.1897C58.4229 61.9926 57.7476 61.5641 57.0944 61.1217C56.5597 60.5911 55.9575 60.1047 55.5813 59.4418C55.2409 58.9127 55.0314 58.3132 54.8481 57.7151C54.4733 56.2185 54.5505 54.5841 55.1362 53.1509C55.7411 51.5165 57.0724 50.206 58.6544 49.5032C58.9906 49.3681 59.3393 49.2648 59.6742 49.1187ZM58.4491 51.8252C57.9392 52.5625 57.7187 53.4458 57.5547 54.314C57.5161 55.3931 57.4651 56.49 57.7063 57.5525C58.0177 58.513 58.4325 59.4432 59.0775 60.2287C59.5515 60.5567 60.0008 60.9618 60.5906 61.0597C61.7123 61.4221 62.9912 61.1245 63.869 60.3472C63.9724 60.2811 64.0757 60.2177 64.1818 60.1543C64.496 59.6665 64.8061 59.1745 65.09 58.6687C65.5406 57.2893 65.6288 55.8271 65.4552 54.3939C65.2485 53.2171 64.7455 52.087 63.9379 51.1982C63.5686 50.9212 63.18 50.6731 62.7872 50.4334C61.2507 49.9028 59.3117 50.3865 58.4491 51.8252Z" fill="#DEDEDE"/>
<path d="M26.6391 49.2482C27.8256 49.2634 29.0259 49.1545 30.2042 49.2703C30.5666 50.0489 30.7582 50.895 31.0572 51.6998C31.4706 52.9869 31.9199 54.2616 32.3361 55.5488C32.5579 56.3853 32.828 57.2093 33.1216 58.0238C33.5667 57.0881 33.7596 56.0573 34.1799 55.1092C34.8511 53.1688 35.4946 51.2202 36.1216 49.2648C37.3302 49.1931 38.5429 49.2399 39.7542 49.2234C39.7708 50.2831 39.7336 51.3429 39.7708 52.4012C40.0354 53.9075 39.808 55.4454 39.9293 56.9641C40.2352 58.6798 39.7873 60.4575 40.2214 62.1566C39.2774 62.1952 38.3321 62.1952 37.3881 62.1511C37.4336 61.05 37.4239 59.9462 37.3867 58.8451C37.2117 58.4179 37.2847 57.948 37.2723 57.4987C37.2572 56.5313 37.3468 55.5557 37.1662 54.5993C37.0822 53.4114 37.1731 52.218 37.129 51.0287C36.1823 53.7903 35.2176 56.5424 34.264 59.3013C34.0159 60.1226 33.6384 60.8998 33.4261 61.7322C32.8239 61.7749 32.2189 61.7818 31.6167 61.7377C31.4265 61.0735 31.2157 60.4148 30.9759 59.7671C30.6121 58.6632 30.2483 57.5594 29.8748 56.4597C29.274 54.6489 28.6759 52.8395 28.0682 51.0314C27.9951 52.3158 28.0971 53.6015 28.031 54.8845C27.8132 56.111 27.9304 57.3623 27.9138 58.6012C27.9607 59.2503 27.7553 59.8801 27.7636 60.5278C27.7622 61.0707 27.776 61.6164 27.7512 62.1608C27.2386 62.1897 26.7232 62.1883 26.2119 62.1553C26.2422 61.7032 26.2822 61.2526 26.3594 60.8061C26.4834 59.2034 26.2381 57.5787 26.5178 55.987C26.5661 54.6503 26.4751 53.308 26.5564 51.9713C26.7314 51.0742 26.6681 50.155 26.6391 49.2482Z" fill="#DEDEDE"/>
<path d="M70.3198 62.1591C70.4066 57.8375 70.2881 53.5131 70.3805 49.1915C71.2969 49.2755 72.2202 49.1749 73.138 49.2728C73.087 51.1456 73.0911 53.0211 73.1338 54.8939C74.8688 54.8526 76.6052 54.8857 78.3402 54.8733C78.343 52.9908 78.343 51.1084 78.3402 49.2259C79.2015 49.2204 80.0656 49.2562 80.9255 49.1846C81.0123 51.4033 80.942 53.6275 80.9641 55.8489C80.942 57.967 81.0123 60.0879 80.9269 62.2046C80.0669 62.1688 79.2056 62.1729 78.3457 62.1839C78.3361 60.1609 78.3485 58.1379 78.3375 56.1163C76.5845 56.1232 74.8303 56.0887 73.0773 56.1383C73.1586 58.1434 73.0594 60.1513 73.1297 62.1564C72.194 62.195 71.2555 62.1922 70.3198 62.1591Z" fill="#DEDEDE"/>
<path d="M14.6704 65.3562C15.5469 65.352 16.4234 65.3452 17.2998 65.3521C17.2971 65.7172 17.2929 66.0811 17.2902 66.4462C18.4229 66.5262 19.5998 66.2767 20.6954 66.653C21.2287 66.8597 21.7303 67.1463 22.1851 67.4922C22.5268 67.7044 22.7377 68.0517 22.9733 68.3673C23.7754 69.3926 24.0841 70.6893 24.1916 71.9627C24.1695 73.2153 23.8167 74.4735 23.1318 75.5291C22.8011 75.9467 22.3877 76.2898 22.0211 76.6771C21.4189 77.1167 20.7161 77.373 19.9953 77.537C19.1009 77.7161 18.1831 77.5549 17.2805 77.6445C17.2888 78.0841 17.3026 78.5237 17.3274 78.9633C16.4344 79.0322 15.54 78.9757 14.6456 78.9757C14.6718 78.492 14.6773 78.0069 14.6815 77.5232C13.0484 77.7795 11.2363 77.6541 9.86785 76.6357C9.29871 76.2912 8.9721 75.6973 8.56971 75.1901C7.99229 74.0739 7.70428 72.7992 7.7911 71.5437C7.94957 70.1078 8.5449 68.7021 9.53987 67.6465C9.9464 67.3254 10.3901 67.0512 10.8449 66.8045C12.0493 66.2368 13.404 66.522 14.6842 66.449C14.6815 66.0838 14.6773 65.72 14.6704 65.3562ZM17.3136 67.5983C17.2736 70.5074 17.2736 73.4193 17.315 76.3284C17.366 76.2981 17.4679 76.2388 17.5189 76.2085C18.0922 76.4331 18.7454 76.4483 19.309 76.1837C20.2131 75.8998 20.6692 74.9779 20.9972 74.1607C21.4051 73.1437 21.2921 72.0343 21.2659 70.9663C21.1488 70.5887 21.0868 70.2001 20.9917 69.8184C20.7092 69.2079 20.3288 68.6539 19.8286 68.2033C19.1354 67.7692 18.3127 67.6314 17.5065 67.721C17.4583 67.6906 17.3618 67.63 17.3136 67.5983ZM13.3392 67.721C12.81 67.816 12.3401 68.0944 11.8909 68.3755C11.6497 68.7159 11.3906 69.0439 11.1343 69.3746C11.115 69.4518 11.0792 69.6062 11.0599 69.6833C10.5555 70.648 10.6768 71.7477 10.6754 72.7964C10.6906 73.5847 10.951 74.3495 11.3135 75.044L11.4016 75.1143C12.0273 76.2223 13.4894 76.6936 14.6443 76.1506C14.7242 73.3407 14.6415 70.5295 14.6897 67.7196C14.2391 67.7058 13.7871 67.6658 13.3392 67.721Z" fill="#DEDEDE"/>
<path d="M29.916 65.6662C30.3129 65.5794 30.7015 65.4581 31.0888 65.3354C31.8619 67.3309 32.4613 69.387 33.1697 71.4059C33.9621 73.4261 34.5078 75.5332 35.3126 77.5479C35.4435 77.9366 35.5785 78.3266 35.6116 78.7386C34.6263 78.6835 33.641 78.7565 32.657 78.6835C32.6763 78.627 32.7149 78.5167 32.7342 78.4602C32.347 77.3826 31.9501 76.3063 31.7006 75.1845C31.6014 75.066 31.5959 74.7821 31.374 74.8524C29.9257 74.8772 28.476 74.8221 27.029 74.8924C26.6362 76.1795 26.1966 77.4542 25.7446 78.7221C25.2568 78.74 24.7689 78.7138 24.2825 78.7083C24.3376 78.3252 24.4409 77.9531 24.5843 77.5962C25.1355 76.3022 25.4566 74.9255 25.9747 73.6204C26.4777 72.3416 26.8016 71.0007 27.3266 69.7315C27.4534 69.4021 27.5623 69.0659 27.6712 68.731C27.9619 67.878 28.3064 67.0319 28.3836 66.1251C28.9087 66.0245 29.4227 65.8715 29.916 65.6662ZM27.5761 73.3503C27.5154 73.3944 27.3955 73.4854 27.3349 73.5309C27.9275 73.659 28.538 73.6149 29.1402 73.6204C29.8099 73.6163 30.4811 73.6452 31.148 73.5681C30.6395 72.303 30.357 70.9635 29.8747 69.6888C29.6776 69.1431 29.4985 68.5918 29.38 68.0241C28.7461 69.788 28.119 71.5547 27.5761 73.3503Z" fill="#DEDEDE"/>
<path d="M70.7235 65.3754C70.7965 65.3671 70.9412 65.3506 71.0129 65.3423C71.13 65.7447 71.2513 66.1485 71.4166 66.5357C71.8507 67.9703 72.4378 69.3525 72.8733 70.7884C73.2467 71.8909 73.6174 72.9934 73.9757 74.1013C74.4057 75.0618 74.6606 76.0885 75.0148 77.078C75.1912 77.6209 75.4434 78.1556 75.4365 78.7399C74.5173 78.6903 73.5981 78.7523 72.6817 78.682C72.3344 77.3977 71.8108 76.1712 71.4649 74.8868C69.9655 74.8165 68.4648 74.8689 66.9641 74.8675C66.5658 76.1381 66.1055 77.3908 65.7376 78.6724C65.1671 78.7441 64.591 78.7358 64.0205 78.6724C64.066 78.6269 64.1556 78.5346 64.201 78.4877C64.6213 77.2199 65.0279 75.9466 65.5157 74.7035C66.0711 72.8638 66.8028 71.0847 67.3692 69.2491C67.6669 68.2555 68.2843 67.3212 68.1299 66.2394C68.9471 65.8136 69.8842 65.7405 70.7235 65.3754ZM69.0684 68.5959C68.5061 70.262 67.9535 71.935 67.394 73.6025C68.6026 73.641 69.8139 73.5845 71.0239 73.6507C70.5912 71.9901 69.9338 70.3943 69.4832 68.7365C69.4005 68.516 69.3261 68.2941 69.2489 68.0764C69.1869 68.2473 69.1263 68.4209 69.0684 68.5959Z" fill="#DEDEDE"/>
<path d="M37.4403 65.7354C38.6131 65.5342 39.8051 65.6637 40.9889 65.6279C42.4565 65.5728 44.0013 65.7133 45.2967 66.463C45.9858 66.9674 46.5907 67.655 46.7782 68.5094C47.1337 69.6629 46.712 70.8811 46.1346 71.8871C45.7901 72.1779 45.491 72.5169 45.1479 72.8076C44.4203 73.3382 43.5383 73.6069 42.6577 73.7337C41.773 73.7695 40.8883 73.753 40.0035 73.7806C40.0821 75.4163 39.9884 77.0562 40.0559 78.6934C39.1808 78.7361 38.3058 78.7168 37.4307 78.7044C37.399 75.3116 37.4183 71.9188 37.4114 68.526C37.4224 67.5958 37.3852 66.6642 37.4403 65.7354ZM40.0077 67.0211C40.0793 68.8209 39.9801 70.6234 40.0669 72.4232C40.6664 72.5279 41.2755 72.5293 41.8805 72.5072C42.2553 72.3419 42.6315 72.1779 43.0036 72.0042C43.4088 71.5522 43.8304 71.074 43.9586 70.4608C44.1281 69.6146 44.0702 68.6472 43.4914 67.961C43.129 67.3959 42.451 67.2388 41.8667 67.0197C41.2466 66.9977 40.6264 67.0115 40.0077 67.0211Z" fill="#DEDEDE"/>
<path d="M49.1401 67.6909C49.2338 67.0377 49.2697 66.3804 49.3027 65.7217C50.4865 65.8278 51.6758 65.7038 52.8596 65.7892C52.9271 66.0373 52.996 66.2881 53.08 66.5347C53.3956 67.8012 53.8862 69.0139 54.2817 70.2569C54.7268 71.6942 55.2491 73.1054 55.7191 74.5345C55.9974 73.6994 56.3171 72.8794 56.6065 72.047C57.0089 70.957 57.3273 69.8394 57.7062 68.741C58.0563 67.7695 58.3856 66.7883 58.6488 65.7906C59.8946 65.763 61.1418 65.7341 62.3876 65.792C62.3462 67.119 62.3435 68.4503 62.3765 69.7774C62.6701 71.4999 62.309 73.2625 62.6108 74.9837C62.6783 76.2185 62.5819 77.4587 62.6604 78.6949C61.7908 78.7583 60.9199 78.6838 60.0517 78.7403C59.9456 77.7619 60.1068 76.7683 59.9236 75.7968C59.7802 74.6103 59.9787 73.4072 59.8023 72.2221C59.5859 70.7682 59.9401 69.2688 59.5529 67.8356C58.9823 69.8091 58.1789 71.7011 57.5891 73.669C57.0351 74.9451 56.7733 76.3329 56.1628 77.5855C56.109 77.8143 56.0636 78.0444 56.0264 78.2759C55.4434 78.3187 54.8591 78.3228 54.2748 78.3187C54.2748 78.2415 54.2735 78.0858 54.2735 78.0086C54.2611 78.0858 54.2349 78.2387 54.2225 78.3159C53.4411 75.7389 52.5233 73.2032 51.6992 70.64C51.3147 69.6602 50.9881 68.6611 50.645 67.6675C50.6381 68.5013 50.6505 69.335 50.6505 70.1687C50.6519 70.4388 50.6381 70.7158 50.532 70.9694C50.4576 72.3158 50.5416 73.6663 50.4906 75.014C50.2743 76.2447 50.4204 77.4987 50.3322 78.7403C49.8292 78.7279 49.3275 78.7266 48.8259 78.6935C48.8714 77.919 48.7901 77.1363 48.9596 76.3728C49.0395 75.0416 48.9596 73.7049 48.9899 72.3723C48.9982 72.1931 49.034 72.0222 49.1002 71.8569C49.1663 70.4691 49.0919 69.0787 49.1401 67.6909Z" fill="#DEDEDE"/>
<path d="M17.6636 86.9511C18.5758 85.584 20.6333 85.398 21.908 86.3599C21.846 86.5322 21.7854 86.7072 21.7247 86.8822C21.66 86.9222 21.5304 87.0007 21.4657 87.0407C20.5644 86.3075 19.0926 86.4109 18.3595 87.337C18.2093 87.8896 18.0398 88.4711 18.1872 89.043C18.325 89.4537 18.6351 89.7679 18.9107 90.0904C19.411 90.275 19.9457 90.3095 20.4735 90.2778C20.9351 90.2847 21.3196 89.998 21.7427 89.8616C21.7799 90.1469 21.8157 90.4335 21.8488 90.7229C20.6402 91.3099 19.032 91.3706 17.9598 90.4666C17.6856 90.0283 17.2791 89.6163 17.2942 89.0623C17.2805 88.3498 17.1743 87.5423 17.6636 86.9511Z" fill="#DEDEDE"/>
<path d="M64.9533 85.8554C65.2027 85.7548 65.47 85.8031 65.7305 85.8196C65.776 86.0401 65.8201 86.2592 65.8683 86.4824C65.5541 86.5693 65.244 86.663 64.9395 86.7773C64.7659 87.0778 64.5853 87.3754 64.4282 87.6869C64.3621 87.7544 64.2298 87.8895 64.1623 87.957C64.3152 88.2395 64.4875 88.5137 64.6625 88.7852C64.832 89.036 64.9988 89.291 65.1586 89.55C65.3929 89.8821 65.6161 90.2212 65.8559 90.5505C65.9069 90.6814 65.9579 90.8123 66.0116 90.9446C65.7002 90.9667 65.3887 90.9874 65.0801 91.0108C64.5261 90.1371 63.9252 89.2923 63.4277 88.3842C63.1094 88.3718 62.7925 88.3704 62.4755 88.3745C62.5127 89.2262 62.4479 90.082 62.5403 90.9336C62.2578 90.9653 61.9766 90.997 61.6969 91.0342C61.6183 89.3351 61.7231 87.6331 61.6404 85.934C61.916 85.8981 62.1916 85.8678 62.47 85.8389C62.4893 86.4494 62.4893 87.0612 62.521 87.6717C62.8352 87.6662 63.1494 87.6593 63.4663 87.651C63.9059 87.0199 64.1195 86.0718 64.9533 85.8554Z" fill="#DEDEDE"/>
<path d="M23.0562 85.9205C24.2124 85.842 25.3713 85.8985 26.5303 85.8806C26.5289 86.1121 26.5289 86.345 26.5289 86.5793C25.7062 86.5834 24.8821 86.5627 24.0608 86.6013C24.0539 87.0602 24.0594 87.5191 24.0856 87.9794C24.7925 87.9394 25.5009 87.9463 26.2078 87.9284C26.2381 88.1999 26.2698 88.4714 26.3001 88.7456C25.5532 88.8048 24.8049 88.769 24.058 88.8076C24.0539 89.2913 24.0484 89.775 24.0318 90.2601C24.8945 90.3083 25.7599 90.3042 26.6226 90.2725C26.6543 90.4957 26.6819 90.7162 26.7136 90.9436C25.4981 91.0208 24.2744 91.007 23.0575 90.9505C23.092 89.2748 23.0961 87.5963 23.0562 85.9205Z" fill="#DEDEDE"/>
<path d="M27.627 85.8802C28.8824 85.8898 30.1378 85.8719 31.3919 85.8802C31.5793 86.0373 31.4759 86.3308 31.5517 86.5403C31.0156 86.5844 30.4796 86.5885 29.9435 86.5858C30.0028 88.0589 29.9876 89.5362 29.9449 91.0094C29.6872 90.9983 29.4322 90.9956 29.1759 90.9915C29.1111 89.5059 29.1787 88.0176 29.1139 86.5334C28.6192 86.5734 28.1231 86.583 27.6283 86.583C27.627 86.3474 27.627 86.1131 27.627 85.8802Z" fill="#DEDEDE"/>
<path d="M33.0359 91.007C32.9753 89.294 32.9877 87.5769 33.0304 85.864C33.2881 85.864 33.5458 85.864 33.8035 85.8599C33.8283 86.4579 33.827 87.056 33.8628 87.6541C34.6428 87.6514 35.4338 87.6789 36.1766 87.9476C36.3902 88.1351 36.6038 88.3225 36.8146 88.5154C36.8436 88.8971 36.8711 89.2802 36.8973 89.6647C36.7595 89.9459 36.6231 90.227 36.4894 90.5095C35.471 91.2261 34.1908 90.9133 33.0359 91.007ZM33.8283 88.5099C33.8338 89.0418 33.7939 89.5765 33.8394 90.1085C34.4884 90.165 35.1926 90.2669 35.7948 89.9486C35.883 89.7846 35.9754 89.622 36.0691 89.4622C36.0153 89.2293 35.9643 88.9991 35.9134 88.7676C35.2863 88.3693 34.5284 88.5209 33.8283 88.5099Z" fill="#DEDEDE"/>
<path d="M42.6098 85.9219C42.9433 85.9081 43.2768 85.8957 43.6117 85.9012C43.7853 86.4483 44.0058 86.9817 44.2718 87.4929C44.7513 88.6436 45.2268 89.7971 45.7435 90.9312C45.4321 90.9602 45.1206 90.9877 44.8106 91.0194C44.6039 90.4957 44.3655 89.9872 44.1574 89.4663C43.4394 89.4801 42.7242 89.4608 42.0076 89.4649C41.7816 89.9762 41.5955 90.5054 41.3392 91.0043C41.1105 91.0015 40.8817 91.0029 40.6543 91.0056C40.624 90.9312 40.5647 90.7838 40.5344 90.7093C41.2565 89.1273 41.8973 87.5081 42.6098 85.9219ZM43.0398 86.8962C42.811 87.5177 42.5588 88.131 42.286 88.7359C42.811 88.7718 43.3388 88.7773 43.8652 88.7759C43.6296 88.1337 43.449 87.4557 43.0398 86.8962Z" fill="#DEDEDE"/>
<path d="M46.7397 90.9418C46.8541 89.2481 46.726 87.5476 46.8128 85.8525C48.1895 85.9338 49.5703 85.8098 50.947 85.9228C50.8767 87.6206 50.958 89.3225 50.8919 91.0217C50.5694 90.9928 50.2469 90.9735 49.9259 90.9555C49.9768 89.4865 49.9658 88.0147 49.9203 86.5457C49.1417 86.5967 48.3604 86.5774 47.5818 86.5843C47.6438 88.063 47.6272 89.5458 47.5831 91.0231C47.3006 90.9927 47.0209 90.9679 46.7397 90.9418Z" fill="#DEDEDE"/>
<path d="M51.9624 85.9088C53.2537 85.8316 54.549 85.924 55.8417 85.8564C55.8747 86.0866 55.9106 86.3181 55.9464 86.5496C55.4296 86.5758 54.9142 86.5703 54.4002 86.5482C54.3478 88.0118 54.352 89.4766 54.3851 90.9402C54.1163 90.9677 53.8476 90.9953 53.5816 91.027C53.4755 89.5331 53.583 88.0338 53.5127 86.5386C53.0304 86.5593 52.5495 86.5799 52.0685 86.591C52.0327 86.3622 51.9969 86.1348 51.9624 85.9088Z" fill="#DEDEDE"/>
<path d="M57.0077 85.8608C58.0661 85.9105 59.1244 85.8567 60.1828 85.8829C60.4474 86.011 60.22 86.3625 60.2586 86.5885C59.4497 86.5761 58.6393 86.5829 57.8318 86.5375C57.8194 87.017 57.8235 87.4966 57.8442 87.9776C58.5553 87.9555 59.2733 87.9045 59.9844 87.9748C60.0202 88.1843 60.0519 88.3965 60.0794 88.6115C59.3242 88.6542 58.5691 88.639 57.8139 88.6597C57.8166 89.1531 57.8235 89.6478 57.8332 90.1411C58.6834 90.1604 59.5337 90.1549 60.384 90.1315C60.4143 90.4043 60.4446 90.6758 60.4777 90.9501C59.2994 91.0079 58.1171 91.0176 56.9402 90.9404C57.0367 89.2481 56.9278 87.5531 57.0077 85.8608Z" fill="#DEDEDE"/>
<path d="M34.1936 96.9892C34.6001 96.7742 35.0025 96.5468 35.438 96.3911C35.5303 97.59 35.4973 98.7986 35.4559 100C35.3181 99.9727 35.0453 99.9176 34.9088 99.89C34.9309 99.0067 34.9419 98.1247 34.9171 97.2428C34.7627 97.3503 34.6139 97.4646 34.4651 97.5804C34.3686 97.3847 34.2749 97.189 34.1936 96.9892Z" fill="#DEDEDE"/>
<path d="M38.5345 96.7963C39.094 96.2864 40.1303 96.398 40.5121 97.0746C40.7436 97.7099 40.8566 98.461 40.5134 99.0797C40.3439 99.3223 40.1234 99.5249 39.9264 99.7453C39.4633 99.9066 38.9741 99.9727 38.4877 99.9011C38.489 99.7812 38.4918 99.5428 38.4946 99.4242C38.7867 99.3912 39.0885 99.3981 39.3738 99.3154C39.7045 99.1941 39.9071 98.8882 40.1221 98.6291C39.5088 98.7421 38.846 98.7697 38.3209 98.3797C38.3182 97.8629 38.0536 97.1697 38.5345 96.7963ZM38.8129 97.3516C38.8129 97.5322 38.8143 97.7154 38.8156 97.9001C39.1808 98.2873 39.7045 98.1661 40.1152 97.9249C40.0201 97.6148 39.9057 97.3144 39.7555 97.0292C39.5254 97.0443 39.2966 97.0609 39.0692 97.0815C38.9838 97.1697 38.8983 97.2607 38.8129 97.3516Z" fill="#DEDEDE"/>
<path d="M43.0229 98.3217C42.5062 97.7374 42.8273 96.6529 43.6155 96.5178C44.0882 96.4503 44.7331 96.4145 44.9964 96.9078C45.3712 97.4329 45.2899 98.1081 45.2472 98.7131C45.1231 99.3181 44.6243 99.6984 44.0923 99.9382C43.7492 99.9424 43.406 99.9437 43.0629 99.9465C43.0615 99.7646 43.0615 99.5854 43.0629 99.4063C43.4198 99.3787 43.8057 99.4077 44.1268 99.2161C44.3197 99.0783 44.4492 98.873 44.5939 98.6883C44.0703 98.6676 43.3399 98.8881 43.0229 98.3217ZM43.4281 97.1793C43.4626 97.4811 43.4984 97.7871 43.5328 98.093C43.8098 98.1302 44.0854 98.1674 44.3638 98.2101C44.5264 97.9827 44.8544 97.7416 44.5967 97.4591C44.4313 96.9382 43.8277 96.9892 43.4281 97.1793Z" fill="#DEDEDE"/>
<path d="M47.6302 96.7199C48.2861 96.3574 49.1075 96.4084 49.6862 96.8949C49.6725 97.2367 49.7469 97.6198 49.5002 97.9009C49.4864 97.9353 49.4602 98.0042 49.4465 98.0373C49.5264 98.0897 49.6862 98.193 49.7662 98.2454C49.8502 98.7319 49.8433 99.2335 49.6711 99.702C49.0785 100.031 48.3922 99.9459 47.7459 99.8991C47.6729 99.8302 47.5254 99.6924 47.4524 99.6235C47.4662 99.3699 47.513 99.1246 47.8176 99.1232C48.1125 99.4691 48.5741 99.3713 48.9765 99.3644C49.0399 99.3107 49.1653 99.2032 49.2273 99.1494C49.2301 98.9331 49.2301 98.7167 49.2301 98.5031C48.8015 98.3708 48.3619 98.2785 47.9196 98.2096C48.0835 97.7383 48.7078 97.8857 49.073 97.6638C49.0826 97.5936 49.1019 97.453 49.1116 97.3827C49.0482 97.3028 48.9228 97.1429 48.8594 97.063C48.4474 97.0106 48.0684 97.176 47.6798 97.2725C47.6495 97.0878 47.6426 96.9032 47.6302 96.7199Z" fill="#DEDEDE"/>
</svg>
