<svg width="75" height="100" viewBox="0 0 75 100" fill="none" xmlns="http://www.w3.org/2000/svg">
<path d="M10.1704 59.8752C10.8236 59.2707 11.7388 59.1172 12.5998 59.1396C17.3969 59.1864 22.1977 59.1434 26.9966 59.1658C27.5749 59.1733 28.1533 59.134 28.7279 59.0573C29.4222 59.2445 30.1747 59.3811 30.7436 59.8527C31.3295 60.3674 31.7618 61.1011 31.7843 61.8947C31.891 65.5182 31.6813 69.1511 31.9303 72.7709C31.9321 76.9129 31.9134 81.0549 31.9658 85.195C32.868 85.4252 33.7458 85.7939 34.369 86.5145C34.9605 85.0153 35.2525 83.4244 35.7709 81.9027C37.4779 75.8329 39.2522 69.78 40.9816 63.7158C41.2586 62.7707 41.4664 61.7937 41.9099 60.9084C42.4097 59.9126 43.4428 59.1153 44.5939 59.1658C47.4032 59.1621 50.2145 59.1546 53.0257 59.1527C53.954 59.1097 54.8712 59.5046 55.5262 60.1522C56.3348 61.1554 56.5706 62.46 56.8869 63.6765C58.6725 69.6602 60.3195 75.6832 62.0883 81.6725C62.4925 82.8872 62.704 84.1637 63.2244 85.341C63.5538 84.9685 63.8832 84.596 64.2088 84.2198C63.7971 83.7257 63.3591 83.2148 63.1888 82.5803C62.9174 81.5827 63.0765 80.5364 62.9492 79.5201C62.7826 78.2118 62.8893 76.8867 62.7302 75.5765C62.6179 74.5134 62.6947 73.4391 62.5824 72.376C62.3971 70.8281 62.5206 69.2634 62.3484 67.7137C62.2998 66.2725 62.0808 64.8426 62.092 63.3995C62.0845 62.3009 61.8786 61.0412 62.661 60.1354C63.4096 59.2314 64.6449 59.1003 65.7399 59.0517C67.299 59.0124 68.8599 59.0255 70.419 59.0161C71.4821 59.0161 72.6219 59.1116 73.5241 59.7311C74.3289 60.3768 74.6583 61.4699 74.6377 62.4712C74.2334 68.7076 73.9227 74.9495 73.5091 81.1859C73.4773 82.2565 73.1722 83.3289 72.4366 84.1356C73.8891 85.414 74.9596 87.2538 74.8623 89.2377C75.1019 92.5057 72.3412 95.5527 69.1182 95.8522C67.9821 96.0412 66.8647 95.5377 65.7324 95.7417C64.557 95.9289 63.3647 95.8428 62.1837 95.8147C60.6901 95.8709 59.1966 95.8391 57.7048 95.8522C56.784 95.8409 55.807 95.7811 55.0059 95.2813C54.2198 94.7853 53.7238 93.9412 53.4936 93.0597C53.1605 91.8113 52.7861 90.576 52.496 89.3164C50.1508 89.2939 47.8057 89.264 45.4623 89.3238C45.0393 90.6303 44.7212 91.9685 44.3188 93.2805C44.0605 94.0479 43.6543 94.8265 42.9412 95.2589C42.215 95.7249 41.3241 95.811 40.4819 95.8466C38.7094 95.8522 36.9369 95.8409 35.1664 95.8709C35.1869 96.8348 35.2038 97.8867 34.5712 98.6877C33.888 99.5468 32.7781 100.033 31.6832 99.9979C29.0984 99.9829 26.5137 100.004 23.9271 99.9885C23.8672 98.6185 23.9009 97.2447 23.8485 95.8746C23.2177 95.7979 22.587 95.7155 21.9506 95.7174C19.3265 95.7212 16.7025 95.7249 14.0784 95.7137C13.3616 95.7043 12.6503 95.796 11.941 95.8877C11.941 97.254 11.9522 98.6185 11.9316 99.9848C9.15595 99.9867 6.38029 100.007 3.60462 99.9885C2.62949 99.9942 1.71986 99.588 0.976813 98.9797C0.602482 98.2049 0.0765464 97.4375 0.128953 96.5391C0.147669 93.5388 0.110237 90.5385 0.12521 87.5402C0.10275 86.8252 0.402215 86.1121 0.969327 85.6685C1.51211 85.18 2.28136 85.2137 2.96264 85.1875C4.44874 84.0383 5.20676 82.2658 5.72146 80.5121C7.26745 74.8073 8.14713 68.9527 8.92761 63.1019C9.01745 61.9434 9.23643 60.6707 10.1704 59.8752ZM11.415 61.5204C11.1455 62.2372 11.0632 63.0046 10.9771 63.7608C10.2565 68.9321 9.48536 74.1091 8.2613 79.1888C7.73162 81.3543 7.10649 83.5685 5.76825 85.3878C4.92414 86.5051 3.70382 87.6356 2.18777 87.4316C2.15408 89.7787 2.22521 92.1276 2.20088 94.4765C2.21772 95.4685 2.11478 96.4754 2.35435 97.4506C3.13858 98.2348 4.29152 98.0345 5.29472 98.0532C6.8351 98.0327 8.37734 98.0982 9.91584 98.0046C9.90274 96.6046 9.91771 95.2046 9.90461 93.8046C15.265 93.8046 20.6236 93.8121 25.9821 93.8027C25.9728 95.199 25.9896 96.5971 25.9728 97.9952C27.7509 98.0776 29.5327 98.0476 31.3145 98.0532C31.8348 98.057 32.3626 97.9934 32.8361 97.7594C32.9091 97.6733 33.0533 97.5011 33.1263 97.415C33.1899 96.9976 33.2273 96.5765 33.218 96.1554C33.1974 93.7803 33.2273 91.4051 33.203 89.0319C33.2123 88.3412 32.7688 87.5907 32.0482 87.4784C31.3407 87.4185 30.6313 87.4522 29.9238 87.4503C29.9295 79.3741 29.8752 71.2979 29.8995 63.2217C29.8827 62.6846 29.9613 62.0987 29.6637 61.6196C29.3811 61.2977 28.9281 61.1966 28.5145 61.2153C23.2009 61.2172 17.8872 61.219 12.5736 61.2153C12.16 61.1797 11.7819 61.3538 11.415 61.5204ZM44.0773 61.5765C43.8097 61.8816 43.7011 62.2896 43.5757 62.6696C40.6129 73.0554 37.5958 83.4263 34.6404 93.8158C36.8284 93.8177 39.0164 93.8289 41.2043 93.8139C41.8201 93.8476 42.3236 93.3385 42.4621 92.7696C43.0142 90.9503 43.5139 89.1142 44.0343 87.2837C47.4126 87.2725 50.7928 87.2875 54.1712 87.2763C54.5249 88.5958 54.903 89.9078 55.2979 91.2142C55.5543 92.0303 55.6572 92.9249 56.2038 93.6174C56.5669 93.7335 56.9393 93.8458 57.3268 93.827C59.4118 93.8158 61.4968 93.827 63.5818 93.8158C60.5348 83.2728 57.5252 72.7185 54.4762 62.1755C54.3377 61.5129 53.649 61.1779 53.0201 61.2134C50.5252 61.2153 48.0302 61.219 45.5353 61.2153C45.0337 61.2247 44.4573 61.1835 44.0773 61.5765ZM64.6936 61.2733C64.6019 61.3688 64.4185 61.5578 64.3268 61.6533C64.308 62.6771 64.3754 63.7009 64.4615 64.7228C64.7329 70.3471 65.0548 75.9696 65.2963 81.5939C65.3056 82.0712 65.549 82.6776 66.1198 82.6402C67.8829 82.6402 69.6516 82.7 71.411 82.5709C71.5289 82.1217 71.6356 81.6688 71.6562 81.2046C72.0436 74.9608 72.431 68.7188 72.7567 62.4712C72.8203 62.0332 72.68 61.6177 72.4217 61.2677C71.0778 61.0487 69.7153 61.1367 68.3602 61.1217C67.1361 61.1142 65.9121 61.1554 64.6936 61.2733ZM67.7107 85.0527C65.549 85.4458 63.9356 87.6113 64.1377 89.7936C64.2856 92.0864 66.423 94.0722 68.7457 93.8926C71.3006 93.9412 73.4492 91.3565 73.0318 88.8559C72.7866 86.3629 70.1532 84.4781 67.7107 85.0527Z" fill="#DEDEDE"/>
<path d="M14.9112 82.4905C16.1596 77.3078 16.8727 72.0185 17.5428 66.7349C19.2778 66.7517 21.0109 66.7405 22.7441 66.7405C22.7441 73.63 22.7403 80.5215 22.746 87.4111C19.478 87.4653 16.212 87.4148 12.9441 87.4429C14.0128 85.9886 14.4489 84.2049 14.9112 82.4905ZM19.2853 68.9266C19.1112 70.9423 18.7294 72.9319 18.4486 74.9346C17.8684 78.3953 17.2657 81.8653 16.2157 85.2193C17.6607 85.2418 19.1056 85.2324 20.5524 85.2268C20.5561 79.7822 20.5524 74.3394 20.5524 68.8948C20.1294 68.9041 19.7064 68.9135 19.2853 68.9266Z" fill="#DEDEDE"/>
<path d="M45.9136 80.8506C46.9374 77.098 48.0847 73.379 49.0973 69.6226C50.1491 73.3696 51.2235 77.1129 52.3277 80.845C50.1903 80.8506 48.051 80.83 45.9136 80.8506ZM48.5807 78.6514C48.7978 78.6477 49.0168 78.6458 49.2358 78.6439C49.1272 78.1723 49.013 77.7006 48.9101 77.229C48.809 77.7062 48.6986 78.1779 48.5807 78.6514Z" fill="#DEDEDE"/>
<path d="M42.1299 0.330125C43.2986 -0.121755 44.5732 0.021603 45.8011 0.021603C46.1252 1.75122 46.2841 3.50576 46.1969 5.26965C45.9881 5.52208 45.7793 5.77451 45.5767 6.03006C45.5705 6.39156 45.5673 6.75306 45.5673 7.11769C46.443 7.46984 47.3749 7.77837 48.0854 8.43593C49.4504 9.59524 50.1391 11.2968 50.9681 12.8394C51.0772 12.827 51.2922 12.8052 51.3982 12.7927C52.4328 11.1535 53.7666 9.70743 55.2999 8.52319C56.3751 7.64125 57.8304 7.83758 59.1206 7.90303C60.5885 8.05885 62.0656 8.07443 63.5428 8.15546C64.1661 8.44217 64.8019 8.69771 65.4439 8.94702C65.4657 9.26801 65.4906 9.5859 65.5186 9.91C65.7212 10.1157 65.9269 10.3245 66.1357 10.5333C66.1357 11.381 66.1263 12.2286 66.1232 13.0794C65.3846 13.9489 64.5463 14.7311 63.5896 15.3513C63.3559 15.3357 62.8853 15.3014 62.6515 15.2858C62.53 15.4229 62.2869 15.6941 62.1654 15.8312C62.1498 15.6941 62.1186 15.4198 62.103 15.2827C61.2616 15.4042 60.4202 15.5382 59.5819 15.6598C58.594 17.1931 57.5468 18.6952 56.7303 20.3344C56.0447 21.7368 54.9883 22.9896 54.7452 24.5759C54.5987 24.6101 54.3027 24.6756 54.1531 24.7099C53.8383 25.4578 53.5017 26.2026 53.1433 26.9319C53.0654 27.2809 52.9906 27.6268 52.919 27.979C51.5041 29.8364 51.4729 32.4542 49.6592 34.0373C48.4749 35.2527 46.8419 35.848 45.237 36.2687C45.2339 36.5336 45.2339 36.8016 45.237 37.0727C47.7706 38.0014 49.8649 39.7185 52.0682 41.2269C53.1309 42.0029 54.1094 42.8942 55.0786 43.7855C55.4121 44.4275 55.7705 45.0539 56.1538 45.6678C56.2317 46.824 56.2379 47.9958 56.0073 49.1364C55.9606 49.314 55.8702 49.6693 55.8235 49.8469C55.1347 50.6104 54.4024 51.3334 53.6451 52.0284C53.4643 52.0751 53.0997 52.1655 52.9158 52.2123C51.7784 52.4772 50.591 52.4865 49.4629 52.1842C49.1169 52.1281 48.7772 52.072 48.4376 52.0222C47.6304 51.296 46.9074 50.4858 46.2592 49.6163C46.175 49.2454 46.0878 48.8746 46.0036 48.5068C45.8821 48.1485 45.7637 47.7901 45.6452 47.4379C42.6878 46.986 39.696 46.6962 36.7011 46.771C33.8964 46.8271 31.0698 46.5653 28.2868 46.9829C27.5046 47.0733 26.7192 47.0858 25.9401 47.1107C25.669 47.8867 25.4228 48.672 25.2296 49.4729C24.7496 50.1118 24.2417 50.7257 23.715 51.3303C23.0606 51.6575 22.4186 52.0035 21.7859 52.3712C20.6983 52.4148 19.6138 52.418 18.5262 52.3868C16.9493 51.3023 15.3474 49.9092 15.0607 47.9023C14.827 45.6989 16.2574 43.692 18.0525 42.5607C19.7229 42.0839 21.2499 41.2144 22.9328 40.7781C24.0796 40.4603 25.2358 40.1767 26.3515 39.7622C27.2958 39.4599 28.265 39.248 29.2404 39.061C27.4049 38.0887 25.3854 37.5963 23.4158 36.9948C20.7451 36.1596 17.6255 35.8854 15.6404 33.6914C12.8044 29.5279 10.6354 24.9 9.40753 20.0072C8.86528 18.9632 9.22054 17.8569 9.77215 16.9064C10.383 16.7661 10.9907 16.6228 11.6046 16.4888C11.91 15.7284 12.1718 14.9493 12.3775 14.1546C13.2314 11.6864 14.989 9.61706 17.1736 8.21467C17.2079 6.93382 17.1923 5.65609 17.211 4.37836C16.1265 3.51511 15.0358 2.62693 14.2972 1.43334C14.5995 1.08118 14.9018 0.732145 15.2041 0.379989C15.5469 0.361291 15.8897 0.345711 16.2356 0.333245C16.6875 0.778893 17.1425 1.22454 17.5975 1.67642C18.227 1.62344 18.9033 1.58293 19.3333 1.04379C19.4611 1.00327 19.7166 0.919128 19.8444 0.875499C22.2846 -0.782436 25.2919 0.233524 27.6292 1.55489C29.5583 1.9756 31.5715 1.71382 33.4787 2.26543C35.0058 2.74224 36.3272 3.73637 37.34 4.96736C37.58 4.99541 37.8199 5.02657 38.063 5.05462C38.0817 4.58404 38.1066 4.11346 38.1347 3.64288C38.2438 3.50887 38.4588 3.24086 38.5679 3.10686C39.0447 1.50502 40.7057 0.859917 42.1299 0.330125ZM19.3427 7.23611C22.6804 6.03317 26.4356 6.66581 29.3838 8.56683C30.8111 6.78735 32.9552 5.70906 35.2146 5.49091C34.2516 4.80219 33.192 4.21319 32.0234 3.97634C30.3686 3.53692 28.5704 4.12281 26.9779 3.38733C25.4945 2.73288 23.9861 1.8821 22.3095 2.00364C19.9099 2.22491 18.4046 5.06708 19.3427 7.23611ZM40.5561 3.4372C39.777 4.32849 39.9547 5.60311 40.2414 6.65646C41.3758 6.65646 42.7189 6.73125 43.551 5.80256C44.5202 4.74297 44.3519 3.18477 44.274 1.86341C42.9433 2.07532 41.4443 2.30905 40.5561 3.4372ZM30.2844 10.9041C29.284 12.6774 29.7764 14.7404 30.3218 16.5667C36.4425 16.5916 42.5662 16.6165 48.6869 16.5542C48.718 15.3419 48.8801 14.1047 48.5996 12.9142C48.1789 11.5368 47.3281 10.2248 46.0535 9.49863C44.2584 8.37361 41.8931 8.4297 40.0326 9.36463C38.7361 8.51385 37.4054 7.4044 35.7537 7.51659C33.4663 7.46672 31.1726 8.74446 30.2844 10.9041ZM19.8351 9.18387C16.5628 10.2185 14.5153 13.3505 13.6864 16.5324C18.5106 16.576 23.3379 16.6352 28.159 16.5199C27.408 14.3384 28.1403 12.0977 28.0936 9.87572C27.1431 9.63264 26.2206 9.2836 25.3449 8.83483C23.5124 8.45775 21.5678 8.33932 19.8351 9.18387ZM56.4468 10.2279C53.8726 12.6493 51.9186 15.6349 50.055 18.6142C37.0533 18.6235 24.0547 18.6391 11.0561 18.611C11.3491 19.6862 11.6389 20.7676 11.9755 21.8334C24.0329 21.8583 36.0903 21.8303 48.1509 21.8428C46.5023 24.6195 44.9846 27.471 43.5011 30.3381C39.8861 30.575 36.2617 30.4129 32.6435 30.4129C27.0652 30.5095 21.4899 30.3038 15.9115 30.469C16.4974 31.3821 17.0926 32.3015 17.9029 33.0369C18.5667 33.2987 19.2305 33.5543 19.9192 33.7537C26.3359 35.5488 32.7495 37.5464 38.7081 40.5756C32.6217 40.4665 26.4699 41.4575 20.8479 43.8385C19.6107 44.3714 18.0338 44.7235 17.5071 46.1353C16.9087 47.3444 17.3949 48.8247 18.4264 49.6319C19.8569 50.9158 22.403 50.3954 23.2101 48.644C23.8303 47.5595 23.4937 46.2506 22.8019 45.2969C24.4224 45.2346 26.0212 44.9541 27.6355 44.8201C34.5913 44.2966 41.5846 44.6643 48.5217 45.3032C48.0293 46.3503 47.6522 47.6124 48.2693 48.6969C49.1201 50.4297 51.6412 50.8878 53.081 49.6256C54.3775 48.644 54.5613 46.5747 53.483 45.3655C52.118 43.7605 50.3168 42.6168 48.6058 41.4232C43.3578 37.9983 37.4646 35.6111 31.3876 34.1277C35.654 34.0622 39.9204 34.1246 44.1868 34.0965C45.7107 34.0872 47.2595 33.5075 48.2973 32.37C49.4036 31.1764 49.6623 29.4998 50.3417 28.0694C52.6104 22.8276 55.3529 17.7509 58.8121 13.1916C60.1615 13.1698 61.5172 13.2695 62.8666 13.1417C64.3998 13.0701 64.4248 10.3681 62.8977 10.2123C60.7536 10.0378 58.5909 10.1188 56.4468 10.2279ZM12.5987 23.4914C12.8231 24.0866 13.0537 24.6818 13.2844 25.2802C23.4969 25.2833 33.7125 25.2833 43.925 25.2802C44.2397 24.6881 44.5607 24.0959 44.8786 23.5038C34.1176 23.4976 23.3566 23.5194 12.5987 23.4914ZM14.0323 26.9412C14.3408 27.5302 14.6119 28.1473 15.0077 28.6927C24.064 28.7737 33.1297 28.6864 42.1923 28.7301C42.4759 28.1223 42.7563 27.5115 43.043 26.9069C33.3728 26.9724 23.7025 26.9007 14.0323 26.9412Z" fill="#DEDEDE"/>
<path d="M20.9446 10.6454C22.8238 10.6267 24.8339 10.3275 26.5417 11.3216C26.5448 11.7392 26.5479 12.16 26.5542 12.5807C25.8654 12.4934 25.1798 12.4124 24.5067 12.2441C23.5032 12.1537 22.4966 12.1537 21.4931 12.2348C20.7078 12.6274 19.885 12.9453 19.0592 13.232C19.0561 12.5807 19.0654 11.9293 19.081 11.2811C19.4706 11.2718 19.8632 11.2624 20.2559 11.2562C20.4834 11.0505 20.714 10.8479 20.9446 10.6454Z" fill="#DEDEDE"/>
</svg>
