<svg width="113" height="100" viewBox="0 0 113 100" fill="none" xmlns="http://www.w3.org/2000/svg">
<path d="M58.3279 69.5897C58.7253 69.1409 59.3676 69.1294 59.9167 69.0489C63.265 69.0416 66.6143 69.051 69.9626 69.0447C70.5148 69.0196 71.065 69.1106 71.6006 69.2424C71.9071 69.3114 72.0964 69.6346 72.0954 69.9348C72.0985 70.9432 72.0912 71.9526 72.0975 72.9609C72.132 73.5174 71.6173 73.9881 71.087 74.0394C70.678 74.0551 70.2335 74.1126 69.8705 73.8814C69.5483 73.7256 69.3224 73.4118 69.2858 73.0551C69.1477 72.5666 69.2 72.0582 69.1665 71.5593C67.0819 71.5227 64.9951 71.5258 62.9114 71.5572C62.8801 72.4557 62.8769 73.3563 62.9135 74.2548C63.6959 74.2873 64.4815 74.2946 65.2649 74.2517C65.4145 73.8406 65.5055 73.2978 65.9731 73.1262C66.5589 72.9285 67.2827 72.9599 67.7743 73.372C68.0274 73.6095 68.1457 73.9714 68.1247 74.3155C68.1143 75.1555 68.131 75.9954 68.1184 76.8353C68.0651 77.2056 67.949 77.6418 67.5902 77.8301C67.1268 78.101 66.5432 78.1083 66.0379 77.9661C65.4668 77.8249 65.4093 77.1565 65.2639 76.6858C64.4804 76.6481 63.6949 76.6533 62.9114 76.6847C62.878 77.7924 62.879 78.9033 62.9114 80.011C64.9961 80.0434 67.0829 80.0445 69.1676 80.011C69.2105 79.2934 69.1101 78.533 69.4322 77.8656C69.5829 77.6544 69.7868 77.4002 70.0766 77.4169C70.4876 77.4127 70.8998 77.4127 71.314 77.4169C71.633 77.3949 71.8339 77.7046 71.9636 77.9546C72.1529 78.2809 72.0849 78.6679 72.0964 79.0267C72.0839 79.9346 72.11 80.8436 72.0859 81.7505C72.0431 82.1846 71.5996 82.4084 71.2063 82.4137C67.2356 82.4168 63.2639 82.4116 59.2933 82.4168C58.7923 82.4168 58.264 82.0873 58.1176 81.5936C58.0925 81.2045 58.0172 80.7547 58.2975 80.4346C58.5862 79.9765 59.1814 79.9618 59.6605 79.8729C59.6772 77.147 59.6793 74.4212 59.6594 71.6963C59.0569 71.6409 58.3404 71.4589 58.1197 70.8187C58.0894 70.4066 58.0151 69.9181 58.3279 69.5897Z" fill="#DEDEDE"/>
<path d="M76.0095 69.1398C76.6695 68.9975 77.3463 69.0561 78.0168 69.0467C78.977 69.0561 79.978 68.9609 80.8922 69.3218C81.3002 69.487 81.4675 69.9389 81.5146 70.3448C81.4592 70.7454 81.3023 71.1878 80.9393 71.4086C80.6098 71.5958 80.227 71.6408 79.8577 71.6816C79.8295 72.7569 79.8138 73.8353 79.8692 74.9106C80.5993 74.5277 81.1705 73.9158 81.8169 73.4116C82.4058 72.9148 83.0083 72.4315 83.593 71.9295C83.7363 71.8374 83.7426 71.6701 83.7426 71.5152C83.3315 71.373 82.8577 71.1324 82.7959 70.6512C82.7959 70.2715 82.6704 69.7621 83.0512 69.5153C83.5438 69.1084 84.2101 69.1241 84.8106 69.0456C85.9298 69.0822 87.0616 68.9536 88.1714 69.1502C88.6881 69.1753 89.2655 69.508 89.3492 70.0561C89.3575 70.4431 89.4349 70.9086 89.1201 71.2046C88.7383 71.5121 88.2394 71.6502 87.7551 71.6512C87.5166 71.6439 87.3346 71.8196 87.1536 71.9472C86.1013 72.8123 85.0553 73.6847 83.9863 74.5288C83.8775 74.6114 83.6955 74.7526 83.8221 74.8991C84.1348 75.2171 84.5292 75.443 84.8482 75.7578C85.8377 76.8258 86.73 77.9911 87.4203 79.2776C87.5542 79.4994 87.6682 79.7588 87.8931 79.9052C88.4988 79.9105 89.2561 79.9554 89.5803 80.5632C89.9004 80.9994 89.7854 81.5998 89.4851 82.0108C89.1933 82.2933 88.7791 82.4366 88.3774 82.4167C87.6421 82.4031 86.9057 82.4334 86.1724 82.4031C85.6421 82.2608 85.161 81.9334 84.8618 81.4701C84.2802 80.5893 83.8001 79.6396 83.1328 78.8174C82.5732 78.0726 81.9571 77.3499 81.1579 76.8551C80.7144 77.1668 80.2542 77.4565 79.8452 77.8132C79.8368 78.5046 79.8211 79.1971 79.8577 79.8885C80.4424 79.9303 81.182 80.0747 81.3807 80.719C81.6087 81.1176 81.4466 81.5736 81.273 81.9575C80.9822 82.2755 80.5397 82.4366 80.114 82.4167C78.75 82.4104 77.386 82.4146 76.0231 82.4156C75.4404 82.4073 74.8233 82.0652 74.6424 81.4868C74.5963 81.1385 74.5901 80.7368 74.8557 80.468C75.2543 80.0653 75.8275 79.8864 76.3871 79.8969C76.43 78.422 76.3934 76.9461 76.4059 75.4702C76.3934 74.2077 76.43 72.943 76.386 71.6816C75.8704 71.6345 75.2919 71.5393 74.9582 71.0989C74.6706 70.7977 74.7093 70.3552 74.748 69.9745C74.9007 69.4358 75.4823 69.1513 76.0095 69.1398Z" fill="#DEDEDE"/>
<path d="M9.47825 69.9747C9.6341 69.3681 10.3098 69.1756 10.86 69.1275C11.7596 68.9235 12.6759 69.1348 13.5828 69.1045C14.6832 69.1494 15.8045 68.8754 16.8829 69.2101C17.5074 69.3053 17.7448 69.9643 18 70.4549C19.2375 73.2948 20.4937 76.1263 21.729 78.9662C21.8661 79.2674 21.9592 79.5917 22.1454 79.8678C22.5774 79.9683 23.0763 79.9421 23.434 80.2559C23.7792 80.5823 24.0072 81.1074 23.8033 81.5718C23.683 82.1617 23.0282 82.4421 22.479 82.417C20.8023 82.4034 19.1255 82.4295 17.4498 82.4044C17.0273 82.281 16.5618 82.0467 16.4195 81.5969C16.2752 81.1534 16.34 80.5729 16.7856 80.3218C17.2584 79.9369 17.8777 79.9034 18.4603 79.9013C18.4415 79.5101 18.2793 79.1409 18.0889 78.8041C17.999 78.6001 17.7406 78.667 17.5649 78.6461C15.794 78.6555 14.0221 78.6388 12.2512 78.6555C12.0148 79.0425 11.747 79.4411 11.7125 79.9065C12.3234 79.9149 13.0001 79.9599 13.4949 80.3637C13.8233 80.6827 13.7334 81.1827 13.7114 81.5938C13.566 82.1419 12.9604 82.4023 12.4384 82.4159C11.0054 82.4107 9.57238 82.4201 8.1404 82.4107C7.67702 82.3301 7.0693 82.1795 6.94587 81.6513C6.66554 81.0781 6.99921 80.3396 7.56196 80.0875C7.87681 79.9233 8.24919 79.9704 8.57345 79.8605C8.98244 79.1702 9.22825 78.394 9.58494 77.6754C10.3945 75.8031 11.2345 73.9422 12.0514 72.0741C12.0828 71.937 12.087 71.7958 12.1037 71.6557C11.314 71.6222 10.4374 71.7498 9.75649 71.2561C9.3611 70.9559 9.45105 70.4067 9.47825 69.9747ZM15.1131 71.7027C14.4802 73.2435 13.8474 74.7843 13.2198 76.3261C14.4876 76.4056 15.7626 76.3365 17.0335 76.3606C16.4038 74.8041 15.7626 73.2508 15.1131 71.7027Z" fill="#DEDEDE"/>
<path d="M24.8578 69.5926C25.272 69.2516 25.8191 69.1408 26.3442 69.1314C27.3128 68.9169 28.2971 69.1429 29.273 69.1042C31.365 69.1031 33.457 69.1073 35.549 69.1031C36.1044 69.0456 36.6651 69.0205 37.2247 69.0539C37.9214 69.1805 38.7508 69.0958 39.2832 69.6554C39.4747 69.9776 39.6881 70.4054 39.4475 70.7589C39.1598 71.4367 38.3596 71.6198 37.6996 71.6857C37.6567 73.1553 37.6923 74.6271 37.6808 76.0977C37.6923 77.3665 37.6557 78.6364 37.7006 79.9052C38.0667 79.9418 38.4611 79.8675 38.8 80.0495C39.3795 80.3006 39.7372 81.0694 39.4611 81.6562C39.3167 82.1164 38.8188 82.3424 38.3805 82.4114C36.8764 82.4187 35.3722 82.4104 33.8681 82.4156C33.3702 82.4093 32.8409 82.0872 32.6997 81.5924C32.6307 81.1499 32.6767 80.6719 32.9696 80.3142C33.253 79.9136 33.7959 79.9324 34.2331 79.8958C34.275 77.1615 34.2499 74.4241 34.2457 71.6888C33.7426 71.5999 33.2311 71.6554 32.7248 71.6418C31.8033 71.6533 30.8817 71.6177 29.9623 71.6627C29.9142 73.2097 29.9539 74.7589 29.9414 76.3069C29.955 77.5036 29.9131 78.7012 29.9634 79.8968C30.251 79.924 30.5512 79.9177 30.819 80.0454C31.1914 80.2838 31.4999 80.6719 31.5146 81.1311C31.5773 81.7608 31.069 82.379 30.4309 82.4125C28.9278 82.4198 27.4237 82.4083 25.9205 82.4166C25.3996 82.4585 24.8557 82.1447 24.6978 81.6332C24.5252 81.1081 24.5921 80.3843 25.1298 80.0945C25.4959 79.8309 25.9655 79.9585 26.385 79.9062C26.431 78.6029 26.3933 77.2975 26.4059 75.9931C26.3933 74.5559 26.431 73.1177 26.386 71.6815C25.886 71.6355 25.3662 71.5277 24.9666 71.2077C24.4896 70.8217 24.5356 70.0592 24.8578 69.5926Z" fill="#DEDEDE"/>
<path d="M41.6 69.507C41.8354 69.233 42.213 69.1671 42.554 69.1273C43.2778 68.9777 44.0226 69.0447 44.7538 69.1054C47.4033 69.1022 50.0539 69.1095 52.7034 69.1012C53.6406 68.9955 54.6071 69.0039 55.515 69.2842C55.8926 69.3805 55.9062 69.8376 55.9952 70.1482C56.2064 70.8972 55.9847 71.6848 56.1688 72.4379C56.2295 72.9944 56.1897 73.5582 56.1928 74.1178C56.1803 74.6502 55.764 75.1167 55.2441 75.2119C54.786 75.3918 54.2849 75.2684 53.8582 75.0686C53.5046 74.8929 53.4471 74.464 53.3979 74.1168C53.3613 73.2967 53.4848 72.462 53.2442 71.6628C52.3174 71.6283 51.3885 71.6294 50.4628 71.6628C50.4283 74.4096 50.4283 77.1596 50.4628 79.9064C51.2097 79.9482 51.9586 79.921 52.7076 79.9242C53.1971 79.8959 53.6981 80.0643 54.0831 80.3677C54.4335 80.7359 54.3927 81.3049 54.2672 81.7578C54.0067 82.1699 53.513 82.4513 53.0224 82.4178C50.0894 82.4084 47.1564 82.4189 44.2245 82.4126C43.8238 82.3614 43.4557 82.1271 43.1711 81.8499C42.9264 81.399 42.9055 80.7631 43.2705 80.3677C43.6816 80.0361 44.2255 79.8834 44.7517 79.9242C45.5027 79.9043 46.26 79.9827 47.0068 79.8792C47.0194 77.1491 47.0194 74.4191 47.0068 71.689C46.0738 71.5938 45.1293 71.6471 44.1931 71.6618C44.2004 72.2392 44.0268 72.7998 44.0613 73.3772C44.054 73.7946 44.1262 74.2391 43.9232 74.6241C43.6931 75.0393 43.2151 75.2569 42.7611 75.3071C42.2088 75.2757 41.5352 75.077 41.3459 74.4923C41.0802 73.6105 41.4243 72.7036 41.3668 71.8093C41.394 71.0405 41.2392 70.2214 41.6 69.507Z" fill="#DEDEDE"/>
<path d="M93.5132 69.2832C94.3521 69.029 95.2443 68.9914 96.1146 69.0845C97.4838 69.233 98.8834 68.8157 100.226 69.233C100.6 69.3115 100.906 69.5824 101.055 69.9317C102.443 73.0666 103.884 76.1785 105.265 79.3175C105.366 79.5184 105.457 79.7401 105.641 79.8845C106.11 79.9587 106.645 80.0152 106.967 80.4127C107.282 80.715 107.308 81.2014 107.187 81.5968C107.044 82.0476 106.578 82.2809 106.157 82.4043C104.482 82.4294 102.804 82.4033 101.128 82.4168C100.725 82.4367 100.315 82.2945 100.025 82.0162C99.6563 81.5445 99.6051 80.7955 100.057 80.3573C100.528 79.8907 101.247 79.9295 101.861 79.9096C101.812 79.4441 101.554 79.0424 101.314 78.6544C99.3844 78.6523 97.4535 78.6272 95.5257 78.6669C95.2589 79.0184 95.1 79.4671 95.0853 79.9096C95.7181 79.8803 96.4022 80.0069 96.8729 80.465C97.1166 80.7202 97.2976 81.125 97.1281 81.4681C96.9796 81.9712 96.488 82.2704 96.0121 82.4053C94.579 82.4294 93.146 82.4033 91.713 82.4168C91.1596 82.4315 90.4934 82.1794 90.3365 81.5947C90.2706 81.2108 90.2319 80.7621 90.508 80.4462C90.8417 79.9901 91.4421 79.9106 91.9682 79.897C92.3511 79.1857 92.6167 78.419 92.9651 77.69C93.578 76.3437 94.1481 74.9777 94.761 73.6304C95.0236 72.9756 95.3897 72.3595 95.5591 71.6692C94.8364 71.5928 94.0644 71.7612 93.396 71.4066C92.5655 71.0238 92.6293 69.5604 93.5132 69.2832ZM98.3698 71.7675C97.7422 73.2946 97.1062 74.8187 96.4964 76.3532C97.7652 76.3636 99.0361 76.3615 100.306 76.3542C99.7819 75.0498 99.2369 73.7538 98.7108 72.4505C98.6145 72.2141 98.5329 71.9662 98.3698 71.7675Z" fill="#DEDEDE"/>
<path d="M31.7917 88.5284C32.7551 88.018 33.8377 87.7805 34.9151 87.6634C35.8502 87.5117 36.8125 87.5138 37.7477 87.6623C38.6682 87.7272 39.5625 88.0462 40.3365 88.5452C40.9129 88.9228 41.2894 89.564 41.4359 90.2292C41.4714 90.7742 41.5007 91.3778 41.165 91.8453C40.7821 92.3202 40.2957 92.7313 39.7173 92.9426C39.4966 93.0231 39.2822 93.1214 39.0897 93.2543C39.8439 93.6549 40.7968 93.7459 41.3836 94.4321C42.461 95.7919 41.9861 97.9916 40.5217 98.8776C39.3993 99.5324 38.0991 99.864 36.8052 99.9069C36.1504 100.031 35.4695 100.031 34.8157 99.9069C33.6588 99.8703 32.5176 99.5805 31.4424 99.1632C30.9811 98.9404 30.4141 98.6307 30.3702 98.0586C30.3001 97.6193 30.6056 97.2186 30.9612 96.999C31.5752 96.8714 32.162 97.1391 32.7425 97.2971C34.2582 97.8107 35.9548 98.2218 37.5134 97.6517C38.1336 97.4937 38.7089 97.068 38.9401 96.4571C38.9976 96.0701 38.9778 95.6266 38.7121 95.316C38.2393 94.8641 37.6389 94.5492 36.9904 94.452C36.0594 94.181 35.0678 94.5074 34.1442 94.2156C33.5145 94.0848 33.2446 93.0106 33.9141 92.7376C34.5071 92.3631 35.2195 92.5472 35.869 92.3966C36.5563 92.3056 37.3167 92.2574 37.8836 91.815C38.255 91.5315 38.2958 91.0179 38.1838 90.5985C37.8428 89.905 37.0197 89.6016 36.2864 89.6299C35.3534 89.588 34.4078 89.7428 33.5521 90.1194C33.1076 90.292 32.6683 90.5043 32.1944 90.5744C31.6275 90.6424 30.9235 90.2376 30.9696 89.6058C30.9737 89.1048 31.3827 88.7471 31.7917 88.5284Z" fill="#DEDEDE"/>
<path d="M21.3547 87.7053C22.7981 87.4261 24.3117 87.5558 25.6977 88.0401C27.093 88.5254 28.3325 89.5432 28.9141 90.9228C29.4026 91.7638 29.6149 92.7199 29.729 93.677C29.6317 95.4301 28.9643 97.225 27.6108 98.3986C26.4947 99.3191 25.0648 99.8589 23.6224 99.9206C23.1412 100.034 22.6412 100.008 22.1611 99.908C20.8191 99.7961 19.4248 99.4101 18.4164 98.4739C17.9133 98.0608 17.3976 97.6288 17.0859 97.0461C16.6487 96.2209 16.2292 95.3516 16.1592 94.4071C16.1309 93.8809 16.134 93.3538 16.1748 92.8297C16.3694 91.8768 16.7951 90.9825 17.2993 90.1572C17.792 89.3266 18.6068 88.7566 19.4467 88.3183C20.0566 88.0432 20.6884 87.7995 21.3547 87.7053ZM22.1998 89.9616C21.3526 90.131 20.5084 90.6132 20.1214 91.4134C19.6287 92.3621 19.5995 93.4657 19.6737 94.5096C19.7574 95.5043 20.1413 96.5524 20.9886 97.1434C21.795 97.6842 22.8264 97.7219 23.7584 97.5848C24.5879 97.4562 25.3044 96.8872 25.683 96.1476C26.183 95.1989 26.2081 94.0901 26.1391 93.0441C26.0481 92.1216 25.7426 91.1258 24.9675 90.5505C24.1998 89.9312 23.1475 89.7973 22.1998 89.9616Z" fill="#DEDEDE"/>
<path d="M43.7412 88.1603C44.0216 87.9177 44.4096 87.9877 44.7517 87.9794C48.2045 87.9825 51.6574 87.9825 55.1103 87.9794C55.2985 87.971 55.4899 88.0118 55.6531 88.1143C55.8937 88.4846 55.8937 88.9532 55.8864 89.381C55.8602 90.1948 55.9826 91.0389 55.6835 91.8182C55.3257 92.3151 54.6531 92.2889 54.1103 92.2303C53.6218 92.109 53.376 91.6069 53.2996 91.1498C53.2724 90.7555 53.2986 90.3601 53.2693 89.9657C51.4294 89.9312 49.5863 89.9323 47.7464 89.9647C47.7119 90.8308 47.7129 91.699 47.7453 92.564C48.3939 92.5922 49.0445 92.6006 49.694 92.5598C49.8468 92.2073 49.8645 91.7356 50.2411 91.5326C50.6229 91.2732 51.1082 91.2942 51.5465 91.3538C51.9586 91.4939 52.217 91.8998 52.3164 92.3067C52.3457 92.9699 52.3153 93.6362 52.33 94.3004C52.3551 94.7418 52.2201 95.1884 51.9733 95.5535C51.4859 95.9144 50.7547 95.9039 50.2432 95.5995C49.9158 95.4175 49.9535 94.9939 49.9064 94.6748C49.1867 94.6424 48.465 94.6424 47.7464 94.6759C47.7119 95.6089 47.7119 96.5441 47.7464 97.4771C49.5863 97.5116 51.4294 97.5106 53.2693 97.4771C53.3268 96.9206 53.1887 96.3275 53.4523 95.8066C53.6291 95.3485 54.1385 95.1455 54.5914 95.088C55.0046 95.0901 55.4345 95.2888 55.7012 95.6037C55.9 96.2292 55.9 96.8913 55.8843 97.5419C55.8623 98.1518 55.9784 98.8013 55.7012 99.3714C55.491 99.568 55.1929 99.68 54.9073 99.6747C51.4513 99.6716 47.9943 99.6726 44.5383 99.6737C44.2454 99.6726 43.9599 99.5764 43.7078 99.4373C43.2025 99.0022 43.235 98.0869 43.8155 97.7323C44.1304 97.6047 44.4724 97.5608 44.7956 97.452C44.8437 96.4708 44.805 95.4886 44.8176 94.5075C44.8061 93.0745 44.8406 91.6414 44.7998 90.2095C44.3971 90.0651 43.9149 90.0285 43.6283 89.6739C43.2057 89.267 43.2538 88.4961 43.7412 88.1603Z" fill="#DEDEDE"/>
<path d="M57.6938 88.1938C57.9668 87.9689 58.3245 87.9626 58.6624 87.9793C60.5807 87.9846 62.4991 87.9804 64.4185 87.9814C65.7689 87.9354 67.1758 88.1708 68.3452 88.8821C69.5251 89.6101 69.9247 91.1958 69.5868 92.4845C69.3986 93.3412 68.8118 94.0619 68.1088 94.5608C67.1758 95.066 66.1141 95.3233 65.0608 95.3976C63.9363 95.5964 62.7878 95.4259 61.655 95.5116C61.6215 96.1664 61.6215 96.8233 61.6539 97.4781C62.452 97.5189 63.3056 97.4331 64.0409 97.8034C64.4259 98.2114 64.4405 98.8808 64.1518 99.3557C63.8087 99.5952 63.3746 99.6946 62.9604 99.6768C61.4584 99.6705 59.9573 99.6737 58.4563 99.6758C57.9208 99.6883 57.3026 99.2783 57.3632 98.6873C57.312 98.2909 57.5264 97.8913 57.8779 97.7061C58.1425 97.6026 58.4344 97.5953 58.7042 97.5001C58.7555 96.0158 58.7126 94.5284 58.7272 93.0431C58.7126 92.0933 58.7576 91.1425 58.7011 90.1948C58.2262 90.0086 57.5756 89.9113 57.3904 89.3601C57.3507 88.9626 57.2701 88.4208 57.6938 88.1938ZM61.7031 90.1393C61.6947 91.1843 61.6968 92.2293 61.7021 93.2753C62.4698 93.2669 63.2491 93.3412 64.0054 93.1633C64.7418 93.1246 65.5618 92.9813 66.0629 92.3872C66.5953 91.6968 66.0901 90.6017 65.2794 90.4197C64.7219 90.29 64.1633 90.1258 63.587 90.1383C62.9583 90.1414 62.3307 90.1404 61.7031 90.1393Z" fill="#DEDEDE"/>
<path d="M70.522 88.2711C70.6758 88.0556 70.9561 87.9625 71.2166 87.9793C72.6433 87.9845 74.0711 87.9782 75.4989 87.9824C76.1872 87.9897 76.6234 88.8485 76.2855 89.4322C75.9926 89.9426 75.3609 90.0671 74.8379 90.2104C74.8054 91.111 74.7918 92.0168 74.8473 92.9174C75.3127 92.7731 75.6328 92.3767 76.0188 92.1005C76.819 91.4091 77.6799 90.7888 78.4748 90.0901C78.1359 89.8704 77.569 89.8077 77.5345 89.3119C77.5073 88.9217 77.4644 88.4092 77.8388 88.1613C78.0062 88.0284 78.2185 87.9646 78.434 87.9793C79.7593 87.9824 81.0856 87.9824 82.4109 87.9793C82.7959 87.9709 83.2216 88.1947 83.3722 88.5598C83.4151 88.9667 83.482 89.4918 83.073 89.7418C82.5846 90.224 81.775 89.9656 81.2875 90.4468C80.4141 91.1811 79.4957 91.8589 78.6077 92.5743C78.4832 92.6842 78.2531 92.8118 78.3744 93.0074C78.7876 93.4289 79.342 93.7009 79.6966 94.1841C80.3147 95.0126 80.9559 95.8285 81.4664 96.7301C81.6222 96.9738 81.7352 97.2584 81.9695 97.4414C82.3273 97.5366 82.7038 97.5544 83.0636 97.6558C83.3304 97.7374 83.4831 97.9958 83.6787 98.1799C83.8544 98.0355 84.0155 97.8713 84.209 97.7458C84.5521 97.6119 84.9245 97.5722 85.2759 97.456C85.3251 96.3693 85.2843 95.2804 85.2979 94.1936C85.2853 92.8641 85.323 91.5336 85.278 90.2051C84.8084 90.087 84.2686 90.0326 83.9465 89.6267C83.4015 89.0901 83.8366 87.9845 84.6149 87.9824C86.0416 87.9782 87.4684 87.9845 88.8962 87.9793C89.4244 87.9353 89.9212 88.4364 89.8846 88.9635C89.9129 89.3108 89.6995 89.6361 89.4139 89.815C89.0823 90.0169 88.7026 90.1173 88.3313 90.2104C88.2999 91.5231 88.2832 92.8411 88.3418 94.1538C88.9505 93.8055 89.4223 93.2804 89.962 92.8432C90.6451 92.2428 91.3208 91.634 92.0112 91.0409C92.2476 90.8484 92.4065 90.5137 92.2538 90.2229C91.8072 90.0629 91.2863 90.0085 90.9672 89.6162C90.4369 89.0817 90.8522 87.9803 91.6231 87.9813C93.0812 87.9813 94.5404 87.9813 95.9996 87.9813C96.4577 87.9677 96.8332 88.4154 96.7872 88.8631C96.8395 89.2711 96.6889 89.7114 96.3175 89.9206C96.0079 90.0671 95.6659 90.1215 95.3374 90.2051C95.2914 92.6099 95.3207 95.0168 95.3228 97.4226C95.6669 97.5878 96.054 97.6119 96.4127 97.7406C96.8949 97.978 96.9859 98.6108 96.828 99.0763C96.6774 99.434 96.2757 99.6296 95.9106 99.6715C94.6157 99.6778 93.3218 99.6673 92.0279 99.6757C91.6984 99.684 91.3543 99.6066 91.0844 99.4163C90.8658 99.1631 90.7183 98.8232 90.7371 98.4864C90.8187 98.1799 90.9693 97.8378 91.2957 97.7291C91.6147 97.6098 91.9547 97.5575 92.281 97.455C92.3134 96.1339 92.3291 94.8076 92.2706 93.4865C91.0656 94.4028 89.9871 95.4718 88.8198 96.4331C88.643 96.5764 88.4694 96.7291 88.3428 96.9184C88.2853 97.0899 88.325 97.273 88.3271 97.4498C88.7194 97.5941 89.165 97.6077 89.5238 97.842C89.8574 98.1537 90.0039 98.6966 89.7602 99.1087C89.62 99.5052 89.166 99.6223 88.7947 99.6704C87.5008 99.6788 86.2079 99.6694 84.914 99.6746C84.4349 99.6861 84.0239 99.4089 83.6787 99.1077C83.39 99.3912 83.049 99.6631 82.6243 99.6704C81.889 99.6715 81.1526 99.6861 80.4183 99.6631C79.7269 99.5146 79.3168 98.8838 79.0135 98.3002C78.5794 97.4832 78.0208 96.7406 77.456 96.0115C77.0407 95.5283 76.5188 95.1517 76.0355 94.7406C75.659 94.9802 75.2667 95.1988 74.9257 95.4864C74.795 95.5701 74.8222 95.7322 74.8159 95.863C74.8107 96.3818 74.8138 96.9017 74.8232 97.4205C75.2071 97.615 75.6684 97.5983 76.0303 97.842C76.365 98.1537 76.5104 98.6977 76.2677 99.1087C76.1098 99.5355 75.6025 99.6495 75.1987 99.6746C73.9048 99.6694 72.6109 99.6788 71.3181 99.6704C70.9122 99.6192 70.4216 99.4686 70.2752 99.0397C70.1413 98.5774 70.2333 97.9728 70.7082 97.7406C71.0576 97.6182 71.4279 97.5701 71.7825 97.456C71.8316 96.3347 71.7908 95.2113 71.8044 94.089C71.7908 92.7951 71.8306 91.4991 71.7835 90.2051C71.2553 90.0828 70.5953 89.996 70.3526 89.4322C70.3108 89.042 70.3066 88.6163 70.522 88.2711Z" fill="#DEDEDE"/>
<path d="M8.18129 91.3414C8.66245 91.2117 9.06517 91.5663 9.37688 91.8822C9.21893 92.7378 8.64467 93.4136 8.23254 94.1552C8.05158 94.4972 7.7336 94.8194 7.7723 95.2326C8.18442 96.0213 8.67291 96.7712 9.10595 97.5505C9.22311 97.8361 9.42499 98.1436 9.32144 98.4647C9.03901 98.881 8.47417 99.0902 8.0087 98.858C7.53799 98.6959 7.37587 98.1844 7.12483 97.8057C6.67714 97.0055 6.13112 96.2629 5.71168 95.447C5.6531 95.2932 5.50875 95.1196 5.60498 94.9533C5.99096 94.2012 6.50768 93.5276 6.93445 92.7985C7.29532 92.2776 7.538 91.5778 8.18129 91.3414Z" fill="#DEDEDE"/>
<path d="M12.0505 91.3842C12.5975 91.1311 13.2942 91.6164 13.3067 92.1917C12.7816 93.0766 12.2994 93.9898 11.7963 94.8894C11.653 95.1435 11.8622 95.404 11.9616 95.6341C12.3946 96.3893 12.7869 97.1676 13.2398 97.9123C13.4134 98.1487 13.2241 98.4186 13.1038 98.6299C12.8339 98.9322 12.3695 99.0138 11.9909 98.9071C11.607 98.7795 11.4783 98.3611 11.2639 98.0608C10.7827 97.36 10.3601 96.6226 9.87269 95.927C9.61015 95.5494 9.41245 95.0107 9.71161 94.5975C10.3413 93.6352 10.9961 92.6886 11.6174 91.72C11.7095 91.5526 11.8747 91.4491 12.0505 91.3842Z" fill="#DEDEDE"/>
<path d="M99.9231 92.2554C99.7233 91.6037 100.64 91.1278 101.165 91.4123C101.476 91.5211 101.599 91.8505 101.778 92.0995C102.324 92.9102 102.815 93.7553 103.38 94.5534C103.682 94.9342 103.651 95.5105 103.365 95.8923C102.776 96.7647 102.195 97.6423 101.612 98.5188C101.266 99.114 100.143 99.1004 99.944 98.3964C99.899 98.2835 99.8582 98.1716 99.8206 98.0586C100.354 97.203 100.829 96.3118 101.29 95.4153C101.58 94.9917 101.169 94.5869 100.983 94.2208C100.652 93.5524 100.245 92.9258 99.9231 92.2554Z" fill="#DEDEDE"/>
<path d="M104.509 91.3487C104.847 91.2556 105.244 91.3748 105.429 91.6876C106.015 92.6279 106.602 93.5694 107.21 94.4961C107.344 94.7273 107.565 94.9553 107.555 95.2367C107.307 95.9783 106.78 96.5777 106.373 97.2345C106.055 97.6875 105.781 98.1718 105.439 98.6069C105.041 99.131 104.134 99.0452 103.831 98.4657C103.712 98.0013 104.028 97.5954 104.214 97.1979C104.564 96.5975 104.877 95.9762 105.223 95.3737C105.368 95.0871 105.18 94.7879 105.057 94.5338C104.655 93.8141 104.253 93.0955 103.87 92.3675C103.618 91.8916 104.025 91.402 104.509 91.3487Z" fill="#DEDEDE"/>
<path d="M54.7749 0H58.3575C59.0144 0.0794963 59.6786 0.0700823 60.3396 0.0742663C61.0426 0.281375 61.7842 0.0805423 62.4986 0.213385C63.0153 0.316939 63.5477 0.230121 64.0676 0.317985C70.8039 0.813791 77.515 1.93929 83.9961 3.87335C90.3736 5.79905 96.6067 8.45903 102.003 12.414C103.328 13.4066 104.613 14.461 105.747 15.6702C109.077 18.8438 111.591 23.0811 112.032 27.7222C112.002 28.3436 112.236 28.9544 112.11 29.5737C112.007 30.0517 112.078 30.5454 111.991 31.0266C111.617 33.9889 110.395 36.8047 108.672 39.2304C107.885 40.3778 106.957 41.4207 106.02 42.4458C103.028 45.3903 99.5575 47.8379 95.8211 49.7469C94.7228 50.408 93.5314 50.887 92.3756 51.4331C85.6519 54.4738 78.423 56.2781 71.126 57.2687C68.5361 57.638 65.9284 57.8796 63.3208 58.0354C62.6649 58.1651 61.9913 58.0292 61.3334 58.14C60.8302 58.2342 60.3156 58.1955 59.8072 58.1997C57.6106 58.1976 55.414 58.1965 53.2174 58.1997C52.7739 58.1965 52.3262 58.2279 51.8858 58.1536C51.1693 58.0187 50.434 58.1735 49.7185 58.0229C46.7092 57.8681 43.7071 57.5166 40.7229 57.0794C34.5023 56.1265 28.3581 54.5648 22.5339 52.1632C19.3572 50.864 16.2767 49.3118 13.3898 47.4509C11.577 46.2742 9.83753 44.9761 8.25283 43.5043C7.60117 42.9709 7.00391 42.3726 6.47044 41.722C5.24453 40.4019 4.15459 38.949 3.27072 37.3779C2.93495 36.697 2.57513 36.0265 2.26551 35.333C1.74251 34.0474 1.35235 32.7023 1.16197 31.3247C1.1034 30.9628 1.07934 30.5946 0.984153 30.24C0.969509 29.536 0.962187 28.8321 0.985199 28.1291C1.117 27.5915 1.1149 27.0319 1.22996 26.4911C1.87953 22.7495 3.89937 19.3783 6.43697 16.6074C7.12106 15.9317 7.79155 15.2413 8.48191 14.5708C10.9986 12.324 13.8218 10.436 16.7882 8.83664C17.7621 8.34293 18.7422 7.86177 19.717 7.3691C22.7149 5.97059 25.8152 4.78442 28.9972 3.87544C35.7209 1.90059 42.6768 0.742663 49.661 0.271961C50.2583 0.315893 50.8398 0.133889 51.4361 0.165269C51.889 0.164223 52.3534 0.214431 52.7917 0.0721743C53.4528 0.0690363 54.117 0.0784503 54.7749 0ZM65.9567 2.56899C65.9473 2.92253 65.9462 3.27608 65.9703 3.62859C71.3143 4.61602 76.5422 6.38062 81.266 9.08873C84.6279 11.0228 87.7366 13.4589 90.2135 16.4568C92.6978 19.4442 94.5042 23.0654 95.021 26.9398C95.5732 30.8425 94.7626 34.8811 92.9122 38.3465C91.0472 41.8757 88.246 44.8401 85.0703 47.226C84.5578 47.6256 84.0055 47.9687 83.5024 48.3798C82.0474 49.2741 80.584 50.1674 79.0464 50.9184C74.9262 52.9539 70.5047 54.3661 65.9839 55.1798C65.9661 55.3158 65.9515 55.4529 65.9379 55.5899C74.0266 54.7562 82.0965 52.9864 89.5116 49.5774C92.9279 48.0064 96.2082 46.0963 99.1171 43.702C101.355 41.8569 103.373 39.7074 104.865 37.2074C106.385 34.6771 107.294 31.7368 107.201 28.7693C107.145 26.4608 106.515 24.1847 105.471 22.1314C104.183 19.5812 102.302 17.3752 100.189 15.4714C97.5199 13.0761 94.4561 11.1577 91.2637 9.54374C83.3664 5.64005 74.695 3.46855 65.9567 2.56899ZM24.0695 8.50924C19.7338 10.4527 15.5717 12.9234 12.1492 16.2497C9.59172 18.7496 7.46101 21.804 6.53634 25.2945C5.73406 28.2233 5.88573 31.3937 6.93801 34.2409C8.13254 37.5338 10.3407 40.3705 12.9076 42.7136C15.3029 44.9039 18.0288 46.7093 20.8896 48.2333C24.4795 50.1224 28.2754 51.6109 32.1634 52.7615C36.429 54.0062 40.8097 54.8796 45.2301 55.3232C44.9498 55.1202 44.5879 55.1275 44.2636 55.0491C38.8401 53.9696 33.5442 52.0805 28.812 49.1957C24.8812 46.7804 21.3059 43.6435 18.8509 39.7032C16.7704 36.3936 15.6104 32.468 15.8154 28.5465C15.9703 25.0173 17.2087 21.5812 19.1512 18.6461C21.2463 15.4432 24.0956 12.7895 27.243 10.6379C27.5453 10.3638 27.8518 10.1044 28.2462 9.97156C33.3768 6.74359 39.1905 4.6725 45.1443 3.61499C45.1642 3.35558 45.1653 3.09513 45.1611 2.83467C37.9186 3.75306 30.7482 5.52708 24.0695 8.50924ZM29.6384 10.6661C31.0693 11.3031 32.5139 11.9077 33.9573 12.5144C37.3652 10.2383 41.1999 8.65254 45.1621 7.64001C45.1632 6.74359 45.1653 5.84716 45.1611 4.94969C39.7208 5.96745 34.3841 7.78855 29.6384 10.6661ZM65.9577 4.97898C65.9441 5.86704 65.9588 6.75509 65.9494 7.6442C69.9221 8.69125 73.7536 10.3293 77.15 12.6556C78.538 11.9799 79.9491 11.3502 81.3319 10.6651C79.9114 9.78014 78.4125 9.02492 76.8874 8.33874C73.3969 6.78647 69.7129 5.67562 65.9577 4.97898ZM35.4312 13.143C37.5378 14.0562 39.6601 14.9359 41.7658 15.8532C42.1601 16.0164 42.2511 16.5833 41.9676 16.8867C41.7689 17.1451 41.3965 17.1566 41.1225 17.0237C38.7784 16.0258 36.4343 15.0258 34.0891 14.0301C32.1833 15.3731 30.4386 16.962 28.992 18.7946C34.381 18.8124 39.77 18.7956 45.159 18.803C45.1674 15.5436 45.1632 12.2853 45.1611 9.02597C41.7427 9.91507 38.4238 11.256 35.4312 13.143ZM65.9588 9.04689C65.9483 12.2979 65.9483 15.5499 65.9588 18.7998C71.2369 18.8019 76.515 18.8051 81.7921 18.7988C80.4972 17.1116 78.9334 15.644 77.2431 14.3606C77.1416 14.2989 77.0224 14.1734 76.8968 14.2528C75.1333 15.0729 73.3791 15.9129 71.6187 16.7392C71.3708 16.871 71.0497 16.893 70.8216 16.7089C70.4325 16.4317 70.5141 15.735 70.9681 15.5698C72.5538 14.8135 74.1511 14.0813 75.7326 13.3156C72.7421 11.3617 69.4085 9.95691 65.9588 9.04689ZM28.2462 11.5468C26.6761 12.5907 25.1939 13.7675 23.8352 15.075C21.0183 17.7915 18.7286 21.1596 17.7139 24.9702C16.8625 28.103 16.9378 31.4774 17.9221 34.5715C18.9514 37.8716 20.9325 40.8109 23.3467 43.2596C24.9544 44.8882 26.7619 46.3097 28.6761 47.5608C28.7984 47.6402 28.948 47.7417 29.0903 47.6361C30.4469 47.0095 31.8099 46.3934 33.1624 45.7574C30.8601 44.0859 28.766 42.0985 27.1395 39.7544C25.9575 39.7377 24.7745 39.7565 23.5925 39.745C23.5873 32.765 23.5862 25.7861 23.5935 18.8061C24.8393 18.7904 26.0841 18.8145 27.3299 18.7946C28.8005 16.7287 30.653 14.9673 32.653 13.4202C31.1865 12.7905 29.721 12.1567 28.2462 11.5468ZM78.3822 13.5656C80.3089 15.0666 82.0432 16.8187 83.472 18.8019C84.6477 18.804 85.8234 18.7967 87.0002 18.8051C87.0065 25.7861 87.0033 32.7661 87.0023 39.7471C85.9249 39.7513 84.8475 39.745 83.7701 39.7492C82.3685 41.814 80.6227 43.6257 78.6845 45.1905C80.0861 45.8662 81.5066 46.5022 82.9208 47.1518C85.7837 45.2062 88.3903 42.8318 90.3715 39.9793C92.5294 36.8946 93.8808 33.1824 93.8557 29.3927C93.8693 25.6083 92.52 21.9023 90.3579 18.8239C88.3286 15.9066 85.6446 13.4945 82.7043 11.5207C81.2576 12.187 79.811 12.8596 78.3822 13.5656ZM28.7859 39.7534C30.2472 41.677 32.0505 43.3255 34.0086 44.7334C34.2387 44.8558 34.4741 45.1863 34.7565 45.0367C36.9364 44.042 39.111 43.0357 41.2909 42.042C41.6245 41.8642 42.0963 42.0201 42.2176 42.3893C42.3526 42.7125 42.1925 43.1226 41.8599 43.2481C39.8861 44.1665 37.8976 45.0566 35.9259 45.9813C38.7909 47.7051 41.9289 48.9551 45.1632 49.7919C45.1621 46.4447 45.1653 43.0975 45.1621 39.7492C39.703 39.7492 34.2439 39.7419 28.7859 39.7534ZM65.9556 39.7513C65.9525 43.1079 65.9462 46.4645 65.9588 49.8212C69.5121 48.9091 72.9649 47.4928 76.0203 45.4489C74.3592 44.6821 72.6971 43.9175 71.0361 43.1518C70.7578 43.0462 70.5309 42.7784 70.5769 42.4678C70.5591 41.9897 71.1532 41.677 71.5539 41.9176C73.4659 42.7931 75.3759 43.678 77.287 44.5566C79.1206 43.2062 80.7775 41.5943 82.1206 39.7523C76.7326 39.745 71.3447 39.7471 65.9556 39.7513ZM77.1364 46.3087C73.7641 48.6151 69.9357 50.2113 65.9776 51.1893C65.9222 52.0701 65.963 52.955 65.9567 53.8378C71.4388 52.8117 76.8069 50.9414 81.5693 48.0116C80.2064 47.3641 78.8288 46.7511 77.4648 46.1079C77.3539 46.1727 77.2431 46.2386 77.1364 46.3087ZM30.3131 48.5618C34.8998 51.1914 39.974 52.9142 45.1632 53.8723C45.1632 52.9707 45.1632 52.068 45.1632 51.1663C41.4017 50.2124 37.7554 48.7375 34.4824 46.6413C33.0881 47.271 31.6917 47.8997 30.3131 48.5618Z" fill="#DEDEDE"/>
</svg>
