<svg width="123" height="100" viewBox="0 0 123 100" fill="none" xmlns="http://www.w3.org/2000/svg">
<path d="M63.3139 0.000488281C63.7687 0.295632 64.1906 0.649804 64.5207 1.08268C67.1639 4.53915 69.5207 8.3629 70.4433 12.6676C70.8368 14.2395 70.7734 15.8727 70.6969 17.4774C70.0432 22.7703 66.7464 27.2303 63.2462 31.0562C61.4447 33.2446 59.2256 35.0439 57.4154 37.2236C54.9406 39.8537 52.6713 42.733 51.0687 45.9861C49.5078 49.2589 48.7054 52.9996 49.3263 56.6091C49.464 58.0848 49.9887 59.4862 50.262 60.9379C49.3001 60.4372 48.7666 59.4512 48.1042 58.6401C45.1855 54.6852 42.8266 50.0285 42.761 45.0176C42.8703 42.0705 43.7317 39.1453 45.2599 36.618C46.5323 34.4077 48.067 32.3526 49.7854 30.4703C51.7727 28.1004 54.1295 26.0759 56.1627 23.7454C58.9283 20.7371 61.5627 17.4818 63.0822 13.6471C64.4617 10.313 64.8771 6.5505 64.0245 3.02626C63.8146 2.01184 63.4298 1.03459 63.3139 0.000488281Z" fill="#DEDEDE"/>
<path d="M52.0155 86.2655C53.4279 86.2633 54.8402 86.2436 56.2503 86.2611C56.7947 86.2349 57.197 86.6568 57.6211 86.9301C60.4589 89.0026 63.336 91.0227 66.1781 93.0931C66.2109 90.8172 66.1803 88.5413 66.1934 86.2655C67.5707 86.2523 68.9481 86.2589 70.3254 86.2611C70.3101 90.8325 70.3145 95.404 70.3254 99.9776C68.8519 99.9514 67.3652 100.072 65.9004 99.9295C62.5795 97.5684 59.4619 94.9186 56.1432 92.5466C56.1016 95.0258 56.141 97.505 56.1213 99.9842C54.7527 99.9886 53.3863 99.9886 52.0177 99.982C52.009 95.4084 52.0155 90.8369 52.0155 86.2655Z" fill="#DEDEDE"/>
<path d="M73.5784 86.2722C78.9041 86.2569 84.2276 86.2569 89.5533 86.2722C89.5599 87.291 89.5577 88.3098 89.5555 89.3286C86.2171 89.333 82.8765 89.3352 79.5359 89.3264C79.5293 90.1047 79.5272 90.8808 79.5315 91.6591C82.1375 91.6657 84.7414 91.6504 87.3474 91.6701C87.3452 92.6408 87.343 93.6115 87.3474 94.5822C84.7414 94.6718 82.1288 94.51 79.5272 94.674C79.5315 95.4435 79.5315 96.2109 79.5206 96.9805C82.8984 96.9761 86.2739 96.9696 89.6517 96.9849C89.7523 97.9774 89.7282 98.9765 89.7238 99.9735C84.3435 99.9909 78.9631 99.9909 73.5806 99.9756C73.5806 95.4086 73.5871 90.8415 73.5784 86.2722Z" fill="#DEDEDE"/>
<path d="M92.3649 86.2612C102.479 86.2546 112.594 86.2437 122.708 86.2677C122.756 87.2844 122.774 88.3097 122.68 89.3263C120.887 89.3416 119.096 89.3372 117.304 89.3329C117.304 92.8833 117.312 96.4338 117.299 99.9843C115.321 99.9799 113.34 99.9821 111.363 99.9799C111.193 96.4338 111.337 92.879 111.287 89.3307C106.958 89.3394 102.627 89.3394 98.2984 89.3285C98.2984 90.203 98.2941 91.0797 98.3006 91.9542C100.485 91.952 102.669 91.9433 104.855 91.9586C104.855 92.962 104.859 93.9655 104.851 94.9712C102.667 94.9821 100.48 94.9778 98.2962 94.9668C98.2962 96.6371 98.2941 98.3074 98.3006 99.9777C96.3221 99.9843 94.3413 99.9843 92.3628 99.9799C92.3628 95.4085 92.3584 90.8348 92.3649 86.2612Z" fill="#DEDEDE"/>
<path d="M75.5219 16.2183C78.2306 19.2244 80.4672 22.6786 81.9166 26.4652C83.0141 29.4866 83.3049 32.825 82.5354 35.9579C81.5253 39.8866 79.1161 43.2578 76.545 46.323C73.5433 49.7969 70.065 52.8336 67.2119 56.4431C64.5534 59.6416 62.3584 63.3692 61.6086 67.5055C61.0795 70.516 61.4074 73.6227 62.2557 76.5457C62.0436 76.5676 61.8337 76.5916 61.6239 76.6178C59.0025 73.404 56.7944 69.7596 55.6816 65.7391C55.2794 64.4033 55.2487 63.004 55.0476 61.6355C55.2378 59.4907 55.5439 57.3111 56.4512 55.3325C58.2483 51.3382 61.1145 47.9495 64.1074 44.7991C66.8883 42.0292 69.6255 39.2001 72.0086 36.0738C74.3719 32.7747 76.3657 29.0297 76.7002 24.9174C76.7024 23.6821 76.7483 22.4425 76.6631 21.2095C76.3723 19.5282 76.0028 17.8558 75.5219 16.2183Z" fill="#DEDEDE"/>
<path d="M0.0088409 86.2813C5.54443 86.255 11.0822 86.2703 16.62 86.2725C16.62 87.2913 16.62 88.3101 16.62 89.3289C14.836 89.3071 13.0542 89.3311 11.2702 89.3158C11.2768 92.4093 11.268 95.5029 11.2768 98.5942C11.268 99.0643 11.2046 99.53 11.1369 99.9956C9.2064 99.9607 7.27376 99.9716 5.3433 99.9934C5.34111 96.4364 5.34329 92.8772 5.34111 89.3202C3.5615 89.318 1.78189 89.3311 0.00446871 89.3092C0.00228246 88.2992 -0.00646287 87.2891 0.0088409 86.2813Z" fill="#DEDEDE"/>
<path d="M21.5478 87.0441C21.7533 86.738 21.891 86.2374 22.3523 86.2964C24.3352 86.2549 26.3203 86.2986 28.3033 86.2811C30.7912 90.8351 33.3513 95.3518 35.73 99.9648C33.6683 99.9692 31.6045 99.9801 29.5451 99.9692C29.2324 100.022 29.0772 99.6894 28.9373 99.4795C28.5897 98.8783 28.3033 98.2443 28.0038 97.619C25.2185 97.6081 22.4354 97.6387 19.6523 97.6037C19.2194 98.3842 18.7887 99.1647 18.3886 99.9626C17.1097 99.9692 15.8285 99.9867 14.5496 99.9561C16.8408 95.6295 19.2391 91.3619 21.5478 87.0441ZM23.7646 89.6807C22.8573 91.3685 21.9981 93.0825 21.0996 94.7769C22.8967 94.8097 24.6938 94.7812 26.4931 94.7944C25.7869 93.3471 25.0348 91.9216 24.344 90.4678C24.1756 90.1923 24.0882 89.8163 23.7646 89.6807Z" fill="#DEDEDE"/>
<path d="M33.7842 86.27C39.1951 86.281 44.6061 86.2591 50.0193 86.2809C50.0171 87.291 50.0127 88.3032 50.0105 89.3133C48.3555 89.3177 46.7005 89.322 45.0477 89.3133C45.0346 92.8681 45.0762 96.423 45.0259 99.9778C43.0539 99.9691 41.0841 99.9931 39.1121 99.9625C39.1011 96.4142 39.1055 92.8659 39.1099 89.3155C37.3325 89.3286 35.5572 89.3045 33.782 89.3242C33.7907 88.3076 33.7842 87.2888 33.7842 86.27Z" fill="#DEDEDE"/>
</svg>
