<svg width="98" height="100" viewBox="0 0 98 100" fill="none" xmlns="http://www.w3.org/2000/svg">
<path d="M44.9255 0.180677C51.2517 -0.442616 57.7345 0.551497 63.5651 3.08938C70.6317 6.13878 76.7055 11.4144 80.7359 17.9682C83.3079 22.1314 85.0555 26.8021 85.8366 31.6333C86.811 37.6282 86.3258 43.8598 84.398 49.6207C81.8694 57.2435 76.816 63.9867 70.2385 68.5864C66.6105 71.1361 62.5315 73.0402 58.2434 74.1698C52.1433 75.7832 45.6368 75.8279 39.5144 74.3039C31.6404 72.3643 24.4685 67.7711 19.3639 61.4764C15.3848 56.5992 12.6523 50.7108 11.5267 44.516C10.4011 38.358 10.8219 31.9173 12.7825 25.9684C15.2138 18.51 20.0634 11.8773 26.4002 7.2565C31.7942 3.29714 38.2625 0.818435 44.9255 0.180677ZM38.0271 6.38599C30.5358 8.89363 24.0412 14.2074 20.0687 21.0321C17.323 25.7107 15.7687 31.0771 15.5847 36.4987C15.3072 43.5048 17.3401 50.5793 21.3179 56.3573C23.9649 60.2259 27.4404 63.5251 31.4444 65.9604C35.0251 68.1433 39.0252 69.6331 43.1621 70.3156C48.9216 71.2729 54.9376 70.6943 60.3934 68.6048C67.8242 65.7948 74.144 60.1943 77.8456 53.1658C80.348 48.4583 81.6669 43.134 81.6721 37.8031C81.6945 32.6892 80.5123 27.5701 78.223 22.9953C76.3518 19.2227 73.7389 15.8274 70.6001 13.0226C69.7244 14.9267 68.5198 16.6914 66.9827 18.1234C65.3876 19.6224 63.4572 20.7375 61.4098 21.4976C59.0587 22.3707 56.5668 22.8073 54.075 23.0282C50.6061 23.3333 47.1214 23.211 43.6447 23.1715C42.9569 25.8501 42.2745 28.5287 41.5894 31.2073C43.4948 29.649 45.7499 28.4853 48.1747 28.004C50.7468 27.478 53.4701 27.7502 55.8923 28.7601C59.5018 30.2381 62.3882 33.3204 63.6926 36.9892C64.7104 39.765 64.8038 42.8223 64.2028 45.7021C63.3902 49.8692 61.1113 53.7378 57.8174 56.423C54.3077 59.337 49.6646 60.8636 45.1082 60.5047C41.0371 60.2246 37.0475 58.3757 34.3755 55.2619C32.7199 53.3894 31.6653 51.0816 30.854 48.741C33.3564 48.0953 35.8601 47.455 38.3638 46.8106C39.0962 48.6226 40.423 50.2006 42.0628 51.2631C43.4685 52.1573 45.1674 52.5754 46.8282 52.4281C49.0097 52.2493 51.0637 51.1632 52.5667 49.5918C54.2827 47.8087 55.3071 45.3957 55.457 42.9302C55.5504 41.2825 55.1085 39.6007 54.1657 38.241C52.9217 36.4158 50.8612 35.2061 48.6823 34.9141C46.8913 34.6577 45.0306 35.0246 43.4501 35.8938C41.5342 36.9326 40.0627 38.6434 39.0239 40.5343C36.7648 39.5665 34.4991 38.6131 32.2439 37.6387C33.5852 32.3118 34.8936 26.977 36.2283 21.6488C36.9291 18.7598 38.0982 15.9287 40.0233 13.6341C41.329 12.0653 42.9635 10.7806 44.7782 9.85092C47.1701 8.61617 49.8197 7.9679 52.476 7.61811C55.4044 7.22757 58.3644 7.21047 61.3138 7.18286C53.9882 4.10979 45.5461 3.83102 38.0271 6.38599ZM51.7541 11.4065C49.0255 11.8733 46.2759 12.7846 44.147 14.6177C42.5914 15.9366 41.4474 17.6881 40.686 19.5698C46.1549 19.3976 51.6857 19.9906 57.0981 18.94C59.607 18.4521 62.1041 17.5408 64.0726 15.8656C65.7111 14.4954 66.8827 12.6426 67.6572 10.6662C62.3632 11.0475 57.0113 10.5058 51.7541 11.4065Z" fill="#DEDEDE"/>
<path d="M39.9181 83.6271C40.878 83.1747 42.0996 84.0926 41.8616 85.1471C41.7551 86.1741 40.4164 86.6633 39.6248 86.0544C38.7648 85.4732 38.9253 83.9768 39.9181 83.6271Z" fill="#DEDEDE"/>
<path d="M43.5908 83.6082C44.364 83.2952 45.3476 83.791 45.4817 84.6312C45.6803 85.4834 44.9479 86.396 44.0602 86.3157C43.2515 86.3289 42.5769 85.5452 42.6927 84.7483C42.7334 84.2341 43.1016 83.7699 43.5908 83.6082Z" fill="#DEDEDE"/>
<path d="M0.000986222 83.794C3.37913 83.7927 6.75727 83.794 10.1354 83.794C10.1367 87.9546 10.1367 92.1138 10.1354 96.2744C9.30698 96.2757 8.47987 96.273 7.65144 96.277C7.64487 92.912 7.65144 89.547 7.64881 86.1833C5.92752 86.182 4.20755 86.182 2.48758 86.1833C2.48627 89.547 2.4889 92.9107 2.48758 96.2744C1.65784 96.2744 0.829413 96.2757 0.000986222 96.2744C-0.000328741 92.1138 -0.000328741 87.9546 0.000986222 83.794Z" fill="#DEDEDE"/>
<path d="M23.7623 88.439C24.6013 86.9701 26.6645 86.4968 28.1096 87.3225C28.5909 87.5855 28.9564 88.0155 29.2116 88.4968C30.5436 86.6151 33.6732 86.3403 35.2446 88.0589C35.9047 88.7545 36.1743 89.7329 36.1809 90.6744C36.1874 92.5403 36.1822 94.4076 36.1835 96.2748C35.3945 96.2748 34.6055 96.2748 33.8179 96.2761C33.8139 94.5811 33.8192 92.8861 33.8152 91.1925C33.8139 90.5481 33.6298 89.8394 33.0894 89.437C32.2702 88.844 30.9736 89.0465 30.3976 89.888C30.1044 90.3023 29.994 90.819 30.0018 91.3213C30.0032 92.9729 30.0032 94.6232 30.0018 96.2761C29.2142 96.2748 28.4252 96.2748 27.6375 96.2761C27.6323 94.5824 27.6415 92.8901 27.6336 91.1977C27.6283 90.581 27.4574 89.9157 26.9722 89.5014C26.2187 88.8742 24.9695 88.9952 24.3396 89.7421C23.9609 90.1734 23.811 90.7625 23.8215 91.3279C23.8241 92.9769 23.8228 94.6258 23.8215 96.2761C23.0338 96.2748 22.2449 96.2748 21.4572 96.2761C21.4546 93.2399 21.4559 90.2049 21.4559 87.1687C22.2265 87.1687 22.997 87.1687 23.7676 87.17C23.7676 87.5921 23.7702 88.0155 23.7623 88.439Z" fill="#DEDEDE"/>
<path d="M40.6544 87.1342C41.5631 86.8843 42.5374 86.8725 43.454 87.0921C44.7058 87.3959 45.8209 88.2821 46.3259 89.4761C46.7427 90.44 46.7677 91.5222 46.6283 92.5492C44.3455 92.5518 42.0627 92.5439 39.78 92.5531C39.9864 93.3026 40.4782 94.0167 41.2396 94.2783C42.6361 94.7596 44.2127 94.3178 45.362 93.4486C45.6802 93.9496 46.0024 94.448 46.3167 94.9516C45.4212 95.7866 44.2587 96.3349 43.0345 96.4375C41.5368 96.5808 39.8628 96.3099 38.7661 95.1949C37.4433 93.9088 37.1001 91.8614 37.6103 90.1323C38.0337 88.7069 39.2172 87.53 40.6544 87.1342ZM40.9095 89.2158C40.3178 89.5419 39.9575 90.1573 39.78 90.7924C41.3264 90.799 42.8728 90.7977 44.4192 90.7924C44.3166 90.4203 44.1996 90.0402 43.955 89.7352C43.2659 88.8213 41.8721 88.6674 40.9095 89.2158Z" fill="#DEDEDE"/>
<path d="M52.1946 87.0788C53.5977 86.7 55.194 87.0945 56.2315 88.1215C58.1895 89.9401 58.2014 93.4024 56.2736 95.2486C55.1007 96.4544 53.1506 96.845 51.6173 96.1375C51.1255 95.914 50.71 95.559 50.3484 95.1645C50.3562 96.7766 50.3497 98.3888 50.3523 99.9996C49.5633 99.9996 48.7743 100.001 47.9854 99.9996C47.9854 95.7233 47.9854 91.4458 47.9854 87.1695C48.7664 87.1669 49.5489 87.1682 50.3299 87.1695C50.3299 87.56 50.3299 87.9493 50.3273 88.3411C50.8231 87.7652 51.4516 87.2799 52.1946 87.0788ZM52.28 89.1814C50.5009 89.468 49.7422 91.8074 50.7244 93.2236C51.4963 94.5083 53.4951 94.7042 54.5379 93.6536C55.5833 92.6608 55.5806 90.7988 54.5392 89.8047C53.9606 89.2182 53.073 89.0315 52.28 89.1814Z" fill="#DEDEDE"/>
<path d="M62.137 87.0657C63.4809 86.7712 64.9747 86.9079 66.1463 87.6719C67.0694 88.2807 67.8058 89.2025 68.1135 90.2729C68.3646 91.15 68.3739 92.0928 68.1648 92.9791C67.7926 94.5202 66.5539 95.8102 65.0417 96.273C63.3152 96.7898 61.2638 96.4742 59.9594 95.1672C58.1605 93.488 58.0553 90.365 59.7003 88.5477C60.3342 87.8192 61.1915 87.2788 62.137 87.0657ZM62.9286 89.1789C62.0909 89.3222 61.3756 89.956 61.0784 90.7437C60.7221 91.7023 60.9233 92.8699 61.6623 93.5945C62.3171 94.2769 63.3757 94.4742 64.258 94.177C65.5151 93.747 66.2278 92.2585 65.8504 90.9974C65.5348 89.7535 64.1936 88.8883 62.9286 89.1789Z" fill="#DEDEDE"/>
<path d="M88.6216 88.4172C89.6762 87.1772 91.4737 86.642 93.0346 87.097C93.7605 87.3113 94.3745 87.786 94.8768 88.3396C94.8729 87.9477 94.8742 87.5585 94.8755 87.1693C95.6238 87.168 96.372 87.168 97.1215 87.1693C97.1215 90.2042 97.1215 93.2391 97.1215 96.2741C96.372 96.2754 95.6238 96.2741 94.8755 96.2741C94.8729 95.8796 94.8716 95.4851 94.8782 95.0932C94.3403 95.7126 93.6408 96.2215 92.8268 96.3951C91.5658 96.6528 90.1732 96.3727 89.1739 95.543C87.0923 93.8651 86.8609 90.4041 88.6216 88.4172ZM91.6 89.1996C89.8655 89.6677 89.2672 92.0649 90.3876 93.3996C91.2528 94.5857 93.2095 94.6685 94.1786 93.5692C95.1214 92.6119 95.1543 90.9327 94.2417 89.9452C93.6184 89.1812 92.527 88.9327 91.6 89.1996Z" fill="#DEDEDE"/>
<path d="M12.7456 88.1373C13.6029 87.3654 14.8114 87.1747 15.9265 87.1695C17.1704 87.1669 18.4144 87.1682 19.6583 87.1695C19.6583 90.2044 19.6583 93.2393 19.6583 96.2742C18.8904 96.2742 18.1225 96.2769 17.3545 96.2716C17.3611 95.221 17.3571 94.1703 17.3558 93.1197C16.868 93.2196 16.3749 93.2932 15.8791 93.3314C15.2506 94.315 14.6207 95.2959 13.9869 96.2756C13.1256 96.2716 12.2656 96.2795 11.4043 96.2703C12.1538 95.1789 12.9099 94.094 13.6621 93.0053C12.9796 92.7028 12.3392 92.2084 12.071 91.4891C11.6541 90.3727 11.8225 88.9578 12.7456 88.1373ZM14.8179 89.2945C14.0198 89.6311 13.9948 90.9487 14.793 91.3011C15.6003 91.6469 16.5116 91.4891 17.3558 91.3984C17.3585 90.6265 17.3585 89.8559 17.3558 89.0867C16.5129 89.1353 15.6161 88.946 14.8179 89.2945Z" fill="#DEDEDE"/>
<path d="M69.1891 87.1685C69.9702 87.1685 70.7526 87.1685 71.5337 87.1685C71.5442 88.2086 71.5153 89.25 71.5468 90.2889C71.5574 90.8596 71.9216 91.4289 72.4963 91.5683C73.3037 91.7708 74.161 91.6196 74.9316 91.3356C74.9303 89.947 74.9316 88.5584 74.9316 87.1698C75.7193 87.1685 76.5082 87.1685 77.2972 87.1698C77.2986 90.2047 77.2986 93.2396 77.2972 96.2746C76.5082 96.2746 75.7193 96.2759 74.9316 96.2746C74.9329 95.2581 74.9277 94.2416 74.9329 93.2252C73.7468 93.9155 72.2635 93.9694 70.9932 93.4868C70.487 93.2883 70.011 92.9701 69.7243 92.5006C69.2851 91.8037 69.1799 90.9569 69.1878 90.1495C69.1904 89.1554 69.1878 88.1626 69.1891 87.1685Z" fill="#DEDEDE"/>
<path d="M79.0947 87.1577C79.8837 87.1577 80.6727 87.1577 81.4617 87.1577C81.463 88.3543 81.4617 89.5509 81.4617 90.7489C82.5636 89.5575 83.6603 88.3609 84.7609 87.1696C85.7576 87.1682 86.7544 87.1682 87.7511 87.1682C86.4007 88.5792 85.041 89.9809 83.6866 91.3866C85.1212 93.0158 86.5558 94.6451 87.9878 96.2756C87.0174 96.273 86.0469 96.2756 85.0765 96.2743C83.872 94.8791 82.6688 93.484 81.463 92.0914C81.4617 93.4853 81.4617 94.8791 81.4617 96.2743C80.6727 96.2756 79.8837 96.2743 79.096 96.2743C79.0947 93.2354 79.0947 90.1966 79.0947 87.1577Z" fill="#DEDEDE"/>
</svg>
