<svg width="50" height="50" viewBox="0 0 50 50" fill="none" xmlns="http://www.w3.org/2000/svg"><path d="M8.567 6.16c3.239-3.184 7.709-5.102 12.26-5.146 3.27-.01 6.54-.005 9.81-.002 3.27.007 6.528.954 9.299 2.691a18.382 18.382 0 016.942 7.868 17.688 17.688 0 011.504 9.675c-.413 3.096-.842 6.19-1.262 9.284 1.19-.003 2.383.818 2.67 1.996.202 1.056-.39 2.17-1.291 2.717-.413.269-.914.313-1.383.416-5.605 1.156-11.211 2.31-16.817 3.467-.327.068-.664.049-.994.01-3.122 3.236-6.238 6.481-9.355 9.721-.163.139-.383.147-.585.142-1.29-.02-2.578.002-3.866-.012-.433.014-.82-.378-.795-.81-.007-8.21 0-16.42-.004-24.629-4.116-.775-8.234-1.545-12.352-2.312C.97 21.02-.088 19.519.225 18.15c.361-1.277 1.787-2.162 3.093-1.866.582-3.829 2.47-7.43 5.249-10.123zm1.217.91c-2.64 2.492-4.37 5.902-4.887 9.49 6.655 1.28 13.324 2.493 19.981 3.758.823.193 1.535.81 1.852 1.593 1.548 3.949 3.096 7.9 4.65 11.846 4.689-.992 9.393-1.924 14.082-2.921.454-3.442.96-6.879 1.387-10.324a16.55 16.55 0 00-.522-6.074 16.168 16.168 0 00-4.825-7.72C38.94 4.43 35.63 3.01 32.212 2.694c-1.218-.118-2.44-.072-3.662-.082-2.61.006-5.22-.01-7.829.008-4.03.058-8.023 1.657-10.937 4.45zm-7.5 10.782c-.434.151-.555.681-.531 1.091.014.382.371.627.719.68 4.167.784 8.337 1.559 12.505 2.343 2.696.448 5.37 1.024 8.06 1.505.352.034.713.213.826.572 1.7 4.319 3.39 8.643 5.09 12.963.135.485.725.653 1.167.52 5.8-1.198 11.603-2.39 17.404-3.588.32-.058.662-.255.713-.605.062-.454-.096-1.078-.609-1.19-.502-.064-.985.143-1.472.233l-15.13 3.12c-.396.097-.815-.17-.942-.549-1.64-4.172-3.274-8.344-4.913-12.515-.088-.295-.354-.478-.65-.517-6.858-1.288-13.72-2.566-20.578-3.854-.548-.088-1.102-.324-1.66-.21zm14.02 6.006c.002 4.834 0 9.666.001 14.498.012 3.012-.024 6.023.018 9.034.775-.001 1.552-.01 2.328.003.055-.575.015-1.153.027-1.73-.012-7.123.023-14.248-.017-21.37-.79-.124-1.572-.284-2.357-.435zm3.977.733c-.001 7.205.004 14.411-.002 21.618 2.533-2.645 5.074-5.281 7.614-7.92-.405-.46-.567-1.06-.795-1.616-1.532-3.887-3.04-7.784-4.588-11.665-.743-.14-1.486-.28-2.23-.417z" fill="#E01D2F"/></svg>