<svg width="50" height="50" viewBox="0 0 50 50" fill="none" xmlns="http://www.w3.org/2000/svg"><path d="M0 11.226c.055-.353.31-.69.686-.72.425-.068.72.299.983.57a35.659 35.659 0 003.817 3.508c1.317 1.023 2.725 1.96 4.292 2.55.895.335 1.864.475 2.813.351 2.225-.258 4.32-1.143 6.292-2.17a6.568 6.568 0 013.387-.712c1.277.057 2.488.556 3.545 1.255.872-.455 1.8-.847 2.788-.936 1.02-.121 2.05.042 3.012.382 2.491.807 4.975 1.688 7.557 2.162 1.356.26 2.667-.314 3.893-.822 2.03-.857 3.844-2.14 5.543-3.529.215-.186.5-.337.792-.25.308.056.502.33.6.607v.277c-.1.401-.463.63-.763.873-2.095 1.642-4.362 3.128-6.888 4.016 1.292 3.44 3.056 6.677 4.898 9.848a102.389 102.389 0 002.118 3.454c.235.37.516.723.635 1.153v.091a1.407 1.407 0 01-.304.644c-.542.645-1.26 1.1-1.953 1.563-1.77 1.134-3.662 2.052-5.556 2.956.024.79.01 1.624-.391 2.334-.54 1.044-1.645 1.78-2.823 1.84-.61.027-1.22.002-1.828.012-.868 1.313-2.329 2.202-3.9 2.337-.706 1.216-1.936 2.144-3.351 2.31-.655.124-1.359-.097-1.977.206-.852.367-1.773.552-2.696.614h-5.053c-1.643-.153-3.182-1.037-4.17-2.352a4.64 4.64 0 01-2.978-1.495c-.437-.467-.717-1.048-1.001-1.613-.855.034-1.742-.175-2.403-.74-.673-.52-.97-1.341-1.346-2.072-.602.122-1.26.086-1.779-.27-.553-.375-1.205-.687-1.536-1.299-.213-.361-.273-.786-.27-1.198 0-.848.006-1.694 0-2.541l-.558-.283c-.888 1.105-1.773 2.212-2.657 3.32-.208.298-.599.466-.95.338-.274-.076-.428-.334-.52-.583v-.274c.13-.38.416-.67.661-.977.797-.993 1.589-1.99 2.389-2.98.221-.276.398-.583.571-.89 1.69-2.93 3.26-5.93 4.661-9.01a52.048 52.048 0 001.71-4.245c-1.45-.42-2.79-1.143-4.037-1.98-2.027-1.383-3.86-3.035-5.544-4.814A1.947 1.947 0 010 11.435v-.21zm20.796 5.048c-.998.221-1.852.812-2.782 1.205-2.034.907-4.212 1.63-6.46 1.619-.649 1.922-1.452 3.788-2.303 5.628-1.287 2.767-2.732 5.459-4.248 8.107l.416.206c1.067-.662 2.522-.614 3.522.155.64.448.965 1.178 1.366 1.82.919-.946 2.32-1.4 3.615-1.105 1.323.27 2.437 1.293 2.861 2.57.656-.355 1.44-.49 2.168-.292a2.868 2.868 0 012.069 2.12c.114.51.068 1.038.073 1.556.393.395.81.779 1.104 1.258.604.93.74 2.137.396 3.188-.272.739-.683 1.416-1.017 2.127 1.077.002 2.154 0 3.232.001a6.973 6.973 0 001.922-.289c-1.017-1.025-2.047-2.039-3.061-3.067-.4-.371-.226-1.11.29-1.274.354-.147.729.04.958.313 1.173 1.182 2.352 2.357 3.53 3.534.573-.005 1.162.054 1.714-.134.694-.212 1.267-.713 1.647-1.322-1.917-1.918-3.834-3.836-5.752-5.752-.313-.27-.363-.783-.086-1.094.272-.345.837-.375 1.141-.057 2.008 1.998 4.007 4.006 6.012 6.007a3.71 3.71 0 002.586-1.453c-2.68-2.68-5.357-5.363-8.038-8.04-.178-.171-.333-.393-.319-.652-.008-.45.431-.836.877-.767.343.033.56.334.791.554 2.671 2.677 5.347 5.349 8.022 8.024.61-.006 1.223.015 1.833-.008.838-.038 1.588-.716 1.719-1.542.061-.45.023-.906.032-1.358-.826-1.119-1.847-2.073-2.825-3.053a158.467 158.467 0 00-4.044-3.774c-.864-.765-1.679-1.584-2.546-2.344-1.402-1.268-2.84-2.497-4.26-3.743-.265-.25-.661-.351-1.003-.213-.776.296-1.538.63-2.326.894-.173.074-.395.107-.491.291-.787 1.367-1.675 2.72-2.894 3.744-.664.55-1.484.97-2.365.96-1.494.073-2.987-.735-3.736-2.03-.128-.223-.067-.488.018-.714.565-1.49 1.12-2.984 1.684-4.475.486-1.253 1.432-2.307 2.6-2.964 2.027-1.187 3.962-2.516 5.904-3.834-1.07-.591-2.35-.813-3.546-.53zm7.288.33c-.983.28-1.895.784-2.717 1.386-2.046 1.427-4.122 2.812-6.27 4.081a4.318 4.318 0 00-1.831 2.178c-.519 1.373-1.032 2.748-1.552 4.12.588.59 1.418.942 2.257.882.555-.02 1.013-.383 1.42-.726 1.011-.912 1.748-2.075 2.42-3.247.233-.413.637-.7 1.084-.843.835-.286 1.65-.624 2.468-.954a2.509 2.509 0 012.317.258c.263.186.498.41.74.62 1.911 1.671 3.84 3.322 5.676 5.074a223.29 223.29 0 013.717 3.415c1.338 1.287 2.686 2.573 3.863 4.013.767-.382 1.545-.742 2.304-1.138 1.466-.797 2.983-1.54 4.277-2.609-.78-1.235-1.564-2.468-2.302-3.727-1.941-3.335-3.797-6.745-5.132-10.373a5.87 5.87 0 01-2.097-.042c-2.723-.51-5.335-1.458-7.966-2.302a4.925 4.925 0 00-2.676-.067zM6.253 34.34c-.004.877-.002 1.754-.005 2.632 0 .203.014.443.197.573.301.226.617.433.94.624.226.134.55.064.682-.167.394-.578.775-1.164 1.164-1.744-.335-.525-.61-1.088-.981-1.587-.477-.584-1.352-.679-1.997-.331zm5.087 1.858c-.783.692-1.245 1.646-1.845 2.485.318.568.53 1.2.926 1.722.422.52 1.128.61 1.755.565 1.111-1.114 2.224-2.225 3.336-3.337-.166-.484-.284-1.005-.624-1.403a2.305 2.305 0 00-2.198-.806c-.527.087-.992.388-1.35.774zm6.012 1.809c-1.307 1.29-2.595 2.6-3.9 3.89.229.486.465.987.866 1.357.467.459 1.091.726 1.733.825 1.16-1.393 2.322-2.783 3.48-4.176-.029-.59.13-1.277-.292-1.768-.441-.573-1.374-.642-1.887-.128zm3.015 3.334c-.99 1.186-1.977 2.373-2.966 3.56a4.272 4.272 0 002.464 1.464c.366-.738.738-1.471 1.105-2.208.5-.937.2-2.146-.603-2.816z" fill="#E01D2F"/></svg>