<svg width="50" height="50" viewBox="0 0 50 50" fill="none" xmlns="http://www.w3.org/2000/svg"><path d="M21.091 1.48a8.494 8.494 0 016.597.408 8.551 8.551 0 013.776 3.744 8.438 8.438 0 01.716 5.704 8.656 8.656 0 01-1.147 2.721c2.092.713 4.078 1.747 5.83 3.097 1.632 1.256 3.06 2.787 4.156 4.533a15.718 15.718 0 011.945 4.536 4.808 4.808 0 012.627-.871 3.622 3.622 0 012.53.905c1.004.873 1.508 2.352 1.085 3.635a2.819 2.819 0 01-1.644 1.71c-.573.218-1.234.266-1.812.037-1.052-.385-1.705-1.668-1.288-2.73a1.816 1.816 0 011.283-1.097c.277-.06.592-.08.841.081.32.195.483.611.367.97a.88.88 0 01-.817.607c-.036.177-.034.39.117.516.202.172.497.11.724.023.459-.18.742-.69.676-1.175-.055-.876-.774-1.65-1.643-1.768a3.031 3.031 0 00-2.69 1.11c.38 3.204-.352 6.51-1.975 9.292-1.182 2.055-2.826 3.822-4.715 5.245.007.906 0 1.812.004 2.718.005.503.014 1.024-.192 1.493-.361.901-1.273 1.549-2.245 1.578-.92.012-1.84 0-2.76.005-.496-.01-1.005.043-1.484-.113a2.564 2.564 0 01-1.769-2.005c-2.813.55-5.734.563-8.546-.004a2.62 2.62 0 01-1.129 1.708c-.425.279-.934.42-1.442.413-1.13 0-2.262.004-3.394-.002-1.004-.009-1.957-.679-2.314-1.616-.164-.393-.187-.823-.178-1.243.002-.989 0-1.977.001-2.965-1.603-1.211-3.03-2.667-4.145-4.343a15.947 15.947 0 01-1.727-3.406c-.642-.002-1.284.011-1.926-.007-1.017-.051-1.952-.781-2.257-1.751-.164-.475-.12-.983-.125-1.476 0-2.033-.003-4.066 0-6.1a2.548 2.548 0 012.542-2.54c.833-.005 1.667 0 2.5-.002a16.888 16.888 0 011.831-2.859c-.564-1.697-1.133-3.393-1.696-5.09a1.69 1.69 0 01.174-1.44c.392-.635 1.23-.955 1.942-.711 2.057.682 4.112 1.369 6.168 2.054a21.24 21.24 0 012.34-.917 8.432 8.432 0 01.186-9.512 8.528 8.528 0 014.102-3.1zm2.453 1.225a6.768 6.768 0 00-3.026.899 6.83 6.83 0 00-3.046 3.722 6.706 6.706 0 00.03 4.37c.776 2.203 2.736 3.957 5.031 4.428a6.675 6.675 0 005.384-1.2c1.537-1.143 2.59-2.941 2.75-4.86a6.78 6.78 0 00-1.965-5.381 6.78 6.78 0 00-5.158-1.978zM7.79 14.568c.61 1.845 1.23 3.687 1.841 5.531a.87.87 0 01-.18.851 15.094 15.094 0 00-2.104 3.304.855.855 0 01-.774.497c-1.01.004-2.019-.001-3.028.002-.451-.012-.853.395-.845.844-.002 2.175 0 4.35-.001 6.526.003.175-.016.357.042.526.108.339.447.59.804.585.779.004 1.558-.001 2.338.002a.858.858 0 01.76.406c.095.168.142.358.206.54 1.011 2.954 3.061 5.485 5.578 7.303.26.164.458.442.451.758.005 1.24-.001 2.48.003 3.72-.013.451.397.855.846.846h3.397a.858.858 0 00.834-.701c.036-.295-.006-.593.024-.888a.845.845 0 01.649-.707c.196-.05.398.001.59.048 3.062.728 6.293.726 9.355.002.187-.043.38-.098.573-.06a.85.85 0 01.685.709c.03.285-.006.571.02.857.041.41.429.747.84.74h3.398c.391.004.758-.3.828-.684.029-.178.015-.358.017-.537.001-1.115-.004-2.23.003-3.344.001-.3.19-.566.438-.722 2.538-1.818 4.591-4.37 5.612-7.337.647-1.863.876-3.871.65-5.831a13.637 13.637 0 00-1.968-5.635c-1.088-1.77-2.552-3.296-4.234-4.511-1.672-1.215-3.559-2.123-5.533-2.73-.497.493-1.072.9-1.669 1.262.344.067.695.103 1.034.197.453.137.709.697.512 1.128-.157.404-.642.614-1.05.484a20.349 20.349 0 00-9.687.01c-.428.124-.919-.146-1.037-.575-.143-.428.131-.931.562-1.054.333-.087.676-.126 1.015-.19a9.418 9.418 0 01-1.644-1.234c-.964.306-1.926.631-2.835 1.08-.168.082-.34.177-.53.184-.187.015-.364-.057-.538-.116-2.082-.695-4.167-1.387-6.248-2.086z" fill="#E01D2F"/><path d="M13.383 20.546c.855-.2 1.789.383 1.986 1.238.225.8-.242 1.712-1.02 2-.742.31-1.67-.006-2.073-.7-.403-.643-.294-1.549.253-2.077a1.7 1.7 0 01.854-.46zM21.9 13v-1.07h-.8v-.97h.8v-.78h-.8V8.94h.8V5.86h2.28c.92 0 1.59.187 2.01.56.427.373.64.887.64 1.54 0 .387-.087.75-.26 1.09-.173.34-.463.613-.87.82-.4.207-.947.31-1.64.31h-.65v.78h1.54v.97h-1.54V13H21.9zm2.01-4.06c.427 0 .763-.073 1.01-.22.253-.147.38-.383.38-.71 0-.607-.4-.91-1.2-.91h-.69v1.84h.5z" fill="#E01D2F"/></svg>