<svg width="50" height="50" viewBox="0 0 50 50" fill="none" xmlns="http://www.w3.org/2000/svg"><path d="M23.632 1.238a4.007 4.007 0 014.986 2.058 3.987 3.987 0 01-.069 3.547 4.056 4.056 0 01-2.742 2.08c-.02 1.198.01 2.396-.015 3.595 2.225 1.3 4.473 2.564 6.711 3.845 1.984-1.987 3.971-3.971 5.956-5.957-.528-.825-.774-1.833-.614-2.805.2-1.453 1.285-2.729 2.671-3.192.828-.274 1.75-.287 2.574.005a4.012 4.012 0 012.296 2.015c.491.977.55 2.163.156 3.184a4.03 4.03 0 01-2.33 2.33c-1.18.46-2.565.292-3.617-.404a6022.455 6022.455 0 00-5.652 5.65c.884.51 1.774 1.009 2.656 1.52.281.152.423.476.405.787-.007 1.568.001 3.137-.004 4.705 1.36-.002 2.718-.003 4.078-.002.27-1.367 1.313-2.543 2.632-2.989.831-.274 1.755-.288 2.583.005a4.013 4.013 0 012.293 2.015 3.989 3.989 0 01.063 3.407 4.02 4.02 0 01-2.008 2.01 3.986 3.986 0 01-3.54-.128c-1.033-.547-1.782-1.571-2.024-2.711-1.358-.012-2.716-.006-4.073-.005-.01 1.604.007 3.206-.007 4.808a.779.779 0 01-.398.68c-.883.508-1.769 1.012-2.652 1.52 1.878 1.889 3.766 3.768 5.648 5.652.797-.518 1.773-.762 2.72-.628 1.43.168 2.715 1.185 3.22 2.532.664 1.636.058 3.656-1.385 4.669-1.064.795-2.543.987-3.778.5a4.019 4.019 0 01-2.312-2.315c-.46-1.182-.298-2.57.402-3.625-1.985-1.988-3.974-3.972-5.958-5.961-2.16 1.23-4.314 2.471-6.478 3.696-.096.064-.268.11-.226.265.007 1.16-.008 2.32.007 3.482 1.11.236 2.112.952 2.668 1.945.52.894.657 1.993.397 2.992a4.036 4.036 0 01-2.233 2.634 3.991 3.991 0 01-5.35-2.158c-.363-.874-.378-1.876-.082-2.771.443-1.323 1.621-2.37 2.992-2.642.002-1.201-.007-2.403.005-3.604-2.23-1.288-4.472-2.557-6.707-3.838-1.987 1.986-3.974 3.972-5.959 5.96.46.712.71 1.563.656 2.413-.054 1.392-.915 2.707-2.15 3.34a3.992 3.992 0 01-3.548.07 4.01 4.01 0 01-2.06-2.268 4.014 4.014 0 01-.027-2.635c.451-1.345 1.665-2.411 3.07-2.65 1.006-.196 2.067.042 2.926.594 1.881-1.884 3.767-3.763 5.644-5.65-.878-.51-1.765-1.009-2.646-1.515-.28-.154-.429-.48-.403-.794-.006-1.565.005-3.13-.004-4.697-1.358-.002-2.716-.008-4.073.004a4.056 4.056 0 01-1.765 2.558 3.975 3.975 0 01-2.768.587 4.004 4.004 0 01-3.209-5.15 4.052 4.052 0 012.378-2.537c.961-.367 2.067-.36 3.011.057 1.194.497 2.094 1.613 2.354 2.877 1.358 0 2.716 0 4.074-.002 0-1.567.003-3.134 0-4.7-.02-.312.121-.638.404-.789.883-.508 1.767-1.017 2.654-1.52-1.882-1.884-3.768-3.767-5.65-5.652-.684.438-1.493.691-2.308.662a3.993 3.993 0 01-3.01-1.49 3.991 3.991 0 01-.817-3.262A3.995 3.995 0 015.747 5.04a4.01 4.01 0 013.655-.654 4.026 4.026 0 012.505 2.308c.5 1.201.348 2.631-.37 3.713l5.96 5.96c2.227-1.27 4.448-2.551 6.682-3.809.047-1.21.006-2.423.02-3.633-1.239-.256-2.336-1.125-2.847-2.285a3.979 3.979 0 01-.25-2.536c.284-1.302 1.281-2.41 2.53-2.865zm.987 1.391a2.426 2.426 0 00-1.768 1.31 2.36 2.36 0 00-.033 2.054c.3.683.945 1.194 1.671 1.353a2.414 2.414 0 002.255-.698c.827-.84.875-2.299.095-3.188a2.41 2.41 0 00-2.22-.83zM7.813 5.83C6.65 6 5.728 7.122 5.801 8.297c.028.92.636 1.778 1.486 2.123.828.347 1.846.18 2.51-.428.662-.576.948-1.529.731-2.377-.272-1.177-1.524-2.006-2.715-1.785zm33.61-.002a2.427 2.427 0 00-1.77 1.31 2.365 2.365 0 00-.036 2.055 2.405 2.405 0 001.49 1.306 2.414 2.414 0 002.241-.465 2.39 2.39 0 00.83-1.518c.121-.8-.219-1.638-.835-2.154a2.415 2.415 0 00-1.92-.534zM14.62 19.84c-.044 3.427-.005 6.858-.02 10.285 3.46 2 6.934 3.971 10.403 5.953 3.467-1.986 6.944-3.958 10.404-5.956-.015-3.415-.01-6.83-.002-10.245-3.46-1.996-6.936-3.971-10.406-5.953-3.463 1.965-6.908 3.965-10.379 5.916zM4.616 22.63a2.428 2.428 0 00-1.766 1.313 2.364 2.364 0 00-.035 2.045 2.406 2.406 0 001.497 1.313c.78.24 1.676.04 2.281-.506.428-.378.712-.912.783-1.478.12-.776-.197-1.588-.779-2.108a2.416 2.416 0 00-1.98-.58zm40.005 0a2.422 2.422 0 00-1.77 1.313 2.362 2.362 0 00-.034 2.05 2.41 2.41 0 001.746 1.369 2.415 2.415 0 002.133-.664 2.414 2.414 0 00.604-2.387c-.317-1.122-1.528-1.89-2.679-1.681zm-36.8 16.8a2.426 2.426 0 00-1.773 1.316 2.362 2.362 0 00-.03 2.047c.275.626.84 1.109 1.491 1.307a2.413 2.413 0 002.282-.503c.43-.377.714-.913.786-1.48.12-.774-.197-1.587-.779-2.105a2.409 2.409 0 00-1.978-.582zm33.428.037a2.395 2.395 0 00-1.745 1.64 2.372 2.372 0 00.281 1.993 2.407 2.407 0 002.314 1.084 2.428 2.428 0 001.995-1.685c.32-.967-.087-2.108-.932-2.671a2.366 2.366 0 00-1.913-.361zm-16.619 3.16c-1.135.165-2.05 1.227-2.03 2.376a2.407 2.407 0 001.225 2.088c.797.47 1.864.393 2.601-.16.52-.38.872-.978.951-1.618.118-.775-.199-1.585-.78-2.103a2.415 2.415 0 00-1.967-.582z" fill="#E01D2F"/><path d="M24.053 18.666a6.377 6.377 0 014.104.774 6.429 6.429 0 012.794 3.216c.596 1.468.6 3.166.019 4.639a6.416 6.416 0 01-3.548 3.624c-2.385 1.03-5.347.363-7.09-1.554A6.378 6.378 0 0118.601 25c-.013-1.531.578-3.045 1.577-4.2a6.498 6.498 0 013.875-2.134zm.096 1.609a4.808 4.808 0 00-3.91 5.336 4.803 4.803 0 001.856 3.205c1.089.849 2.559 1.169 3.907.879 1.276-.264 2.415-1.088 3.094-2.196.627-1.001.839-2.241.62-3.398a4.818 4.818 0 00-2.031-3.077 4.795 4.795 0 00-3.536-.75z" fill="#E01D2F"/></svg>