<svg width="50" height="50" viewBox="0 0 50 50" fill="none" xmlns="http://www.w3.org/2000/svg"><path d="M7.573 3.043c5.87-1.69 12.007-2.4 18.11-2.245 5.7.132 11.368.991 16.91 2.312.301.07.53.346.578.647.018.147.003.296 0 .443-.045 1.563-.093 3.126-.139 4.688-.004.258-.128.499-.3.685-3.263 3.952-6.521 7.906-9.784 11.858-.088.104-.135.25-.265.313-.28.143-.637.064-.86-.148-.734-.683-1.467-1.368-2.201-2.05-.633.63-1.264 1.262-1.895 1.894 1.208 7.013 2.413 14.027 3.62 21.04.036.29-.039.614-.254.822-1.88 1.878-3.758 3.76-5.64 5.637a.698.698 0 01-.747.186c-.256-.075-.416-.301-.601-.476-1.726-1.724-3.45-3.45-5.176-5.175-.203-.21-.485-.424-.47-.748 1.22-7.096 2.441-14.191 3.663-21.287l-1.895-1.894c-.741.69-1.48 1.382-2.224 2.07-.135.129-.324.223-.512.194-.206-.082-.422-.175-.567-.348-3.314-3.995-6.631-7.988-9.946-11.982-.123-.15-.16-.35-.16-.54V3.904c-.002-.226.04-.473.21-.636.145-.145.359-.166.545-.225zm11.516-.556a57.9 57.9 0 00-9.614 1.602C14.646 7.1 19.826 10.099 25 13.105c5.126-2.977 10.252-5.958 15.377-8.938-6.969-1.547-14.16-2.269-21.289-1.68zM8.334 5.152c-.002 1.148.001 2.295-.002 3.443a.223.223 0 00.064.194c3.088 3.735 6.168 7.477 9.26 11.21 2.041-1.946 4.09-3.887 6.132-5.833-5.151-3.005-10.301-6.012-15.454-9.014zm17.879 9.015l6.135 5.832c3.108-3.763 6.217-7.525 9.32-11.293-.004-1.184 0-2.369-.002-3.553l-15.453 9.014zM21.44 18.56l1.82 1.895h3.405c.633-.63 1.265-1.263 1.896-1.896C27.374 17.374 26.189 16.185 25 15l-3.56 3.56zm2.197 3.409c-1.189 6.84-2.37 13.683-3.562 20.523 1.637 1.648 3.283 3.287 4.927 4.93 1.641-1.64 3.282-3.282 4.922-4.924l-3.56-20.53h-2.727z" fill="#E01D2F"/></svg>