<svg width="50" height="50" viewBox="0 0 50 50" fill="none" xmlns="http://www.w3.org/2000/svg"><path d="M20.14 1.498c4.76-.994 9.822-.492 14.288 1.435.41.183.647.666.552 1.103-.082.434-.482.78-.924.798-.25.02-.481-.09-.704-.184a21.903 21.903 0 00-8.767-1.641c-3.52.066-7.02.998-10.107 2.688a21.94 21.94 0 00-7.726 7.07 21.9 21.9 0 00-3.51 9.285 22.028 22.028 0 00.334 7.712 21.92 21.92 0 004.41 9.085 21.923 21.923 0 008.384 6.317c3.1 1.331 6.51 1.93 9.878 1.74a21.963 21.963 0 0020.237-26.57c-.045-.196-.07-.405-.008-.601.096-.355.403-.641.765-.71.39-.084.818.095 1.032.43.126.184.157.408.202.62.536 2.539.666 5.166.358 7.744a23.973 23.973 0 01-3.93 10.592 23.999 23.999 0 01-7.88 7.364 24.118 24.118 0 01-11.634 3.23h-.784a24.219 24.219 0 01-8.085-1.55A23.991 23.991 0 012.416 33.138 24.15 24.15 0 011 25.597v-1.22c.096-3.304.862-6.59 2.273-9.581A24.002 24.002 0 0120.14 1.498z" fill="#E01D2F"/><path d="M45.362 3.236a1 1 0 011.588.362c.157.366.063.82-.225 1.095-2.426 2.254-4.583 4.777-6.652 7.357-2.473 3.11-4.794 6.337-7.033 9.618a252.722 252.722 0 00-7.911 12.394c-.173.265-.29.585-.564.767-.35.248-.86.231-1.19-.044-2.925-2.464-5.848-4.93-8.791-7.372a265.805 265.805 0 00-3.196-2.614 1.002 1.002 0 111.233-1.575c1.474 1.177 2.922 2.387 4.372 3.593 2.257 1.878 4.505 3.768 6.749 5.662a246.534 246.534 0 016.414-10.133c1.992-2.995 4.06-5.94 6.225-8.813 2.281-3.01 4.664-5.955 7.3-8.664a46.87 46.87 0 011.68-1.633z" fill="#E01D2F"/></svg>