<svg width="50" height="50" viewBox="0 0 50 50" fill="none" xmlns="http://www.w3.org/2000/svg"><path d="M12.904.706h0a3.084 3.084 0 00-1.67.945h-.001a3.075 3.075 0 00-.805 2.06v0a1146.134 1146.134 0 00-.001 3.226v.125H8.426c-.938 0-1.875 0-2.813.002M12.904.706L.646 12.444c-.002-.355-.004-.699.045-1.042h0a4.998 4.998 0 011.506-2.95h0a5.002 5.002 0 013.416-1.388M12.904.706a3.085 3.085 0 012.263.423h0l.001.001a3.093 3.093 0 011.424 2.535M12.904.706L16.59 11.22h-1.83v.366c.001.24.002.483-.004.722v.003h0c-.028.633-.596 1.173-1.23 1.169a1.25 1.25 0 01-1.15-.721c-.12-.245-.12-.518-.116-.749V8.594l.001-4.881v0c0-.467.289-.908.705-1.108a1.258 1.258 0 011.281.113c.33.236.523.638.513 1.04v2.255l.001 2.882h1.832v-.41c0-1.607.002-3.214 0-4.82M5.612 7.064v-.125.125s0 0 0 0zm10.98-3.399s0 0 0 0h.124m-.125 0s0 0 0 0h.125m0 0a3.218 3.218 0 00-1.482-2.64l1.483 7.87v-.41c0-1.607.002-3.214 0-4.82zM.646 14.91v-2.164l1.958-.636H2.48s0 0 0 0v6.182h42.604v1.834a292536.85 292536.85 0 00-43.474 0v0H1.6c-.49.029-.953-.398-.954-.888H.522h.125C.645 17.795.645 16.352.646 14.91zm5.12-6.015C4.53 8.844 3.31 9.586 2.79 10.71l7.637.767v-2.58H5.766zM35.864.71h-.001c-.77.156-1.47.625-1.914 1.273h0a3.065 3.065 0 00-.542 1.73 1144.795 1144.795 0 00-.001 3.223v.125H18.927v1.834h14.489v1.459c0 .634 0 1.269.002 1.903M35.864.71l-2.571 11.548M35.863.71a3.09 3.09 0 012.12.321h.002c.942.518 1.576 1.556 1.586 2.632M35.864.71l.82 12.754m-3.266-1.207s0 0 0 0h-.125m.125 0s0 0 0 0h-.125m.125 0c.002.666.232 1.329.641 1.854m-.766-1.853c.002.693.242 1.383.668 1.93m.098-.077l-.098.077m.098-.077a3.113 3.113 0 001.698 1.11h0c.73.182 1.529.087 2.19-.27h.001a3.11 3.11 0 001.528-1.913h0c.085-.307.107-.624.11-.952.002-.132 0-.27-.002-.41a16.268 16.268 0 01-.003-.457m-5.522 2.892s0 0 0 0l-.098.077m0 0l5.62-2.97m0 0h.125c-.002.15 0 .3.002.45.008.472.015.945-.112 1.403a3.212 3.212 0 01-3.87 2.272l3.855-4.124zm0 0c0-.041.001-.083.003-.124h-1.959m1.956.125h-1.832m0 0l.001-.125h-.125m.124.124l.001.345c0 .246.002.493-.004.738v.002a1.254 1.254 0 01-1.062 1.161m1.066-2.246h-.125v-.125m0 0v.474c0 .243.002.487-.004.731l-.937 1.166m0 0h.002l-.02-.123.016.124h.002zm0 0a1.251 1.251 0 01-1.314-.698m0 0l.002.002.111-.056-.114.052.001.002zm0 0a1.23 1.23 0 01-.117-.487 4.49 4.49 0 01-.004-.307c.001-.055.002-.107.001-.156v-.001a18035.237 18035.237 0 000-8.056 1.257 1.257 0 01.678-1.14 1.256 1.256 0 011.346.128c.297.228.47.594.475.963v.002c.002.783.001 1.566 0 2.349 0 .945 0 1.89.003 2.835a358.853 358.853 0 011.82 0v-.7c.001-1.511.002-3.022 0-4.533m0 0s0 0 0 0h.124m-.125 0s0 0 0 0h.125m0 0c-.01-1.123-.67-2.203-1.651-2.74l-.417 8.098h1.241l.828-.001v-.824c.001-1.511.002-3.023 0-4.534zm-2.072.049a1.12 1.12 0 00-.427-.867 1.13 1.13 0 00-1.212-.116l1.64.983z" fill="#E01D2F" stroke="#131313" stroke-width=".25"/><path d="M41.896 8.895V7.062h2.438c.889 0 1.776.24 2.54.692h0a5.032 5.032 0 012.408 3.539v.002c.065.385.064.773.062 1.173l-7.448-3.573zm0 0h2.391m-2.391 0l-35.72 40.46c-.55.002-1.086.005-1.608-.122h-.003a5.038 5.038 0 01-3.37-2.612h-.001a4.993 4.993 0 01-.546-2.142C.645 39.84.645 35.2.646 30.561V22.46c.553-.002 1.107-.001 1.66 0h.173v21.873c-.007.79.303 1.572.836 2.15a3.18 3.18 0 002.347 1.036h38.624a3.182 3.182 0 002.297-.94c.587-.587.934-1.41.927-2.244V12.597l.001-.2c.002-.34.003-.7-.085-1.047a3.207 3.207 0 00-1.997-2.26 3.247 3.247 0 00-1.142-.195m0 0s0 0 0 0v.125-.125s0 0 0 0zm-18.943 40.46l-18.848-.001 42.848-36.558s0 0 0 0v30.561c-.002.17-.001.336 0 .501.003.455.006.898-.074 1.338v.002a5.035 5.035 0 01-2.595 3.575h-.001a5.06 5.06 0 01-2.48.581H25.345h0z" fill="#E01D2F" stroke="#131313" stroke-width=".25"/><path d="M8.98 23.638h0a1.852 1.852 0 00-1.392 1.207v.002h0a1.99 1.99 0 00-.098.687v1.932c0 1.046-.001 2.091.001 3.137.005.785.578 1.524 1.335 1.732h.003c.253.076.519.075.803.073h4.723a1.97 1.97 0 00.82-.155l.003-.001h0a1.845 1.845 0 001.062-1.31h0c.045-.212.043-.425.042-.653L8.98 23.638zm0 0h.002m-.002 0h.002m0 0a2.44 2.44 0 01.49-.034h0m-.49.033l.49-.033m0 0h2.247m-2.246 0h2.246m0 0h0m0 0h0m0 0h2.245-2.245zm4.562 4.67v1.803l-2.096-6.472c.282-.003.544-.005.797.076h0l.004.002c.768.22 1.34.997 1.3 1.797h-.001v.006c-.005.929-.005 1.86-.004 2.789zM9.447 25.43h-.124v5.13h.125l3.664.001h1.346v-5.132h-.125c-1.629 0-3.257-.002-4.886 0zm12.62-1.79h0a1.863 1.863 0 00-1.386 1.216l-.001.003h0a1.812 1.812 0 00-.096.561 6.369 6.369 0 00-.002.3v.045l1.485-2.124zm0 0c.128-.025.26-.035.394-.036h2.476l2.062.001-4.932.036zm7.315 7.643c.145-.34.142-.714.14-1.078l-.001-.077v-1.823c0-.973 0-1.945-.003-2.918h-.125v.001c-.008-.763-.556-1.48-1.286-1.699h-.003 0c-.273-.09-.555-.087-.858-.085l2.136 7.68zm0 0a1.984 1.984 0 01-1.805 1.247l1.805-1.247zm-6.83-5.855h-.124v.125a2649.3 2649.3 0 00-.001 4.883v.125h5.135v-5.133h-.125a3121.265 3121.265 0 01-4.885 0zm12.651-1.79h0c-.82.148-1.478.918-1.482 1.751-.005 1.611-.003 3.222-.002 4.833v.347a1.857 1.857 0 001.1 1.68h.004v.001c.265.123.565.162.87.158h2.373l2.608-.001m-5.471-8.769l7.306 6.927s0 0 0 0c0 .514-.225 1.023-.607 1.366h0a1.847 1.847 0 01-1.228.476m-5.471-8.769h.001m-.002 0h.002m5.47 8.769s0 0 0 0v.125-.125s0 0 0 0zm-5.47-8.77c.14-.026.287-.033.44-.032h0m-.44.033l.44-.034m0 0h4.54-4.54zm5.615.096h0c-.272-.1-.559-.098-.868-.096l.868.096zm0 0l.005.002m-.005-.002l.005.002m0 0c.711.231 1.236.94 1.243 1.689m-1.243-1.69l1.243 1.69m0 0c.004 1.168.004 2.336.003 3.504l-.002-3.504zm-6.841.038h-.125v5.132h5.135v-2.1c0-.968 0-1.935.003-2.903v-.125h-.124a495.426 495.426 0 00-3.294-.005c-.532.001-1.064.002-1.595.001zm5.056 18.923c-.985.003-1.97.003-2.956.002h-1.974 0c-.233.002-.45.002-.656-.05h0-.002a1.86 1.86 0 01-1.313-1.194h0l-.002-.004c-.107-.289-.104-.603-.1-.937v-.031h0v-2.174 0a2620.217 2620.217 0 000-2.353 2.576 2.576 0 01.044-.62h0l.001-.002a1.848 1.848 0 011.148-1.32h0l.003-.002c.307-.122.641-.12.998-.116h.073c.615.002 1.229.001 1.842 0 .988 0 1.974-.002 2.962.006.421.026.831.205 1.138.496h0v.002c.37.343.583.844.582 1.348v4.638l.001.137c.003.336.005.649-.105.941h0l-.002.005c-.236.704-.938 1.222-1.682 1.228zm0 0s0 0 0 0l.001.125v-.125s0 0 0 0zm-5.055-6.967h-.124v.125c-.002 1.629-.001 3.257 0 4.886v.124h5.133v-.124c.001-1.629.002-3.258 0-4.886v-.125h-5.008zM8.972 35.587h0c-.633.119-1.182.6-1.384 1.211l-.001.004h0c-.068.187-.09.385-.097.593a7.43 7.43 0 000 .318v.022l1.482-2.148zm0 0h0m0 0h0m0 0c.146-.028.297-.036.454-.036m-.453.036l.453-.036m6.872 7.6c.114-.31.112-.64.11-.965l-.001-.145m-.109 1.11l.106-5.798c.003.927.003 1.855.003 2.783v1.905m-.109 1.11c-.25.756-.995 1.315-1.794 1.326m1.794-1.326l-1.794 1.326m1.903-2.436h-.125v-1.905c0-.928 0-1.855-.003-2.783h0c.002-.767-.545-1.495-1.279-1.715h-.003 0c-.272-.092-.562-.09-.872-.087H9.426m6.98 6.49h-.124v.148c.002.327.004.633-.101.92h0l-.002.003c-.233.706-.932 1.23-1.676 1.24-1.074.003-2.148.003-3.222.002H9.374a1.84 1.84 0 01-1.111-.346h0l-.002-.002a1.855 1.855 0 01-.771-1.488l1.936-6.967m5.078 8.926c-1.074.003-2.149.003-3.223.002H9.376m5.128-.002l-5.128.002m0 0a1.964 1.964 0 01-1.187-.37l1.187.37zm.073-7.094h-.125v.125c-.001 1.628-.002 3.257 0 4.886v.124h5.134v-5.135h-.125a3709.372 3709.372 0 00-4.884 0zm-1.96 5.133v-4.48 4.48zM22.024 35.6h0c-.8.174-1.428.934-1.428 1.752v0c-.004 1.727-.003 3.454 0 5.18h0c-.003.748.509 1.462 1.213 1.71h.005c.293.117.607.115.944.113l-.734-8.755zm0 0h.002m-.002 0h.002m0 0c.168-.04.344-.05.528-.049h0m-.528.049l.529-.049m0 0h4.349c.097.002.196.001.293 0h.053c.115-.002.227-.002.338.003.223.01.433.04.63.12h0l.003.002c.697.26 1.187.98 1.184 1.724h0c.002.949.001 1.897.001 2.845v1.993c.003.28.002.545-.077.791h0l-.001.005c-.213.754-.956 1.32-1.74 1.319h-.001c-.957.002-1.915.002-2.872.001h-1.767m-.393-8.803l.393 8.803m-1.18.005c.317.126.66.123.996.12h.183m-1.179-.12l5.819.119c-.957.002-1.915.002-2.872.001h-1.768m-1.179-.12c-.754-.265-1.3-1.025-1.298-1.827l1.298 1.827zm1.18.12v-.125s0 0 0 0m0 .125v-.125h0m-.396-6.97h-.125v5.138h5.136v-5.137h-5.011z" fill="#E01D2F" stroke="#131313" stroke-width=".25"/></svg>