<svg width="50" height="50" viewBox="0 0 50 50" fill="none" xmlns="http://www.w3.org/2000/svg"><path d="M26.16.23h.003c.092-.022.191-.029.3-.03 2.556.005 5.11.443 7.515 1.308h0c4.331 1.543 8.15 4.472 10.781 8.24h0a22.297 22.297 0 014.032 12.158c-.001.1.002.202.006.298v.023c.005.106.008.207.006.305a1.247 1.247 0 01-.108.529h0l-.002.006c-.18.4-.617.67-1.058.66h0-9.102c-4.045 0-8.089.001-12.133-.002h-.002c-.59.006-1.125-.528-1.122-1.119v-.001c-.002-3.888-.002-7.775-.001-11.663V2.197a18.49 18.49 0 000-.38 10.79 10.79 0 01.006-.56c.025-.482.406-.924.88-1.027zm1.623 2.31l-.213-.014v18.906h18.905l-.014-.214a19.985 19.985 0 00-2.088-7.656 20.187 20.187 0 00-8.85-8.892 19.96 19.96 0 00-7.74-2.13z" fill="#E01D2F" stroke="#131313" stroke-width=".4"/><path d="M15.844 47.315c2.476.838 5.1 1.234 7.715 1.177a22.472 22.472 0 0010.848-3.044l-18.563 1.867zm0 0A22.638 22.638 0 015.19 39.708l10.654 7.607zm7.79-42.81h0a1.153 1.153 0 00-.858-.925 2.386 2.386 0 00-.57-.027l-.235.015c-.13.01-.265.019-.39.021a22.268 22.268 0 00-8.335 2.218h0A22.472 22.472 0 003.644 14.8h0a22.284 22.284 0 00-2.918 9.83h0c-.17 2.98.253 5.993 1.258 8.803h0a22.32 22.32 0 003.363 6.153h0c2.678 3.477 6.398 6.143 10.56 7.539h0a22.374 22.374 0 007.646 1.167h0a22.274 22.274 0 0010.753-3.017h0a22.495 22.495 0 007.56-7.208h0a22.321 22.321 0 003.558-11.119v-.001l.002-.042c.017-.33.032-.606-.086-.847l-.004-.008h0a1.15 1.15 0 00-1.219-.658l-.008.002h0a1.143 1.143 0 00-.955 1.005s0 0 0 0l-.2-.016-19.32-21.878zm0 0l.001.006m0-.006v.006m0 0c.085.466-.166.974-.588 1.194h0m.588-1.194l-.588 1.194m0 0l-.004.002m.004-.002l-.004.002m0 0c-.193.107-.427.14-.68.142v0m.68-.142l-.68.142m0 0h-.005m.006 0h-.006m0 0a20.004 20.004 0 00-11.833 4.386M22.358 5.85l-11.833 4.386m0 0a20.129 20.129 0 00-6.649 9.753 20.213 20.213 0 00-.624 9.208c.667 4.13 2.685 8.021 5.656 10.963m1.617-29.923l32.571 17.192A20.008 20.008 0 0138.87 38.32a20.134 20.134 0 01-9.624 6.716M8.908 40.159s0 0 0 0l.141-.142-.14.143s0 0 0 0zm0 0a20.087 20.087 0 006.02 4.123c4.466 1.997 9.668 2.265 14.317.753m0 0s0 0 0 0l-.061-.19.061.19s0 0 0 0z" fill="#E01D2F" stroke="#131313" stroke-width=".4"/></svg>