<svg width="50" height="50" viewBox="0 0 50 50" fill="none" xmlns="http://www.w3.org/2000/svg"><mask id="a" fill="#fff"><path d="M24.867 1h.22c.98.043 1.944.257 2.898.48 2.145.52 4.252 1.187 6.333 1.922a64.712 64.712 0 015.024 2.008c.95.435 1.89.896 2.791 1.424.73.435 1.456.897 2.056 1.504.376.386.705.856.786 1.4.09.664-.12 1.342-.487 1.894-.449.683-1.104 1.2-1.795 1.621-1.061.639-2.229 1.077-3.409 1.44.173.517.347 1.034.516 1.553a.41.41 0 00.15.221c.578.469 1.098 1.02 1.485 1.659.348.57.575 1.233.56 1.907-.009.435-.225.836-.507 1.156-.238.271-.52.5-.807.718.187 1.83.295 3.668.314 5.508.394.277.746.614 1.022 1.01.496.697.773 1.53.896 2.373.104.734.132 1.489-.03 2.217-.23 1.062-.643 2.08-1.166 3.03-.406.721-.89 1.407-1.499 1.97-.439.405-.957.736-1.537.894-.664 1.464-1.434 2.886-2.392 4.18-.992 1.349-2.176 2.566-3.55 3.529a12.87 12.87 0 01-4.115 1.922c-1.047.283-2.129.415-3.21.46h-.815c-1.284-.047-2.567-.236-3.793-.627a12.937 12.937 0 01-3.52-1.737c-1.238-.863-2.323-1.934-3.252-3.12-1.106-1.405-1.978-2.978-2.714-4.603-.934-.247-1.691-.91-2.282-1.651-.659-.835-1.158-1.789-1.526-2.784-.287-.8-.507-1.638-.511-2.492.002-.983.123-1.99.543-2.888a4.09 4.09 0 011.46-1.69 60.5 60.5 0 01.314-5.501c-.46-.354-.931-.74-1.176-1.28-.227-.495-.142-1.064.001-1.57.33-1.056 1.085-1.923 1.93-2.61.077-.058.11-.151.14-.239.163-.507.336-1.012.502-1.519-1.116-.338-2.218-.75-3.232-1.332-.72-.418-1.41-.93-1.897-1.616-.398-.553-.638-1.243-.571-1.929.06-.563.39-1.055.775-1.453.613-.625 1.359-1.097 2.107-1.542 1.13-.657 2.313-1.214 3.508-1.738a67.944 67.944 0 014.143-1.628 70.187 70.187 0 015.607-1.755c1.22-.308 2.45-.62 3.712-.696zm-1.99 2.333c-1.188.27-2.36.603-3.526.959a74.54 74.54 0 00-4.915 1.706c-1.664.648-3.31 1.347-4.889 2.186-.714.391-1.429.799-2.057 1.322-.179.162-.376.322-.487.54.026.382.305.683.569.933.648.574 1.44.952 2.234 1.279.789.316 1.601.572 2.428.77a1 1 0 01.744.767 1.07 1.07 0 01-.052.59c-.202.599-.399 1.198-.6 1.797a85.55 85.55 0 0010.892.817c2.329.009 4.659.021 6.985-.105 2.5-.128 4.992-.366 7.47-.71-.188-.564-.374-1.129-.564-1.692-.061-.179-.123-.365-.106-.556a1 1 0 01.472-.787c.18-.114.395-.142.597-.196.849-.22 1.684-.498 2.488-.848.647-.286 1.284-.62 1.823-1.085.267-.24.534-.525.607-.89.03-.1-.047-.18-.102-.251-.23-.272-.513-.493-.8-.701-.739-.521-1.535-.954-2.34-1.36-1.681-.835-3.42-1.544-5.178-2.198a72.356 72.356 0 00-5.35-1.75c-1.07-.298-2.145-.578-3.24-.765-.432-.069-.872-.133-1.31-.087-.605.063-1.2.183-1.793.315zM10.004 19.865c.27.274.58.507.915.696.249.18.514.336.784.483 1.707.927 3.516 1.652 5.35 2.286 1.798.609 3.633 1.123 5.506 1.439 1.193.2 2.41.3 3.616.17 2.165-.228 4.278-.792 6.343-1.464 1.776-.592 3.526-1.275 5.197-2.122.465-.246.938-.481 1.365-.792a4.06 4.06 0 00.916-.696c-.142-.751-.704-1.33-1.26-1.811-4.035.595-8.11.917-12.189.946-2.377.01-4.757.015-7.132-.124a88.58 88.58 0 01-8.149-.824c-.556.484-1.123 1.06-1.262 1.813zm1.214 3.187a57.826 57.826 0 00-.217 4.902c.016.39-.21.78-.566.946a2.212 2.212 0 00-.784.577c-.378.454-.53 1.048-.6 1.622-.053.496-.085 1 .008 1.493.106.593.3 1.167.54 1.718.318.716.713 1.408 1.246 1.988.325.34.719.696 1.216.707.382.014.727.275.87.625.504 1.11 1.03 2.212 1.686 3.241.846 1.344 1.874 2.583 3.105 3.59a11.058 11.058 0 003.573 1.968c1.296.428 2.67.6 4.033.566a11.637 11.637 0 003.66-.661 10.99 10.99 0 002.921-1.584c1.517-1.142 2.74-2.637 3.708-4.263.562-.926 1.017-1.91 1.47-2.893a.996.996 0 01.85-.59c.393-.004.717-.26.99-.517.476-.464.838-1.03 1.151-1.613.37-.715.672-1.47.845-2.257.127-.563.075-1.147-.018-1.71-.122-.66-.387-1.338-.93-1.76-.217-.184-.512-.25-.705-.465a1.02 1.02 0 01-.271-.726 58.625 58.625 0 00-.218-4.902c-2.129 1.091-4.375 1.94-6.66 2.644-2.077.62-4.2 1.137-6.37 1.277-1.227.078-2.457-.054-3.666-.258-1.89-.33-3.744-.845-5.562-1.455-1.814-.62-3.6-1.332-5.305-2.21z"/></mask><path d="M24.867 1h.22c.98.043 1.944.257 2.898.48 2.145.52 4.252 1.187 6.333 1.922a64.712 64.712 0 015.024 2.008c.95.435 1.89.896 2.791 1.424.73.435 1.456.897 2.056 1.504.376.386.705.856.786 1.4.09.664-.12 1.342-.487 1.894-.449.683-1.104 1.2-1.795 1.621-1.061.639-2.229 1.077-3.409 1.44.173.517.347 1.034.516 1.553a.41.41 0 00.15.221c.578.469 1.098 1.02 1.485 1.659.348.57.575 1.233.56 1.907-.009.435-.225.836-.507 1.156-.238.271-.52.5-.807.718.187 1.83.295 3.668.314 5.508.394.277.746.614 1.022 1.01.496.697.773 1.53.896 2.373.104.734.132 1.489-.03 2.217-.23 1.062-.643 2.08-1.166 3.03-.406.721-.89 1.407-1.499 1.97-.439.405-.957.736-1.537.894-.664 1.464-1.434 2.886-2.392 4.18-.992 1.349-2.176 2.566-3.55 3.529a12.87 12.87 0 01-4.115 1.922c-1.047.283-2.129.415-3.21.46h-.815c-1.284-.047-2.567-.236-3.793-.627a12.937 12.937 0 01-3.52-1.737c-1.238-.863-2.323-1.934-3.252-3.12-1.106-1.405-1.978-2.978-2.714-4.603-.934-.247-1.691-.91-2.282-1.651-.659-.835-1.158-1.789-1.526-2.784-.287-.8-.507-1.638-.511-2.492.002-.983.123-1.99.543-2.888a4.09 4.09 0 011.46-1.69 60.5 60.5 0 01.314-5.501c-.46-.354-.931-.74-1.176-1.28-.227-.495-.142-1.064.001-1.57.33-1.056 1.085-1.923 1.93-2.61.077-.058.11-.151.14-.239.163-.507.336-1.012.502-1.519-1.116-.338-2.218-.75-3.232-1.332-.72-.418-1.41-.93-1.897-1.616-.398-.553-.638-1.243-.571-1.929.06-.563.39-1.055.775-1.453.613-.625 1.359-1.097 2.107-1.542 1.13-.657 2.313-1.214 3.508-1.738a67.944 67.944 0 014.143-1.628 70.187 70.187 0 015.607-1.755c1.22-.308 2.45-.62 3.712-.696zm-1.99 2.333c-1.188.27-2.36.603-3.526.959a74.54 74.54 0 00-4.915 1.706c-1.664.648-3.31 1.347-4.889 2.186-.714.391-1.429.799-2.057 1.322-.179.162-.376.322-.487.54.026.382.305.683.569.933.648.574 1.44.952 2.234 1.279.789.316 1.601.572 2.428.77a1 1 0 01.744.767 1.07 1.07 0 01-.052.59c-.202.599-.399 1.198-.6 1.797a85.55 85.55 0 0010.892.817c2.329.009 4.659.021 6.985-.105 2.5-.128 4.992-.366 7.47-.71-.188-.564-.374-1.129-.564-1.692-.061-.179-.123-.365-.106-.556a1 1 0 01.472-.787c.18-.114.395-.142.597-.196.849-.22 1.684-.498 2.488-.848.647-.286 1.284-.62 1.823-1.085.267-.24.534-.525.607-.89.03-.1-.047-.18-.102-.251-.23-.272-.513-.493-.8-.701-.739-.521-1.535-.954-2.34-1.36-1.681-.835-3.42-1.544-5.178-2.198a72.356 72.356 0 00-5.35-1.75c-1.07-.298-2.145-.578-3.24-.765-.432-.069-.872-.133-1.31-.087-.605.063-1.2.183-1.793.315zM10.004 19.865c.27.274.58.507.915.696.249.18.514.336.784.483 1.707.927 3.516 1.652 5.35 2.286 1.798.609 3.633 1.123 5.506 1.439 1.193.2 2.41.3 3.616.17 2.165-.228 4.278-.792 6.343-1.464 1.776-.592 3.526-1.275 5.197-2.122.465-.246.938-.481 1.365-.792a4.06 4.06 0 00.916-.696c-.142-.751-.704-1.33-1.26-1.811-4.035.595-8.11.917-12.189.946-2.377.01-4.757.015-7.132-.124a88.58 88.58 0 01-8.149-.824c-.556.484-1.123 1.06-1.262 1.813zm1.214 3.187a57.826 57.826 0 00-.217 4.902c.016.39-.21.78-.566.946a2.212 2.212 0 00-.784.577c-.378.454-.53 1.048-.6 1.622-.053.496-.085 1 .008 1.493.106.593.3 1.167.54 1.718.318.716.713 1.408 1.246 1.988.325.34.719.696 1.216.707.382.014.727.275.87.625.504 1.11 1.03 2.212 1.686 3.241.846 1.344 1.874 2.583 3.105 3.59a11.058 11.058 0 003.573 1.968c1.296.428 2.67.6 4.033.566a11.637 11.637 0 003.66-.661 10.99 10.99 0 002.921-1.584c1.517-1.142 2.74-2.637 3.708-4.263.562-.926 1.017-1.91 1.47-2.893a.996.996 0 01.85-.59c.393-.004.717-.26.99-.517.476-.464.838-1.03 1.151-1.613.37-.715.672-1.47.845-2.257.127-.563.075-1.147-.018-1.71-.122-.66-.387-1.338-.93-1.76-.217-.184-.512-.25-.705-.465a1.02 1.02 0 01-.271-.726 58.625 58.625 0 00-.218-4.902c-2.129 1.091-4.375 1.94-6.66 2.644-2.077.62-4.2 1.137-6.37 1.277-1.227.078-2.457-.054-3.666-.258-1.89-.33-3.744-.845-5.562-1.455-1.814-.62-3.6-1.332-5.305-2.21z" fill="#E01D2F" stroke="#131313" stroke-width=".4" mask="url(#a)"/><path d="M24.757 5.134h0a.953.953 0 00-.261.122l-1.36.9-1.489.986-.007.005h0c-.293.16-.526.427-.552.748v.002a7.299 7.299 0 001.004 4.393h0a7.317 7.317 0 002.67 2.613c.152.024.317.022.475.002a7.326 7.326 0 002.227-1.955h0a7.33 7.33 0 001.475-4.634s0 0 0 0l-4.182-3.182zm0 0h.002m-.002 0h.002m0 0a.903.903 0 01.746.12v.001m-.746-.121l.746.121m0 0l1.54 1.019m-1.54-1.019l1.54 1.019m0 0l1.112.736-1.112-.736zM22.901 8.47l-.045.03v.053a5.545 5.545 0 002.082 4.305l.062.049.062-.049a5.546 5.546 0 002.081-4.309v-.053l-.045-.03c-.393-.258-.784-.517-1.176-.777l-.867-.573L25 7.079l-.055.037c-.51.34-1.022.677-1.533 1.015l-.511.339zM17.59 27.145h0a1.898 1.898 0 011.43.254h.002c.386.245.677.635.802 1.075h0c.14.477.08 1.008-.161 1.442v.001a1.9 1.9 0 01-1.148.91h0-.001a1.903 1.903 0 01-1.506-.21h0-.001a1.898 1.898 0 01-.888-1.36h0a1.9 1.9 0 01.367-1.404h.001a1.91 1.91 0 011.104-.708zm14.012-.002h0a1.903 1.903 0 011.426.26h0l.001.002c.386.246.676.64.798 1.081h0c.134.472.075.997-.163 1.426h0c-.26.483-.74.84-1.278.946h0-.001a1.89 1.89 0 01-1.34-.218h0a1.903 1.903 0 01-.876-1.134h0v-.001c-.14-.5-.061-1.057.212-1.498h0v-.001a1.906 1.906 0 011.22-.863z" fill="#E01D2F" stroke="#131313" stroke-width=".2"/></svg>