<svg width="38" height="38" viewBox="0 0 38 38" fill="none" xmlns="http://www.w3.org/2000/svg"><path d="M8.307 11.473c.187-.133.222-.45.486-.469.243-.034.456.132.574.33.065.096.149.191.274.194.549.052 1.1.076 1.651.089 6.106-.002 12.211-.106 18.316-.102.596.01 1.191-.025 1.787-.048.294-.013.65-.094.762-.407.135.017.285.008.401.09.167.114.309.277.512.33.132.048.283.057.4.142.086.123.081.289.16.417.115.105.28.178.315.346.105.386.028.79.024 1.183-.011.214.014.44-.069.643-.056.116-.225.132-.272.251-.032.28.07.552.064.83.003.346-.14.67-.158 1.013-.034.215-.015.475-.201.627-.252.22-.598.276-.917.333-.871.121-1.753.065-2.63.052-.732.02-1.466.016-2.198.065-.642-.005-1.312-.046-1.914.216-.34.173-.713.424-.776.832-.103.535-.056 1.085-.016 1.625.032.431.136.851.23 1.271.031.194.058.448-.121.58-.114.061-.248.063-.372.082-.555.049-1.111.097-1.668.085-.893.03-1.785.074-2.677.107-.257.008-.516.04-.772.004-.311-.044-.64-.002-.932-.14-.273-.123-.537-.32-.853-.284-.44.042-.936.144-1.212.525a3.077 3.077 0 00-.443.886c-.101.363.004.736-.008 1.104.002.19-.161.312-.301.41-.416.27-.705.72-.802 1.204-.077.374.05.756-.021 1.13-.063.272-.372.34-.539.528-.21.244-.407.522-.464.847-.052.368.02.74-.014 1.108-.153.206-.433.17-.651.245-.218.102-.16.387-.264.568-.108.134-.302.109-.456.113-.474-.025-.951-.012-1.424-.068-.893-.065-1.79-.085-2.679-.199-.597-.074-1.196-.138-1.792-.221-.014-.176-.066-.37.03-.532.068-.117.138-.233.19-.357-.567-.229-1.163-.45-1.611-.883-.146-.151-.3-.349-.244-.573.077-.451.218-.892.376-1.32.462-.941.878-1.906 1.398-2.818.33-.596.756-1.136 1.05-1.752.205-.427.441-.84.613-1.28.164-.455.4-.886.476-1.368.112-.432.205-.891.06-1.328a1.86 1.86 0 00-1.205-1.247c-.333-.134-.71-.117-1.034-.271-.234-.183-.181-.543-.073-.785.154-.36.238-.753.224-1.145.006-.756-.004-1.513.07-2.265 0-.218.203-.373.407-.387.31-.034.665.044.933-.156zm11.572 6.273c-.065.205-.012.426.035.63.192.745.527 1.442.825 2.148-.344.04-.709-.031-.976-.262-.486-.406-.708-1.04-.833-1.64a9.629 9.629 0 00-.493-.006c-.008.519.002 1.038-.003 1.557-.007.386.304.684.61.87.244.145.526.234.812.216.832-.037 1.662-.104 2.493-.164.401-.032.831-.11 1.136-.393.28-.254.385-.641.396-1.008.006-.316.019-.634.002-.95-.024-.375-.3-.67-.584-.886-.325-.237-.746-.18-1.124-.193-.654-.027-1.307-.086-1.961-.07-.121.01-.29.01-.335.15z" fill="#fff"/></svg>