<svg width="50" height="50" viewBox="0 0 50 50" fill="none" xmlns="http://www.w3.org/2000/svg"><path d="M8.567 6.16c3.239-3.184 7.71-5.102 12.26-5.146 3.27-.01 6.54-.005 9.81-.002a17.69 17.69 0 019.3 2.691 18.38 18.38 0 016.941 7.868 17.688 17.688 0 011.504 9.675c-.413 3.096-.842 6.19-1.261 9.284 1.19-.003 2.382.818 2.669 1.996.202 1.056-.39 2.17-1.291 2.717-.413.269-.914.313-1.383.416-5.605 1.156-11.21 2.31-16.817 3.467-.327.068-.664.049-.994.01-3.122 3.236-6.238 6.481-9.355 9.721-.162.139-.383.147-.585.142-1.289-.02-2.578.002-3.866-.012-.432.014-.82-.378-.794-.81-.008-8.21 0-16.42-.005-24.629-4.116-.775-8.234-1.545-12.351-2.312C.969 21.02-.088 19.519.225 18.15c.361-1.277 1.788-2.162 3.093-1.866C3.9 12.455 5.79 8.854 8.567 6.16zm1.218.91c-2.64 2.492-4.37 5.902-4.888 9.49 6.655 1.28 13.324 2.493 19.982 3.758a2.7 2.7 0 011.85 1.593c1.55 3.949 3.097 7.9 4.65 11.846 4.69-.992 9.394-1.924 14.083-2.921.454-3.442.96-6.879 1.387-10.324a16.55 16.55 0 00-.521-6.074 16.169 16.169 0 00-4.826-7.72c-2.561-2.288-5.872-3.708-9.29-4.024-1.218-.118-2.44-.072-3.661-.082-2.61.006-5.22-.01-7.83.008-4.03.058-8.023 1.657-10.936 4.45zM2.284 17.852c-.434.151-.555.681-.531 1.091.015.382.371.627.719.68 4.168.784 8.337 1.559 12.505 2.343 2.696.448 5.37 1.024 8.06 1.505.353.034.714.213.826.572 1.7 4.319 3.39 8.643 5.09 12.963.135.485.726.653 1.167.52 5.8-1.198 11.604-2.39 17.404-3.588.32-.058.662-.255.713-.605.063-.454-.096-1.078-.608-1.19-.502-.064-.985.143-1.473.233l-15.13 3.12c-.396.097-.815-.17-.941-.549-1.64-4.172-3.275-8.344-4.914-12.515-.088-.295-.354-.478-.65-.517-6.858-1.288-13.719-2.566-20.578-3.854-.548-.088-1.102-.324-1.659-.21zm14.02 6.006c.002 4.834 0 9.666.001 14.498.012 3.012-.024 6.023.018 9.034.775-.001 1.552-.01 2.328.003.055-.575.016-1.153.027-1.73-.011-7.123.023-14.248-.017-21.37-.79-.124-1.572-.284-2.357-.435zm3.977.733c-.001 7.205.004 14.411-.002 21.618 2.534-2.645 5.074-5.281 7.614-7.92-.405-.46-.566-1.06-.795-1.616-1.532-3.887-3.04-7.784-4.588-11.665-.743-.14-1.486-.28-2.229-.417z" fill="#E01D2F"/></svg>