<svg width="50" height="50" viewBox="0 0 50 50" fill="none" xmlns="http://www.w3.org/2000/svg"><path d="M3.333.847c.215-.136.477-.11.72-.112h24.903c.251.003.53-.027.747.127.212.14.304.402.296.647v18.637c6.18.002 12.359-.002 18.537.002a.704.704 0 01.727.745c.003 9.165 0 18.33.002 27.496.005.214-.015.447-.158.62-.144.186-.39.26-.618.255H1.806c-.256-.004-.536.032-.761-.117-.356-.228-.402-.769-.159-1.094.145-.191.396-.262.626-.26l4.884-.072c-.005-2.452.007-4.905-.006-7.357-1.553-.136-3.027-.909-4.053-2.077a6.376 6.376 0 01-1.38-2.563c-.22-.842-.307-1.738-.114-2.594.203-.925.568-1.805.961-2.664.784-1.666 1.725-3.253 2.714-4.803a55.197 55.197 0 011.884-2.759c.11-.148.222-.31.397-.385.322-.158.753-.057.953.247 1.331 1.861 2.585 3.78 3.701 5.779.529.958 1.027 1.936 1.432 2.953.306.782.58 1.591.635 2.434.068 1.683-.61 3.365-1.778 4.571a6.431 6.431 0 01-3.876 1.938v2.866H28.53v-41.1c-8.015 0-16.03-.001-24.044.002v19.718c.004.207-.044.427-.194.579-.302.309-.888.284-1.143-.073-.108-.146-.134-.332-.134-.509V1.514c-.007-.255.09-.534.319-.667zM30 21.618c-.002 8.725-.001 17.45 0 26.176 1.617-.002 3.234 0 4.852-.001.001-4-.004-7.999.002-11.998a.69.69 0 01.687-.717c2.215-.007 4.431-.002 6.647-.003.247-.007.51.099.64.32.13.203.111.456.113.687-.002 3.903 0 7.807-.001 11.71 1.617.002 3.235 0 4.853.001V21.618H30zM3.34 30.631c-.394.816-.776 1.645-1.004 2.524-.27.983-.091 2.043.318 2.96.671 1.495 2.12 2.61 3.742 2.856v-4.306c-.006-.251.092-.524.318-.656.306-.18.752-.146.988.135.136.157.168.372.165.573l-.001 4.18a5.006 5.006 0 003.18-1.874 4.836 4.836 0 001.006-3.097c-.045-.652-.271-1.274-.506-1.878-.39-.958-.86-1.88-1.358-2.786a63.135 63.135 0 00-3.057-4.924c-1.375 2.027-2.694 4.1-3.791 6.293zm32.983 5.912v11.25h5.146v-11.25h-5.146zM7.868 44.779v3.013c6.887.001 13.774.002 20.661 0V44.78c-6.887-.002-13.774-.002-20.66 0z" fill="#E01D2F"/><path d="M8.211 4.65c.077-.013.156-.016.235-.018h5.321c.252-.002.533-.02.742.146.2.145.276.4.27.638v5.716c.003.204-.05.421-.197.57-.146.153-.364.212-.569.209-1.874 0-3.748.001-5.621-.001-.391.01-.756-.332-.744-.728-.002-1.938-.002-3.875 0-5.812-.016-.337.22-.672.563-.72zm.906 1.454v4.338c1.398.002 2.795 0 4.192 0V6.106c-1.397-.004-2.794-.001-4.192-.002zm9.595-1.451c.077-.016.155-.02.233-.021h5.52c.213-.005.444.03.604.184.17.15.23.385.225.604.001 1.838-.002 3.677 0 5.516 0 .225.012.47-.118.665-.138.223-.41.32-.662.31-1.873-.001-3.747.002-5.62-.002-.387.005-.742-.336-.732-.726 0-1.938-.002-3.875 0-5.813-.015-.332.214-.662.55-.717zm.92 1.451v4.339l4.19-.001c.003-1.446 0-2.892.001-4.338h-4.191zM8.31 14.27c1.868-.013 3.736 0 5.604-.006.214-.006.446.018.615.162.184.145.254.386.25.613v5.716c.003.204-.044.42-.19.57-.144.16-.365.22-.574.218H8.4c-.24.004-.496-.092-.63-.301-.118-.17-.127-.387-.124-.587.004-1.902-.004-3.803.004-5.705a.686.686 0 01.66-.68zm.808 1.538v4.337c1.396.003 2.793 0 4.19.002v-4.34h-4.19zm9.742-1.54c1.884-.007 3.77-.002 5.654-.003.25-.01.52.085.66.306.142.208.119.471.12.71v5.467c.008.243-.07.507-.276.653-.213.166-.495.142-.749.142h-5.324c-.222.006-.458-.058-.607-.232-.137-.15-.18-.36-.177-.558v-5.467c0-.231-.02-.48.103-.688.116-.213.36-.324.596-.33zm.772 1.54v4.339c1.397-.002 2.793 0 4.19 0 .003-1.447 0-2.893.001-4.34h-4.191zm-.768 7.945c1.883-.006 3.767-.002 5.65-.003.248-.008.514.082.654.298.153.22.125.5.126.755v5.424c.004.199-.037.41-.172.563-.147.176-.385.245-.607.239-1.874-.001-3.748.001-5.622-.002-.244.003-.498-.108-.623-.324-.128-.2-.107-.448-.109-.675.002-1.855-.004-3.71.003-5.566a.693.693 0 01.7-.71zm.769 1.469c-.003 1.445 0 2.89-.001 4.335h4.191v-4.335h-4.19zm12.857-.925c.168-.044.344-.031.517-.033h4.443c.198 0 .408.042.557.18.17.15.232.385.228.605v4.689c.003.208-.052.43-.208.578-.15.15-.368.202-.574.198H32.76a.763.763 0 01-.687-.386c-.105-.178-.088-.391-.088-.59.002-1.513-.003-3.027.002-4.541-.01-.312.187-.63.502-.7zm.965 1.438c.002 1.103 0 2.205.002 3.308 1.102.002 2.205-.001 3.308 0-.001-1.102.001-2.204-.001-3.307h-3.309zm6.751-1.437c.12-.034.246-.033.37-.034 1.546.002 3.091-.002 4.637.001.242-.002.495.099.626.31.12.183.119.41.118.62-.006 1.547.006 3.094-.006 4.64a.69.69 0 01-.685.676c-1.58.009-3.16 0-4.74.004-.22.006-.46-.04-.618-.206-.152-.149-.206-.368-.202-.575 0-1.578-.002-3.156.001-4.734-.012-.311.185-.63.499-.702zm.97 1.438v3.305c1.103.003 2.206.001 3.309.002v-3.307h-3.309zM18.622 33.28c.166-.055.345-.044.518-.045h5.371c.2-.002.414.044.563.188.17.152.225.389.22.61v5.664c.005.21-.035.436-.185.594-.148.168-.38.228-.595.223h-5.57c-.25.01-.515-.083-.657-.297-.135-.194-.127-.438-.126-.663.003-1.857-.002-3.713.002-5.57-.012-.3.159-.616.459-.703zm1.01 1.427c.002 1.445-.002 2.891.002 4.337 1.396-.001 2.793-.002 4.19 0-.001-1.446 0-2.891-.002-4.337h-4.19z" fill="#E01D2F"/></svg>