<svg width="50" height="50" viewBox="0 0 50 50" fill="none" xmlns="http://www.w3.org/2000/svg"><path d="M5.625 2.454h-.15v10.405h16.55V2.455H11.718l-6.094-.001zM23.81 14.642L3.692 14.64V.671h7.142c4.325 0 8.65-.001 12.975.002v13.969zm4.315-12.188h-.15v10.404h16.55V2.456h-9.436l-6.964-.001zm18.184 12.187c-6.706.002-13.412.001-20.117 0V.67h20.116a30504.074 30504.074 0 010 13.97zM5.475 18.705h.15c1.756-.002 3.512-.001 5.267 0 2.591 0 5.182 0 7.774-.004h.31l-.192.243c-.904 1.148-1.511 2.532-1.698 3.98l-.017.131h-.463l-11.13-4.35zm0 0v.15m0-.15v.15m0 0v10.253m0-10.253v10.253m0 0h.15m-.15 0h.15m0 0h5.793m-5.793 0h5.793m0 0l-.024-.171m.024.171l-.024-.171m0 0c-.02-.138-.044-.276-.068-.41l-.022-.128a4.68 4.68 0 01.321-2.302v-.002m-.232 2.842l.233-2.841m0 0a4.932 4.932 0 011.838-2.235h0a4.901 4.901 0 012.648-.805l-4.486 3.04zm24.616 5.2l-1.288 7.68-.886 5.284-.037.227c-.063.393-.127.79-.3 1.152m2.51-14.342l-2.51 14.342m2.51-14.342h.02l.005-.134-.024.134zm-2.51 14.342l.136.064.001-.002.001-.002-.137-.06zM21.474 16.807h0c1.82-.912 3.995-1.063 5.938-.462h.002c.532.157 1.037.4 1.545.653l.028.014.031.002c.325.016.657.014.985.011.207-.002.413-.003.612 0v0h15.59v13.97H42.73c-1.45 0-2.9 0-4.35.002h-.127l-.021.125-1.05 6.26-1.313 7.829h0c-.239 1.425-1.124 2.733-2.37 3.465h-.002a4.641 4.641 0 01-1.69.603h-.002c-.331.053-.663.052-1.008.05h-.33a22284.89 22284.89 0 00-11.083 0h-.003c-.63.013-1.25-.005-1.835-.183h-.003c-1.372-.385-2.52-1.445-3.067-2.76h0l-.001-.003c-.25-.557-.345-1.153-.444-1.77-.027-.167-.054-.336-.085-.506-.235-1.405-.47-2.81-.707-4.215-.487-2.907-.975-5.813-1.46-8.72l-.003-.016-.004-.01-.002-.018-.001-.005c-.002-.016-.005-.045-.012-.071a.22.22 0 00-.078-.125.201.201 0 00-.16-.035H3.692V16.92H21.09a.712.712 0 00.357-.101l.026-.013zm-2.556 6.069l-.03.176h.178c2.728.004 5.457.004 8.186.004h3.863l-.032-.177c-.289-1.595-1.222-3.091-2.61-3.965a.86.86 0 00-.116-.082l-.045-.027c-.023-.014-.043-.025-.064-.04-.065-.041-.085-.069-.091-.097l-.015-.065-.057-.033c-1.913-1.1-4.42-1.07-6.298.097a6.24 6.24 0 00-2.87 4.209zm12.532-4.07h-.31l.192.243a8.173 8.173 0 011.662 3.889l.018.127.129.002h.384c.231-.001.458-.002.689.008.989.048 1.96.42 2.727 1.046h.001c1.284 1.025 1.973 2.747 1.732 4.373l-.015.087-.077.458-.028.174h.176a4773.725 4773.725 0 015.54 0h.15v-.15a6353.253 6353.253 0 00.002-10.105v-.15h-4.7c-2.757 0-5.514.002-8.272-.002zM36.332 31a1188.203 1188.203 0 00.479-2.71h0v-.009c.098-.8-.16-1.628-.67-2.246a2.943 2.943 0 00-1.79-1.039 4.213 4.213 0 00-.772-.042h-4.37l-.004-.104H16.533a5.064 5.064 0 00-.774.034c-.904.1-1.732.643-2.214 1.404-.356.556-.538 1.238-.451 1.906h0v.006l.173.99c.101.578.202 1.156.301 1.734.013.245.056.489.097.723l.04.237v.001l1.091 6.508 1.092 6.508s0 0 0 0a3.34 3.34 0 00.73 1.605c.408.487.98.84 1.605.973l18.11-16.48zm-.151-.006l.335-1.897.147-.834-.482 2.731z" fill="#E01D2F" stroke="#1E1E1E" stroke-width=".3"/></svg>