<svg width="50" height="50" viewBox="0 0 50 50" fill="none" xmlns="http://www.w3.org/2000/svg"><path d="M24.93 0h.133c.42.028.778.405.769.828.004 2.215 0 4.43.001 6.646a.841.841 0 01-.454.767c-.19.105-.413.093-.623.096a19.86 19.86 0 00-9.05 2.291 20.145 20.145 0 00-6.966 6.074 19.893 19.893 0 00-3.461 8.303 19.99 19.99 0 001.367 11.269 20.12 20.12 0 005.915 7.708 19.945 19.945 0 007.619 3.762 19.95 19.95 0 0017.793-4.203 20.086 20.086 0 005.737-8.143 19.978 19.978 0 001.26-8.15 20.014 20.014 0 00-2.631-8.94 19.864 19.864 0 00-6.722-6.957 20.043 20.043 0 00-7.399-2.76c-.443-.046-.794-.483-.73-.926.042-.442.484-.8.927-.728a21.638 21.638 0 019.677 4.09 21.515 21.515 0 015.978 6.962 21.676 21.676 0 012.559 9.061c.15 2.555-.15 5.138-.9 7.587-1 3.297-2.811 6.34-5.216 8.806a21.739 21.739 0 01-8.74 5.472A21.65 21.65 0 0125.126 50h-.439a21.816 21.816 0 01-5.9-.91 21.618 21.618 0 01-7.731-4.188 21.763 21.763 0 01-6.13-8.42c-1.574-3.84-1.988-8.137-1.21-12.21a21.548 21.548 0 013.347-8.08 21.84 21.84 0 017.381-6.775 21.54 21.54 0 019.723-2.734c.001-1.952-.003-3.904.001-5.855-.01-.42.346-.794.762-.828zM3.926 9.202a.84.84 0 01.85.228c.821.823 1.645 1.644 2.466 2.466a.84.84 0 01.169.978.836.836 0 01-1.345.202c-.823-.821-1.644-1.644-2.466-2.465a.838.838 0 01-.265-.653.838.838 0 01.59-.756z" fill="#E01D2F"/><path d="M21.648 10.622a.831.831 0 011.6-.036c.06.179.036.37-.007.55a57.486 57.486 0 00-.703 3.918 59.582 59.582 0 014.925 0 58.25 58.25 0 00-.662-3.723c-.043-.223-.122-.452-.066-.68a.834.834 0 011.491-.301c.138.187.156.426.207.645.297 1.377.525 2.767.729 4.16 1.976.152 3.946.414 5.885.826a28.127 28.127 0 00-.812-2.315.842.842 0 01.157-.902.837.837 0 01.94-.196.837.837 0 01.435.442c.45 1.114.826 2.257 1.14 3.417 1.078.294 2.145.637 3.186 1.048.168.066.348.123.48.254.247.227.328.61.198.92-.158.416-.68.633-1.087.455a28.116 28.116 0 00-2.33-.816c.409 1.94.672 3.908.825 5.884a61.4 61.4 0 014.448.788.843.843 0 01.645.562.837.837 0 01-.467 1.026c-.211.098-.45.068-.667.013a58.336 58.336 0 00-3.858-.69c.07 1.64.07 3.285 0 4.926a58 58 0 003.995-.722c.194-.047.403-.072.594.003.356.12.598.505.547.878a.836.836 0 01-.646.718c-1.518.34-3.052.6-4.59.82a45.172 45.172 0 01-.828 5.885 26.57 26.57 0 002.248-.785c.227-.105.494-.147.731-.046.36.135.588.543.513.921a.836.836 0 01-.52.632c-1.114.45-2.258.824-3.417 1.14a29.726 29.726 0 01-1.146 3.428.833.833 0 11-1.519-.686c.305-.753.567-1.522.805-2.298-1.94.411-3.91.674-5.886.827-.2 1.386-.428 2.77-.722 4.14-.052.23-.076.481-.23.672a.835.835 0 01-.995.25.836.836 0 01-.474-.945c.292-1.33.523-2.67.725-4.016-1.642.07-3.287.07-4.929 0a60.93 60.93 0 00.75 4.138.835.835 0 01-.505.945.84.84 0 01-.98-.283c-.144-.19-.165-.434-.217-.659a62.036 62.036 0 01-.746-4.243 45.223 45.223 0 01-5.883-.825c.242.8.517 1.589.828 2.364a.837.837 0 01-.428 1.067.84.84 0 01-.941-.178c-.15-.15-.21-.36-.287-.55a29.852 29.852 0 01-1.032-3.15 30.02 30.02 0 01-3.204-1.055c-.192-.07-.393-.147-.524-.312a.84.84 0 01-.017-1.056.838.838 0 01.985-.247c.757.307 1.532.57 2.313.81a45.106 45.106 0 01-.827-5.885c-1.524-.223-3.047-.477-4.55-.814a.834.834 0 01-.315-1.431.836.836 0 01.757-.175c1.327.291 2.666.522 4.008.722a59.815 59.815 0 010-4.926 59.67 59.67 0 00-3.662.648c-.26.049-.53.152-.793.065a.831.831 0 01-.005-1.594c1.507-.34 3.033-.593 4.56-.817a45.24 45.24 0 01.827-5.885c-.788.241-1.567.508-2.332.817-.406.177-.928-.037-1.085-.453a.833.833 0 01.428-1.076 29.557 29.557 0 013.436-1.148c.312-1.16.689-2.304 1.14-3.419a.828.828 0 01.7-.503.835.835 0 01.829 1.164 27.71 27.71 0 00-.81 2.312 44.753 44.753 0 015.885-.826c.22-1.52.474-3.035.809-4.533zm.664 6.111a90.016 90.016 0 00-.536 6.645c2.15-.057 4.3-.057 6.448 0a90.303 90.303 0 00-.535-6.645 54.533 54.533 0 00-5.377 0zM14.467 17.8c-.483 2.022-.78 4.085-.955 6.156a94.44 94.44 0 016.594-.517c.095-2.203.264-4.403.517-6.593-2.07.175-4.133.473-6.156.954zm14.911-.954c.253 2.19.42 4.39.518 6.593 2.202.097 4.402.263 6.592.518-.174-2.071-.474-4.134-.954-6.157-2.023-.48-4.085-.78-6.156-.954zm-7.663 8.203c-.06 2.19-.06 4.38 0 6.57 2.19.061 4.381.062 6.57 0 .06-2.19.06-4.38 0-6.57-2.19-.061-4.38-.06-6.57 0zm-8.315.598a55.136 55.136 0 000 5.375 89.77 89.77 0 006.646.536 121.847 121.847 0 010-6.447c-2.221.1-4.44.268-6.646.536zm16.556-.536c.057 2.149.054 4.298 0 6.447 2.22-.102 4.438-.27 6.645-.535a55.74 55.74 0 000-5.377 88.987 88.987 0 00-6.645-.535zm-16.444 7.6c.173 2.072.474 4.134.954 6.157 2.023.48 4.085.78 6.156.954a92.57 92.57 0 01-.517-6.593 93.33 93.33 0 01-6.593-.518zm16.384.518a93.924 93.924 0 01-.517 6.592c2.07-.172 4.133-.472 6.156-.953.478-2.022.78-4.083.953-6.154-2.19.25-4.39.42-6.592.515zm-8.12.06c.1 2.22.272 4.439.537 6.646a55.4 55.4 0 005.376 0c.264-2.207.435-4.425.534-6.645-2.149.056-4.298.056-6.446 0zM.544 14.218a.853.853 0 01.706.057c1.096.55 2.193 1.097 3.29 1.646a.837.837 0 01.456.827.834.834 0 01-.65.73.857.857 0 01-.593-.086L.468 15.748A.862.862 0 010 15.092v-.178a.85.85 0 01.544-.696zm44.74 25.988a.847.847 0 01.81-.167c1.09.279 2.18.551 3.27.831a.851.851 0 01.636.722v.16c-.037.477-.53.854-1 .742-1.009-.25-2.015-.512-3.024-.765-.276-.07-.589-.117-.775-.355a.838.838 0 01.083-1.168zM43.04 44.22a.833.833 0 01.88.19c.831.827 1.658 1.657 2.488 2.486.2.19.297.48.246.753a.84.84 0 01-.626.661.838.838 0 01-.795-.232l-2.32-2.32c-.173-.165-.357-.346-.396-.594a.838.838 0 01.522-.944z" fill="#E01D2F"/></svg>