<svg width="50" height="50" viewBox="0 0 50 50" fill="none" xmlns="http://www.w3.org/2000/svg"><path d="M34.298 0h9.55c.374.054.69.393.682.778.004 1.303 0 2.606.001 3.91.782 0 1.563-.003 2.345.001.3-.007.585.185.709.456.086.176.07.376.072.566-.002 2.263 0 4.526 0 6.789.538.003 1.077-.007 1.616.004.366.013.665.32.727.67v36.138a.816.816 0 01-.703.688H.686A.831.831 0 010 49.325V35.06c.053-.379.394-.694.781-.684 3.906-.002 7.812 0 11.718-.002.002-4.427-.002-8.855.002-13.283a.778.778 0 01.778-.777c4.948-.004 9.897 0 14.846-.002 0-2.344-.002-4.689.002-7.033a.774.774 0 01.727-.775c.538-.012 1.076 0 1.614-.005.002-2.344-.002-4.69.002-7.035a.778.778 0 01.728-.773c.798-.01 1.597 0 2.395-.004.002-1.302-.002-2.604.002-3.906-.012-.393.317-.743.703-.781zm.858 1.563V5.27c0 .163.009.333-.056.487a.784.784 0 01-.724.491c-.781.003-1.563 0-2.345.001l.001 6.932c-.002.114-.002.232-.04.342a.785.785 0 01-.74.537c-.52.004-1.043 0-1.564.002 0 11.458-.002 22.916 0 34.374h5.468c0-2.344-.002-4.689.001-7.034a.776.776 0 01.453-.706c.178-.088.38-.072.572-.073h5.764c.174.003.357-.015.522.053a.789.789 0 01.5.728c.003.782 0 1.563 0 2.345h-1.562v-1.563l-1.561.001c-.002 2.083 0 4.166-.001 6.25.52-.002 1.04 0 1.561 0 .002-1.043 0-2.084.001-3.126l1.563.001v3.124h5.468c0-11.458.002-22.916-.001-34.374h-1.367c-.174 0-.356.009-.515-.07a.784.784 0 01-.46-.71c-.002-2.344 0-4.688 0-7.033-.782 0-1.565.002-2.346-.001-.413.008-.79-.363-.778-.777-.003-1.303 0-2.606-.001-3.91h-7.813zM14.063 21.875v26.56c1.563.002 3.124 0 4.687.002 0-1.824-.002-3.648.001-5.472a.78.78 0 01.776-.778c.977-.003 1.955.002 2.932-.002.162.002.33-.009.483.056a.787.787 0 01.494.725c.003 1.824.001 3.647.002 5.47h4.687V21.875H14.063zm-12.5 14.061v12.5h3.125c0-1.824-.002-3.648 0-5.473a.78.78 0 01.491-.72c.169-.072.355-.056.534-.057H8.5c.468-.057.914.36.875.833v5.417H12.5v-12.5H1.562zm35.156 6.251v6.25h1.562v-6.25H36.72zM6.25 43.75v4.687c.521.002 1.042-.001 1.563 0V43.75H6.25zm14.063 0v4.688c.52-.002 1.041 0 1.562-.002V43.75h-1.563z" fill="#E01D2F"/><path d="M36.719 3.125h1.562c.002.521-.001 1.042.001 1.563-.52-.002-1.042.001-1.563 0V3.125zm3.124-.001c.52.002 1.042 0 1.563.001v1.562h-1.562c-.002-.521 0-1.042-.001-1.563zm-6.249 4.689c.52-.002 1.042 0 1.563-.001-.002 1.563 0 3.125 0 4.688h-1.564V7.813zm3.125 0h1.562c.001 1.562-.001 3.125.001 4.688-.521-.002-1.042 0-1.563-.001V7.813zm3.125 0h1.562V12.5h-1.562V7.811zm3.124-.001c.52.002 1.042-.001 1.563 0V12.5c-.52.002-1.041 0-1.562.002l-.001-4.69zm-10.937 7.813h1.563v9.376c-.52-.003-1.041 0-1.562-.001v-9.375zm3.124-.001c.521.002 1.042 0 1.563.001V25h-1.562v-9.376zm3.126.001h1.563V25H38.28v-9.375zm3.125 0c.521-.002 1.042.001 1.563 0V25c-.521.002-1.042-.001-1.563 0v-9.375zm3.126.001c.52-.002 1.04 0 1.562-.001V25H44.53v-9.374zm-28.907 8.593h1.563v7.031h-1.563v-7.03zm3.124-.001c.521.002 1.042 0 1.563 0v7.032H18.75c0-2.344.001-4.688-.001-7.032zm3.126.001h1.563v7.032c-.52-.003-1.041 0-1.562-.001v-7.031zm3.125 0c.52-.002 1.042 0 1.563 0v7.031H25v-7.031zm7.032 3.906h1.562V37.5H32.03v-9.375zm3.124 0h1.563v9.376c-.52-.002-1.041 0-1.562-.001v-9.375zm3.124-.001c.521.003 1.042 0 1.563.001V37.5h-1.562v-9.376zm3.126.001h1.563v9.374c-.521.002-1.042 0-1.563.001v-9.375zm3.125 0c.521-.002 1.042.001 1.563 0V37.5H44.53v-9.375zm-28.906 4.688c.52-.002 1.041 0 1.562 0v7.03c-.52.002-1.041 0-1.562 0v-7.03zm3.125 0c.521-.001 1.041-.002 1.563 0v7.03c-.521.002-1.043 0-1.563.001v-7.032zm3.124-.001c.521.002 1.042-.001 1.563 0v7.032h-1.562l-.001-7.032zm3.126.001h1.562l.001 7.032c-.52-.003-1.042 0-1.563-.001v-7.032zM3.125 37.5h1.562v3.124c-.52.002-1.041 0-1.562.001V37.5zm3.125 0h1.563v3.125H6.25V37.5zm3.124-.001c.521.002 1.042 0 1.563.001v3.125H9.376c0-1.042.001-2.084-.001-3.126z" fill="#E01D2F"/></svg>