<svg width="51" height="67" viewBox="0 0 51 67" fill="none" xmlns="http://www.w3.org/2000/svg"><path d="M41.217 0h.069c.658 1.173 1.137 2.438 1.615 3.695 2.12 5.788 2.956 12.184 1.575 18.254-.98 3.847-2.88 7.445-5.568 10.348-.313-.807-.625-1.616-.946-2.42 1.343-1.896 2.526-3.92 3.407-6.08-.966 1.986-2.162 3.855-3.638 5.493-2.905-7.371-5.796-14.75-8.704-22.12-2.38-.006-4.76-.005-7.14-.003-3.824 9.461-7.65 18.918-11.47 28.379-2.335-1.143-4.414-2.866-5.829-5.079-1.98-3.059-2.74-6.771-2.782-10.384-.072-3.573.479-7.126 1.287-10.594C4.47 8.466 5.942 7.584 7.463 6.8c5.641-2.907 11.765-4.735 17.94-6.06.915-.277 1.822.141 2.71.33 5.065 1.346 10.165 2.773 14.855 5.179-.432-2.121-.966-4.232-1.75-6.25z" fill="#C20000"/><path d="M21.322 26.184c1.367-3.605 2.678-7.233 4.08-10.823 1.39 3.594 2.707 7.218 4.076 10.82-2.719 0-5.438-.004-8.156.003zM1.194 29.97c1.21 1.678 2.52 3.295 4.097 4.635 3.4 3.024 7.78 4.966 12.325 5.148 5.447.248 10.72-1.818 15.304-4.648.195.529.39 1.058.58 1.59-4.46 2.672-9.519 4.684-14.776 4.552-3.938-.01-7.793-1.434-10.972-3.753-2.645-2.035-4.96-4.563-6.558-7.524z" fill="#C20000"/><path d="M19.317 31.687c4.135.056 8.271.062 12.405.126l.612 1.681c-4.616 2.532-9.915 3.474-15.115 3.632.7-1.813 1.397-3.626 2.098-5.439zM2.87 55.972c.548 0 1.095.002 1.64.006.99 2.517 1.99 5.031 2.98 7.548-.565.002-1.133.002-1.698.002l-.642-1.689H2.23c-.203.563-.405 1.124-.604 1.687L0 63.53v-.086c.953-2.493 1.921-4.978 2.87-7.472zm.798 1.928c-.337.867-.647 1.745-.957 2.622.646.003 1.291.003 1.938.005-.319-.878-.626-1.762-.98-2.627zm4.635-1.93c1.435.057 2.893-.123 4.312.149 1.845.551 1.932 3.573.202 4.333-.946.377-1.992.235-2.986.259-.004.938-.002 1.877-.002 2.817H8.3c.002-2.519-.004-5.039.004-7.558zm1.528 1.314a374.18 374.18 0 000 2.119c.708-.028 1.465.08 2.13-.21.693-.353.617-1.5-.107-1.77-.654-.193-1.35-.12-2.023-.139zm7.194-1.242c1.139-.348 2.533-.276 3.442.581.436.38.642.937.853 1.462-.503.13-1.009.25-1.513.372-.202-.36-.36-.78-.727-1.006-.846-.582-2.144-.133-2.48.84-.334.949-.317 2.03.011 2.977.325.907 1.482 1.346 2.313.867.521-.281.71-.878.918-1.394.5.152 1 .312 1.493.488-.27.755-.614 1.563-1.335 1.982-1.384.818-3.39.59-4.409-.719-.845-1.043-.921-2.5-.717-3.78.187-1.19 1.001-2.288 2.151-2.67zm5.6-.07c1.855.002 3.71.002 5.564 0v1.316h-4.034v1.642h3.756v1.314h-3.756c0 .655 0 1.31-.003 1.965 1.392.01 2.785.003 4.178.005-.002.438-.002.877-.006 1.316-1.899-.004-3.8 0-5.699-.002 0-2.519-.002-5.037 0-7.556zm7.005-.002l1.526.004v2.956h2.923c-.002-.985-.002-1.97-.002-2.956.51-.002 1.02-.002 1.53 0v7.554h-1.53c0-1.094-.002-2.188.002-3.282-.976-.004-1.95-.002-2.923-.002v3.284h-1.53c.002-2.519-.004-5.037.004-7.558zm9.697.002c.544.002 1.087.002 1.63-.002.994 2.52 1.994 5.04 2.986 7.56-.567-.002-1.133-.002-1.698-.002-.216-.563-.427-1.128-.642-1.69-.974.003-1.947 0-2.92 0-.207.564-.41 1.127-.615 1.692l-1.65-.004c.97-2.519 1.938-5.037 2.91-7.554zm-.161 4.555c.647-.002 1.293-.002 1.94-.005-.328-.879-.644-1.76-.97-2.64-.358.87-.657 1.76-.97 2.645zm6.272-4.555c1.745.002 3.49.002 5.237 0v7.556H49.1v-6.24c-.727 0-1.452 0-2.179-.002-.007 1.428.01 2.855-.004 4.28-.03.633-.05 1.406-.62 1.806-.615.344-1.35.167-2.017.192-.002-.42-.002-.837-.002-1.256.267-.002.536-.002.805 0l.303-.229c.114-2.032.02-4.072.053-6.107z" fill="#C20000"/><path d="M.886 66.412H.875a.534.534 0 01-.126.039.94.94 0 01-.173.013c-.384 0-.576-.194-.576-.583v-.492h.34v.506c0 .18.09.27.268.27.066 0 .12-.003.163-.01a.547.547 0 00.115-.031v-.735h.34v1.584h-.34v-.56zm.685.561v-1.584h1.066v.306h-.725v.325h.621v.304h-.62v.342h.724v.307H1.57zM3.566 67a.783.783 0 01-.287-.05.586.586 0 01-.218-.152.715.715 0 01-.139-.252 1.148 1.148 0 01-.049-.354c0-.133.016-.251.05-.354a.733.733 0 01.138-.26.575.575 0 01.218-.162.726.726 0 01.287-.054c.145 0 .265.03.359.09a.61.61 0 01.226.282l-.293.154a.342.342 0 00-.1-.159c-.043-.04-.107-.061-.192-.061-.1 0-.18.033-.242.1-.06.065-.09.16-.09.286v.254c0 .125.03.221.09.288a.317.317 0 00.242.098c.084 0 .15-.023.2-.069a.424.424 0 00.112-.167l.278.163a.708.708 0 01-.231.281.617.617 0 01-.359.098zm1.481-1.305v1.278h-.341v-1.278h-.424v-.306h1.189v.306h-.424zm1.594.629h-.596v.649h-.341v-1.584h.34v.63h.597v-.63h.341v1.584h-.34v-.65zM7.955 67a.74.74 0 01-.283-.052.574.574 0 01-.218-.154.737.737 0 01-.139-.257 1.17 1.17 0 01-.049-.356c0-.135.017-.253.05-.354a.712.712 0 01.138-.257.564.564 0 01.218-.156.74.74 0 01.283-.052.74.74 0 01.282.052.564.564 0 01.218.156.71.71 0 01.139.257c.033.101.049.22.049.354 0 .134-.016.253-.05.356a.737.737 0 01-.138.256.574.574 0 01-.218.155.74.74 0 01-.282.052zm0-.306a.295.295 0 00.24-.103.438.438 0 00.087-.292v-.236a.438.438 0 00-.087-.293.295.295 0 00-.24-.102.302.302 0 00-.243.102.445.445 0 00-.085.293v.236c0 .127.029.224.085.292a.302.302 0 00.243.103zM9.56 67a.783.783 0 01-.287-.05.586.586 0 01-.218-.152.715.715 0 01-.139-.252 1.149 1.149 0 01-.049-.354c0-.133.016-.251.05-.354a.733.733 0 01.138-.26.575.575 0 01.218-.162.726.726 0 01.287-.054c.145 0 .265.03.359.09a.61.61 0 01.226.282l-.294.154a.342.342 0 00-.098-.159c-.044-.04-.108-.061-.193-.061-.1 0-.181.033-.242.1-.06.065-.09.16-.09.286v.254c0 .125.03.221.09.288a.317.317 0 00.242.098c.084 0 .15-.023.2-.069a.424.424 0 00.112-.167l.278.163a.708.708 0 01-.231.281.617.617 0 01-.36.098zm1.48-1.305v1.278h-.34v-1.278h-.424v-.306h1.189v.306h-.424zm.658-.306h.34v.572h.422c.074 0 .14.013.198.038a.445.445 0 01.245.263c.022.063.033.13.033.205a.604.604 0 01-.034.206.448.448 0 01-.442.3h-.762v-1.584zm.722 1.284a.17.17 0 00.119-.038.153.153 0 00.045-.118v-.1c0-.052-.015-.09-.045-.116a.165.165 0 00-.12-.04h-.38v.412h.38zm1.92.327a.74.74 0 01-.282-.052.574.574 0 01-.218-.154.737.737 0 01-.139-.257 1.17 1.17 0 01-.049-.356c0-.135.017-.253.05-.354a.712.712 0 01.138-.257.563.563 0 01.218-.156.74.74 0 01.283-.052.74.74 0 01.282.052.564.564 0 01.218.156.71.71 0 01.139.257c.032.101.049.22.049.354 0 .134-.017.253-.05.356a.737.737 0 01-.138.256.574.574 0 01-.218.155.74.74 0 01-.282.052zm0-.306a.295.295 0 00.24-.103.438.438 0 00.088-.292v-.236a.438.438 0 00-.087-.293.295.295 0 00-.24-.102.302.302 0 00-.243.102.446.446 0 00-.085.293v.236c0 .127.028.224.085.292.059.069.14.103.242.103zm1.57-.999v1.278h-.342v-1.278h-.424v-.306h1.189v.306h-.424zm.656-.306h.76c.13 0 .231.037.303.11.073.075.11.173.11.296 0 .06-.008.112-.025.154a.278.278 0 01-.063.105.24.24 0 01-.091.06.379.379 0 01-.112.021v.014a.365.365 0 01.23.086.376.376 0 01.121.286.5.5 0 01-.114.32.406.406 0 01-.128.098.381.381 0 01-.161.034h-.83v-1.584zm.341 1.293h.392a.15.15 0 00.106-.036.14.14 0 00.04-.107v-.077c0-.045-.013-.08-.04-.104a.141.141 0 00-.106-.039h-.392v.363zm0-.644h.339c.045 0 .08-.013.105-.039a.145.145 0 00.038-.106v-.069a.145.145 0 00-.038-.106.141.141 0 00-.105-.039h-.339v.359zm1.155.935v-1.584h1.065v.306h-.724v.325h.62v.304h-.62v.342h.724v.307h-1.065zm2.015-1.278v1.278h-.341v-1.278h-.424v-.306H20.5v.306h-.423zM21.31 67a.783.783 0 01-.288-.05.585.585 0 01-.217-.152.715.715 0 01-.14-.252 1.148 1.148 0 01-.049-.354c0-.133.017-.251.05-.354a.733.733 0 01.139-.26.574.574 0 01.217-.162.726.726 0 01.287-.054c.145 0 .265.03.359.09a.61.61 0 01.226.282l-.293.154a.342.342 0 00-.099-.159c-.043-.04-.108-.061-.193-.061-.1 0-.18.033-.242.1-.06.065-.09.16-.09.286v.254c0 .125.03.221.09.288a.317.317 0 00.242.098c.084 0 .15-.023.2-.069a.424.424 0 00.112-.167l.278.163a.708.708 0 01-.231.281.617.617 0 01-.359.098zm1.48-1.305v1.278h-.34v-1.278h-.425v-.306h1.189v.306h-.424zm.657-.306h.76c.13 0 .231.037.303.11.073.075.11.173.11.296 0 .06-.008.112-.025.154a.279.279 0 01-.063.105.241.241 0 01-.091.06.379.379 0 01-.113.021v.014a.364.364 0 01.231.086.376.376 0 01.121.286.502.502 0 01-.114.32.404.404 0 01-.128.098.381.381 0 01-.161.034h-.83v-1.584zm.34 1.293h.393a.15.15 0 00.106-.036.14.14 0 00.04-.107v-.077c0-.045-.013-.08-.04-.104a.141.141 0 00-.106-.039h-.392v.363zm0-.644h.34a.14.14 0 00.105-.039.145.145 0 00.038-.106v-.069a.145.145 0 00-.038-.106.141.141 0 00-.105-.039h-.34v.359zm1.156.935v-1.584h1.065v.306h-.724v.325h.62v.304h-.62v.342h.724v.307h-1.065zm2.299-.649h-.596v.649h-.341v-1.584h.34v.63h.597v-.63h.341v1.584h-.34v-.65zm1.623 0h-.596v.649h-.341v-1.584h.34v.63h.597v-.63h.34v1.584h-.34v-.65zm1.313.676a.74.74 0 01-.282-.052.574.574 0 01-.218-.154.736.736 0 01-.139-.257 1.17 1.17 0 01-.05-.356c0-.135.017-.253.05-.354a.71.71 0 01.14-.257.564.564 0 01.217-.156.74.74 0 01.282-.052.74.74 0 01.283.052.563.563 0 01.218.156.71.71 0 01.139.257c.032.101.049.22.049.354 0 .134-.017.253-.05.356a.737.737 0 01-.139.256.574.574 0 01-.217.155.74.74 0 01-.283.052zm0-.306a.295.295 0 00.24-.103.438.438 0 00.088-.292v-.236a.438.438 0 00-.088-.293.295.295 0 00-.24-.102.302.302 0 00-.242.102.446.446 0 00-.085.293v.236c0 .127.028.224.085.292a.302.302 0 00.242.103zm1.606.306a.783.783 0 01-.287-.05.586.586 0 01-.218-.152.715.715 0 01-.139-.252 1.148 1.148 0 01-.05-.354c0-.133.017-.251.05-.354a.733.733 0 01.14-.26.575.575 0 01.217-.162.726.726 0 01.287-.054c.145 0 .264.03.358.09.095.06.17.153.227.282l-.294.154a.343.343 0 00-.098-.159c-.044-.04-.108-.061-.193-.061-.1 0-.181.033-.242.1-.06.065-.09.16-.09.286v.254c0 .125.03.221.09.288a.317.317 0 00.242.098c.083 0 .15-.023.2-.069a.424.424 0 00.111-.167l.279.163a.708.708 0 01-.232.281.617.617 0 01-.358.098zm1.481-1.305v1.278h-.341v-1.278H32.5v-.306h1.188v.306h-.423zm.657-.306h.34v.572h.422a.49.49 0 01.197.038.445.445 0 01.245.263c.022.063.033.13.033.205a.604.604 0 01-.033.206.448.448 0 01-.442.3h-.762v-1.584zm.722 1.284a.17.17 0 00.119-.038c.03-.028.044-.067.044-.118v-.1c0-.052-.015-.09-.044-.116a.165.165 0 00-.12-.04h-.38v.412h.38zm1.292-1.284h1.245v1.584h-.34v-1.278h-.564v1.278h-.34v-1.584zM38.154 67a.74.74 0 01-.282-.052.574.574 0 01-.218-.154.738.738 0 01-.139-.257 1.17 1.17 0 01-.05-.356c0-.135.017-.253.05-.354a.712.712 0 01.14-.257.564.564 0 01.217-.156.74.74 0 01.282-.052.74.74 0 01.283.052.564.564 0 01.217.156c.06.068.106.154.14.257.032.101.049.22.049.354 0 .134-.017.253-.05.356a.738.738 0 01-.139.256.574.574 0 01-.217.155.74.74 0 01-.283.052zm0-.306a.295.295 0 00.24-.103.438.438 0 00.088-.292v-.236a.438.438 0 00-.088-.293.295.295 0 00-.24-.102.302.302 0 00-.242.102.445.445 0 00-.085.293v.236c0 .127.028.224.085.292a.302.302 0 00.242.103zm.777-.028h.187a.374.374 0 00.062-.095.687.687 0 00.045-.15 1.52 1.52 0 00.03-.218c.007-.086.01-.19.01-.31v-.504h1.106v1.584h-.34v-1.278h-.434v.245c0 .14-.005.26-.015.363-.01.102-.025.189-.043.261a.764.764 0 01-.065.18.41.41 0 01-.229.213.568.568 0 01-.197.03h-.117v-.32zm1.786.307v-1.584h1.065v.306h-.724v.325h.621v.304h-.621v.342h.724v.307h-1.065zm1.829.027a.854.854 0 01-.316-.057.72.72 0 01-.258-.177l.224-.229a.45.45 0 00.35.157.36.36 0 00.204-.048.153.153 0 00.07-.134v-.018c0-.06-.019-.104-.054-.13-.036-.027-.093-.04-.169-.04h-.271v-.304h.258c.139 0 .208-.059.208-.175v-.011c0-.11-.078-.166-.235-.166a.46.46 0 00-.334.143l-.206-.218a.694.694 0 01.237-.17.752.752 0 01.303-.061c.093 0 .176.01.249.031.073.02.135.05.186.089a.392.392 0 01.162.322.352.352 0 01-.027.143.298.298 0 01-.173.163.478.478 0 01-.126.03v.013a.472.472 0 01.13.028.319.319 0 01.191.172c.02.043.031.093.031.15a.45.45 0 01-.172.359.582.582 0 01-.2.102.881.881 0 01-.262.036zm1.835-.676h-.596v.649h-.341v-1.584h.34v.63h.597v-.63h.34v1.584h-.34v-.65zm1.313.676a.74.74 0 01-.282-.052.574.574 0 01-.218-.154.737.737 0 01-.139-.257 1.17 1.17 0 01-.05-.356c0-.135.017-.253.05-.354a.712.712 0 01.14-.257.563.563 0 01.217-.156.74.74 0 01.282-.052.74.74 0 01.283.052.564.564 0 01.217.156c.06.068.106.154.14.257.032.101.049.22.049.354 0 .134-.017.253-.05.356a.737.737 0 01-.139.256.574.574 0 01-.217.155.74.74 0 01-.283.052zm0-.306a.295.295 0 00.24-.103.438.438 0 00.088-.292v-.236a.438.438 0 00-.088-.293.295.295 0 00-.24-.102.302.302 0 00-.242.102.446.446 0 00-.085.293v.236c0 .127.028.224.085.292a.302.302 0 00.242.103zM47.3 67a.783.783 0 01-.287-.05.586.586 0 01-.218-.152.714.714 0 01-.139-.252 1.148 1.148 0 01-.05-.354c0-.133.017-.251.05-.354a.731.731 0 01.14-.26.575.575 0 01.217-.162.726.726 0 01.287-.054c.145 0 .264.03.358.09a.61.61 0 01.227.282l-.294.154a.342.342 0 00-.099-.159c-.043-.04-.107-.061-.192-.061-.1 0-.181.033-.242.1-.06.065-.09.16-.09.286v.254c0 .125.03.221.09.288a.317.317 0 00.242.098c.083 0 .15-.023.2-.069a.424.424 0 00.111-.167l.278.163a.708.708 0 01-.23.281.617.617 0 01-.36.098zm1.48-1.305v1.278h-.34v-1.278h-.424v-.306h1.188v.306h-.423zm.658-.306h.34v.572h.422a.49.49 0 01.197.038.445.445 0 01.244.263c.023.063.035.13.035.205a.604.604 0 01-.034.206.448.448 0 01-.442.3h-.762v-1.584zm.722 1.284a.17.17 0 00.119-.038c.03-.028.044-.067.044-.118v-.1c0-.052-.015-.09-.044-.116a.165.165 0 00-.12-.04h-.38v.412h.38zM21.887 7.167c2.38-.002 4.76-.003 7.14.002 2.908 7.37 5.8 14.75 8.704 22.121l.231.588c.321.803.633 1.612.946 2.419.848 2.132 1.68 4.273 2.524 6.41-2.398.005-4.796-.003-7.194.003a285.41 285.41 0 01-.738-2.016c-.19-.53-.385-1.06-.58-1.59-.195-.536-.393-1.073-.586-1.61l-.612-1.681c-4.134-.064-8.27-.07-12.405-.126-.701 1.813-1.398 3.626-2.098 5.439.075-.192-.074.191 0 0-3.646-.129-5.613-.998-6.802-1.58-.097.24.093-.244 0 0 3.82-9.461 7.646-18.918 11.47-28.379zm-.565 19.017c2.718-.007 5.437-.003 8.156-.003-1.369-3.602-2.686-7.226-4.076-10.82-1.402 3.59-2.714 7.218-4.08 10.823z" fill="#fff"/><path d="M45.692 7.396c1.017.561 2.03 1.128 3.051 1.678 1.068 5.456 1.28 11.13.167 16.596-1.231 6.222-4.31 12.017-8.637 16.594-4.09 4.313-9.119 7.734-14.628 9.897a46.35 46.35 0 01-7.265-3.959c-4.17-2.831-7.963-6.365-10.628-10.708 3.179 2.32 7.034 3.744 10.971 3.753 5.258.132 10.317-1.88 14.778-4.553.242.674.49 1.344.738 2.016 2.398-.006 4.795.002 7.193-.004-.843-2.136-1.676-4.277-2.524-6.409 2.688-2.903 4.588-6.501 5.568-10.348.714-1.768 1.092-3.654 1.381-5.533.412-2.988.421-6.054-.165-9.02z" fill="#1A2E46"/></svg>