<svg width="21" height="20" viewBox="0 0 21 20" fill="none" xmlns="http://www.w3.org/2000/svg"><g clip-path="url(#clip0_55_552)"><path d="M10.702 0c-5.523 0-10 4.477-10 10s4.477 10 10 10 10-4.477 10-10-4.477-10-10-10z" fill="#40B3E0"/><path d="M15.568 5.752l-1.787 9.006s-.25.624-.936.324l-4.122-3.16-1.499-.724-2.523-.85s-.387-.137-.424-.436c-.038-.3.437-.463.437-.463l10.03-3.934s.824-.362.824.237" fill="#FBFBFB"/><path d="M8.406 14.656s-.12-.01-.27-.486c-.15-.474-.912-2.972-.912-2.972l6.058-3.847s.35-.212.337 0c0 0 .063.038-.125.212-.187.175-4.759 4.284-4.759 4.284" fill="#D2E5F1"/><path d="M10.303 13.134l-1.63 1.486s-.127.097-.267.037l.312-2.761" fill="#B5CFE4"/></g><defs><clipPath id="clip0_55_552"><path fill="#fff" transform="translate(.702)" d="M0 0h20v20H0z"/></clipPath></defs></svg>