<svg width="20" height="20" viewBox="0 0 20 20" fill="none" xmlns="http://www.w3.org/2000/svg"><g clip-path="url(#clip0_55_549)"><path d="M5.208 17.13l.322.16a8.392 8.392 0 004.348 1.186c4.724 0 8.59-3.878 8.59-8.619 0-2.262-.913-4.47-2.524-6.086a8.513 8.513 0 00-6.066-2.532c-4.724 0-8.59 3.878-8.536 8.672 0 1.616.483 3.178 1.289 4.525l.214.323-.858 3.178 3.22-.808z" fill="#00E676"/><path d="M16.857 2.909C15.03 1.023 12.508 0 9.93 0 4.456 0 .054 4.47.107 9.911c0 1.724.484 3.394 1.289 4.902L0 19.93l5.207-1.346c1.45.808 3.06 1.185 4.67 1.185 5.423 0 9.825-4.471 9.825-9.912 0-2.639-1.02-5.117-2.845-6.948zM9.93 18.099c-1.449 0-2.898-.377-4.133-1.131l-.322-.162-3.114.808.805-3.07-.214-.324C.59 10.396 1.718 5.333 5.583 2.963c3.865-2.37 8.858-1.24 11.22 2.639 2.362 3.878 1.235 8.888-2.63 11.258-1.235.808-2.738 1.239-4.242 1.239zm4.725-5.98l-.591-.268s-.859-.378-1.396-.647c-.053 0-.107-.054-.16-.054a.773.773 0 00-.377.108s-.053.054-.805.916a.295.295 0 01-.268.161h-.054a.407.407 0 01-.215-.107l-.268-.108c-.59-.27-1.127-.593-1.557-1.024-.107-.107-.268-.215-.376-.323-.375-.377-.751-.808-1.02-1.293l-.053-.107c-.054-.054-.054-.108-.108-.216 0-.107 0-.215.054-.27 0 0 .215-.268.376-.43.107-.108.16-.27.268-.377.108-.162.161-.377.108-.539-.054-.27-.698-1.723-.86-2.047-.107-.161-.214-.215-.375-.269h-.59c-.108 0-.215.054-.323.054l-.053.054c-.108.054-.215.161-.323.215-.107.108-.16.216-.268.323a2.753 2.753 0 00-.59 1.67c0 .431.107.862.268 1.24l.054.16A8.972 8.972 0 007.14 11.69l.215.215c.16.162.322.27.43.431a9.581 9.581 0 003.864 2.047c.161.054.376.054.537.108h.537c.268 0 .59-.108.805-.216.161-.107.269-.107.376-.215l.107-.108c.108-.107.215-.161.323-.27.107-.107.214-.214.268-.322.107-.216.16-.485.215-.754v-.377s-.054-.054-.162-.108z" fill="#FBFBFB"/></g><defs><clipPath id="clip0_55_549"><path fill="#fff" d="M0 0h19.701v20H0z"/></clipPath></defs></svg>